<svg width="24" height="22" viewBox="0 0 24 22" fill="none" xmlns="http://www.w3.org/2000/svg">
<path d="M2.53029 2.94729L2.53028 2.9473C1.30248 4.17488 0.583274 5.82066 0.516441 7.55558C0.449679 9.28864 1.0388 10.9831 2.16614 12.3009L10.5708 20.7348L10.6857 20.8403C11.0711 21.1711 11.5672 21.3444 12.0749 21.3253C12.5833 21.3063 13.0657 21.0958 13.4254 20.736C13.4254 20.736 13.4255 20.7359 13.4256 20.7358M2.53029 2.94729L13.5316 20.8419L13.4256 20.7358M2.53029 2.94729C3.76026 1.7171 5.40995 0.997565 7.14834 0.933064C8.88674 0.868562 10.5852 1.46386 11.903 2.59952L12.0008 2.68388L12.0988 2.59956C13.4153 1.46579 15.1116 0.871161 16.8479 0.934704C18.5842 0.998246 20.2324 1.71527 21.4626 2.94224C22.6928 4.16921 23.4141 5.81556 23.4822 7.55169C23.5502 9.28595 22.9614 10.9819 21.8335 12.3009M2.53029 2.94729L21.8335 12.3009M13.4256 20.7358L21.8335 12.3009M13.4256 20.7358L21.8335 12.3009M2.42422 2.84123C3.68095 1.58427 5.36655 0.849072 7.14278 0.783167C8.91901 0.717261 10.6545 1.32552 12.0009 2.4859L2.42422 2.84123ZM3.85285 4.26421L3.85281 4.26417L3.84997 4.26701C2.93681 5.18043 2.41042 6.41039 2.38007 7.70162C2.34971 8.99285 2.81771 10.2462 3.68694 11.2015L3.68691 11.2015L3.68903 11.2038L3.8472 11.3706L3.84716 11.3706L3.84999 11.3735L11.8937 19.4172L11.9998 19.5233L12.1059 19.4172L17.8508 13.6712L17.9568 13.5651L17.8508 13.4591L14.0212 9.6295L13.9151 9.52343L13.8091 9.6295L12.6607 10.7778L12.6607 10.7779C12.3729 11.0658 12.0312 11.2943 11.6551 11.4501C11.279 11.606 10.8758 11.6863 10.4687 11.6864C9.64646 11.6866 8.85781 11.3602 8.27626 10.7789C7.69471 10.1976 7.36789 9.40912 7.36769 8.58688C7.3675 7.76463 7.69395 6.97599 8.27523 6.39444L10.5524 4.11619L10.671 3.99754L10.5399 3.89291C9.60575 3.1474 8.43654 2.75915 7.24202 2.79783C6.04751 2.83651 4.90587 3.29958 4.02193 4.10395L4.02191 4.10393L4.01968 4.10604L3.85285 4.26421ZM19.1705 12.1383L19.2764 12.2442L19.3825 12.1384L20.1495 11.3736L20.1496 11.3735C21.078 10.4457 21.6066 9.19144 21.6223 7.87896C21.6379 6.56648 21.1394 5.29997 20.2334 4.35029C19.3273 3.4006 18.0856 2.84314 16.7738 2.79711C15.4621 2.75109 14.1844 3.22015 13.214 4.104L13.2139 4.10397L13.2114 4.10638L13.0457 4.26454L13.0456 4.26451L13.0432 4.267L9.59602 7.71413C9.59601 7.71414 9.596 7.71415 9.59599 7.71416C9.38223 7.92779 9.25435 8.21246 9.23662 8.51415C9.21889 8.81585 9.31255 9.11356 9.49982 9.35076L9.49959 9.35094L9.50587 9.35794L9.59037 9.45219L9.5902 9.45234L9.59595 9.45809C9.80958 9.67187 10.0943 9.79976 10.396 9.81749C10.6977 9.83523 10.9954 9.74157 11.2326 9.55429L11.2328 9.55453L11.2398 9.54825L11.334 9.46375L11.3342 9.46391L11.34 9.45813L13.2553 7.54281C13.4303 7.36784 13.6676 7.26954 13.9151 7.26954C14.1626 7.26954 14.4 7.36784 14.575 7.54281L19.1705 12.1383Z" fill="#7A7979" stroke="white" stroke-width="0.3"/>
</svg>
