<svg width="15" height="20" viewBox="0 0 15 20" fill="none" xmlns="http://www.w3.org/2000/svg">
<path d="M8.66732 11.5V6C8.66732 4.93913 8.31613 3.92172 7.69101 3.17157C7.06589 2.42143 6.21804 2 5.33398 2C4.44993 2 3.60208 2.42143 2.97696 3.17157C2.35184 3.92172 2.00065 4.93913 2.00065 6V11.5C2.00065 13.2239 2.57133 14.8772 3.58716 16.0962C4.60298 17.3152 5.98073 18 7.41732 18C8.85391 18 10.2317 17.3152 11.2475 16.0962C12.2633 14.8772 12.834 13.2239 12.834 11.5V2H14.5007V11.5C14.5007 13.7543 13.7544 15.9163 12.426 17.5104C11.0976 19.1045 9.29593 20 7.41732 20C5.5387 20 3.73703 19.1045 2.40864 17.5104C1.08026 15.9163 0.333984 13.7543 0.333984 11.5V6C0.333984 4.4087 0.860769 2.88258 1.79845 1.75736C2.73613 0.632141 4.0079 0 5.33398 0C6.66007 0 7.93184 0.632141 8.86952 1.75736C9.8072 2.88258 10.334 4.4087 10.334 6V11.5C10.334 12.4283 10.0267 13.3185 9.47971 13.9749C8.93273 14.6313 8.19087 15 7.41732 15C6.64377 15 5.9019 14.6313 5.35492 13.9749C4.80794 13.3185 4.50065 12.4283 4.50065 11.5V6H6.16732V11.5C6.16732 11.8978 6.29901 12.2794 6.53343 12.5607C6.76785 12.842 7.0858 13 7.41732 13C7.74884 13 8.06678 12.842 8.3012 12.5607C8.53562 12.2794 8.66732 11.8978 8.66732 11.5Z" fill="#7A7979"/>
</svg>
