<svg width="23" height="22" viewBox="0 0 23 22" fill="none" xmlns="http://www.w3.org/2000/svg">
<path d="M17.2608 8.46484V0H5.51421V8.46484C5.51421 10.9433 7.10043 13.1252 9.42974 13.9356V18.1328H7.62598C6.46177 18.1328 5.51421 19.0687 5.51421 20.2185V22H17.2608V20.2185C17.2608 19.0687 16.3132 18.1328 15.149 18.1328H13.3453V13.9356C15.6746 13.1252 17.2608 10.9429 17.2608 8.46484ZM11.3875 8.40125L8.90419 9.66023L9.37884 6.99102L7.35059 5.08449L10.1519 4.69219L11.3875 2.2782L12.6231 4.69219L15.4244 5.08449L13.3962 6.99102L13.8708 9.66023L11.3875 8.40125ZM11.7656 5.87383L11.3875 5.13562L11.0094 5.87383L10.2037 5.98684L10.7858 6.53383L10.644 7.32918L11.3875 6.95234L12.131 7.32918L11.9892 6.53383L12.5713 5.98684L11.7656 5.87383Z" fill="black"/>
<path d="M22.525 1.375V5.88672C22.525 7.11335 22.0308 8.24897 21.1763 9.08832V1.375H22.525Z" fill="black"/>
<path d="M1.59868 1.375V9.08832C0.745749 8.25047 0.25 7.11545 0.25 5.88672V1.375H1.59868Z" fill="black"/>
<path d="M19.8711 1.375V16.4661L17.9086 14.5277L15.9556 16.4166V13.9352C17.5745 12.6139 18.566 10.621 18.566 8.46484V1.375H19.8711Z" fill="black"/>
<path d="M6.81939 13.9352V16.4661L4.85684 14.5277L2.90386 16.4166V1.375H4.20903V8.46484C4.20903 10.621 5.20053 12.6139 6.81939 13.9352Z" fill="black"/>
</svg>
