<svg width="22" height="22" viewBox="0 0 22 22" fill="none" xmlns="http://www.w3.org/2000/svg">
<path d="M11 0C8.82441 0 6.69767 0.645139 4.88873 1.85383C3.07979 3.06253 1.66989 4.78049 0.83733 6.79048C0.00476617 8.80047 -0.213071 11.0122 0.211367 13.146C0.635804 15.2798 1.68345 17.2398 3.22183 18.7782C4.76021 20.3166 6.72022 21.3642 8.85401 21.7886C10.9878 22.2131 13.1995 21.9952 15.2095 21.1627C17.2195 20.3301 18.9375 18.9202 20.1462 17.1113C21.3549 15.3023 22 13.1756 22 11C21.9966 8.08367 20.8365 5.28778 18.7744 3.22563C16.7122 1.16347 13.9163 0.00344047 11 0ZM2.00001 11C1.99921 8.95917 2.69607 6.97938 3.975 5.389L16.611 18.025C15.2885 19.085 13.6933 19.7496 12.0094 19.942C10.3254 20.1344 8.6214 19.8468 7.0939 19.1123C5.56639 18.3779 4.27765 17.2266 3.37635 15.7912C2.47505 14.3558 1.99792 12.6949 2.00001 11ZM18.025 16.611L5.389 3.975C7.11623 2.59041 9.29363 1.89184 11.504 2.01317C13.7144 2.13449 15.8022 3.06716 17.3675 4.63247C18.9328 6.19779 19.8655 8.28565 19.9868 10.496C20.1082 12.7064 19.4096 14.8838 18.025 16.611Z" fill="#363636"/>
</svg>
