<svg width="21" height="22" viewBox="0 0 21 22" fill="none" xmlns="http://www.w3.org/2000/svg">
<path d="M9.83924 12.5803V9.0233H8.60303C8.71496 10.695 9.23723 12.0133 9.83924 12.5803Z" fill="black"/>
<path d="M11.1064 9.0233V12.5803C11.7084 12.0133 12.2306 10.695 12.3426 9.0233H11.1064Z" fill="black"/>
<path d="M11.1064 4.17727V7.73425H12.3426C12.2306 6.06254 11.7084 4.74423 11.1064 4.17727Z" fill="black"/>
<path d="M9.83924 7.73425V4.17727C9.23723 4.74423 8.71496 6.06254 8.60303 7.73425H9.83924Z" fill="black"/>
<path d="M13.6073 7.73426H14.8437C14.658 6.43112 13.9379 5.30527 12.9005 4.61107C13.2902 5.46159 13.5396 6.52814 13.6073 7.73426Z" fill="black"/>
<path d="M10.4728 0C5.93144 0 2.23652 3.75885 2.23652 8.37877C2.23652 13.0699 5.98724 16.7575 10.4728 16.7575C14.9557 16.7575 18.7091 13.071 18.7091 8.37877C18.7091 3.75885 15.0141 0 10.4728 0ZM10.4728 14.1795C7.32853 14.1795 4.77076 11.5774 4.77076 8.37877C4.77076 5.1801 7.32853 2.57808 10.4728 2.57808C13.6171 2.57808 16.1748 5.1801 16.1748 8.37877C16.1748 11.5774 13.6171 14.1795 10.4728 14.1795Z" fill="black"/>
<path d="M13.6073 9.0233C13.5396 10.2294 13.2902 11.296 12.9005 12.1465C13.9379 11.4523 14.658 10.3264 14.8437 9.0233H13.6073Z" fill="black"/>
<path d="M7.33832 7.73426C7.40599 6.52814 7.6554 5.46159 8.04512 4.61107C7.00769 5.30527 6.28759 6.43112 6.10191 7.73426H7.33832Z" fill="black"/>
<path d="M7.33832 9.0233H6.10191C6.28759 10.3264 7.00769 11.4523 8.04512 12.1465C7.6554 11.296 7.40599 10.2294 7.33832 9.0233Z" fill="black"/>
<path d="M3.8654 15.4781L1.07052 18.3214C0.889235 18.5058 0.834792 18.7827 0.933162 19.0238C1.0309 19.2649 1.26232 19.4216 1.51844 19.4216H4.92818L6.02018 21.6435C6.11855 21.843 6.31158 21.9771 6.52999 21.9972C6.73868 22.0177 6.95785 21.9267 7.09364 21.7416L9.79138 18.0824C7.62068 17.9461 5.60013 17.135 3.8654 15.4781Z" fill="black"/>
<path d="M17.0796 15.4776C15.3954 17.0889 13.3979 17.9417 11.1543 18.0825L13.8519 21.7416C13.988 21.9271 14.2075 22.0176 14.4156 21.9971C14.634 21.977 14.827 21.8429 14.9254 21.6434L16.0174 19.4216H19.4271C19.6832 19.4216 19.9147 19.2649 20.0124 19.0238C20.1108 18.7827 20.0563 18.5058 19.875 18.3213L17.0796 15.4776Z" fill="black"/>
</svg>
