<svg width="21" height="20" viewBox="0 0 21 20" fill="none" xmlns="http://www.w3.org/2000/svg">
<path d="M11.2568 1.55844L1.98394 0.166772C1.55363 0.100106 1.11488 0.216772 0.78582 0.491773C0.456758 0.775106 0.262695 1.18344 0.262695 1.60844V19.1668C0.262695 19.6251 0.642383 20.0001 1.10645 20.0001H3.84863V15.6251C3.84863 14.8168 4.50676 14.1668 5.32519 14.1668H7.43457C8.25301 14.1668 8.91113 14.8168 8.91113 15.6251V20.0001H12.4971V3.00011C12.4971 2.28344 11.9739 1.67511 11.2568 1.55844ZM4.90332 12.2918H3.63769C3.28838 12.2918 3.00488 12.0118 3.00488 11.6668C3.00488 11.3218 3.28838 11.0418 3.63769 11.0418H4.90332C5.25263 11.0418 5.53613 11.3218 5.53613 11.6668C5.53613 12.0118 5.25263 12.2918 4.90332 12.2918ZM4.90332 9.79177H3.63769C3.28838 9.79177 3.00488 9.51178 3.00488 9.16677C3.00488 8.82177 3.28838 8.54177 3.63769 8.54177H4.90332C5.25263 8.54177 5.53613 8.82177 5.53613 9.16677C5.53613 9.51178 5.25263 9.79177 4.90332 9.79177ZM4.90332 7.29177H3.63769C3.28838 7.29177 3.00488 7.01177 3.00488 6.66677C3.00488 6.32177 3.28838 6.04177 3.63769 6.04177H4.90332C5.25263 6.04177 5.53613 6.32177 5.53613 6.66677C5.53613 7.01177 5.25263 7.29177 4.90332 7.29177ZM4.90332 4.79177H3.63769C3.28838 4.79177 3.00488 4.51177 3.00488 4.16677C3.00488 3.82177 3.28838 3.54177 3.63769 3.54177H4.90332C5.25263 3.54177 5.53613 3.82177 5.53613 4.16677C5.53613 4.51177 5.25263 4.79177 4.90332 4.79177ZM9.12207 12.2918H7.85644C7.50713 12.2918 7.22363 12.0118 7.22363 11.6668C7.22363 11.3218 7.50713 11.0418 7.85644 11.0418H9.12207C9.47138 11.0418 9.75488 11.3218 9.75488 11.6668C9.75488 12.0118 9.47138 12.2918 9.12207 12.2918ZM9.12207 9.79177H7.85644C7.50713 9.79177 7.22363 9.51178 7.22363 9.16677C7.22363 8.82177 7.50713 8.54177 7.85644 8.54177H9.12207C9.47138 8.54177 9.75488 8.82177 9.75488 9.16677C9.75488 9.51178 9.47138 9.79177 9.12207 9.79177ZM9.12207 7.29177H7.85644C7.50713 7.29177 7.22363 7.01177 7.22363 6.66677C7.22363 6.32177 7.50713 6.04177 7.85644 6.04177H9.12207C9.47138 6.04177 9.75488 6.32177 9.75488 6.66677C9.75488 7.01177 9.47138 7.29177 9.12207 7.29177ZM9.12207 4.79177H7.85644C7.50713 4.79177 7.22363 4.51177 7.22363 4.16677C7.22363 3.82177 7.50713 3.54177 7.85644 3.54177H9.12207C9.47138 3.54177 9.75488 3.82177 9.75488 4.16677C9.75488 4.51177 9.47138 4.79177 9.12207 4.79177Z" fill="black"/>
<path d="M19.3483 9.0351L13.3408 7.7926V20.0001H19.0361C19.8503 20.0001 20.5127 19.3459 20.5127 18.5418V10.4601C20.5127 9.77177 20.0377 9.18594 19.3483 9.0351ZM17.3486 17.5001H16.083C15.7337 17.5001 15.4502 17.2201 15.4502 16.8751C15.4502 16.5301 15.7337 16.2501 16.083 16.2501H17.3486C17.6979 16.2501 17.9814 16.5301 17.9814 16.8751C17.9814 17.2201 17.6979 17.5001 17.3486 17.5001ZM17.3486 15.0001H16.083C15.7337 15.0001 15.4502 14.7201 15.4502 14.3751C15.4502 14.0301 15.7337 13.7501 16.083 13.7501H17.3486C17.6979 13.7501 17.9814 14.0301 17.9814 14.3751C17.9814 14.7201 17.6979 15.0001 17.3486 15.0001ZM17.3486 12.5001H16.083C15.7337 12.5001 15.4502 12.2201 15.4502 11.8751C15.4502 11.5301 15.7337 11.2501 16.083 11.2501H17.3486C17.6979 11.2501 17.9814 11.5301 17.9814 11.8751C17.9814 12.2201 17.6979 12.5001 17.3486 12.5001Z" fill="black"/>
</svg>
