<svg width="22" height="22" viewBox="0 0 22 22" fill="none" xmlns="http://www.w3.org/2000/svg">
<path d="M21.2764 2.8781C21.2764 1.28854 20.0302 0 18.4929 0H2.78343C1.24616 0 0 1.28854 0 2.8781V19.1218C0 20.7115 1.24616 22 2.78343 22H18.4928C20.0302 22 21.2764 20.7115 21.2764 19.1219V2.8781ZM4.77586 17.9645C4.31487 18.0924 3.89301 17.6562 4.01666 17.1795L4.78112 14.2332L7.62518 17.174L4.77586 17.9645ZM17.0584 7.24971L8.64118 15.9533L5.81017 13.026L14.2274 4.32253C14.6266 3.90973 15.2737 3.90973 15.6729 4.32253L17.0584 5.75513C17.4575 6.16781 17.4575 6.83691 17.0584 7.24971Z" fill="white"/>
</svg>
