<svg width="70" height="70" viewBox="0 0 70 70" fill="none" xmlns="http://www.w3.org/2000/svg">
<path d="M13.5538 15.7886C13.5538 14.4558 12.9672 13.256 12.0377 12.4371C12.9672 11.6181 13.5538 10.4183 13.5538 9.08547C13.5538 6.62094 11.5495 4.6167 9.08498 4.6167H4.61621V20.2574H9.08498C11.5495 20.2574 13.5538 18.2532 13.5538 15.7886ZM9.08498 18.023H6.8506V13.5542H9.08498C10.3172 13.5542 11.3194 14.5564 11.3194 15.7886C11.3194 17.0209 10.3172 18.023 9.08498 18.023ZM9.08498 11.3199H6.8506V6.85109H9.08498C10.3172 6.85109 11.3194 7.85321 11.3194 9.08547C11.3194 10.3177 10.3172 11.3199 9.08498 11.3199Z" fill="#FEBD17"/>
<path d="M20.2569 20.2574C22.7214 20.2574 24.7256 18.2532 24.7256 15.7886V4.6167H22.4912V15.7886C22.4912 17.0209 21.4891 18.023 20.2569 18.023C19.0246 18.023 18.0225 17.0209 18.0225 15.7886V4.6167H15.7881V15.7886C15.7881 18.2532 17.7923 20.2574 20.2569 20.2574Z" fill="#FEBD17"/>
<path d="M31.4289 20.2575H33.6632V13.818L38.0147 5.1162L36.0149 4.11743L32.5461 11.0563L29.0772 4.11743L27.0774 5.1162L31.4289 13.818V20.2575Z" fill="#FEBD17"/>
<path d="M69.4134 52.826V47.0702H67.1791V22.4919H60.4759V47.0702H58.2415V26.9607H51.5384V47.0702H49.304V31.4295H42.6008V47.0702H41.7484L40.62 38.7963C40.3932 37.1439 38.9655 35.8983 37.2986 35.8983H32.5461C31.6847 35.8983 30.906 36.2345 30.3117 36.7697C29.7173 36.2334 28.9387 35.8983 28.0773 35.8983C27.636 35.8983 27.2171 35.9888 26.8305 36.144C26.4451 34.7196 25.1536 33.6639 23.6085 33.6639C22.7472 33.6639 21.9685 34.0001 21.3741 34.5353C20.7798 33.999 20.0011 33.6639 19.1397 33.6639C18.7465 33.6639 18.3734 33.7443 18.0226 33.8694V24.7263H39.2492C41.0971 24.7263 42.6008 23.2226 42.6008 21.3747V3.49965C42.6008 1.65181 41.0971 0.148071 39.2492 0.148071H3.49904C1.6512 0.148071 0.147461 1.65181 0.147461 3.49965V21.3747C0.147461 23.2226 1.6512 24.7263 3.49904 24.7263H11.3194V44.8514C11.3194 45.3598 11.2021 45.8692 10.9775 46.325L10.0402 41.6384C9.36766 38.2857 6.39928 35.8513 2.97955 35.8513C1.41883 35.8513 0.147461 37.1216 0.147461 38.6834C0.147461 39.2443 0.311688 39.7872 0.623385 40.2542L1.77298 41.978C2.19863 42.6171 2.47346 43.3566 2.56842 44.1186L3.34152 50.3C3.46888 51.33 3.7951 52.3087 4.27661 53.1444L7.96781 60.7335V62.7109H5.73343V69.4141H30.3117V62.7109H28.0773V60.8485L29.8648 58.4656C30.8736 57.1205 31.4289 55.4547 31.4289 53.7734V42.3959C31.7797 42.521 32.1528 42.6014 32.5461 42.6014H38.8839L41.3484 60.6776C39.4961 61.2228 38.132 62.9187 38.132 64.9453C38.132 67.4098 40.1363 69.4141 42.6008 69.4141C45.0653 69.4141 47.0696 67.4098 47.0696 64.9453C47.0696 64.1275 46.8327 63.3712 46.4484 62.7109H61.0982C60.7127 63.3712 60.4759 64.1275 60.4759 64.9453C60.4759 67.4098 62.4801 69.4141 64.9447 69.4141C67.4092 69.4141 69.4134 67.4098 69.4134 64.9453C69.4134 62.4808 67.4092 60.4765 64.9447 60.4765H43.5761L43.2376 57.9941L66.3266 56.1675C68.0572 56.0301 69.4134 54.5632 69.4134 52.826ZM3.49904 22.4919C2.88235 22.4919 2.38185 21.9903 2.38185 21.3747V3.49965C2.38185 2.88408 2.88235 2.38246 3.49904 2.38246H39.2492C39.8659 2.38246 40.3664 2.88408 40.3664 3.49965V21.3747C40.3664 21.9903 39.8659 22.4919 39.2492 22.4919H18.0226C18.0226 20.6441 16.5188 19.1404 14.671 19.1404C12.8231 19.1404 11.3194 20.6441 11.3194 22.4919H3.49904ZM28.0773 67.1797H7.96781V64.9453H28.0773V67.1797ZM29.1945 53.7734C29.1945 54.9743 28.7979 56.1653 28.0773 57.1249L25.8429 60.1045V62.7109H10.2022V60.2196L6.25181 52.102C5.88313 51.4585 5.65076 50.7592 5.55915 50.0241L4.78493 43.8415C4.64752 42.7388 4.24979 41.6652 3.63199 40.7391L2.48239 39.0152C2.41648 38.9169 2.38185 38.8018 2.38185 38.6834C2.38185 38.3538 2.64997 38.0857 2.97955 38.0857C5.33794 38.0857 7.38576 39.7637 7.84939 42.0775L9.2861 49.2577H12.0098L12.9639 47.3495C13.3493 46.5775 13.5538 45.7128 13.5538 44.8514V22.4919C13.5538 21.8764 14.0543 21.3747 14.671 21.3747C15.2877 21.3747 15.7882 21.8764 15.7882 22.4919V37.0155V41.4842H18.0226V37.0155C18.0226 36.3999 18.5231 35.8983 19.1397 35.8983C19.7564 35.8983 20.2569 36.3999 20.2569 37.0155V41.4842H22.4913V37.0155C22.4913 36.3999 22.9918 35.8983 23.6085 35.8983C24.2252 35.8983 24.7257 36.3999 24.7257 37.0155V39.2498V41.4842H26.9601V39.2498C26.9601 38.6343 27.4606 38.1326 28.0773 38.1326C28.694 38.1326 29.1945 38.6343 29.1945 39.2498V53.7734ZM32.5461 40.367C31.9294 40.367 31.4289 39.8654 31.4289 39.2498C31.4289 38.6343 31.9294 38.1326 32.5461 38.1326H37.2986C37.855 38.1326 38.3309 38.5482 38.4057 39.099L38.5789 40.367H32.5461ZM64.9447 62.7109C66.1769 62.7109 67.1791 63.713 67.1791 64.9453C67.1791 66.1776 66.1769 67.1797 64.9447 67.1797C63.7124 67.1797 62.7103 66.1776 62.7103 64.9453C62.7103 63.713 63.7124 62.7109 64.9447 62.7109ZM62.7103 24.7263H64.9447V47.0702H62.7103V24.7263ZM53.7727 29.1951H56.0071V47.0702H53.7727V29.1951ZM44.8352 33.6639H47.0696V47.0702H44.8352V33.6639ZM44.8352 64.9453C44.8352 66.1776 43.8331 67.1797 42.6008 67.1797C41.3685 67.1797 40.3664 66.1776 40.3664 64.9453C40.3664 63.713 41.3685 62.7109 42.6008 62.7109C43.8331 62.7109 44.8352 63.713 44.8352 64.9453ZM42.9348 55.7765L42.0534 49.3046H67.1791V52.826C67.1791 53.4047 66.7277 53.894 66.1501 53.9398L42.9348 55.7765Z" fill="#FEBD17"/>
</svg>
