<svg width="32" height="28" viewBox="0 0 32 28" fill="none" xmlns="http://www.w3.org/2000/svg">
<path d="M16 17.7333C18.3564 17.7333 20.2667 16.0619 20.2667 14C20.2667 11.9381 18.3564 10.2667 16 10.2667C13.6436 10.2667 11.7333 11.9381 11.7333 14C11.7333 16.0619 13.6436 17.7333 16 17.7333Z" fill="#FAFAFA"/>
<path d="M12 2.33333L9.56 4.66667H5.33333C3.86667 4.66667 2.66667 5.71667 2.66667 7V21C2.66667 22.2833 3.86667 23.3333 5.33333 23.3333H26.6667C28.1333 23.3333 29.3333 22.2833 29.3333 21V7C29.3333 5.71667 28.1333 4.66667 26.6667 4.66667H22.44L20 2.33333H12ZM16 19.8333C12.32 19.8333 9.33333 17.22 9.33333 14C9.33333 10.78 12.32 8.16667 16 8.16667C19.68 8.16667 22.6667 10.78 22.6667 14C22.6667 17.22 19.68 19.8333 16 19.8333Z" fill="#FAFAFA"/>
</svg>
