<svg width="24" height="24" viewBox="0 0 24 24" fill="none" xmlns="http://www.w3.org/2000/svg">
<mask id="path-1-outside-1_950_1205" maskUnits="userSpaceOnUse" x="-0.813477" y="-0.81543" width="25" height="25" fill="black">
<rect fill="white" x="-0.813477" y="-0.81543" width="25" height="25"/>
<path d="M12.8371 13.2247L11.4524 15.6231C11.2612 15.9543 11.3747 16.3777 11.7058 16.5689L12.7131 17.1504C12.7007 17.2844 12.6946 17.4136 12.6946 17.5395C12.6946 17.6654 12.7007 17.7946 12.7131 17.9286L11.7058 18.5101C11.3747 18.7013 11.2612 19.1247 11.4524 19.4559L12.8371 21.8543C13.0283 22.1854 13.4517 22.2989 13.7829 22.1077L14.8045 21.5179C15.0145 21.6631 15.2349 21.7908 15.4641 21.9003V23.1246C15.4641 23.5069 15.7741 23.8169 16.1565 23.8169H18.9259C19.3083 23.8169 19.6183 23.5069 19.6183 23.1246V21.9048C19.8681 21.7903 20.1035 21.6595 20.3194 21.5153L21.3456 22.1078C21.6735 22.297 22.0925 22.188 22.2864 21.8629L23.7173 19.4645C23.8131 19.3039 23.8399 19.1114 23.7915 18.9307C23.7432 18.7501 23.6238 18.5967 23.4606 18.5054L22.4161 17.9215C22.428 17.79 22.4339 17.6632 22.4339 17.5395C22.4339 17.4158 22.428 17.289 22.4161 17.1576L23.4606 16.5736C23.6238 16.4824 23.7432 16.329 23.7915 16.1484C23.8399 15.9677 23.8131 15.7752 23.7173 15.6146L22.2864 13.2162C22.0925 12.8911 21.6735 12.7821 21.3456 12.9713L20.3194 13.5638C20.1035 13.4196 19.8681 13.2888 19.6183 13.1742V12.0007C19.6183 11.6183 19.3083 11.3083 18.9259 11.3083H16.1565C15.7741 11.3083 15.4641 11.6183 15.4641 12.0007V13.1786C15.2349 13.2881 15.0146 13.4158 14.8045 13.561L13.7829 12.9713C13.4517 12.7801 13.0283 12.8936 12.8371 13.2247ZM15.308 14.9185C15.6311 14.6429 15.9946 14.4321 16.3883 14.2921C16.6644 14.194 16.8488 13.9328 16.8488 13.6397V12.693H18.2335V13.6397C18.2335 13.9327 18.4179 14.194 18.694 14.2921C19.1277 14.4463 19.5278 14.6688 19.8205 14.9185C20.0436 15.1088 20.3622 15.138 20.6161 14.9914L21.4469 14.5118L22.1633 15.7125L21.3275 16.1797C21.0687 16.3244 20.9307 16.618 20.9845 16.9096C21.0286 17.149 21.0491 17.3491 21.0491 17.5396C21.0491 17.7301 21.0286 17.9302 20.9845 18.1695C20.9307 18.4612 21.0687 18.7547 21.3275 18.8994L22.1633 19.3667L21.4469 20.5674L20.6161 20.0877C20.3622 19.9412 20.0435 19.9704 19.8205 20.1606C19.5278 20.4103 19.1277 20.6328 18.694 20.787C18.418 20.8852 18.2335 21.1464 18.2335 21.4394V22.4322H16.8488V21.4393C16.8488 21.1464 16.6644 20.8851 16.3883 20.7869C15.9945 20.6469 15.631 20.4362 15.308 20.1605C15.0849 19.9703 14.7663 19.9411 14.5124 20.0877L13.6901 20.5624L12.9978 19.3632L13.8093 18.8946C14.0632 18.7481 14.1972 18.4577 14.144 18.1695C14.0999 17.9302 14.0794 17.73 14.0794 17.5395C14.0794 17.349 14.0999 17.1489 14.144 16.9096C14.1972 16.6214 14.0631 16.331 13.8093 16.1844L12.9978 15.7159L13.6901 14.5167L14.5124 14.9914C14.7663 15.138 15.085 15.1088 15.308 14.9185Z"/>
<path d="M17.5421 19.6167C18.6874 19.6167 19.6192 18.6849 19.6192 17.5396C19.6192 16.3943 18.6874 15.4625 17.5421 15.4625C16.3968 15.4625 15.465 16.3943 15.465 17.5396C15.465 18.6849 16.3968 19.6167 17.5421 19.6167ZM17.5421 16.8472C17.9238 16.8472 18.2344 17.1578 18.2344 17.5396C18.2344 17.9214 17.9238 18.232 17.5421 18.232C17.1603 18.232 16.8497 17.9214 16.8497 17.5396C16.8497 17.1578 17.1603 16.8472 17.5421 16.8472Z"/>
<path d="M2.95592 8.53905H4.34064V12.0009C4.34064 12.3832 4.65063 12.6932 5.033 12.6932C5.41537 12.6932 5.72536 12.3832 5.72536 12.0009V8.80561L13.1696 11.2733C13.3788 11.3426 13.6109 11.3088 13.7927 11.1775C13.973 11.0473 14.0798 10.8385 14.0798 10.6161V0.876926C14.0798 0.653986 13.9724 0.444662 13.7913 0.314591C13.6102 0.184519 13.3776 0.149625 13.1663 0.220845L4.9195 3.00017H2.95597C1.4289 3.00017 0.186523 4.24254 0.186523 5.76961C0.186523 7.29668 1.42885 8.53905 2.95592 8.53905ZM5.72536 4.18983L12.6951 1.84088V9.65721L5.72536 7.3468V4.18983ZM2.95592 4.38489H4.34064V7.15433H2.95592C2.19238 7.15433 1.5712 6.53314 1.5712 5.76961C1.5712 5.00607 2.19238 4.38489 2.95592 4.38489Z"/>
<path d="M16.3254 4.36422L21.8643 2.9795C22.2353 2.88677 22.4608 2.51086 22.3681 2.1399C22.2753 1.76893 21.8994 1.54336 21.5285 1.63614L15.9896 3.02086C15.6186 3.11359 15.3931 3.48949 15.4858 3.86046C15.5789 4.233 15.9559 4.45663 16.3254 4.36422Z"/>
<path d="M15.9896 8.51827L21.5285 9.90299C21.8985 9.99544 22.2751 9.77116 22.3681 9.39923C22.4608 9.02826 22.2353 8.65236 21.8643 8.55963L16.3254 7.17491C15.9545 7.08218 15.5785 7.3077 15.4858 7.67867C15.3931 8.04963 15.6187 8.42554 15.9896 8.51827Z"/>
</mask>
<path d="M12.8371 13.2247L11.4524 15.6231C11.2612 15.9543 11.3747 16.3777 11.7058 16.5689L12.7131 17.1504C12.7007 17.2844 12.6946 17.4136 12.6946 17.5395C12.6946 17.6654 12.7007 17.7946 12.7131 17.9286L11.7058 18.5101C11.3747 18.7013 11.2612 19.1247 11.4524 19.4559L12.8371 21.8543C13.0283 22.1854 13.4517 22.2989 13.7829 22.1077L14.8045 21.5179C15.0145 21.6631 15.2349 21.7908 15.4641 21.9003V23.1246C15.4641 23.5069 15.7741 23.8169 16.1565 23.8169H18.9259C19.3083 23.8169 19.6183 23.5069 19.6183 23.1246V21.9048C19.8681 21.7903 20.1035 21.6595 20.3194 21.5153L21.3456 22.1078C21.6735 22.297 22.0925 22.188 22.2864 21.8629L23.7173 19.4645C23.8131 19.3039 23.8399 19.1114 23.7915 18.9307C23.7432 18.7501 23.6238 18.5967 23.4606 18.5054L22.4161 17.9215C22.428 17.79 22.4339 17.6632 22.4339 17.5395C22.4339 17.4158 22.428 17.289 22.4161 17.1576L23.4606 16.5736C23.6238 16.4824 23.7432 16.329 23.7915 16.1484C23.8399 15.9677 23.8131 15.7752 23.7173 15.6146L22.2864 13.2162C22.0925 12.8911 21.6735 12.7821 21.3456 12.9713L20.3194 13.5638C20.1035 13.4196 19.8681 13.2888 19.6183 13.1742V12.0007C19.6183 11.6183 19.3083 11.3083 18.9259 11.3083H16.1565C15.7741 11.3083 15.4641 11.6183 15.4641 12.0007V13.1786C15.2349 13.2881 15.0146 13.4158 14.8045 13.561L13.7829 12.9713C13.4517 12.7801 13.0283 12.8936 12.8371 13.2247ZM15.308 14.9185C15.6311 14.6429 15.9946 14.4321 16.3883 14.2921C16.6644 14.194 16.8488 13.9328 16.8488 13.6397V12.693H18.2335V13.6397C18.2335 13.9327 18.4179 14.194 18.694 14.2921C19.1277 14.4463 19.5278 14.6688 19.8205 14.9185C20.0436 15.1088 20.3622 15.138 20.6161 14.9914L21.4469 14.5118L22.1633 15.7125L21.3275 16.1797C21.0687 16.3244 20.9307 16.618 20.9845 16.9096C21.0286 17.149 21.0491 17.3491 21.0491 17.5396C21.0491 17.7301 21.0286 17.9302 20.9845 18.1695C20.9307 18.4612 21.0687 18.7547 21.3275 18.8994L22.1633 19.3667L21.4469 20.5674L20.6161 20.0877C20.3622 19.9412 20.0435 19.9704 19.8205 20.1606C19.5278 20.4103 19.1277 20.6328 18.694 20.787C18.418 20.8852 18.2335 21.1464 18.2335 21.4394V22.4322H16.8488V21.4393C16.8488 21.1464 16.6644 20.8851 16.3883 20.7869C15.9945 20.6469 15.631 20.4362 15.308 20.1605C15.0849 19.9703 14.7663 19.9411 14.5124 20.0877L13.6901 20.5624L12.9978 19.3632L13.8093 18.8946C14.0632 18.7481 14.1972 18.4577 14.144 18.1695C14.0999 17.9302 14.0794 17.73 14.0794 17.5395C14.0794 17.349 14.0999 17.1489 14.144 16.9096C14.1972 16.6214 14.0631 16.331 13.8093 16.1844L12.9978 15.7159L13.6901 14.5167L14.5124 14.9914C14.7663 15.138 15.085 15.1088 15.308 14.9185Z" fill="#7A7979"/>
<path d="M17.5421 19.6167C18.6874 19.6167 19.6192 18.6849 19.6192 17.5396C19.6192 16.3943 18.6874 15.4625 17.5421 15.4625C16.3968 15.4625 15.465 16.3943 15.465 17.5396C15.465 18.6849 16.3968 19.6167 17.5421 19.6167ZM17.5421 16.8472C17.9238 16.8472 18.2344 17.1578 18.2344 17.5396C18.2344 17.9214 17.9238 18.232 17.5421 18.232C17.1603 18.232 16.8497 17.9214 16.8497 17.5396C16.8497 17.1578 17.1603 16.8472 17.5421 16.8472Z" fill="#7A7979"/>
<path d="M2.95592 8.53905H4.34064V12.0009C4.34064 12.3832 4.65063 12.6932 5.033 12.6932C5.41537 12.6932 5.72536 12.3832 5.72536 12.0009V8.80561L13.1696 11.2733C13.3788 11.3426 13.6109 11.3088 13.7927 11.1775C13.973 11.0473 14.0798 10.8385 14.0798 10.6161V0.876926C14.0798 0.653986 13.9724 0.444662 13.7913 0.314591C13.6102 0.184519 13.3776 0.149625 13.1663 0.220845L4.9195 3.00017H2.95597C1.4289 3.00017 0.186523 4.24254 0.186523 5.76961C0.186523 7.29668 1.42885 8.53905 2.95592 8.53905ZM5.72536 4.18983L12.6951 1.84088V9.65721L5.72536 7.3468V4.18983ZM2.95592 4.38489H4.34064V7.15433H2.95592C2.19238 7.15433 1.5712 6.53314 1.5712 5.76961C1.5712 5.00607 2.19238 4.38489 2.95592 4.38489Z" fill="#7A7979"/>
<path d="M16.3254 4.36422L21.8643 2.9795C22.2353 2.88677 22.4608 2.51086 22.3681 2.1399C22.2753 1.76893 21.8994 1.54336 21.5285 1.63614L15.9896 3.02086C15.6186 3.11359 15.3931 3.48949 15.4858 3.86046C15.5789 4.233 15.9559 4.45663 16.3254 4.36422Z" fill="#7A7979"/>
<path d="M15.9896 8.51827L21.5285 9.90299C21.8985 9.99544 22.2751 9.77116 22.3681 9.39923C22.4608 9.02826 22.2353 8.65236 21.8643 8.55963L16.3254 7.17491C15.9545 7.08218 15.5785 7.3077 15.4858 7.67867C15.3931 8.04963 15.6187 8.42554 15.9896 8.51827Z" fill="#7A7979"/>
<path d="M12.8371 13.2247L11.4524 15.6231C11.2612 15.9543 11.3747 16.3777 11.7058 16.5689L12.7131 17.1504C12.7007 17.2844 12.6946 17.4136 12.6946 17.5395C12.6946 17.6654 12.7007 17.7946 12.7131 17.9286L11.7058 18.5101C11.3747 18.7013 11.2612 19.1247 11.4524 19.4559L12.8371 21.8543C13.0283 22.1854 13.4517 22.2989 13.7829 22.1077L14.8045 21.5179C15.0145 21.6631 15.2349 21.7908 15.4641 21.9003V23.1246C15.4641 23.5069 15.7741 23.8169 16.1565 23.8169H18.9259C19.3083 23.8169 19.6183 23.5069 19.6183 23.1246V21.9048C19.8681 21.7903 20.1035 21.6595 20.3194 21.5153L21.3456 22.1078C21.6735 22.297 22.0925 22.188 22.2864 21.8629L23.7173 19.4645C23.8131 19.3039 23.8399 19.1114 23.7915 18.9307C23.7432 18.7501 23.6238 18.5967 23.4606 18.5054L22.4161 17.9215C22.428 17.79 22.4339 17.6632 22.4339 17.5395C22.4339 17.4158 22.428 17.289 22.4161 17.1576L23.4606 16.5736C23.6238 16.4824 23.7432 16.329 23.7915 16.1484C23.8399 15.9677 23.8131 15.7752 23.7173 15.6146L22.2864 13.2162C22.0925 12.8911 21.6735 12.7821 21.3456 12.9713L20.3194 13.5638C20.1035 13.4196 19.8681 13.2888 19.6183 13.1742V12.0007C19.6183 11.6183 19.3083 11.3083 18.9259 11.3083H16.1565C15.7741 11.3083 15.4641 11.6183 15.4641 12.0007V13.1786C15.2349 13.2881 15.0146 13.4158 14.8045 13.561L13.7829 12.9713C13.4517 12.7801 13.0283 12.8936 12.8371 13.2247ZM15.308 14.9185C15.6311 14.6429 15.9946 14.4321 16.3883 14.2921C16.6644 14.194 16.8488 13.9328 16.8488 13.6397V12.693H18.2335V13.6397C18.2335 13.9327 18.4179 14.194 18.694 14.2921C19.1277 14.4463 19.5278 14.6688 19.8205 14.9185C20.0436 15.1088 20.3622 15.138 20.6161 14.9914L21.4469 14.5118L22.1633 15.7125L21.3275 16.1797C21.0687 16.3244 20.9307 16.618 20.9845 16.9096C21.0286 17.149 21.0491 17.3491 21.0491 17.5396C21.0491 17.7301 21.0286 17.9302 20.9845 18.1695C20.9307 18.4612 21.0687 18.7547 21.3275 18.8994L22.1633 19.3667L21.4469 20.5674L20.6161 20.0877C20.3622 19.9412 20.0435 19.9704 19.8205 20.1606C19.5278 20.4103 19.1277 20.6328 18.694 20.787C18.418 20.8852 18.2335 21.1464 18.2335 21.4394V22.4322H16.8488V21.4393C16.8488 21.1464 16.6644 20.8851 16.3883 20.7869C15.9945 20.6469 15.631 20.4362 15.308 20.1605C15.0849 19.9703 14.7663 19.9411 14.5124 20.0877L13.6901 20.5624L12.9978 19.3632L13.8093 18.8946C14.0632 18.7481 14.1972 18.4577 14.144 18.1695C14.0999 17.9302 14.0794 17.73 14.0794 17.5395C14.0794 17.349 14.0999 17.1489 14.144 16.9096C14.1972 16.6214 14.0631 16.331 13.8093 16.1844L12.9978 15.7159L13.6901 14.5167L14.5124 14.9914C14.7663 15.138 15.085 15.1088 15.308 14.9185Z" stroke="#7A7979" stroke-width="0.2" mask="url(#path-1-outside-1_950_1205)"/>
<path d="M17.5421 19.6167C18.6874 19.6167 19.6192 18.6849 19.6192 17.5396C19.6192 16.3943 18.6874 15.4625 17.5421 15.4625C16.3968 15.4625 15.465 16.3943 15.465 17.5396C15.465 18.6849 16.3968 19.6167 17.5421 19.6167ZM17.5421 16.8472C17.9238 16.8472 18.2344 17.1578 18.2344 17.5396C18.2344 17.9214 17.9238 18.232 17.5421 18.232C17.1603 18.232 16.8497 17.9214 16.8497 17.5396C16.8497 17.1578 17.1603 16.8472 17.5421 16.8472Z" stroke="#7A7979" stroke-width="0.2" mask="url(#path-1-outside-1_950_1205)"/>
<path d="M2.95592 8.53905H4.34064V12.0009C4.34064 12.3832 4.65063 12.6932 5.033 12.6932C5.41537 12.6932 5.72536 12.3832 5.72536 12.0009V8.80561L13.1696 11.2733C13.3788 11.3426 13.6109 11.3088 13.7927 11.1775C13.973 11.0473 14.0798 10.8385 14.0798 10.6161V0.876926C14.0798 0.653986 13.9724 0.444662 13.7913 0.314591C13.6102 0.184519 13.3776 0.149625 13.1663 0.220845L4.9195 3.00017H2.95597C1.4289 3.00017 0.186523 4.24254 0.186523 5.76961C0.186523 7.29668 1.42885 8.53905 2.95592 8.53905ZM5.72536 4.18983L12.6951 1.84088V9.65721L5.72536 7.3468V4.18983ZM2.95592 4.38489H4.34064V7.15433H2.95592C2.19238 7.15433 1.5712 6.53314 1.5712 5.76961C1.5712 5.00607 2.19238 4.38489 2.95592 4.38489Z" stroke="#7A7979" stroke-width="0.2" mask="url(#path-1-outside-1_950_1205)"/>
<path d="M16.3254 4.36422L21.8643 2.9795C22.2353 2.88677 22.4608 2.51086 22.3681 2.1399C22.2753 1.76893 21.8994 1.54336 21.5285 1.63614L15.9896 3.02086C15.6186 3.11359 15.3931 3.48949 15.4858 3.86046C15.5789 4.233 15.9559 4.45663 16.3254 4.36422Z" stroke="#7A7979" stroke-width="0.2" mask="url(#path-1-outside-1_950_1205)"/>
<path d="M15.9896 8.51827L21.5285 9.90299C21.8985 9.99544 22.2751 9.77116 22.3681 9.39923C22.4608 9.02826 22.2353 8.65236 21.8643 8.55963L16.3254 7.17491C15.9545 7.08218 15.5785 7.3077 15.4858 7.67867C15.3931 8.04963 15.6187 8.42554 15.9896 8.51827Z" stroke="#7A7979" stroke-width="0.2" mask="url(#path-1-outside-1_950_1205)"/>
</svg>
