<svg width="90" height="76" viewBox="0 0 90 76" fill="none" xmlns="http://www.w3.org/2000/svg">
<path d="M89.2998 60.8999C88.8998 56.9999 87.1998 53.7999 84.4998 52.0999C83.5998 51.4999 82.3998 51.1999 81.2998 51.3999L77.6998 51.7999C72.2998 43.1999 63.7998 39.3999 51.1998 39.7999C50.3998 39.7999 49.6998 39.5999 48.9998 39.1999C46.5998 37.6999 43.8998 36.6999 40.5998 36.2999C38.8998 36.0999 37.0998 36.5999 35.6998 37.7999C34.4998 38.7999 33.8998 40.1999 33.8998 41.7999C33.8998 43.2999 34.5998 44.6999 35.7998 45.5999C37.9998 47.2999 40.6998 48.8999 43.3998 50.1999H33.3998C28.3998 47.9999 21.0998 43.3999 12.7998 37.4999C10.4998 35.8999 7.39983 36.3999 5.69983 38.5999C5.09983 39.4999 4.69983 40.4999 4.69983 41.5999C4.69983 42.2999 4.79983 42.8999 5.09983 43.5999C3.59983 43.8999 2.29982 44.7999 1.39982 46.0999C0.399815 47.5999 0.0998274 49.3999 0.599827 51.0999C1.09983 52.7999 2.29982 54.1999 3.89982 54.8999C19.1998 61.8999 31.7998 67.0999 41.2998 70.2999C42.2998 70.5999 43.2998 70.8999 44.2998 71.0999C57.2998 73.4999 69.5998 74.8999 80.9998 75.2999C81.0998 75.2999 81.0998 75.2999 81.1998 75.2999C82.4998 75.2999 83.7998 74.7999 84.6998 73.8999C87.9998 70.9999 89.7998 65.7999 89.2998 60.8999ZM8.29981 40.4999C8.89981 39.6999 9.99981 39.4999 10.7998 40.0999C13.2998 41.8999 16.8998 44.3999 20.7998 46.8999L10.1998 44.0999L8.69983 42.9999C8.19983 42.6999 7.89982 42.0999 7.89982 41.4999C7.99981 41.1999 8.09981 40.7999 8.29981 40.4999ZM82.5998 71.5999C82.2998 71.8999 81.7998 72.0999 81.2998 72.0999C70.0998 71.6999 57.8998 70.2999 44.9998 67.9999C44.0998 67.7999 43.1998 67.5999 42.3998 67.2999C32.9998 63.9999 20.4998 58.8999 5.29981 51.9999C4.59981 51.6999 3.99981 50.9999 3.79981 50.1999C3.59981 49.3999 3.69983 48.5999 4.19983 47.8999C4.69983 47.0999 5.59983 46.6999 6.59983 46.6999C6.89983 46.6999 7.09981 46.6999 7.39982 46.7999L32.7998 53.4999C32.8998 53.4999 33.0998 53.5999 33.1998 53.5999H51.0998C51.8998 53.5999 52.4998 53.0999 52.6998 52.2999C52.8998 51.4999 52.3998 50.7999 51.6998 50.4999C46.9998 48.5999 41.5998 46.1999 37.7998 43.1999C37.1998 42.7999 37.1998 42.1999 37.0998 41.8999C37.0998 41.2999 37.2998 40.7999 37.7998 40.4999C38.4998 39.8999 39.3998 39.5999 40.1998 39.6999C42.9998 39.9999 45.2998 40.7999 47.2998 42.0999C48.4998 42.8999 49.8998 43.2999 51.3998 43.1999C63.0998 42.7999 70.7998 46.3999 75.4998 54.4999C75.7998 55.0999 76.3998 55.3999 77.0998 55.2999L81.6998 54.7999C82.0998 54.7999 82.4998 54.7999 82.7998 54.9999C84.5998 56.1999 85.7998 58.4999 86.0998 61.3999C86.4998 65.1999 85.0998 69.1999 82.5998 71.5999Z" fill="#4A1589"/>
<path d="M8.2999 40.4998C8.8999 39.6998 9.9999 39.4998 10.7999 40.0998C13.2999 41.8998 16.8999 44.3998 20.7999 46.8998L10.1999 44.0998L8.69992 42.9998C8.19992 42.6998 7.8999 42.0998 7.8999 41.4998C7.9999 41.1998 8.0999 40.7998 8.2999 40.4998Z" fill="#A15CF5"/>
<path d="M82.5997 71.5999C82.2997 71.8999 81.7997 72.0999 81.2997 72.0999C70.0997 71.6999 57.8997 70.2999 44.9997 67.9999C44.0997 67.7999 43.1997 67.5999 42.3997 67.2999C32.9997 63.9999 20.4997 58.8999 5.29969 51.9999C4.59969 51.6999 3.99969 50.9999 3.79969 50.1999C3.59969 49.3999 3.69972 48.5999 4.19972 47.8999C4.69972 47.0999 5.59971 46.6999 6.59971 46.6999C6.89971 46.6999 7.0997 46.6999 7.3997 46.7999L32.7997 53.4999C32.8997 53.4999 33.0997 53.5999 33.1997 53.5999H51.0997C51.8997 53.5999 52.4997 53.0999 52.6997 52.2999C52.8997 51.4999 52.3997 50.7999 51.6997 50.4999C46.9997 48.5999 41.5997 46.1999 37.7997 43.1999C37.1997 42.7999 37.1997 42.1999 37.0997 41.8999C37.0997 41.2999 37.2997 40.7999 37.7997 40.4999C38.4997 39.8999 39.3997 39.5999 40.1997 39.6999C42.9997 39.9999 45.2997 40.7999 47.2997 42.0999C48.4997 42.8999 49.8997 43.2999 51.3997 43.1999C63.0997 42.7999 70.7997 46.3999 75.4997 54.4999C75.7997 55.0999 76.3997 55.3999 77.0997 55.2999L81.6997 54.7999C82.0997 54.7999 82.4997 54.7999 82.7997 54.9999C84.5997 56.1999 85.7997 58.4999 86.0997 61.3999C86.4997 65.1999 85.0997 69.1999 82.5997 71.5999Z" fill="#A15CF5"/>
<path d="M26.5999 39.5C26.1999 39.5 25.7999 39.3 25.4999 39L9.69992 23.2L9.59991 23.1L8.3999 21.9001C3.3999 16.9001 3.3999 8.80005 8.3999 3.80005C13.3999 -1.19995 21.4999 -1.19995 26.4999 3.80005L26.5999 3.90005L26.6999 3.80005C31.6999 -1.19995 39.7999 -1.19995 44.7999 3.80005C49.7999 8.80005 49.7999 16.9001 44.7999 21.9001L43.5999 23.1L43.4999 23.2L27.6999 39C27.3999 39.4001 26.9999 39.5 26.5999 39.5ZM12.0999 21.1L26.5999 35.6L41.0999 21.1L41.1999 21L42.4999 19.7C46.1999 16 46.1999 9.90005 42.4999 6.20005C38.7999 2.50005 32.6999 2.50005 28.9999 6.20005L27.6999 7.50005C27.0999 8.10005 25.9999 8.10005 25.3999 7.50005L24.0999 6.20005C20.3999 2.50005 14.2999 2.50005 10.5999 6.20005C6.89991 9.90005 6.89991 16 10.5999 19.7L12.0999 21.1C11.9999 21 11.9999 21.1 12.0999 21.1Z" fill="#D67350"/>
<path d="M12.0997 21.1L26.5997 35.6L41.0997 21.1L41.1997 21L42.4997 19.7C46.1997 16 46.1997 9.90005 42.4997 6.20005C38.7997 2.50005 32.6997 2.50005 28.9997 6.20005L27.6997 7.50005C27.0997 8.10005 25.9997 8.10005 25.3997 7.50005L24.0997 6.20005C20.3997 2.50005 14.2997 2.50005 10.5997 6.20005C6.89971 9.90005 6.89971 16 10.5997 19.7L12.0997 21.1C11.9997 21 11.9997 21.1 12.0997 21.1Z" fill="#BA2D00"/>
</svg>
