<svg width="92" height="94" viewBox="0 0 92 94" fill="none" xmlns="http://www.w3.org/2000/svg">
<path d="M37.4997 18.7C36.9997 18.7 36.4997 18.5 36.1997 18.1C35.6997 17.4 35.7997 16.4 36.4997 15.8L42.4997 11.2C43.1997 10.6 44.1997 10.8 44.7997 11.5C45.2997 12.2 45.1997 13.2 44.4997 13.8L38.4997 18.4C38.1997 18.6 37.8997 18.7 37.4997 18.7Z" fill="#248C0D"/>
<path d="M30.3999 15.1001C30.1999 15.1001 29.9999 15.1001 29.7999 15.0001C28.9999 14.7001 28.4999 13.8001 28.7999 12.9001L32.7999 2.00011C33.0999 1.20011 33.9999 0.700109 34.8999 1.00011C35.6999 1.30011 36.1999 2.20011 35.8999 3.10011L31.8999 14.0001C31.6999 14.7001 31.0999 15.1001 30.3999 15.1001Z" fill="#248C0D"/>
<path d="M22.4999 12.5001C21.6999 12.5001 21.0999 12.0001 20.8999 11.2001L19.3999 3.80011C19.1999 2.90011 19.7999 2.10011 20.6999 1.90011C21.5999 1.70011 22.3999 2.30011 22.5999 3.20011L24.0999 10.6001C24.2999 11.5001 23.6999 12.3001 22.7999 12.5001C22.6999 12.5001 22.5999 12.5001 22.4999 12.5001Z" fill="#248C0D"/>
<path d="M56.6 91.7001C55.2 91.7001 53.9 91.3001 52.7 90.5001C51 89.3001 49.4 88.6001 47.7 88.3001C40.8 88.0001 36.2 85.3001 33 83.0001L5.50001 62.1001C4.10001 61.0001 3.20001 59.5001 3.00001 57.7001C2.80001 55.9001 3.30001 54.2001 4.50001 52.9001C5.20001 52.1001 6.00001 51.5001 6.90001 51.1001L2.80002 48.0001C1.30002 46.9001 0.400009 45.2001 0.200009 43.3001C9.17912e-06 41.4001 0.600015 39.6001 1.80002 38.2001C2.60002 37.3001 3.60001 36.6001 4.70001 36.2001L4.00001 35.6001C2.60001 34.5001 1.80002 32.9001 1.60002 31.1001C1.40002 29.3001 2.00001 27.6001 3.20001 26.3001C5.40001 23.7001 9.30002 23.3001 12.1 25.4001L13.2 26.3001C13.3 25.4001 13.7 24.5001 14.2 23.7001C15.1 22.3001 16.6 21.4001 18.3 21.1001C20 20.8001 21.6 21.2001 23 22.2001L50.4 42.0001L48.3 29.2001C47.8 26.3001 49.4 23.4001 52.2 22.2001C53.9 21.5001 55.8 21.5001 57.5 22.4001C59.1 23.2001 60.4 24.7001 60.9 26.4001C62.8 33.4001 65.7 38.9001 70.4 44.8001C70.5 44.9001 70.6 45.1001 70.6 45.2001C72.3 49.3001 73.2 53.3001 73.2 57.3001C73.6 58.4001 74.2 59.3001 74.8 59.9001C76 61.1001 76.7 62.7001 76.8 64.4001C77.5 77.7001 71.4 86.8001 58.8 91.4001C58.1 91.6001 57.3 91.7001 56.6 91.7001ZM9.30002 53.8001C8.40002 53.8001 7.50001 54.2001 6.90001 54.9001C6.30001 55.6001 6.10001 56.4001 6.20001 57.3001C6.30001 58.2001 6.70001 58.9001 7.40001 59.5001L34.9 80.3001C37.7 82.3001 41.7 84.7001 47.9 85.0001C48 85.0001 48.1 85.0001 48.1 85.0001C50.2 85.4001 52.4 86.3001 54.5 87.8001C55.5 88.5001 56.7 88.6001 57.7 88.2001C69 84.1001 74.2 76.3001 73.6 64.5001C73.6 63.6001 73.2 62.8001 72.6 62.2001C71.5 61.2001 70.7 59.8001 70.1 58.1001C70 57.9001 70 57.7001 70 57.5001C70 53.9001 69.3 50.3001 67.8 46.6001C62.9 40.4001 59.9 34.6001 57.8 27.2001C57.6 26.3001 57 25.6001 56.2 25.2001C55.4 24.8001 54.4 24.8001 53.6 25.1001C52.2 25.7001 51.5 27.1001 51.7 28.5001L54.4 45.2001C54.5 45.8001 54.2 46.5001 53.7 46.8001C53.1 47.1001 52.4 47.1001 51.9 46.7001L21 24.5001C20.3 24.0001 19.5 23.8001 18.8 24.0001C18 24.1001 17.3 24.6001 16.9 25.3001C16 26.6001 16.3 28.4001 17.6 29.3001L38.5 45.2001C39.2 45.7001 39.4 46.8001 38.8 47.5001C38.3 48.2001 37.2 48.4001 36.5 47.8001L10.1 27.8001C8.70002 26.8001 6.80002 27.0001 5.60002 28.3001C5.00002 29.0001 4.70002 29.8001 4.80002 30.7001C4.90002 31.6001 5.30001 32.4001 6.00001 33.0001L11.1 37.1001C11.1 37.1001 11.2 37.1001 11.2 37.2001L32.3 54.3001C33 54.9001 33.1 55.9001 32.5 56.6001C31.9 57.3001 30.9 57.4001 30.2 56.8001L30.1 56.7001L9.00001 39.7001C7.50001 38.5001 5.40002 38.7001 4.10002 40.2001C3.50002 40.9001 3.20002 41.9001 3.30002 42.9001C3.40002 43.9001 3.90001 44.8001 4.70001 45.3001L29.1 64.0001C29.8 64.5001 30 65.6001 29.4 66.3001C28.9 67.0001 27.8 67.2001 27.1 66.6001L11.2 54.5001C10.7 54.0001 10 53.8001 9.30002 53.8001Z" fill="#248C0D"/>
<path d="M9.3002 53.8002C8.4002 53.8002 7.50019 54.2002 6.90019 54.9002C6.30019 55.6002 6.10019 56.4002 6.20019 57.3002C6.30019 58.2002 6.70019 58.9002 7.40019 59.5002L34.9002 80.3002C37.7002 82.3002 41.7002 84.7002 47.9002 85.0002C48.0002 85.0002 48.1002 85.0002 48.1002 85.0002C50.2002 85.4002 52.4002 86.3002 54.5002 87.8002C55.5002 88.5002 56.7002 88.6002 57.7002 88.2002C69.0002 84.1002 74.2002 76.3002 73.6002 64.5002C73.6002 63.6002 73.2002 62.8002 72.6002 62.2002C71.5002 61.2002 70.7002 59.8002 70.1002 58.1002C70.0002 57.9002 70.0002 57.7002 70.0002 57.5002C70.0002 53.9002 69.3002 50.3002 67.8002 46.6002C62.9002 40.4002 59.9002 34.6002 57.8002 27.2002C57.6002 26.3002 57.0002 25.6002 56.2002 25.2002C55.4002 24.8002 54.4002 24.8002 53.6002 25.1002C52.2002 25.7002 51.5002 27.1002 51.7002 28.5002L54.4002 45.2002C54.5002 45.8002 54.2002 46.5002 53.7002 46.8002C53.1002 47.1002 52.4002 47.1002 51.9002 46.7002L21.0002 24.5002C20.3002 24.0002 19.5002 23.8002 18.8002 24.0002C18.0002 24.1002 17.3002 24.6002 16.9002 25.3002C16.0002 26.6002 16.3002 28.4002 17.6002 29.3002L38.5002 45.2002C39.2002 45.7002 39.4002 46.8002 38.8002 47.5002C38.3002 48.2002 37.2002 48.4002 36.5002 47.8002L10.1002 27.8002C8.7002 26.8002 6.8002 27.0002 5.6002 28.3002C5.0002 29.0002 4.7002 29.8002 4.8002 30.7002C4.9002 31.6002 5.3002 32.4002 6.0002 33.0002L11.1002 37.1002C11.1002 37.1002 11.2002 37.1002 11.2002 37.2002L32.3002 54.3002C33.0002 54.9002 33.1002 55.9002 32.5002 56.6002C31.9002 57.3002 30.9002 57.4002 30.2002 56.8002L30.1002 56.7002L9.0002 39.7002C7.5002 38.5002 5.4002 38.7002 4.1002 40.2002C3.5002 40.9002 3.2002 41.9002 3.3002 42.9002C3.4002 43.9002 3.90019 44.8002 4.70019 45.3002L29.1002 64.0002C29.8002 64.5002 30.0002 65.6002 29.4002 66.3002C28.9002 67.0002 27.8002 67.2002 27.1002 66.6002L11.2002 54.5002C10.7002 54.0002 10.0002 53.8002 9.3002 53.8002Z" fill="#64D838"/>
<path d="M70.8998 93.9001C69.4998 93.9001 68.1998 93.5001 66.9998 92.7001C65.2998 91.5001 63.6998 90.8001 61.9998 90.5001C55.0998 90.2001 50.4998 87.5001 47.2998 85.2001L19.7998 64.3001C18.3998 63.2001 17.4998 61.7001 17.2998 59.9001C17.0998 58.1001 17.5998 56.4001 18.7998 55.1001C19.4998 54.3001 20.2998 53.7001 21.1998 53.3001L17.0998 50.2001C15.5998 49.1001 14.6998 47.4001 14.4998 45.5001C14.2998 43.6001 14.8998 41.8001 16.0998 40.4001C16.8998 39.5001 17.8998 38.8001 18.9998 38.4001L18.2998 37.8001C16.8998 36.7001 16.0998 35.1001 15.8998 33.3001C15.6998 31.5001 16.2998 29.8001 17.4998 28.5001C19.6998 25.9001 23.5998 25.5001 26.3998 27.6001L27.4998 28.5001C27.5998 27.6001 27.9998 26.7001 28.4998 25.9001C29.3998 24.5001 30.8998 23.6001 32.5998 23.3001C34.2998 23.0001 35.8998 23.4001 37.2998 24.4001L64.9998 44.3001L62.8998 31.5001C62.3998 28.6001 63.9998 25.7001 66.7998 24.5001C68.4998 23.8001 70.3998 23.8001 72.0998 24.7001C73.6998 25.5001 74.9998 27.0001 75.4998 28.7001C77.3998 35.7001 80.2998 41.2001 84.9998 47.1001C85.0998 47.2001 85.1998 47.4001 85.1998 47.5001C86.8998 51.6001 87.7998 55.6001 87.7998 59.6001C88.1998 60.7001 88.7998 61.6001 89.3998 62.2001C90.5998 63.4001 91.2998 65.0001 91.3998 66.7001C92.0998 80.0001 85.9998 89.1001 73.3998 93.7001C72.3998 93.7001 71.5998 93.9001 70.8998 93.9001ZM23.5998 56.0001C22.6998 56.0001 21.7998 56.4001 21.1998 57.1001C20.5998 57.8001 20.3998 58.6001 20.4998 59.5001C20.5998 60.4001 20.9998 61.1001 21.6998 61.7001L49.1998 82.5001C51.9998 84.5001 55.9998 86.9001 62.1998 87.2001C62.2998 87.2001 62.3998 87.2001 62.3998 87.2001C64.4998 87.6001 66.6998 88.5001 68.7998 90.0001C69.7998 90.7001 70.9998 90.8001 71.9998 90.4001C83.2998 86.3001 88.4998 78.5001 87.8998 66.7001C87.8998 65.8001 87.4998 65.0001 86.8998 64.4001C85.7998 63.4001 84.9998 62.0001 84.3998 60.3001C84.2998 60.1001 84.2998 59.9001 84.2998 59.7001C84.2998 56.1001 83.5998 52.5001 82.0998 48.8001C77.1998 42.6001 74.1998 36.8001 72.0998 29.4001C71.8998 28.5001 71.2998 27.8001 70.4998 27.4001C69.6998 27.0001 68.6998 27.0001 67.8998 27.3001C66.4998 27.9001 65.7998 29.3001 65.9998 30.7001L68.6998 47.4001C68.7998 48.0001 68.4998 48.7001 67.9998 49.0001C67.3998 49.3001 66.6998 49.3001 66.1998 48.9001L35.2998 26.7001C34.5998 26.2001 33.7998 26.0001 33.0998 26.2001C32.2998 26.3001 31.5998 26.8001 31.1998 27.5001C30.2998 28.8001 30.5998 30.6001 31.8998 31.5001L52.7998 47.4001C53.4998 47.9001 53.6998 49.0001 53.0998 49.7001C52.5998 50.4001 51.4998 50.6001 50.7998 50.0001L24.3998 30.0001C22.9998 29.0001 21.0998 29.2001 19.8998 30.5001C19.2998 31.2001 18.9998 32.0001 19.0998 32.9001C19.1998 33.8001 19.5998 34.6001 20.2998 35.2001L25.3998 39.3001C25.3998 39.3001 25.4998 39.3001 25.4998 39.4001L46.5998 56.5001C47.2998 57.1001 47.3998 58.1001 46.7998 58.8001C46.1998 59.5001 45.1998 59.6001 44.4998 59.0001L44.3998 58.9001L23.2998 41.9001C21.7998 40.7001 19.6998 40.9001 18.3998 42.4001C17.7998 43.1001 17.4998 44.1001 17.5998 45.1001C17.6998 46.1001 18.1998 47.0001 18.9998 47.5001L43.4998 66.1001C44.1998 66.6001 44.3998 67.7001 43.7998 68.4001C43.2998 69.1001 42.1998 69.3001 41.4998 68.7001L25.5998 56.6001C24.9998 56.2001 24.2998 56.0001 23.5998 56.0001Z" fill="#248C0D"/>
<path d="M23.6 56.0002C22.7 56.0002 21.8 56.4002 21.2 57.1002C20.6 57.8002 20.4 58.6002 20.5 59.5002C20.6 60.4002 21 61.1002 21.7 61.7002L49.2 82.5002C52 84.5002 56 86.9002 62.2 87.2002C62.3 87.2002 62.4 87.2002 62.4 87.2002C64.5 87.6002 66.7 88.5002 68.8 90.0002C69.8 90.7002 71 90.8002 72 90.4002C83.3 86.3002 88.5 78.5002 87.9 66.7002C87.9 65.8002 87.5 65.0002 86.9 64.4002C85.8 63.4002 85 62.0002 84.4 60.3002C84.3 60.1002 84.3 59.9002 84.3 59.7002C84.3 56.1002 83.6 52.5002 82.1 48.8002C77.2 42.6002 74.2 36.8002 72.1 29.4002C71.9 28.5002 71.3 27.8002 70.5 27.4002C69.7 27.0002 68.7 27.0002 67.9 27.3002C66.5 27.9002 65.8 29.3002 66 30.7002L68.7 47.4002C68.8 48.0002 68.5 48.7002 68 49.0002C67.4 49.3002 66.7 49.3002 66.2 48.9002L35.3 26.7002C34.6 26.2002 33.8 26.0002 33.1 26.2002C32.3 26.3002 31.6 26.8002 31.2 27.5002C30.3 28.8002 30.6 30.6002 31.9 31.5002L52.8 47.4002C53.5 47.9002 53.7 49.0002 53.1 49.7002C52.6 50.4002 51.5 50.6002 50.8 50.0002L24.4 30.0002C23 29.0002 21.1 29.2002 19.9 30.5002C19.3 31.2002 19 32.0002 19.1 32.9002C19.2 33.8002 19.6 34.6002 20.3 35.2002L25.4 39.3002C25.4 39.3002 25.5 39.3002 25.5 39.4002L46.6 56.5002C47.3 57.1002 47.4 58.1002 46.8 58.8002C46.2 59.5002 45.2 59.6002 44.5 59.0002L44.4 58.9002L23.3 41.9002C21.8 40.7002 19.7 40.9002 18.4 42.4002C17.8 43.1002 17.5 44.1002 17.6 45.1002C17.7 46.1002 18.2 47.0002 19 47.5002L43.5 66.1002C44.2 66.6002 44.4 67.7002 43.8 68.4002C43.3 69.1002 42.2 69.3002 41.5 68.7002L25.6 56.6002C25 56.2002 24.3 56.0002 23.6 56.0002Z" fill="#8DF35E"/>
</svg>
