<svg width="23" height="22" viewBox="0 0 23 22" fill="none" xmlns="http://www.w3.org/2000/svg">
<path d="M15.3899 11.6444C15.0298 11.6444 14.7373 11.9333 14.7373 12.2889C14.7373 12.6446 15.0298 12.9335 15.3899 12.9335C15.7498 12.9335 16.0425 12.6446 16.0425 12.2889C16.0425 11.9333 15.75 11.6444 15.3899 11.6444Z" fill="black"/>
<path d="M15.3899 8.42172C13.2307 8.42172 11.4744 10.1564 11.4744 12.2889C11.4744 14.4214 13.2307 16.1561 15.3899 16.1561C17.549 16.1561 19.3052 14.4214 19.3052 12.2889C19.3052 10.1564 17.549 8.42172 15.3899 8.42172ZM15.3899 14.2225C14.3102 14.2225 13.4321 13.3551 13.4321 12.2889C13.4321 11.2227 14.3102 10.3553 15.3899 10.3553C16.4694 10.3553 17.3477 11.2227 17.3477 12.2889C17.3477 13.3551 16.4694 14.2225 15.3899 14.2225Z" fill="black"/>
<path d="M12.127 16.2812V21.3552C12.127 21.6158 12.2857 21.8512 12.5297 21.9507C12.7744 22.0507 13.0535 21.996 13.2409 21.8109L15.3899 19.6885L17.5388 21.8109C17.6637 21.9342 17.8306 21.9997 18.0001 21.9997C18.0844 21.9997 18.169 21.9841 18.2499 21.9507C18.4941 21.8512 18.6527 21.6158 18.6527 21.3552V16.2812C17.756 16.9977 16.6303 17.4452 15.3899 17.4452C14.1493 17.4452 13.0237 16.9977 12.127 16.2812Z" fill="black"/>
<path d="M21.915 0H0.945557C0.584764 0 0.292969 0.288193 0.292969 0.644531V14.867C0.292969 15.2232 0.584764 15.5116 0.945557 15.5116H11.3472C10.6217 14.6258 10.1686 13.5142 10.1686 12.2889C10.1686 9.44574 12.5106 7.13265 15.3893 7.13265C18.2679 7.13265 20.6099 9.44574 20.6099 12.2889C20.6099 13.5142 20.157 14.6258 19.4315 15.5116H21.915C22.2758 15.5116 22.5676 15.2232 22.5676 14.867V0.644531C22.5676 0.288193 22.2758 0 21.915 0ZM7.51477 2.62109H15.3893C15.75 2.62109 16.0419 2.90929 16.0419 3.26563C16.0419 3.6218 15.75 3.91016 15.3893 3.91016H7.51477C7.15415 3.91016 6.86218 3.6218 6.86218 3.26563C6.86218 2.90929 7.15415 2.62109 7.51477 2.62109ZM8.86345 11.6444H3.55591C3.19511 11.6444 2.90332 11.3562 2.90332 10.9998C2.90332 10.6437 3.19511 10.3553 3.55591 10.3553H8.86345C9.22424 10.3553 9.51604 10.6437 9.51604 10.9998C9.51604 11.3562 9.22424 11.6444 8.86345 11.6444ZM10.1686 9.06624H3.55591C3.19511 9.06624 2.90332 8.77805 2.90332 8.42171C2.90332 8.06554 3.19511 7.77718 3.55591 7.77718H10.1686C10.5294 7.77718 10.8212 8.06554 10.8212 8.42171C10.8212 8.77805 10.5294 9.06624 10.1686 9.06624ZM19.3047 6.48812C13.585 6.48812 9.10732 6.48812 3.55591 6.48812C3.19511 6.48812 2.90332 6.19992 2.90332 5.84375C2.90332 5.48741 3.19511 5.19922 3.55591 5.19922H19.3047C19.6655 5.19922 19.9573 5.48741 19.9573 5.84375C19.9573 6.19992 19.6655 6.48812 19.3047 6.48812Z" fill="black"/>
</svg>
