<svg width="22" height="22" viewBox="0 0 22 22" fill="none" xmlns="http://www.w3.org/2000/svg">
<path d="M11.043 0C5.00113 0 0 4.9152 0 10.957C0 16.9989 5.00113 22 11.043 22C17.0848 22 22 16.9989 22 10.957C22 4.9152 17.0848 0 11.043 0ZM16.4665 14.5574C16.9692 15.0601 16.9692 15.8778 16.4665 16.381C15.9676 16.8794 15.1499 16.8876 14.6429 16.381L11.043 12.7798L7.35668 16.3814C6.85395 16.8841 6.03625 16.8841 5.53309 16.3814C5.03035 15.8787 5.03035 15.061 5.53309 14.5578L9.13387 10.957L5.53309 7.35625C5.03035 6.85309 5.03035 6.03539 5.53309 5.53266C6.03625 5.02992 6.85395 5.02992 7.35668 5.53266L11.043 9.1343L14.6429 5.53266C15.1448 5.03078 15.9625 5.02906 16.4665 5.53266C16.9692 6.03539 16.9692 6.85309 16.4665 7.35625L12.8657 10.957L16.4665 14.5574Z" fill="white"/>
</svg>
