<svg width="24" height="24" viewBox="0 0 24 24" fill="none" xmlns="http://www.w3.org/2000/svg">
<path fill-rule="evenodd" clip-rule="evenodd" d="M12 24C15.1826 24 18.2349 22.7357 20.4854 20.4854C22.7357 18.2349 24 15.1826 24 12C24 8.81741 22.7357 5.76516 20.4854 3.51473C18.2349 1.26428 15.1826 0 12 0C8.81741 0 5.76516 1.26428 3.51473 3.51473C1.26428 5.76516 0 8.81741 0 12C0 15.1826 1.26428 18.2349 3.51473 20.4854C5.76516 22.7357 8.81741 24 12 24ZM17.5605 10.0605C17.8338 9.77761 17.985 9.39871 17.9816 9.00541C17.9781 8.61211 17.8203 8.23589 17.5422 7.95777C17.2641 7.67966 16.8879 7.5219 16.4946 7.5185C16.1013 7.51508 15.7224 7.66626 15.4395 7.9395L10.5 12.879L8.5605 10.9395C8.2776 10.6663 7.8987 10.5151 7.5054 10.5185C7.1121 10.5219 6.73589 10.6797 6.45777 10.9578C6.17966 11.2359 6.0219 11.6121 6.0185 12.0054C6.01508 12.3987 6.16626 12.7776 6.4395 13.0605L9.43951 16.0605C9.7208 16.3418 10.1023 16.4997 10.5 16.4997C10.8977 16.4997 11.2792 16.3418 11.5605 16.0605L17.5605 10.0605Z" fill="white"/>
</svg>
