<svg width="120" height="120" viewBox="0 0 120 120" fill="none" xmlns="http://www.w3.org/2000/svg">
<path d="M15 96.5H16.5V95V28.5V28.4996C16.4998 27.7811 16.7207 27.08 17.1327 26.4914C17.5447 25.9028 18.1279 25.4553 18.803 25.2096L67.1575 7.62975L67.158 7.62957C67.3091 7.57459 67.4712 7.55684 67.6306 7.57784C67.79 7.59884 67.942 7.65797 68.0737 7.75022C68.2054 7.84246 68.3129 7.96511 68.3871 8.10774C68.4613 8.25037 68.5 8.4088 68.5 8.56957V8.57003V33.335V34.4162L69.5257 34.7581L101.106 45.2831L101.106 45.2832C101.803 45.5154 102.41 45.9612 102.839 46.5573L104.056 45.6803L102.839 46.5573C103.269 47.1535 103.5 47.8698 103.5 48.6047V48.605V95V96.5H105H113.5V103.5H6.5V96.5H15ZM23.5 95V96.5H25H60H61.5V95V19.275V17.1333L59.4873 17.8654L24.4873 30.5954L23.5 30.9545V32.005V95ZM95 96.5H96.5V95V52.21V51.129L95.4744 50.787L70.4744 42.452L68.5 41.7938V43.875V95V96.5H70H95Z" fill="#7A7979" stroke="white" stroke-width="3"/>
</svg>
