<svg width="10" height="11" viewBox="0 0 10 11" fill="none" xmlns="http://www.w3.org/2000/svg">
<path d="M5.26316 6.94152V8.03629C4.7868 7.86867 4.27699 7.81726 3.77653 7.88637C3.27607 7.95547 2.79958 8.14308 2.38707 8.43344C1.97456 8.7238 1.63808 9.10843 1.40587 9.55503C1.17367 10.0016 1.05254 10.4972 1.05263 11L1.3603e-07 10.9995C-0.000163218 10.3598 0.146801 9.72867 0.429631 9.1543C0.712461 8.57994 1.12365 8.07763 1.63169 7.68588C2.13974 7.29412 2.73115 7.02331 3.36061 6.8942C3.99007 6.76508 4.64087 6.78109 5.26316 6.941V6.94152ZM4.21053 6.28571C2.46579 6.28571 1.05263 4.87929 1.05263 3.14286C1.05263 1.40643 2.46579 0 4.21053 0C5.95526 0 7.36842 1.40643 7.36842 3.14286C7.36842 4.87929 5.95526 6.28571 4.21053 6.28571ZM4.21053 5.2381C5.37368 5.2381 6.31579 4.30048 6.31579 3.14286C6.31579 1.98524 5.37368 1.04762 4.21053 1.04762C3.04737 1.04762 2.10526 1.98524 2.10526 3.14286C2.10526 4.30048 3.04737 5.2381 4.21053 5.2381ZM7.36842 8.38095V6.80952H8.42105V8.38095H10V9.42857H8.42105V11H7.36842V9.42857H5.78947V8.38095H7.36842Z" fill="white"/>
</svg>
