<svg width="319" height="267" viewBox="0 0 319 267" fill="none" xmlns="http://www.w3.org/2000/svg">
<g clip-path="url(#clip0_1685_1360)">
<g opacity="0.41">
<path d="M318.3 169.8C318.6 164.6 318.5 159.4 317.9 154.2C315.1 129.9 302.7 107 284.3 90.8C277.8 85 270.3 79.9 266 72.2C258.8 59.4 259.4 44.6 250.5 32C241.6 19.3 228.6 9.40002 213.9 4.40002C170.2 -10.7 109 13.9 114.5 66.6C114.5 66.8 114.5 67.1 114.6 67.4C115.3 78.3 106.8 87.5 95.8002 87.8C55.5002 88.8 20.8002 119.8 13.4002 159.2C8.60024 184.5 16.4002 212.3 35.0002 230.2C48.8002 243.6 67.4002 250.9 85.9002 256C123.1 266.1 162.3 268.2 200.6 264.4C236.5 260.8 274.4 250.5 297.6 222.8C310.1 208 317.2 189.1 318.3 169.8Z" fill="#FEBD17" fill-opacity="0.64"/>
</g>
<g opacity="0.88">
<path d="M285.1 172.3C285.3 168.2 285.2 164.1 284.8 160.1C282.6 141.1 272.9 123.1 258.5 110.4C253.4 105.9 247.5 101.8 244.2 95.9C238.6 85.9 239 74.3 232 64.4C225 54.5 214.8 46.7 203.4 42.7C169.2 30.8 121.3 50.2 125.6 91.4C125.6 91.5 125.6 91.8 125.7 92C126.3 100.6 119.6 107.8 111 108C79.4001 108.7 52.2001 133.1 46.4001 163.9C42.7001 183.7 48.8001 205.5 63.3001 219.5C74.1001 230 88.7001 235.7 103.2 239.7C132.3 247.6 163 249.3 193.1 246.3C221.2 243.5 250.9 235.4 269.1 213.7C278.7 202.2 284.2 187.4 285.1 172.3Z" fill="#FEBD17" fill-opacity="0.64"/>
</g>
<path opacity="0.31" d="M309.426 41.5245C310.687 36.2045 307.397 30.8692 302.077 29.6078C296.757 28.3464 291.422 31.6366 290.16 36.9566C288.899 42.2766 292.189 47.6118 297.509 48.8732C302.829 50.1346 308.164 46.8445 309.426 41.5245Z" fill="#FEBD17" fill-opacity="0.64"/>
<path opacity="0.31" d="M91.2443 35.8926C95.6963 31.4407 95.6963 24.2227 91.2443 19.7707C86.7924 15.3188 79.5744 15.3188 75.1225 19.7707C70.6705 24.2227 70.6705 31.4407 75.1225 35.8926C79.5744 40.3445 86.7924 40.3445 91.2443 35.8926Z" fill="#FEBD17" fill-opacity="0.64"/>
<path opacity="0.31" d="M14.8 262.2C22.9738 262.2 29.6 255.574 29.6 247.4C29.6 239.226 22.9738 232.6 14.8 232.6C6.62619 232.6 0 239.226 0 247.4C0 255.574 6.62619 262.2 14.8 262.2Z" fill="#FEBD17" fill-opacity="0.64"/>
<path d="M131.3 130.9C160.184 130.9 183.6 107.485 183.6 78.6C183.6 49.7156 160.184 26.3 131.3 26.3C102.416 26.3 79 49.7156 79 78.6C79 107.485 102.416 130.9 131.3 130.9Z" fill="#FEBD17"/>
<path d="M167.6 116.3C167.5 116.3 167.3 116.3 167.2 116.2C167 116 167 115.7 167.2 115.5C177 105.7 182.4 92.7 182.4 78.9C182.4 65.1 177 52 167.2 42.3C157.4 32.5 144.4 27.1 130.6 27.1C116.8 27.1 103.7 32.5 93.9999 42.3C93.7999 42.5 93.4999 42.5 93.2999 42.3C93.0999 42.1 93.0999 41.8 93.2999 41.6C103.3 31.6 116.5 26.1 130.7 26.1C144.8 26.1 158.1 31.6 168.1 41.6C178.1 51.6 183.6 64.8 183.6 79C183.6 93.2 178.1 106.4 168.1 116.4C167.9 116.2 167.7 116.3 167.6 116.3Z" fill="#333333"/>
<path d="M131.3 118.4C153.281 118.4 171.1 100.581 171.1 78.6C171.1 56.6191 153.281 38.8 131.3 38.8C109.319 38.8 91.5 56.6191 91.5 78.6C91.5 100.581 109.319 118.4 131.3 118.4Z" fill="white"/>
<path d="M131.3 118.9C109.1 118.9 91 100.8 91 78.6C91 56.4 109.1 38.3 131.3 38.3C131.6 38.3 131.8 38.5 131.8 38.8C131.8 39.1 131.6 39.3 131.3 39.3C109.6 39.3 92 56.9 92 78.6C92 100.3 109.6 117.9 131.3 117.9C131.6 117.9 131.8 118.1 131.8 118.4C131.8 118.7 131.5 118.9 131.3 118.9Z" fill="#333333"/>
<path d="M141.6 86.2H130.8C128.6 86.2 126.8 84.4 126.8 82.2V67.2C126.8 65.3 128.4 63.7 130.3 63.7C132.2 63.7 133.8 65.3 133.8 67.2V79.2H141.7C143.6 79.2 145.2 80.8 145.2 82.7C145.2 84.6 143.5 86.2 141.6 86.2Z" fill="#333333"/>
<path d="M49.9998 96.8L106.4 153.2C117.4 164.2 135.3 164.2 146.3 153.2L153 146.5C155.5 144 155.5 139.8 153 137.3L130 114.3C127.5 111.8 123.3 111.8 120.8 114.3L109.3 125.8C108.4 126.7 106.9 126.7 106 125.8L78.1998 97.8C77.2998 96.9 77.2998 95.5 78.1998 94.6L89.4998 83.3C91.9998 80.8 91.9998 76.6 89.4998 74.1L65.8998 50.4C63.3998 47.9 59.2998 47.9 56.7998 50.3L50.3998 56.5C38.9998 67.5 38.8998 85.6 49.9998 96.8Z" fill="#333333"/>
<path d="M51.7999 57.6L83.4999 89.3L84.5999 88.2L89.5999 83.2C92.0999 80.7 92.0999 76.5 89.5999 74L65.8999 50.4C63.3999 47.9 59.2999 47.9 56.7999 50.3L50.3999 56.5L51.7999 57.6Z" fill="white"/>
<path d="M83.4997 90L51.4997 58L49.6997 56.5L56.4997 49.9C59.1997 47.3 63.5997 47.3 66.2997 50L89.8997 73.6C92.5997 76.3 92.5997 80.8 89.8997 83.5L83.4997 90ZM51.0997 56.5L52.0997 57.3L83.3997 88.6L89.0997 82.9C90.1997 81.8 90.8997 80.3 90.8997 78.6C90.8997 77 90.2997 75.5 89.0997 74.3L65.5997 50.8C63.2997 48.5 59.4997 48.5 57.1997 50.7L51.0997 56.5Z" fill="#333333"/>
<path d="M116.199 121L147.899 152.7L148.999 151.6L153.999 146.6C156.499 144.1 156.499 139.9 153.999 137.4L130.399 113.8C127.899 111.3 123.799 111.3 121.299 113.7L114.899 119.9L116.199 121Z" fill="white"/>
<path d="M147.9 153.4L115.9 121.4L114.1 119.9L120.9 113.3C123.6 110.7 128 110.7 130.7 113.4L154.3 137C155.6 138.3 156.4 140.1 156.4 142C156.4 143.9 155.7 145.6 154.3 147L147.9 153.4ZM115.6 119.8L116.6 120.6L147.9 151.9L153.6 146.2C154.7 145.1 155.4 143.6 155.4 141.9C155.4 140.3 154.8 138.8 153.6 137.6L130 114.1C127.7 111.8 123.9 111.8 121.6 114L115.6 119.8Z" fill="#333333"/>
<path d="M73.5 73.7C73.4 73.7 73.2 73.7 73.1 73.6L53.9 54.3C53.7 54.1 53.7 53.8 53.9 53.6C54.1 53.4 54.4 53.4 54.6 53.6L73.9 72.9C74.1 73.1 74.1 73.4 73.9 73.6C73.8 73.7 73.6 73.7 73.5 73.7Z" fill="#333333"/>
<path d="M150.3 150.5C150.2 150.5 150 150.5 149.9 150.4L130.6 131C130.4 130.8 130.4 130.5 130.6 130.3C130.8 130.1 131.1 130.1 131.3 130.3L150.6 149.6C150.8 149.8 150.8 150.1 150.6 150.3C150.5 150.4 150.4 150.5 150.3 150.5Z" fill="#333333"/>
<path d="M235 249.1L161.1 238.2C152.7 237 147 229.2 148.2 220.8L174.7 41.6C175.9 33.2 183.7 27.5 192.1 28.7L266 39.7C274.4 40.9 280.1 48.7 278.9 57.1L252.4 236.3C251.1 244.6 243.3 250.4 235 249.1Z" fill="#333333"/>
<path d="M180.441 45.5493L155.423 214.703L247.122 228.265L272.139 59.1113L180.441 45.5493Z" fill="white"/>
<path d="M180.504 45.5249L178.631 58.1866L270.33 71.7487L272.203 59.0869L180.504 45.5249Z" fill="#FEBD17"/>
<path d="M199.8 238C199.5 238 199.2 238 198.9 237.9C197.3 237.7 195.9 236.8 195 235.5C194 234.2 193.7 232.6 193.9 231.1C194.1 229.5 195 228.1 196.3 227.2C197.6 226.2 199.2 225.8 200.7 226.1C202.3 226.3 203.7 227.2 204.6 228.5C205.6 229.8 205.9 231.4 205.7 232.9C205.2 235.8 202.7 238 199.8 238ZM199.7 227C198.6 227 197.6 227.3 196.7 228C195.6 228.8 194.9 230 194.7 231.3C194.5 232.6 194.8 233.9 195.6 235C196.4 236.1 197.6 236.8 198.9 237C201.6 237.4 204.2 235.5 204.6 232.8C204.8 231.5 204.5 230.2 203.7 229.1C202.9 228 201.7 227.3 200.4 227.1C200.2 227 200 227 199.7 227Z" fill="white"/>
<path d="M213 43.9001C212.9 43.9001 212.8 43.9001 212.7 43.9001C212.2 43.8001 211.7 43.6001 211.4 43.1001C211.1 42.7001 211 42.2001 211 41.7001C211 41.2001 211.3 40.7001 211.8 40.4001C212.2 40.1001 212.7 40.0001 213.2 40.0001C213.7 40.1001 214.2 40.3001 214.5 40.8001C214.8 41.2001 214.9 41.7001 214.9 42.2001C214.8 43.2001 214 43.9001 213 43.9001ZM213 41.0001C212.8 41.0001 212.6 41.1001 212.5 41.2001C212.3 41.3001 212.2 41.6001 212.1 41.8001C212.1 42.0001 212.1 42.3001 212.3 42.5001C212.4 42.7001 212.7 42.8001 212.9 42.9001C213.1 42.9001 213.4 42.9001 213.6 42.7001C213.8 42.6001 213.9 42.3001 214 42.1001C214 41.9001 214 41.6001 213.8 41.4001C213.7 41.2001 213.4 41.1001 213.2 41.0001C213.1 41.0001 213.1 41.0001 213 41.0001Z" fill="white"/>
<path d="M242.8 48.3C242.7 48.3 242.6 48.3 242.5 48.3L219.1 44.8C218.6 44.7 218.1 44.5 217.8 44C217.5 43.6 217.4 43.1 217.4 42.6C217.5 42.1 217.7 41.6 218.2 41.3C218.6 41 219.1 40.9 219.6 40.9L243 44.4C243.5 44.5 244 44.7 244.3 45.2C244.6 45.6 244.7 46.1 244.7 46.6C244.6 47.1 244.4 47.6 243.9 47.9C243.6 48.2 243.2 48.3 242.8 48.3ZM219.4 42C218.9 42 218.6 42.3 218.5 42.8C218.5 43 218.5 43.3 218.7 43.5C218.8 43.7 219.1 43.8 219.3 43.9L242.7 47.4C243.2 47.5 243.7 47.1 243.8 46.6C243.8 46.4 243.8 46.1 243.6 45.9C243.5 45.7 243.2 45.6 243 45.5L219.5 42C219.5 42 219.5 42 219.4 42Z" fill="white"/>
<path d="M247.6 176.5L183.6 167C182.6 166.8 181.6 167.6 181.4 168.6L178.9 185.2C178.7 186.2 179.5 187.2 180.5 187.4L235.2 195.5L240.8 203.3L241.8 196.5L244.4 196.9C245.4 197.1 246.4 196.3 246.6 195.3L249.1 178.7C249.3 177.6 248.6 176.7 247.6 176.5Z" fill="#FEBD17" fill-opacity="0.64"/>
<path d="M235.3 196C235.2 196 235.2 196 235.3 196L180.5 187.9C179.9 187.8 179.3 187.5 178.9 187C178.5 186.5 178.4 185.8 178.5 185.2L181 168.6C181.2 167.3 182.4 166.4 183.7 166.6L198.5 168.8C198.8 168.8 199 169.1 198.9 169.4C198.9 169.7 198.6 169.9 198.3 169.8L183.5 167.6C182.7 167.5 182 168 181.9 168.8L179.4 185.4C179.3 185.8 179.4 186.1 179.7 186.4C179.9 186.7 180.3 186.9 180.6 187L235.3 195.1C235.6 195.1 235.8 195.4 235.7 195.7C235.7 195.8 235.5 196 235.3 196Z" fill="#333333"/>
<path d="M257.7 107.7L193.7 98.2C192.7 98 191.7 98.8 191.5 99.8L189 116.4C188.8 117.4 189.6 118.4 190.6 118.6L245.3 126.7L250.9 134.5L251.9 127.7L254.5 128.1C255.5 128.3 256.5 127.5 256.7 126.5L259.2 109.9C259.5 108.8 258.8 107.9 257.7 107.7Z" fill="#FEBD17" fill-opacity="0.64"/>
<path d="M251.4 135.8L245.2 127.2L190.7 119.1C189.4 118.9 188.5 117.7 188.7 116.4C188.7 116.1 189 115.9 189.3 116C189.6 116 189.8 116.3 189.7 116.6C189.6 117 189.7 117.3 190 117.6C190.2 117.9 190.6 118.1 190.9 118.2L245.8 126.3L250.8 133.3L251.7 127.2L254.8 127.7C255.2 127.8 255.5 127.7 255.8 127.4C256.1 127.2 256.3 126.8 256.4 126.5L258 115.5C258 115.2 258.3 115 258.6 115.1C258.9 115.1 259.1 115.4 259 115.7L257.4 126.7C257.3 127.3 257 127.9 256.5 128.3C256 128.7 255.3 128.8 254.7 128.7L252.6 128.4L251.4 135.8Z" fill="#333333"/>
<path d="M176.7 129.1L240.7 138.6C241.7 138.8 242.5 139.7 242.3 140.8L239.8 157.4C239.6 158.4 238.7 159.2 237.6 159L182.9 150.9L175.3 156.7L176.3 149.9L173.7 149.5C172.7 149.3 171.9 148.4 172.1 147.3L174.6 130.7C174.7 129.7 175.7 128.9 176.7 129.1Z" fill="#FEBD17"/>
<path d="M238 159.5C237.9 159.5 237.8 159.5 237.6 159.5L203.4 154.4C203.1 154.4 202.9 154.1 203 153.8C203 153.5 203.3 153.3 203.6 153.4L237.8 158.5C238.2 158.6 238.5 158.5 238.8 158.2C239.1 158 239.3 157.6 239.4 157.3L241.9 140.7C242 139.9 241.5 139.2 240.7 139.1C240.4 139.1 240.2 138.8 240.3 138.5C240.3 138.2 240.6 138 240.9 138.1C242.2 138.3 243.1 139.5 242.9 140.8L240.4 157.4C240.3 158 240 158.6 239.5 159C239 159.3 238.5 159.5 238 159.5Z" fill="#333333"/>
<path d="M157.697 199.163L155.4 214.694L247.099 228.256L249.396 212.725L157.697 199.163Z" fill="white"/>
<path d="M171.3 208.9C170.8 211.9 168 214.1 165 213.6C162 213.1 159.8 210.3 160.3 207.3C160.8 204.3 163.6 202.1 166.6 202.6C169.6 203.1 171.7 205.9 171.3 208.9Z" fill="#FEBD17" fill-opacity="0.64"/>
<path opacity="0.33" d="M238.9 224.1C238.7 224.1 238.4 224.1 238.2 224L178.7 215.2C177.4 215 176.2 214.3 175.4 213.2C174.6 212.1 174.3 210.8 174.5 209.5C174.9 206.8 177.4 204.9 180.2 205.3L239.7 214.1C242.4 214.5 244.3 217 243.9 219.7C243.5 222.3 241.4 224.1 238.9 224.1ZM238.4 223C240.6 223.3 242.6 221.8 242.9 219.6C243.1 218.5 242.8 217.5 242.2 216.6C241.6 215.7 240.6 215.2 239.6 215L180.1 206.2C177.9 205.9 175.9 207.4 175.6 209.6C175.4 210.7 175.7 211.7 176.3 212.6C176.9 213.5 177.9 214 178.9 214.2L238.4 223Z" fill="#FEBD17"/>
<path d="M186.2 54.6001C186.1 54.6001 186 54.6001 185.9 54.6001C184.8 54.4001 184.1 53.4001 184.2 52.4001C184.3 51.9001 184.6 51.4001 185 51.1001C185.4 50.8001 185.9 50.7001 186.5 50.7001C187.6 50.9001 188.3 51.9001 188.2 52.9001C188 53.9001 187.1 54.6001 186.2 54.6001ZM186.2 51.7001C186 51.7001 185.8 51.8001 185.6 51.9001C185.4 52.1001 185.3 52.3001 185.2 52.5001C185.2 52.8001 185.2 53.0001 185.4 53.2001C185.6 53.4001 185.8 53.5001 186 53.6001C186.5 53.7001 187 53.3001 187.1 52.8001C187.1 52.5001 187.1 52.3001 186.9 52.1001C186.7 51.9001 186.5 51.8001 186.3 51.7001C186.3 51.7001 186.2 51.7001 186.2 51.7001Z" fill="white"/>
<path d="M191.6 55.4001C191.5 55.4001 191.4 55.4001 191.3 55.4001C190.2 55.2001 189.5 54.2001 189.6 53.2001C189.8 52.1001 190.8 51.4001 191.8 51.5001C192.3 51.6001 192.8 51.8001 193.1 52.3001C193.4 52.7001 193.5 53.2001 193.5 53.8001C193.4 54.3001 193.1 54.8001 192.7 55.1001C192.4 55.3001 192 55.4001 191.6 55.4001ZM191.6 52.5001C191.1 52.5001 190.7 52.8001 190.7 53.3001C190.7 53.6001 190.7 53.8001 190.9 54.0001C191.1 54.2001 191.3 54.3001 191.5 54.4001C191.8 54.4001 192 54.4001 192.2 54.2001C192.4 54.0001 192.5 53.8001 192.6 53.6001C192.6 53.3001 192.6 53.1001 192.4 52.9001C192.2 52.7001 192 52.6001 191.8 52.5001C191.7 52.5001 191.6 52.5001 191.6 52.5001Z" fill="white"/>
<path d="M196.9 56.2001C196.8 56.2001 196.7 56.2001 196.6 56.2001C195.5 56.0001 194.8 55.0001 195 54.0001C195.2 52.9001 196.2 52.2001 197.2 52.3001C198.3 52.5001 199 53.5001 198.9 54.5001C198.7 55.5001 197.8 56.2001 196.9 56.2001ZM196.9 53.3001C196.7 53.3001 196.5 53.4001 196.3 53.5001C196.1 53.7001 196 53.9001 195.9 54.1001C195.9 54.4001 195.9 54.6001 196.1 54.8001C196.3 55.0001 196.5 55.1001 196.7 55.2001C197.2 55.3001 197.7 54.9001 197.8 54.4001C197.9 53.9001 197.5 53.4001 197 53.3001C197 53.3001 196.9 53.3001 196.9 53.3001Z" fill="white"/>
<path d="M271.6 72.4001C271.6 72.4001 271.5 72.4001 271.6 72.4001L186.6 59.8001C186.3 59.8001 186.1 59.5001 186.2 59.2001C186.2 58.9001 186.5 58.7001 186.8 58.8001L271.7 71.4001C272 71.4001 272.2 71.7001 272.1 72.0001C272 72.3001 271.8 72.4001 271.6 72.4001Z" fill="#333333"/>
<path d="M236.2 180.3C236.1 180.3 236.1 180.3 236.2 180.3L190.8 173.6C190.5 173.6 190.3 173.3 190.4 173C190.4 172.7 190.7 172.5 191 172.6L236.3 179.3C236.6 179.3 236.8 179.6 236.7 179.9C236.6 180.1 236.4 180.3 236.2 180.3Z" fill="white"/>
<path d="M209.3 181.9L190 179C189.7 179 189.5 178.7 189.6 178.4C189.6 178.1 189.9 177.9 190.2 178L209.5 180.9C209.8 180.9 210 181.2 209.9 181.5C209.8 181.7 209.6 181.9 209.3 181.9Z" fill="white"/>
<path d="M202.8 186.1L189.2 184.1C188.9 184.1 188.7 183.8 188.8 183.5C188.8 183.2 189.1 183 189.4 183.1L202.9 185.1C203.2 185.1 203.4 185.4 203.3 185.7C203.3 185.9 203.1 186.1 202.8 186.1Z" fill="white"/>
<path d="M235.4 185.7C235.4 185.7 235.3 185.7 235.4 185.7L215.4 182.7C215.1 182.7 214.9 182.4 215 182.1C215 181.8 215.3 181.6 215.6 181.7L235.5 184.6C235.8 184.6 236 184.9 235.9 185.2C235.8 185.6 235.6 185.7 235.4 185.7Z" fill="white"/>
<path d="M230.6 142.7L185.2 136C184.9 136 184.7 135.7 184.8 135.4C184.8 135.1 185.1 134.9 185.4 135L230.7 141.7C231 141.7 231.2 142 231.1 142.3C231.1 142.5 230.9 142.7 230.6 142.7Z" fill="white"/>
<path d="M203.8 144.3L184.4 141.4C184.1 141.4 183.9 141.1 184 140.8C184 140.5 184.3 140.3 184.6 140.4L203.9 143.3C204.2 143.3 204.4 143.6 204.3 143.9C204.3 144.1 204.1 144.3 203.8 144.3Z" fill="white"/>
<path d="M223.9 152.4C223.8 152.4 223.8 152.4 223.9 152.4L184.7 146.3C184.4 146.3 184.2 146 184.3 145.7C184.3 145.4 184.6 145.2 184.9 145.3L224 151.4C224.3 151.4 224.5 151.7 224.4 152C224.3 152.2 224.1 152.4 223.9 152.4Z" fill="white"/>
<path d="M229.8 148.1L209.8 145.1C209.5 145.1 209.3 144.8 209.4 144.5C209.4 144.2 209.7 144 210 144.1L229.9 147C230.2 147 230.4 147.3 230.3 147.6C230.3 147.9 230.1 148.1 229.8 148.1Z" fill="white"/>
<path d="M184.9 66.7001L248.9 76.2001C249.9 76.4001 250.7 77.3001 250.5 78.4001L248 95.0001C247.8 96.0001 246.9 96.8001 245.8 96.6001L191.1 88.5001L183.5 94.3001L184.5 87.5001L181.9 87.1001C180.9 86.9001 180.1 86.0001 180.3 84.9001L182.8 68.3001C182.9 67.2001 183.9 66.5001 184.9 66.7001Z" fill="#FEBD17"/>
<path d="M248.1 95.4C247.8 95.4 247.6 95.1 247.6 94.8L250.1 78.2C250.2 77.8 250.1 77.5 249.8 77.2C249.6 76.9 249.2 76.7 248.9 76.6L209.2 70.7C208.9 70.7 208.7 70.4 208.8 70.1C208.8 69.8 209.1 69.6 209.4 69.7L249.1 75.6C249.7 75.7 250.3 76 250.7 76.5C251.1 77 251.2 77.7 251.1 78.3L248.6 95C248.6 95.2 248.3 95.4 248.1 95.4Z" fill="#333333"/>
<path d="M238.9 80.3001C238.8 80.3001 238.8 80.3001 238.9 80.3001L193.5 73.6C193.2 73.6 193 73.3001 193.1 73.0001C193.1 72.7 193.4 72.5 193.7 72.6L239 79.3001C239.3 79.3001 239.5 79.6001 239.4 79.9001C239.3 80.1001 239.1 80.3001 238.9 80.3001Z" fill="white"/>
<path d="M212 81.9001L192.7 79.0001C192.4 79.0001 192.2 78.7001 192.3 78.4001C192.3 78.1001 192.6 77.9001 192.9 78.0001L212.2 80.9001C212.5 80.9001 212.7 81.2001 212.6 81.5001C212.5 81.7001 212.3 81.9001 212 81.9001Z" fill="white"/>
<path d="M232.1 90C232 90 232 90 232.1 90L192.9 83.9C192.6 83.9 192.4 83.6 192.5 83.3C192.5 83 192.8 82.8 193.1 82.9L232.2 89C232.5 89 232.7 89.3 232.6 89.6C232.5 89.8 232.3 90 232.1 90Z" fill="white"/>
<path d="M238.1 85.7C238 85.7 238 85.7 238.1 85.7L218.1 82.7C217.8 82.7 217.6 82.4 217.7 82.1C217.7 81.8 218 81.6 218.3 81.7L238.2 84.6C238.5 84.6 238.7 84.9 238.6 85.2C238.5 85.5 238.3 85.7 238.1 85.7Z" fill="white"/>
<path d="M246.4 112.2C246.4 112.2 246.3 112.2 246.4 112.2L201 105.5C200.7 105.5 200.5 105.2 200.6 104.9C200.6 104.6 200.9 104.4 201.2 104.5L246.5 111.2C246.8 111.2 247 111.5 246.9 111.8C246.8 112 246.6 112.2 246.4 112.2Z" fill="white"/>
<path d="M219.6 113.7C219.5 113.7 219.5 113.7 219.6 113.7L200.2 110.8C199.9 110.8 199.7 110.5 199.8 110.2C199.8 109.9 200.1 109.7 200.4 109.8L219.7 112.7C220 112.7 220.2 113 220.1 113.3C220 113.5 219.8 113.7 219.6 113.7Z" fill="white"/>
<path d="M213.1 117.9C213 117.9 213 117.9 213.1 117.9L199.5 115.9C199.2 115.9 199 115.6 199.1 115.3C199.1 115 199.4 114.8 199.7 114.9L213.2 116.9C213.5 116.9 213.7 117.2 213.6 117.5C213.5 117.7 213.3 117.9 213.1 117.9Z" fill="white"/>
<path d="M245.6 117.6C245.6 117.6 245.5 117.6 245.6 117.6L225.6 114.6C225.3 114.6 225.1 114.3 225.2 114C225.2 113.7 225.5 113.5 225.8 113.6L245.7 116.5C246 116.5 246.2 116.8 246.1 117.1C246 117.4 245.8 117.6 245.6 117.6Z" fill="white"/>
<path d="M154.2 233.8L51.6002 245.3C49.6002 245.5 47.8002 244.1 47.6002 242.1L40.2002 176.3C40.2002 176.2 40.3002 176.1 40.4002 176.1L149.8 163.8C149.9 163.8 150 163.9 150 164L157.4 229.8C157.6 231.8 156.2 233.5 154.2 233.8Z" fill="#FFEBB9"/>
<path d="M51.2002 245.9C49.1002 245.9 47.4002 244.4 47.1002 242.3L39.7002 176.5C39.7002 176.1 39.9002 175.8 40.3002 175.7L149.7 163.4C150.1 163.4 150.4 163.6 150.5 164L157.9 229.8C158 230.9 157.7 231.9 157 232.8C156.3 233.6 155.4 234.2 154.3 234.3L51.6002 245.8C51.5002 245.8 51.3002 245.9 51.2002 245.9ZM40.7002 176.7L48.1002 242.2C48.3002 243.9 49.8002 245.1 51.5002 244.9L154.2 233.3L154.3 233.8L154.2 233.3C155 233.2 155.7 232.8 156.3 232.2C156.8 231.6 157 230.8 156.9 229.9L149.5 164.4L40.7002 176.7Z" fill="#333333"/>
<path opacity="0.29" d="M149.4 233.8L56.6002 245.4C54.6002 245.6 85.4002 206.2 85.1002 204.2L40.2002 176.4C40.2002 176.3 40.3002 176.2 40.4002 176.2L149.8 163.9C149.9 163.9 150 164 150 164.1L112.6 201.1C112.8 203 151.4 233.5 149.4 233.8Z" fill="#333333"/>
<path d="M40.4002 176.2L85.6002 131.5C88.3002 128.8 92.5002 128.3 95.7002 130.3L149.5 163.7C149.6 163.8 149.6 163.9 149.5 163.9L40.2002 176.2" fill="#FFEBB9"/>
<path d="M40.2 176.7L40.1 176L40 175.9L40.1 175.8L85.2 131.2C88.1 128.4 92.5 127.8 95.9 130L149.7 163.4C149.9 163.5 150 163.8 150 164.1C149.9 164.4 149.7 164.5 149.5 164.6L40.2 176.7ZM91.4 129.6C89.4 129.6 87.5 130.4 86 131.8L41.8 175.5L148.3 163.5L95.5 130.7C94.2 129.9 92.8 129.6 91.4 129.6Z" fill="#333333"/>
<path opacity="0.29" d="M40.4002 176.2L85.6002 131.5C88.3002 128.8 92.5002 128.3 95.7002 130.3L149.5 163.7C149.6 163.8 149.6 163.9 149.5 163.9L40.2002 176.2" fill="#333333"/>
<path d="M90.6001 197.3L56.6001 244.6L149.4 234.1L105.7 195.5C101.2 191.5 94.2001 192.3 90.6001 197.3Z" fill="#FFEBB9"/>
<path d="M55.6001 245.2L90.2001 197L90.6001 197.3L90.2001 197C92.0001 194.5 94.7001 192.9 97.7001 192.6C100.7 192.3 103.8 193.2 106 195.2L150.5 234.5L55.6001 245.2ZM99.0001 193.5C98.6001 193.5 98.3001 193.5 97.9001 193.6C95.2001 193.9 92.7001 195.4 91.1001 197.6L57.7001 244L148.3 233.8L105.5 196C103.6 194.4 101.3 193.5 99.0001 193.5Z" fill="#333333"/>
<path d="M45.9004 143.8L117.4 135.7C122.1 135.2 126.3 138 126.7 142.1L131.3 182.9L111.4 201.2L85.1004 204.2L59.1004 188L54.6004 148.5L45.9004 143.8Z" fill="white"/>
<path d="M85.0005 204.7L58.7005 188.2L54.3005 148.7L47.5005 143.1L117.4 135.2C119.8 134.9 122.1 135.5 124 136.8C125.9 138.1 127 140 127.3 142.1L131.9 183.1L111.7 201.7L85.0005 204.7ZM59.7005 187.6L85.3005 203.6L111.2 200.7L130.8 182.7L126.2 142.2C126 140.4 125 138.8 123.3 137.6C121.6 136.5 119.5 136 117.4 136.2L47.5005 144.1L55.1005 148.1L59.7005 187.6Z" fill="#333333"/>
<path opacity="0.29" d="M90.6001 193.2L56.6001 244.6L149.4 234.1L105.7 191.5C101.2 187.5 94.2001 188.2 90.6001 193.2Z" fill="#333333"/>
<path d="M90.6001 197.3L56.6001 244.6L149.4 234.1L105.7 195.5C101.2 191.5 94.2001 192.3 90.6001 197.3Z" fill="#FFEBB9"/>
<path d="M55.6001 245.2L90.2001 197L90.6001 197.3L90.2001 197C92.0001 194.5 94.7001 192.9 97.7001 192.6C100.7 192.3 103.8 193.2 106 195.2L150.5 234.5L55.6001 245.2ZM99.0001 193.5C98.6001 193.5 98.3001 193.5 97.9001 193.6C95.2001 193.9 92.7001 195.4 91.1001 197.6L57.7001 244L148.3 233.8L105.5 196C103.6 194.4 101.3 193.5 99.0001 193.5Z" fill="#333333"/>
<path opacity="0.35" d="M93.9004 207.7L68.9004 242.4L137.1 234.7L105 206.5C101.7 203.5 96.5004 204.1 93.9004 207.7Z" fill="white"/>
<path d="M40.7208 175.873L40.1919 176.722L84.9184 204.595L85.4473 203.746L40.7208 175.873Z" fill="#333333"/>
<path d="M149.612 163.591L112.216 200.728L112.921 201.438L150.316 164.3L149.612 163.591Z" fill="#333333"/>
<path d="M56.7004 166.6L44.3004 168L42.3004 150.2C41.9004 146.9 44.3004 143.9 47.6004 143.6L48.2004 143.5C51.5004 143.1 54.5004 145.5 54.8004 148.8L56.7004 166.6Z" fill="white"/>
<path d="M43.8004 168.6L41.7004 150.3C41.5004 148.6 42.0004 146.9 43.1004 145.5C44.2004 144.1 45.7004 143.3 47.4004 143.1L48.0004 143C49.7004 142.8 51.4004 143.3 52.8004 144.4C54.2004 145.5 55.0004 147 55.2004 148.7L57.3004 167L43.8004 168.6ZM48.8004 144C48.6004 144 48.4004 144 48.2004 144L47.6004 144.1C46.1004 144.3 44.8004 145 43.9004 146.1C43.0004 147.2 42.6004 148.7 42.7004 150.1L44.6004 167.4L56.1004 166.1L54.1004 148.8C53.9004 147.3 53.2004 146 52.1004 145.1C51.2004 144.4 50.0004 144 48.8004 144Z" fill="#333333"/>
<path d="M65.2002 157.4C64.9002 157.4 64.7002 157.2 64.7002 157C64.7002 156.7 64.9002 156.5 65.1002 156.4L116.9 150.6C117.2 150.6 117.4 150.8 117.5 151C117.5 151.3 117.3 151.5 117.1 151.6L65.2002 157.4Z" fill="#333333"/>
<path d="M67.2002 175C66.9002 175 66.7002 174.8 66.7002 174.6C66.7002 174.3 66.9002 174.1 67.1002 174L118.9 168.2C119.2 168.2 119.4 168.4 119.5 168.6C119.5 168.9 119.3 169.1 119.1 169.2L67.2002 175Z" fill="#333333"/>
<path d="M66.2002 166.1C65.9002 166.1 65.7002 165.9 65.7002 165.7C65.7002 165.4 65.9002 165.2 66.1002 165.1L88.5002 162.6C88.8002 162.6 89.0002 162.8 89.1002 163C89.1002 163.3 88.9002 163.5 88.7002 163.6L66.2002 166.1Z" fill="#333333"/>
<path d="M94.4004 162.9C94.1004 162.9 93.9004 162.7 93.9004 162.5C93.9004 162.2 94.1004 162 94.3004 161.9L117.9 159.2C118.2 159.2 118.4 159.4 118.5 159.6C118.5 159.9 118.3 160.1 118.1 160.2L94.4004 162.9C94.5004 162.9 94.5004 162.9 94.4004 162.9Z" fill="#333333"/>
<path d="M68.3003 185C68.0003 185 67.8003 184.8 67.8003 184.6C67.8003 184.3 68.0003 184.1 68.2003 184L90.6003 181.5C90.9003 181.5 91.1003 181.7 91.2003 181.9C91.2003 182.2 91.0003 182.4 90.8003 182.5L68.3003 185C68.3003 185 68.4003 185 68.3003 185Z" fill="#333333"/>
</g>
<defs>
<clipPath id="clip0_1685_1360">
<rect width="318.4" height="266.1" fill="white"/>
</clipPath>
</defs>
</svg>
