<svg width="564" height="418" viewBox="0 0 564 418" fill="none" xmlns="http://www.w3.org/2000/svg">
<path d="M91.11 406.883C31.953 368.516 3.03601 312.509 9.84001 230.861C16.77 147.449 56.208 74.054 113.16 48.035C220.575 -1.105 233.742 98.813 322.131 131.825C394.455 158.915 434.46 135.605 498.783 176.555C595.929 238.421 569.28 364.547 509.493 410.033C369.129 411.734 229.962 412.805 91.11 406.883V406.883Z" fill="#DFF3FC"/>
<path d="M316.083 2.486C341.22 -2.68 368.436 5.38401 387.777 21.764C398.235 30.647 406.803 41.861 418.836 48.602C431.499 55.721 446.682 57.107 460.92 60.509C475.158 63.911 490.089 70.526 496.263 83.378C503.193 97.994 495.885 116.138 483.159 126.533C470.433 136.928 453.675 141.275 437.295 144.299C399.432 151.418 358.86 153.182 323.517 138.314C288.174 123.383 254.595 87.473 263.667 51.185C271.353 20.378 290.946 7.652 316.083 2.486V2.486Z" fill="#DFF3FC"/>
<path fill-rule="evenodd" clip-rule="evenodd" d="M523.983 218.135C522.723 222.923 520.833 227.459 518.376 231.617L525.747 238.988L506.28 258.392L498.909 251.021C494.751 253.478 490.215 255.368 485.427 256.628V267.023H458.022V256.628C453.171 255.368 448.698 253.478 444.477 251.021L437.106 258.392L417.702 238.988L425.073 231.617C422.616 227.459 420.726 222.923 419.466 218.135H409.071V190.667H419.466C420.726 185.879 422.616 181.343 425.073 177.185L417.702 169.814L437.106 150.347L444.477 157.718C448.698 155.261 453.171 153.371 458.022 152.111V141.716H485.427V152.111C490.215 153.371 494.751 155.261 498.909 157.718L506.28 150.347L525.747 169.814L518.376 177.185C520.833 181.343 522.723 185.879 523.983 190.667H534.378V218.135H523.983ZM495.507 204.401C495.507 191.234 484.86 180.587 471.756 180.587C458.589 180.587 447.942 191.234 447.942 204.401C447.942 217.505 458.589 228.152 471.756 228.152C484.86 228.152 495.507 217.505 495.507 204.401Z" fill="#F5D072"/>
<path fill-rule="evenodd" clip-rule="evenodd" d="M446.241 288.884C446.556 291.467 446.43 294.113 446.052 296.633L451.092 298.901L445.17 312.194L440.13 309.926C438.492 311.942 436.602 313.769 434.46 315.281L436.476 320.447L422.868 325.676L420.852 320.51C418.269 320.825 415.623 320.762 413.103 320.321L410.835 325.361L397.542 319.439L399.747 314.399C397.794 312.761 395.967 310.871 394.455 308.729L389.289 310.745L384.06 297.137L389.226 295.121C388.911 292.538 388.974 289.892 389.415 287.372L384.375 285.104L390.297 271.811L395.337 274.079C396.975 272.063 398.865 270.236 401.007 268.724L398.991 263.558L412.599 258.329L414.615 263.495C417.198 263.18 419.844 263.243 422.364 263.684L424.632 258.644L437.925 264.566L435.657 269.606C437.673 271.244 439.5 273.134 441.012 275.276L446.178 273.26L451.407 286.868L446.241 288.884ZM429.546 287.498C427.026 281.009 419.718 277.733 413.229 280.253C406.677 282.71 403.464 290.081 405.921 296.57C408.441 303.059 415.749 306.335 422.238 303.815C428.79 301.358 432.003 294.05 429.546 287.498Z" stroke="#A2C7EB" stroke-width="1.26"/>
<path fill-rule="evenodd" clip-rule="evenodd" d="M403.338 240.5C403.527 242.264 403.464 244.028 403.149 245.729L406.614 247.241L402.582 256.25L399.18 254.738C398.109 256.061 396.786 257.321 395.337 258.329L396.723 261.794L387.525 265.322L386.139 261.857C384.375 262.046 382.611 261.983 380.91 261.731L379.398 265.133L370.389 261.101L371.901 257.699C370.578 256.628 369.318 255.368 368.31 253.919L364.845 255.242L361.317 246.044L364.782 244.721C364.593 242.957 364.656 241.193 364.908 239.492L361.506 237.917L365.538 228.908L368.94 230.483C370.011 229.097 371.271 227.9 372.72 226.829L371.397 223.364L380.595 219.836L381.918 223.301C383.682 223.112 385.446 223.175 387.147 223.49L388.722 220.025L397.668 224.057L396.156 227.459C397.542 228.53 398.739 229.853 399.81 231.302L403.275 229.916L406.803 239.114L403.338 240.5ZM392.061 239.555C390.36 235.208 385.383 233.003 381.036 234.641C376.626 236.342 374.421 241.319 376.122 245.666C377.76 250.076 382.737 252.281 387.147 250.58C391.557 248.942 393.699 243.965 392.061 239.555Z" stroke="#A2C7EB" stroke-width="1.26"/>
<path d="M403.59 78.086C403.59 91.883 397.164 104.168 387.147 112.106C379.713 117.965 370.389 121.43 360.246 121.43C350.103 121.43 340.716 117.965 333.345 112.106C323.265 104.168 316.839 91.883 316.839 78.086C316.839 54.146 336.243 34.679 360.246 34.679C384.186 34.679 403.59 54.146 403.59 78.086V78.086Z" fill="#FEBD17" stroke="#0097D8" stroke-width="1.26"/>
<path d="M360.246 49.61C368.058 49.61 374.421 55.973 374.421 63.785C374.421 71.66 368.058 78.023 360.246 78.023C352.371 78.023 346.008 71.66 346.008 63.785C346.008 55.973 352.371 49.61 360.246 49.61Z" fill="white"/>
<path d="M387.147 106.625C379.713 112.484 370.389 115.949 360.246 115.949C350.103 115.949 340.716 112.484 333.345 106.625C336.117 94.403 338.637 83.882 341.283 81.236C345.063 77.456 355.017 75.314 360.183 75.314C365.412 75.314 375.807 77.96 377.76 79.85C381.666 83.819 385.068 94.592 387.147 106.625V106.625Z" fill="white"/>
<path d="M297.876 184.997V163.577C297.876 157.718 302.601 152.993 308.46 152.993H375.933C381.792 152.993 386.517 157.718 386.517 163.577V184.997C386.517 190.856 381.792 195.581 375.933 195.581H308.46C302.664 195.581 297.876 190.856 297.876 184.997Z" fill="#0097D8"/>
<path d="M346.638 188.966L293.718 215.678L326.415 183.863" fill="#0097D8"/>
<path d="M306.066 163.073V162.947C306.066 162.065 306.759 161.372 307.641 161.372H341.031C341.913 161.372 342.606 162.065 342.606 162.947V163.073C342.606 163.892 341.913 164.648 341.031 164.648H307.641C306.759 164.648 306.066 163.892 306.066 163.073Z" fill="white"/>
<path d="M344.118 163.073V162.947C344.118 162.065 344.811 161.372 345.693 161.372H374.799C375.681 161.372 376.374 162.065 376.374 162.947V163.073C376.374 163.892 375.681 164.648 374.799 164.648H345.693C344.811 164.648 344.118 163.892 344.118 163.073Z" fill="white"/>
<path d="M331.392 170.192V170.129C331.392 169.247 332.085 168.554 332.967 168.554H374.799C375.681 168.554 376.374 169.247 376.374 170.129V170.192C376.374 171.074 375.681 171.767 374.799 171.767H332.967C332.085 171.767 331.392 171.074 331.392 170.192Z" fill="white"/>
<path d="M306.066 170.192V170.129C306.066 169.247 306.759 168.554 307.641 168.554H326.352C327.234 168.554 327.927 169.247 327.927 170.129V170.192C327.927 171.074 327.234 171.767 326.352 171.767H307.641C306.759 171.767 306.066 171.074 306.066 170.192Z" fill="white"/>
<path d="M337.188 177.374V177.248C337.188 176.429 337.881 175.673 338.763 175.673H374.799C375.681 175.673 376.374 176.429 376.374 177.248V177.374C376.374 178.256 375.681 178.949 374.799 178.949H338.763C337.881 178.949 337.188 178.256 337.188 177.374Z" fill="white"/>
<path d="M306.066 177.374V177.248C306.066 176.429 306.759 175.673 307.641 175.673H332.526C333.408 175.673 334.101 176.429 334.101 177.248V177.374C334.101 178.256 333.408 178.949 332.526 178.949H307.641C306.759 178.949 306.066 178.256 306.066 177.374Z" fill="white"/>
<path d="M306.066 184.556V184.43C306.066 183.548 306.759 182.855 307.641 182.855H316.902C317.784 182.855 318.477 183.548 318.477 184.43V184.556C318.477 185.438 317.784 186.131 316.902 186.131H307.641C306.759 186.131 306.066 185.438 306.066 184.556Z" fill="white"/>
<path d="M321.753 184.556V184.43C321.753 183.548 322.446 182.855 323.328 182.855H374.799C375.681 182.855 376.374 183.548 376.374 184.43V184.556C376.374 185.438 375.681 186.131 374.799 186.131H323.328C322.446 186.131 321.753 185.438 321.753 184.556Z" fill="white"/>
<path d="M78.636 98.057C100.182 89.867 124.311 100.703 132.501 122.249C140.628 143.795 129.792 167.924 108.246 176.114C86.7 184.241 62.634 173.405 54.444 151.859C46.254 130.313 57.09 106.247 78.636 98.057Z" fill="#FEBD17"/>
<path d="M92.748 161.939C90.354 166.979 84.306 169.058 79.266 166.664C74.226 164.27 72.084 158.222 74.541 153.182C76.935 148.142 82.983 146 88.023 148.457C93.063 150.851 95.142 156.899 92.748 161.939Z" fill="white"/>
<path d="M78.321 161.183L77.817 154.757L83.172 151.166L88.968 153.938L89.409 160.364L84.117 163.955L78.321 161.183Z" fill="#FEBD17"/>
<path d="M112.404 120.989C110.01 126.029 103.962 128.108 98.922 125.714C93.882 123.32 91.74 117.272 94.197 112.232C96.591 107.192 102.639 105.05 107.679 107.444C112.719 109.901 114.861 115.949 112.404 120.989Z" fill="white"/>
<path d="M98.292 119.603L98.607 111.476L104.781 106.058L110.577 108.893L110.199 117.02L104.088 122.375L98.292 119.603Z" fill="#FEBD17"/>
<path d="M90.606 152.867L82.92 149.15L88.59 135.983C88.968 135.143 89.367 134.324 89.787 133.526L96.528 120.8L104.277 124.517L98.733 137.495C98.313 138.503 97.851 139.49 97.347 140.456L90.606 152.867Z" fill="white"/>
<path d="M130.611 144.11L147.873 159.923C147.873 159.923 123.933 158.852 122.421 159.545L130.611 144.11Z" fill="#FEBD17"/>
<path d="M190.209 9.227C212.889 9.101 231.348 27.308 231.474 49.988C231.6 72.605 213.393 91.127 190.713 91.253C168.096 91.379 149.574 73.109 149.448 50.492C149.322 27.812 167.592 9.353 190.209 9.227V9.227Z" fill="#FEBD17"/>
<path d="M191.847 49.736H189.138V15.275H191.847V49.736Z" fill="white"/>
<path d="M188.949 49.736L190.461 51.941L161.796 71.849L160.221 69.581L188.949 49.736Z" fill="white"/>
<path d="M194.241 50.24C194.241 52.319 192.54 54.02 190.461 54.02C188.382 54.02 186.681 52.319 186.681 50.24C186.681 48.161 188.382 46.46 190.461 46.46C192.54 46.46 194.241 48.161 194.241 50.24Z" fill="white"/>
<path d="M301.845 327.944C299.388 290.459 315.831 251.651 343.425 229.475C344.307 267.149 328.053 305.264 301.845 327.944Z" fill="#A2C7EB"/>
<path d="M273.243 389.873C290.694 365.996 298.695 335.819 308.838 307.343C317.217 283.97 327.297 261.227 338.952 239.555" stroke="#6F8BBF" stroke-width="1.26" stroke-linecap="round"/>
<path d="M293.088 351.569C307.074 320.258 334.857 296.633 365.475 289.955C352.434 323.471 323.139 349.049 293.088 351.569Z" fill="#A2C7EB"/>
<path d="M357.978 296.822C337.062 315.218 315.789 333.089 294.159 350.435" stroke="#6F8BBF" stroke-width="1.26" stroke-linecap="round"/>
<path d="M284.835 378.785C303.546 350.876 338.007 336.323 366.546 344.261C345.567 371.855 311.043 386.471 284.835 378.785V378.785Z" fill="#A2C7EB"/>
<path d="M359.679 346.277C335.235 361.649 308.775 372.926 281.559 379.73" stroke="#6F8BBF" stroke-width="1.26" stroke-linecap="round"/>
<path d="M294.978 342.056C300.9 310.619 291.954 275.591 272.046 252.407C263.856 283.34 271.668 319.502 294.978 342.056Z" fill="#A2C7EB"/>
<path d="M274.062 260.471C278.031 289.703 285.024 317.045 295.86 343.82" stroke="#6F8BBF" stroke-width="1.26" stroke-linecap="round"/>
<path d="M254.532 338.024C247.35 323.03 242.751 306.524 241.365 289.451C265.62 306.146 282.126 336.512 284.709 368.831C275.07 366.185 262.848 355.223 254.532 338.024V338.024Z" fill="#A2C7EB"/>
<path d="M244.956 295.94C254.469 322.904 268.203 347.852 285.276 369.524" stroke="#6F8BBF" stroke-width="1.26" stroke-linecap="round"/>
<path d="M471.693 361.082C484.923 326.684 515.352 298.775 548.868 290.27C534.189 324.227 504.201 351.569 471.693 361.082Z" fill="#A2C7EB"/>
<path d="M421.104 404.552C446.241 390.44 465.708 366.752 486.372 345.584C503.319 328.133 521.589 312.005 540.741 297.452" stroke="#6F8BBF" stroke-width="1.26" stroke-linecap="round"/>
<path d="M454.368 378.533C479.505 356.357 513.777 346.655 543.513 353.144C518.313 377.714 481.899 388.55 454.368 378.533Z" fill="#A2C7EB"/>
<path d="M534.063 356.231C508.065 364.085 481.962 371.33 455.754 377.966" stroke="#6F8BBF" stroke-width="1.26" stroke-linecap="round"/>
<path d="M435.846 399.449C463.818 382.187 500.295 383.321 522.219 402.032C492.357 418.034 455.88 416.9 435.846 399.449Z" fill="#A2C7EB"/>
<path d="M515.352 401.024C487.443 404.678 459.408 403.985 432.57 398.945" stroke="#6F8BBF" stroke-width="1.26" stroke-linecap="round"/>
<path d="M459.849 370.847C477.993 345.269 484.482 310.43 476.355 281.639C456.447 305.768 448.509 341.237 459.849 370.847Z" fill="#A2C7EB"/>
<path d="M474.843 289.577C466.338 317.234 461.298 344.45 459.912 372.737" stroke="#6F8BBF" stroke-width="1.26" stroke-linecap="round"/>
<path d="M425.829 350.75C425.577 334.433 428.286 317.864 434.082 302.051C448.635 326.873 450.84 360.641 439.815 390.503C432.381 384.203 426.081 369.461 425.829 350.75Z" fill="#A2C7EB"/>
<path d="M434.586 309.359C431.94 337.268 433.83 365.114 440.067 391.322" stroke="#6F8BBF" stroke-width="1.26" stroke-linecap="round"/>
<path d="M97.095 300.98C83.613 259.715 46.065 226.451 2.28 217.001C20.676 252.659 54.066 281.009 97.095 300.98Z" fill="#A2C7EB"/>
<path d="M99.426 307.343C69.879 290.648 32.898 286.994 0.830994 297.515C30.567 312.383 65.784 316.541 99.426 307.343Z" fill="#A2C7EB"/>
<path d="M107.553 316.289C75.675 311.879 42.285 319.754 16.329 337.772C45.75 348.419 80.967 341.489 107.553 316.289Z" fill="#A2C7EB"/>
<path d="M78.195 370.343C65.28 376.202 50.349 377.903 36.3 375.068C54.885 350.687 85.944 335.693 117.507 335.819C101.883 354.53 91.047 364.547 78.195 370.343Z" fill="#A2C7EB"/>
<path d="M95.142 395.984C81.408 399.638 66.414 398.819 52.995 393.716C75.423 372.8 108.624 363.161 139.809 368.453C121.161 384.329 108.813 392.393 95.142 395.984Z" fill="#A2C7EB"/>
<path d="M106.167 302.933C85.566 275.15 80.022 237.791 91.677 206.039C100.623 221.159 108.309 237.098 111.9 254.108C115.491 271.118 114.798 289.199 106.167 302.933Z" fill="#A2C7EB"/>
<path d="M118.704 329.645C113.853 300.224 123.933 268.976 145.164 247.619C147.621 278.111 138.297 309.17 118.704 329.645Z" fill="#A2C7EB"/>
<path d="M11.856 224.372C74.478 264.44 123.429 324.101 149.259 391.952" stroke="#6F8BBF" stroke-width="1.26" stroke-linecap="round"/>
<path d="M93.63 220.655C101.253 251.588 105.852 283.151 107.427 314.777" stroke="#6F8BBF" stroke-width="1.26" stroke-linecap="round"/>
<path d="M140.502 259.589C138.045 284.537 130.296 308.918 118.011 330.905" stroke="#6F8BBF" stroke-width="1.26" stroke-linecap="round"/>
<path d="M13.998 298.271C42.726 303.689 71.895 306.65 101.064 307.091" stroke="#6F8BBF" stroke-width="1.26" stroke-linecap="round"/>
<path d="M31.323 335.315C57.783 333.362 83.802 326.936 107.868 316.415" stroke="#6F8BBF" stroke-width="1.26" stroke-linecap="round"/>
<path d="M47.199 370.595C71.601 358.415 96.003 346.235 120.405 334.055" stroke="#6F8BBF" stroke-width="1.26" stroke-linecap="round"/>
<path d="M63.075 392.141C94.953 385.967 104.403 378.659 139.809 368.453" stroke="#6F8BBF" stroke-width="1.26" stroke-linecap="round"/>
<path d="M264.864 333.74C264.864 333.74 267.636 359.003 270.723 361.019C276.267 364.673 340.149 373.115 340.149 373.115L338.07 389.747C338.07 389.747 250.563 397.559 246.846 393.212C240.357 385.652 229.017 349.049 229.017 349.049L264.864 333.74Z" fill="#E06A58"/>
<path d="M222.717 268.598L229.773 251.651C229.773 251.651 248.925 260.66 255.288 271.811C262.029 283.655 270.345 346.907 270.345 346.907C270.345 346.907 236.451 354.719 230.214 351.38C224.04 348.104 222.717 268.598 222.717 268.598V268.598Z" fill="#F2AE30"/>
<path d="M180.129 197.093C181.263 200.18 181.641 203.456 183.405 206.228C187.626 212.969 198.21 214.544 202.242 221.348C206.463 228.467 201.234 237.602 194.115 242.264C187.563 246.485 179.247 248.816 174.585 254.864C172.317 257.762 171.12 261.29 169.167 264.377C164.757 271.37 156.63 275.843 148.125 277.67C139.62 279.497 130.737 278.867 122.106 277.607C115.869 276.662 109.443 275.276 104.466 271.559C99.552 267.905 96.528 261.353 99.048 255.935C100.938 251.84 105.537 248.942 106.23 244.595C106.923 240.5 103.962 236.72 102.513 232.814C98.859 222.923 106.797 210.89 117.885 209.378C121.476 208.937 125.13 209.441 128.721 209.189C132.312 208.937 136.155 207.74 138.108 204.905C140.124 201.944 139.557 198.038 140.817 194.699C142.644 190.037 148.062 187.265 153.354 186.824C158.646 186.446 163.938 188.021 168.852 189.848C176.16 192.557 178.932 194.069 180.129 197.093V197.093Z" fill="#0A2240"/>
<path d="M159.402 242.201C166.836 238.295 171.183 229.349 174.018 220.277C176.664 211.772 177.861 203.141 178.932 198.731C187.5 205.85 202.431 210.071 218.181 213.662C214.905 223.301 213.96 228.53 212.952 238.043C212.868 239.177 213.036 240.248 213.456 241.256C214.086 242.705 215.157 243.902 216.606 244.721C218.118 245.666 219.819 246.611 221.646 247.619C219.693 257.195 214.968 266.519 207.849 274.079C206.463 275.528 204.636 277.103 202.494 276.914C200.415 276.788 198.966 275.213 197.706 273.764C186.996 261.479 173.955 250.769 159.402 242.201V242.201Z" fill="#F9A07B"/>
<path d="M212.952 238.043C212.868 239.177 213.036 240.269 213.456 241.319C204.069 252.659 183.216 237.791 174.018 220.34C176.664 211.772 177.861 203.141 178.932 198.731C187.5 205.85 202.431 210.134 218.181 213.662C214.905 223.301 213.96 228.53 212.952 238.043V238.043Z" fill="#E06A58"/>
<path d="M239.034 375.131C236.955 388.802 251.697 403.544 252.075 410.852C220.701 410.852 154.992 412.742 121.539 408.206C120.027 399.764 136.533 380.801 136.533 362.027C136.533 359.549 136.449 356.84 136.281 353.9C135.714 345.521 134.517 335.567 133.131 325.361C129.414 298.019 124.437 268.724 128.091 262.676C135.273 250.832 152.094 242.768 160.41 239.303C163.245 238.169 165.135 237.476 165.261 237.413C175.719 255.242 196.95 270.425 205.014 269.732C207.219 269.606 213.834 267.275 218.181 245.288C219.882 246.233 221.583 247.115 223.284 247.997C231.6 252.344 239.412 255.872 241.617 261.416C247.539 276.095 253.335 312.95 252.075 326.054C250.752 339.284 245.46 349.427 241.743 362.657C240.861 365.807 240.042 369.083 239.412 372.674C239.244 373.472 239.118 374.291 239.034 375.131V375.131Z" fill="#FEBD17"/>
<path d="M252.075 410.852C220.701 410.852 154.992 412.742 121.539 408.206C120.027 399.764 136.533 380.801 136.533 362.027C136.533 359.549 136.449 356.84 136.281 353.9C135.714 345.521 134.517 335.567 133.131 325.361C139.053 331.661 147.684 305.201 151.527 312.95C172.254 354.782 188.634 365.744 216.984 365.744C225.489 365.744 233.301 364.61 241.743 362.657C240.861 365.807 240.042 369.083 239.412 372.674C239.286 373.472 239.16 374.291 239.034 375.131C236.955 388.802 251.697 403.544 252.075 410.852V410.852Z" fill="#FFBB33"/>
<path d="M223.284 247.997C221.961 257.762 217.929 270.992 206.337 274.457C190.65 279.182 167.907 249.824 160.41 239.303C163.245 238.169 165.135 237.476 165.261 237.413C175.719 255.242 196.95 270.425 205.014 269.732C207.219 269.606 213.834 267.275 218.181 245.288C219.882 246.233 221.583 247.115 223.284 247.997Z" fill="#FCE172"/>
<path d="M425.325 395.795L424.947 408.206L229.647 407.072L229.773 396.11L425.325 395.795Z" fill="#325F73"/>
<path d="M295.356 399.512L291.639 396.551L362.955 293.294L505.209 294.239L509.556 298.649L295.356 399.512Z" fill="#325F73"/>
<path d="M509.556 298.649L429.798 400.205L295.356 399.512L365.727 297.137L509.556 298.649Z" fill="#0B2D50"/>
<path d="M399.684 346.844C408.315 346.844 415.371 350.372 415.371 354.656C415.371 359.003 408.315 362.468 399.684 362.468C391.053 362.468 384.06 359.003 384.06 354.656C384.06 350.372 391.053 346.844 399.684 346.844Z" fill="#3C738C"/>
<path d="M232.608 196.085C234.876 184.178 243.003 175.736 250.878 177.185C258.69 178.634 263.289 189.47 261.021 201.377C258.816 213.284 250.689 221.726 242.814 220.277C235.002 218.765 230.403 207.992 232.608 196.085V196.085Z" fill="#56C4F9"/>
<path d="M261.084 164.018C259.635 174.35 254.973 185.816 248.232 198.416C245.901 188.084 244.389 175.484 242.247 162.884C240.168 150.284 237.459 137.684 232.734 127.352C231.663 125.084 230.529 122.879 229.269 120.863C232.041 120.611 234.876 120.863 237.585 121.619C241.743 122.753 245.712 124.895 248.925 127.793C254.28 132.581 257.808 139.07 259.95 145.874C261.714 151.544 262.029 157.592 261.084 164.018V164.018Z" fill="#0B2D50"/>
<path d="M253.146 174.728C253.083 176.744 252.957 178.823 252.768 180.902C249.87 214.418 235.821 237.413 214.275 237.413C183.846 237.413 164.19 203.33 164.19 169.94C164.19 136.991 184.35 113.114 207.975 115.886C221.583 117.461 231.537 121.997 238.593 128.612C243.318 133.022 246.657 138.314 248.988 144.425C251.634 151.166 252.894 158.852 253.146 167.168V167.231C253.272 169.688 253.272 172.145 253.146 174.728Z" fill="#F9A07B"/>
<path d="M253.146 174.728C252.264 171.515 250.878 168.302 249.051 165.467C231.159 174.854 209.739 178.508 189.516 175.043C185.673 178.256 181.893 181.406 178.113 184.619C178.176 169.373 178.365 159.041 184.35 151.67C189.894 144.74 199.218 142.094 208.038 140.96C217.992 139.7 228.072 139.7 237.963 141.149C241.743 141.716 245.712 142.535 248.988 144.425C251.634 151.229 252.894 158.915 253.146 167.168C253.146 167.231 253.209 167.231 253.209 167.231C253.272 169.688 253.272 172.145 253.146 174.728Z" fill="#E06A58"/>
<path d="M257.556 154.064C253.398 157.592 248.169 160.553 242.247 162.884C225.552 169.625 203.88 171.893 186.933 171.074C178.617 189.344 175.278 195.896 173.136 211.835C165.009 204.212 158.394 190.226 156.441 179.264C154.488 168.302 154.677 156.836 157.701 146.126C162.489 129.179 174.648 120.107 183.027 115.697C185.106 114.5 186.996 113.744 188.445 113.177C199.155 109.019 211.251 109.397 222.276 112.736C228.261 114.626 233.301 117.776 237.585 121.619C246.153 129.368 251.445 139.889 254.847 147.764C255.981 150.158 256.8 152.363 257.556 154.064Z" fill="#0B2D50"/>
<path d="M261.084 164.018C260.391 160.364 259.32 156.773 257.871 153.371C257.073 151.439 256.086 149.57 254.91 147.764C251.067 141.716 245.523 136.802 238.782 134.597C236.892 131.909 234.876 129.494 232.734 127.352C225.111 119.603 216.165 115.193 206.715 113.618C198.84 112.358 190.587 113.114 183.027 115.634C185.106 114.5 186.996 113.744 188.508 113.114C199.218 109.019 211.314 109.397 222.276 112.736C228.261 114.626 233.364 117.776 237.585 121.619C241.806 122.753 245.712 124.895 248.925 127.793C254.28 132.581 257.871 139.07 259.95 145.874C261.714 151.544 262.029 157.592 261.084 164.018V164.018Z" fill="#225570"/>
<path d="M196.635 184.556C202.242 181.343 208.101 179.894 216.228 182.918" stroke="#0B2D50" stroke-width="2.52" stroke-linecap="round"/>
<path d="M235.128 184.367C239.916 180.776 247.035 180.398 250.752 184.367" stroke="#0B2D50" stroke-width="2.52" stroke-linecap="round"/>
<path d="M229.269 202.637C229.773 205.22 229.521 210.827 228.324 213.347" stroke="#CC454E" stroke-width="2.52" stroke-linecap="round"/>
<path d="M210.306 197.093C211.566 197.093 212.637 198.731 212.637 200.747C212.637 202.763 211.566 204.401 210.306 204.401C209.046 204.401 207.975 202.763 207.975 200.747C207.975 198.731 209.046 197.093 210.306 197.093Z" fill="#262D40"/>
<path d="M240.609 195.392C241.869 195.392 242.94 197.03 242.94 199.046C242.94 201.062 241.869 202.7 240.609 202.7C239.349 202.7 238.278 201.062 238.278 199.046C238.278 197.03 239.349 195.392 240.609 195.392Z" fill="#262D40"/>
<path d="M226.434 218.324C226.434 218.324 225.993 219.206 225.111 220.403C223.725 222.23 221.394 224.75 218.244 225.758C216.921 226.199 215.472 226.325 213.834 226.073C209.109 225.191 207.849 220.844 207.66 217.442C207.618 216.812 207.597 216.224 207.597 215.678C207.597 214.292 207.786 213.41 207.786 213.41C215.346 217.568 226.434 218.324 226.434 218.324V218.324Z" fill="#CC454E"/>
<path d="M226.434 218.324C226.434 218.324 225.993 219.206 225.111 220.403C221.268 220.403 213.33 218.387 207.597 215.678C207.597 214.292 207.786 213.41 207.786 213.41C215.346 217.568 226.434 218.324 226.434 218.324V218.324Z" fill="white"/>
<path d="M218.244 225.758C216.921 226.199 215.472 226.325 213.834 226.01C209.109 225.191 207.849 220.844 207.66 217.442C209.928 217.757 212.133 218.639 213.96 220.025C215.913 221.474 217.362 223.49 218.244 225.758Z" fill="#E8729B"/>
<path d="M168.222 177.752C168.222 177.752 170.49 158.726 175.089 146.504C179.751 134.219 192.54 122.69 202.809 118.469C212.826 114.437 225.237 114.752 233.49 116.894C246.027 120.107 252.39 131.321 252.39 131.321C252.39 131.321 240.168 118.217 220.638 118.91C204.384 119.477 187.689 127.856 179.499 147.449C172.947 163.073 173.199 178.76 173.199 178.76L168.222 177.752Z" fill="#3D86E0"/>
<path d="M168.096 173.783C176.475 172.901 184.35 182.477 185.61 195.14C186.933 207.866 181.263 218.828 172.884 219.71C164.505 220.592 156.63 211.016 155.307 198.29C154.047 185.627 159.717 174.665 168.096 173.783V173.783Z" fill="#56C4F9"/>
<path d="M163.875 181.217C169.23 180.398 174.774 187.454 176.223 196.967C177.672 206.417 174.396 214.796 169.041 215.615C163.623 216.434 158.079 209.378 156.63 199.865C155.244 190.352 158.457 182.036 163.875 181.217V181.217Z" fill="#3D86E0"/>
<path d="M220.764 227.774C225.237 227.774 228.828 230.042 228.828 232.814C228.828 235.649 225.237 237.917 220.764 237.917C216.228 237.917 212.637 235.649 212.637 232.814C212.637 230.042 216.228 227.774 220.764 227.774Z" fill="#3A92C9"/>
<path d="M180.003 215.93C180.003 215.93 191.91 231.239 212.637 232.814" stroke="#3A92C9" stroke-width="2.52" stroke-linecap="round"/>
<path d="M229.647 366.941L228.828 387.101C228.828 387.101 156 408.962 143.967 402.032C138.108 398.63 132.627 380.108 128.532 361.964C124.248 342.875 121.476 324.353 121.476 324.353L164.19 315.974C164.19 315.974 164.19 342.056 165.639 357.113C166.206 362.72 166.899 366.752 167.907 367.445C171.687 369.902 229.647 366.941 229.647 366.941V366.941Z" fill="#F9A07B"/>
<path d="M165.639 357.05C157.89 359.57 142.896 363.476 128.532 361.964C124.248 342.875 121.476 324.353 121.476 324.353L164.19 315.974C164.19 315.974 164.19 341.993 165.639 357.05V357.05Z" fill="#E06A58"/>
<path d="M227.568 367.13C238.404 364.862 256.737 359.255 264.36 357.365C269.778 355.979 283.827 363.287 287.544 370.154C289.182 373.115 290.694 390.125 285.087 388.361C282.252 387.479 282.693 380.234 281.811 377.21C281.118 374.816 278.85 372.485 275.322 370.469C277.653 376.265 277.59 381.305 277.338 387.605C277.275 388.991 277.212 390.44 276.519 391.637C275.826 392.834 274.377 393.716 273.117 393.149C271.857 392.645 271.416 391.007 271.101 389.621C270.093 384.77 269.085 379.982 268.707 374.501C268.77 379.856 268.707 385.274 268.329 390.629C268.077 394.724 266.061 396.992 263.541 396.299C262.407 395.984 261.966 394.913 261.462 393.59C260.706 396.173 258.816 399.134 256.422 398C254.91 397.307 253.965 391.952 254.28 386.471C249.555 389.369 244.263 390.566 238.152 390.881C232.734 391.133 227.127 390.125 223.851 386.408C224.166 380.549 226.056 371.981 227.568 367.13V367.13Z" fill="#F9A07B"/>
<path d="M261.588 392.708C261.966 388.361 261.588 383.951 260.454 379.73" stroke="#CC454E" stroke-width="1.26" stroke-linecap="round"/>
<path d="M170.49 351.002C158.52 352.703 130.359 352.64 116.373 346.781C116.373 346.781 111.081 287.309 121.476 266.582C127.587 254.36 144.912 247.115 144.912 247.115C144.912 247.115 156.315 265.007 159.402 273.701C165.576 291.152 170.49 351.002 170.49 351.002V351.002Z" fill="#FFC73C"/>
<path d="M161.607 277.355C166.332 299.972 168.852 321.077 169.671 341.741" stroke="#F2AE30" stroke-width="1.26" stroke-linecap="round"/>
<path d="M35.607 404.615H532.425V417.089H35.607V404.615Z" fill="#0B2D50"/>
</svg>
