<svg width="21" height="22" viewBox="0 0 21 22" fill="none" xmlns="http://www.w3.org/2000/svg">
<path d="M19.2975 4.4H3.70502C3.14814 4.4 2.59127 3.96 2.59127 3.3C2.59127 2.75 3.14814 2.2 3.70502 2.2H19.2975C19.8544 2.2 20.4113 1.76 20.4113 1.1C20.4113 0.55 19.8544 0 19.2975 0H3.70502C1.81164 0 0.36377 1.54 0.36377 3.3V18.7C0.36377 20.57 1.92302 22 3.70502 22H19.2975C19.8544 22 20.4113 21.56 20.4113 20.9V5.5C20.4113 4.95 19.8544 4.4 19.2975 4.4ZM10.3875 7.7C11.6126 7.7 12.615 8.69 12.615 9.9C12.615 11.11 11.6126 12.1 10.3875 12.1C9.16239 12.1 8.16002 11.11 8.16002 9.9C8.16002 8.69 9.16239 7.7 10.3875 7.7ZM5.93252 18.7C5.93252 17.49 6.48939 16.39 7.26902 15.62C8.04864 14.85 9.16239 14.3 10.3875 14.3C12.8378 14.3 14.8425 16.28 14.8425 18.7H5.93252Z" fill="black"/>
</svg>
