<svg width="46" height="46" viewBox="0 0 46 46" fill="none" xmlns="http://www.w3.org/2000/svg">
<path d="M45.5375 23C45.5375 35.7025 35.4152 46 22.9287 46C10.4421 46 0.319824 35.7025 0.319824 23C0.319824 10.2975 10.4421 0 22.9287 0C35.4152 0 45.5375 10.2975 45.5375 23Z" fill="#3B3B38"/>
<path d="M30.2205 24.582H24.4838V30.418C24.4838 31.2917 23.7875 32 22.9287 32C22.0698 32 21.3735 31.2917 21.3735 30.418V24.582H15.6369C14.778 24.582 14.0817 23.8737 14.0817 23C14.0817 22.1263 14.778 21.418 15.6369 21.418H21.3735V15.582C21.3735 14.7083 22.0698 14 22.9287 14C23.7875 14 24.4838 14.7083 24.4838 15.582V21.418H30.2205C31.0794 21.418 31.7756 22.1263 31.7756 23C31.7756 23.8737 31.0794 24.582 30.2205 24.582Z" fill="#FEBD17"/>
</svg>
