<svg width="95" height="96" viewBox="0 0 95 96" fill="none" xmlns="http://www.w3.org/2000/svg">
<path d="M71.2706 71.8971C84.353 58.8146 84.353 37.6038 71.2706 24.5214C58.1881 11.4389 36.9773 11.4389 23.8949 24.5214C10.8124 37.6038 10.8124 58.8146 23.8949 71.8971C36.9773 84.9795 58.1881 84.9795 71.2706 71.8971Z" fill="#DD85D8"/>
<path d="M47.6 83.3001C28.2 83.3001 12.5 67.6001 12.5 48.2001C12.5 39.5001 15.7 31.2001 21.5 24.7001C22.1 24.0001 23.1 24.0001 23.8 24.6001C24.5 25.2001 24.5 26.2001 23.9 26.9001C18.6 32.8001 15.7 40.3001 15.7 48.2001C15.7 65.8001 30 80.0001 47.5 80.0001C65.1 80.0001 79.3 65.7001 79.3 48.2001C79.3 30.6001 65 16.4001 47.5 16.4001C46.5 16.4001 45.5 16.4001 44.6 16.5001C43.7 16.6001 42.9 15.9001 42.8 15.0001C42.7 14.1001 43.4 13.3001 44.3 13.2001C45.4 13.1001 46.5 13.1001 47.5 13.1001C66.9 13.1001 82.6 28.8001 82.6 48.2001C82.7 67.6001 67 83.3001 47.6 83.3001Z" fill="#681D65"/>
<path d="M46.9997 52.9002H40.2997C39.3997 52.9002 38.6997 52.2002 38.6997 51.3002C38.6997 50.4002 39.3997 49.7002 40.2997 49.7002H46.9997C47.8997 49.7002 48.5997 50.4002 48.5997 51.3002C48.5997 52.2002 47.8997 52.9002 46.9997 52.9002Z" fill="#681D65"/>
<path d="M56.8 42.8002C58.8987 42.8002 60.6 41.0989 60.6 39.0002C60.6 36.9015 58.8987 35.2002 56.8 35.2002C54.7013 35.2002 53 36.9015 53 39.0002C53 41.0989 54.7013 42.8002 56.8 42.8002Z" fill="#681D65"/>
<path d="M32.1999 40.8002C34.2986 40.8002 35.9999 39.0989 35.9999 37.0002C35.9999 34.9015 34.2986 33.2002 32.1999 33.2002C30.1012 33.2002 28.3999 34.9015 28.3999 37.0002C28.3999 39.0989 30.1012 40.8002 32.1999 40.8002Z" fill="#681D65"/>
<path d="M24.5998 20.3001C24.1998 20.3001 23.8998 20.2001 23.5998 19.9001C22.8998 19.3001 22.7999 18.3001 23.3999 17.6001C25.1999 15.3001 27.8998 14.1001 30.7998 14.1001C32.7998 14.1001 34.6999 14.7001 36.3999 15.9001C37.0999 16.4001 37.2998 17.4001 36.7998 18.2001C36.2998 18.9001 35.2998 19.1001 34.4998 18.6001C33.3998 17.8001 32.1999 17.4001 30.8999 17.4001C28.9999 17.4001 27.1998 18.2001 25.9998 19.7001C25.4998 20.1001 24.9998 20.3001 24.5998 20.3001Z" fill="#681D65"/>
<path d="M65.3997 32.4001C64.7997 32.4001 64.1996 32.1001 63.9996 31.5001C62.8996 29.4001 60.7996 28.1001 58.4996 28.1001C57.4996 28.1001 56.5997 28.3001 55.6997 28.8001C54.8997 29.2001 53.8996 28.9001 53.4996 28.1001C53.0996 27.3001 53.3997 26.3001 54.1997 25.9001C55.4997 25.2001 56.9996 24.9001 58.4996 24.9001C62.0996 24.9001 65.2997 26.9001 66.8997 30.1001C67.2997 30.9001 66.9997 31.9001 66.1997 32.3001C65.8997 32.4001 65.6997 32.4001 65.3997 32.4001Z" fill="#681D65"/>
<path d="M55.6001 62.3002C54.4001 61.3002 52.8001 60.9002 51.3001 61.2002L32.6001 64.6002V54.9002C32.6001 52.0002 30.3001 49.7002 27.4001 49.7002C25.1001 49.7002 23.0001 51.3002 22.4001 53.5002C20.6001 59.9002 18.2001 65.0002 15.4001 68.6002C13.6001 70.9002 12.6001 73.7002 12.6001 76.5002V80.5002C12.6001 86.5002 16.8001 91.7002 22.7001 92.7002C23.9001 92.9002 25.2001 93.0002 26.6001 93.0002C27.2001 93.0002 27.9001 93.0002 28.5001 92.9002C32.9001 93.0002 37.5001 92.4002 42.3001 91.2002C44.5001 90.6002 46.1001 88.7002 46.1001 86.4002V84.2002C47.0001 83.4002 47.6001 82.2002 47.6001 80.9002C47.6001 80.1002 47.4001 79.4002 47.0001 78.8002C48.0001 77.9002 48.7001 76.7002 48.7001 75.2002C48.7001 74.3002 48.5001 73.5002 48.0001 72.8002L53.6001 71.4002C55.9001 70.8002 57.5001 68.7002 57.5001 66.3002C57.5001 64.7002 56.8001 63.3002 55.6001 62.3002Z" fill="#681D65"/>
<path d="M52.7003 68.2003L43.5003 70.6003C42.7003 70.8003 42.2003 71.6003 42.3003 72.4003C42.4003 73.2003 43.1003 73.8003 43.9003 73.8003C44.7003 73.8003 45.3003 74.4003 45.3003 75.2003C45.3003 76.0003 44.7003 76.6003 43.9003 76.6003H43.8003C43.7003 76.6003 43.6003 76.6003 43.5003 76.6003C43.4003 76.6003 43.3003 76.6003 43.2003 76.6003C42.3003 76.6003 41.6003 77.3003 41.6003 78.2003C41.6003 79.1003 42.3003 79.8003 43.2003 79.8003C43.8003 79.8003 44.2003 80.3003 44.2003 80.8003C44.2003 81.3003 43.9003 81.7003 43.4003 81.8003C42.5003 82.0003 42.0003 82.8003 42.1003 83.7003C42.2003 84.1003 42.4003 84.4003 42.7003 84.6003V86.2003C42.7003 87.0003 42.2003 87.7003 41.4003 87.8003C36.9003 88.9003 32.5003 89.5003 28.4003 89.4003H28.3003C26.3003 89.5003 24.6003 89.4003 23.2003 89.2003C18.9003 88.4003 15.8003 84.6003 15.8003 80.2003V76.2003C15.8003 74.1003 16.5003 72.1003 17.9003 70.4003C21.0003 66.4003 23.5003 61.1003 25.5003 54.2003C25.7003 53.4003 26.5003 52.8003 27.4003 52.8003C28.5003 52.8003 29.4003 53.7003 29.4003 54.8003V66.5003C29.4003 67.0003 29.6003 67.4003 30.0003 67.7003C30.4003 68.0003 30.9003 68.1003 31.3003 68.1003L51.9003 64.3003C52.5003 64.2003 53.1003 64.3003 53.5003 64.7003C54.0003 65.1003 54.2003 65.6003 54.2003 66.2003C54.2003 67.2003 53.6003 68.0003 52.7003 68.2003Z" fill="#DD85D8"/>
</svg>
