<svg width="31" height="38" viewBox="0 0 31 38" fill="none" xmlns="http://www.w3.org/2000/svg">
<path d="M24.1295 16.6244C20.4835 16.6244 17.5168 19.5544 17.5168 23.1554C17.5168 26.7564 20.4835 29.6864 24.1295 29.6864C27.7755 29.6864 30.7421 26.7564 30.7421 23.1554C30.7421 19.5544 27.7755 16.6244 24.1295 16.6244ZM26.9331 22.1075C25.0108 24.9557 25.5559 24.1482 24.5285 25.6698C24.1595 26.2165 23.4123 26.3615 22.8611 25.9986L21.0576 24.8112C20.5053 24.4475 20.3565 23.7105 20.7247 23.1643C21.0929 22.6188 21.8391 22.4719 22.3922 22.8355L23.1947 23.3639C25.1122 20.5236 25.0091 20.6022 25.3318 20.4205C26.4269 19.7949 27.6368 21.0635 26.9331 22.1075ZM18.7191 30.2757V36.8111C18.7191 37.721 19.7169 38.2943 20.5181 37.842L24.1295 35.804L27.7409 37.842C28.5388 38.2937 29.5398 37.7235 29.5398 36.8111V30.2757C26.3366 32.6559 21.9269 32.6593 18.7191 30.2757ZM26.5341 14.5716V2.57901C26.5341 1.15703 25.3626 0 23.9228 0H2.69474C1.25499 0 0.0834961 1.15703 0.0834961 2.57901V30.076C0.0834961 31.498 1.25499 32.655 2.69474 32.655H16.3145C16.3145 27.545 16.3065 27.8614 16.3333 27.6262C12.3085 20.8111 18.7174 12.4276 26.5341 14.5716ZM7.29729 5.93728H17.5168C18.1811 5.93728 18.7191 6.46867 18.7191 7.12474C18.7191 7.78081 18.1811 8.31219 17.5168 8.31219H7.29729C6.63302 8.31219 6.09499 7.78081 6.09499 7.12474C6.09499 6.46867 6.63302 5.93728 7.29729 5.93728ZM13.3088 17.8118H7.29729C6.63302 17.8118 6.09499 17.2805 6.09499 16.6244C6.09499 15.9683 6.63302 15.4369 7.29729 15.4369H13.3088C13.9731 15.4369 14.5111 15.9683 14.5111 16.6244C14.5111 17.2805 13.9731 17.8118 13.3088 17.8118ZM7.29729 13.062C6.63302 13.062 6.09499 12.5306 6.09499 11.8746C6.09499 11.2185 6.63302 10.6871 7.29729 10.6871H17.5168C18.1811 10.6871 18.7191 11.2185 18.7191 11.8746C18.7191 12.5306 18.1811 13.062 17.5168 13.062H7.29729Z" fill="white"/>
</svg>
