<svg width="41" height="38" viewBox="0 0 41 38" fill="none" xmlns="http://www.w3.org/2000/svg">
<path d="M22.2933 20.2923V30.2988L25.5685 27.0236L28.1037 29.5588L20.5016 37.1591L12.8996 29.5588L15.4348 27.0236L18.71 30.2988V20.2923H22.2933ZM20.5016 0.583984C23.5779 0.584131 26.5468 1.71473 28.844 3.76082C31.1411 5.80691 32.6063 8.62581 32.9609 11.6816C35.1902 12.2895 37.135 13.6615 38.4553 15.5579C39.7757 17.4542 40.3876 19.7543 40.1842 22.056C39.9808 24.3578 38.975 26.5148 37.3425 28.1502C35.7101 29.7856 33.5548 30.7953 31.2534 31.0029L31.2516 27.459C31.2545 24.641 30.1506 21.9345 28.1778 19.9222C26.2049 17.91 23.5208 16.7529 20.7032 16.7001C17.8857 16.6472 15.1601 17.7029 13.1131 19.6397C11.0662 21.5765 9.86165 24.2397 9.75881 27.0559L9.75164 27.459V31.0029C7.45016 30.7957 5.2947 29.7862 3.66201 28.1509C2.02931 26.5156 1.02323 24.3586 0.819599 22.0568C0.615971 19.755 1.22775 17.4548 2.54801 15.5583C3.86827 13.6618 5.81303 12.2896 8.04239 11.6816C8.39661 8.62566 9.86166 5.80653 12.1589 3.76037C14.4561 1.7142 17.4253 0.583739 20.5016 0.583984Z" fill="black"/>
</svg>
