<svg width="22" height="22" viewBox="0 0 22 22" fill="none" xmlns="http://www.w3.org/2000/svg">
<path d="M3.46338 21.1544H12.9826C14.4973 21.1544 15.7326 19.919 15.7326 18.4044V3.60515C15.7326 2.08203 14.4973 0.84668 12.9826 0.84668H3.46338C1.94873 0.84668 0.713379 2.08203 0.713379 3.60515V18.4044C0.713379 19.919 1.94873 21.1544 3.46338 21.1544ZM4.94084 4.2347H11.5035C11.9712 4.2347 12.3496 4.61316 12.3496 5.08086C12.3496 5.54856 11.9712 5.92701 11.5035 5.92701H4.94084C4.47315 5.92701 4.09469 5.54856 4.09469 5.08086C4.09469 4.61316 4.47315 4.2347 4.94084 4.2347ZM4.94084 8.1837H11.5035C11.9712 8.1837 12.3496 8.56215 12.3496 9.02985C12.3496 9.49755 11.9712 9.87601 11.5035 9.87601H4.94084C4.47315 9.87601 4.09469 9.49755 4.09469 9.02985C4.09469 8.56215 4.47315 8.1837 4.94084 8.1837ZM4.94084 12.1319H11.5035C11.9712 12.1319 12.3496 12.5103 12.3496 12.978C12.3496 13.4457 11.9712 13.8242 11.5035 13.8242H4.94084C4.47315 13.8242 4.09469 13.4457 4.09469 12.978C4.09469 12.5103 4.47315 12.1319 4.94084 12.1319ZM4.94084 16.0809H8.22217C8.68987 16.0809 9.06832 16.4593 9.06832 16.927C9.06832 17.3947 8.68987 17.7732 8.22217 17.7732H4.94084C4.47315 17.7732 4.09469 17.3947 4.09469 16.927C4.09469 16.4593 4.47315 16.0809 4.94084 16.0809Z" fill="white"/>
<path d="M21.2859 7.96514C21.2859 6.69591 20.2536 5.66362 18.9929 5.66362C17.7236 5.66362 16.6911 6.69591 16.6911 7.96514V8.96359H21.2859V7.96514Z" fill="white"/>
<path d="M16.6911 17.9497C16.6911 18.0429 16.7166 18.1359 16.7758 18.2036L18.6543 20.5898C18.739 20.6913 18.8573 20.7505 18.9929 20.7505C19.1197 20.7505 19.2383 20.6913 19.3228 20.5898L21.2012 18.2036C21.2605 18.1359 21.2859 18.0429 21.2859 17.9497V10.6559H16.6911V17.9497Z" fill="white"/>
</svg>
