<svg width="17" height="17" viewBox="0 0 17 17" fill="none" xmlns="http://www.w3.org/2000/svg">
<path d="M11.6885 1.5L10.001 3.16667H1.76855V14.8333H13.5811V6.7025L15.2686 5.03583V15.6667C15.2686 15.8877 15.1797 16.0996 15.0214 16.2559C14.8632 16.4122 14.6486 16.5 14.4248 16.5H0.924805C0.701028 16.5 0.486417 16.4122 0.328183 16.2559C0.169949 16.0996 0.0810547 15.8877 0.0810547 15.6667V2.33333C0.0810547 2.11232 0.169949 1.90036 0.328183 1.74408C0.486417 1.5878 0.701028 1.5 0.924805 1.5H11.6885ZM14.834 0.75L16.0279 1.93L8.27218 9.59L7.0808 9.5925L7.07912 8.41167L14.834 0.75Z" fill="#FEBD17"/>
</svg>
