<svg width="27" height="23" viewBox="0 0 27 23" fill="none" xmlns="http://www.w3.org/2000/svg">
<path d="M18.1755 15.4948V1.21875H1.70312V15.4948H18.1755ZM18.1755 15.4948L25.8634 15.4951V10.0043L22.569 6.70982H18.1763L18.1755 15.4948ZM9.39512 18.2401C9.39512 19.7564 8.16597 20.9855 6.64973 20.9855C5.13349 20.9855 3.90434 19.7564 3.90434 18.2401C3.90434 16.7239 5.13349 15.4947 6.64973 15.4947C8.16597 15.4947 9.39512 16.7239 9.39512 18.2401ZM23.6671 18.2401C23.6671 19.7564 22.438 20.9855 20.9217 20.9855C19.4055 20.9855 18.1763 19.7564 18.1763 18.2401C18.1763 16.7239 19.4055 15.4947 20.9217 15.4947C22.438 15.4947 23.6671 16.7239 23.6671 18.2401Z" stroke="black" stroke-width="2.19631" stroke-linecap="round" stroke-linejoin="round"/>
</svg>
