<svg width="24" height="24" viewBox="0 0 24 24" fill="none" xmlns="http://www.w3.org/2000/svg">
<g clip-path="url(#clip0_690_1906)">
<path d="M17 15.245V22.117C17 22.2054 16.9766 22.2923 16.932 22.3688C16.8875 22.4452 16.8235 22.5085 16.7465 22.5521C16.6696 22.5957 16.5824 22.6181 16.4939 22.617C16.4055 22.616 16.3189 22.5914 16.243 22.546L12 20L7.757 22.546C7.68104 22.5915 7.59436 22.616 7.50581 22.617C7.41727 22.6181 7.33004 22.5956 7.25304 22.5518C7.17605 22.5081 7.11205 22.4447 7.06759 22.3681C7.02313 22.2915 6.9998 22.2045 7 22.116V15.246C5.70615 14.2101 4.76599 12.7979 4.30946 11.2045C3.85293 9.61117 3.90256 7.91536 4.45149 6.35145C5.00043 4.78753 6.02156 3.43272 7.37378 2.47425C8.726 1.51578 10.3425 1.00098 12 1.00098C13.6575 1.00098 15.274 1.51578 16.6262 2.47425C17.9784 3.43272 18.9996 4.78753 19.5485 6.35145C20.0974 7.91536 20.1471 9.61117 19.6905 11.2045C19.234 12.7979 18.2939 14.2101 17 15.246V15.245ZM12 15C13.5913 15 15.1174 14.3678 16.2426 13.2426C17.3679 12.1174 18 10.5913 18 8.99997C18 7.40868 17.3679 5.88255 16.2426 4.75733C15.1174 3.63212 13.5913 2.99997 12 2.99997C10.4087 2.99997 8.88258 3.63212 7.75736 4.75733C6.63214 5.88255 6 7.40868 6 8.99997C6 10.5913 6.63214 12.1174 7.75736 13.2426C8.88258 14.3678 10.4087 15 12 15ZM12 13C10.9391 13 9.92172 12.5785 9.17157 11.8284C8.42143 11.0783 8 10.0608 8 8.99997C8 7.93911 8.42143 6.92169 9.17157 6.17155C9.92172 5.4214 10.9391 4.99997 12 4.99997C13.0609 4.99997 14.0783 5.4214 14.8284 6.17155C15.5786 6.92169 16 7.93911 16 8.99997C16 10.0608 15.5786 11.0783 14.8284 11.8284C14.0783 12.5785 13.0609 13 12 13Z" fill="url(#paint0_linear_690_1906)"/>
<circle cx="12" cy="9" r="7" fill="#FEBD17"/>
<path d="M9.30378 5.01747H11.6734C12.7727 5.01747 13.5662 5.17763 14.054 5.49795C14.5454 5.81827 14.7911 6.32423 14.7911 7.01583C14.7911 7.48175 14.671 7.86941 14.4307 8.17881C14.1905 8.48822 13.8447 8.68296 13.3933 8.76304V8.81764C13.9539 8.9232 14.3652 9.1325 14.6273 9.44554C14.893 9.75494 15.0259 10.1754 15.0259 10.7068C15.0259 11.4239 14.7747 11.9863 14.2724 12.3939C13.7737 12.798 13.0785 13 12.1867 13H9.30378V5.01747ZM10.6087 8.31532H11.8645C12.4105 8.31532 12.8091 8.22978 13.0603 8.05869C13.3114 7.88397 13.437 7.58913 13.437 7.17417C13.437 6.79925 13.3005 6.52807 13.0275 6.36063C12.7581 6.19319 12.3286 6.10947 11.7389 6.10947H10.6087V8.31532ZM10.6087 9.37456V11.9025H11.9956C12.5416 11.9025 12.9529 11.7988 13.2295 11.5913C13.5098 11.3802 13.6499 11.049 13.6499 10.5976C13.6499 10.1826 13.508 9.87506 13.2241 9.67486C12.9401 9.47466 12.5088 9.37456 11.93 9.37456H10.6087Z" fill="white"/>
</g>
<defs>
<linearGradient id="paint0_linear_690_1906" x1="12" y1="1.00098" x2="12" y2="22.6171" gradientUnits="userSpaceOnUse">
<stop stop-color="#FFEFC9"/>
<stop offset="1" stop-color="#FFB50A"/>
</linearGradient>
<clipPath id="clip0_690_1906">
<rect width="24" height="24" fill="white"/>
</clipPath>
</defs>
</svg>
