<svg width="22" height="22" viewBox="0 0 22 22" fill="none" xmlns="http://www.w3.org/2000/svg">
<path fill-rule="evenodd" clip-rule="evenodd" d="M18.5649 5.44242C18.5649 8.44336 16.1238 10.8848 13.1229 10.8848C10.122 10.8848 7.68048 8.44336 7.68048 5.44242C7.68048 2.44148 10.122 0 13.1229 0C16.1238 0 18.5649 2.44148 18.5649 5.44242ZM15.4964 5.70742C15.5468 5.70742 15.5923 5.73284 15.6118 5.77178C15.6313 5.81073 15.6206 5.8555 15.5848 5.88529L13.0847 7.9696C13.0612 7.98897 13.0294 8.00001 12.9962 8.00001C12.963 8.00001 12.9312 7.98897 12.9077 7.96939L10.4148 5.88509C10.3791 5.85531 10.3686 5.81052 10.3878 5.77158C10.4073 5.73285 10.4528 5.70743 10.5033 5.70743H11.8778V3.10414C11.8778 3.04665 11.9338 3 12.0028 3H14.0021C14.0711 3 14.1271 3.04665 14.1271 3.10414V5.70742H15.4964Z" fill="white"/>
<path d="M4.30484 13.9817C4.13962 13.6953 3.77262 13.5956 3.48443 13.7619L0.452644 15.512C0.16557 15.6781 0.0670857 16.0453 0.232816 16.3328L3.33146 21.6997C3.49732 21.9866 3.86428 22.0852 4.15187 21.9195L7.18366 20.1689C7.47116 20.0032 7.56926 19.636 7.40348 19.3485L4.30484 13.9817Z" fill="white"/>
<path d="M21.6767 12.9104C21.3849 12.5052 20.8203 12.4137 20.4155 12.7054C19.1875 13.5902 16.8294 15.2892 16.642 15.4245C16.5557 15.498 16.465 15.5646 16.3705 15.6234C15.9996 15.8568 15.5695 15.9814 15.1205 15.9814H12.0332C11.6774 15.9814 11.3887 15.6931 11.3887 15.3368C11.3887 14.9802 11.6778 14.6923 12.0332 14.6923H15.3349C15.82 14.6923 16.2085 14.2884 16.1883 13.8024C16.1694 13.3414 15.7758 12.9839 15.3143 12.9839H12.801C12.6309 12.8038 12.4444 12.6388 12.2446 12.4915C11.5575 11.9849 10.7085 11.6854 9.78937 11.6854C8.15526 11.6854 6.52933 12.7149 5.85515 14.089L8.49171 18.6553H13.4374C14.4085 18.6553 15.365 18.407 16.2068 17.9227C16.4985 17.7551 16.8109 17.5536 17.1495 17.3104C18.5683 16.2912 21.4691 14.1737 21.4713 14.1724C21.8769 13.8811 21.9689 13.3156 21.6767 12.9104Z" fill="white"/>
</svg>
