<svg width="612" height="457" viewBox="0 0 612 457" fill="none" xmlns="http://www.w3.org/2000/svg">
<path d="M612 401.058H0V401.364H612V401.058Z" fill="#EBEBEB"/>
<path d="M386.38 409.393H355.217V409.699H386.38V409.393Z" fill="#EBEBEB"/>
<path d="M557.459 416.015H483.615V416.321H557.459V416.015Z" fill="#EBEBEB"/>
<path d="M348.583 409.54H272.291V409.846H348.583V409.54Z" fill="#EBEBEB"/>
<path d="M222.817 418.695H206.856V419.001H222.817V418.695Z" fill="#EBEBEB"/>
<path d="M311.006 418.695H238.325V419.001H311.006V418.695Z" fill="#EBEBEB"/>
<path d="M111.274 413.53H64.2109V413.836H111.274V413.53Z" fill="#EBEBEB"/>
<path d="M290.088 346.467H53.7458C51.8944 346.464 50.1198 345.726 48.8118 344.416C47.5037 343.105 46.769 341.33 46.769 339.478V7.24785C46.7852 5.40698 47.5269 3.64681 48.8332 2.34967C50.1396 1.05252 51.9049 0.323161 53.7458 0.320007H290.088C291.942 0.320007 293.719 1.05635 295.03 2.36705C296.341 3.67775 297.077 5.45544 297.077 7.30905V339.478C297.077 341.332 296.341 343.109 295.03 344.42C293.719 345.731 291.942 346.467 290.088 346.467V346.467ZM53.7458 0.564808C51.9755 0.568051 50.2788 1.27358 49.0281 2.52654C47.7775 3.77951 47.075 5.47751 47.075 7.24785V339.478C47.075 341.248 47.7775 342.946 49.0281 344.199C50.2788 345.452 51.9755 346.158 53.7458 346.161H290.088C291.859 346.158 293.557 345.453 294.81 344.2C296.063 342.948 296.768 341.25 296.771 339.478V7.24785C296.768 5.47639 296.063 3.77841 294.81 2.5258C293.557 1.27319 291.859 0.568044 290.088 0.564808H53.7458Z" fill="#EBEBEB"/>
<path d="M554.851 346.467H318.497C316.644 346.464 314.868 345.727 313.558 344.417C312.248 343.107 311.511 341.331 311.508 339.478V7.24785C311.527 5.40587 312.272 3.64571 313.58 2.3489C314.888 1.05209 316.655 0.323126 318.497 0.320007H554.851C556.69 0.326378 558.452 1.05716 559.756 2.35396C561.06 3.65076 561.8 5.4091 561.816 7.24785V339.478C561.816 341.328 561.083 343.102 559.777 344.412C558.472 345.722 556.701 346.461 554.851 346.467V346.467ZM318.497 0.564808C316.725 0.568044 315.027 1.27319 313.775 2.5258C312.522 3.77841 311.817 5.47639 311.814 7.24785V339.478C311.817 341.25 312.522 342.948 313.775 344.2C315.027 345.453 316.725 346.158 318.497 346.161H554.851C556.623 346.158 558.321 345.453 559.573 344.2C560.826 342.948 561.531 341.25 561.534 339.478V7.24785C561.531 5.47639 560.826 3.77841 559.573 2.5258C558.321 1.27319 556.623 0.568044 554.851 0.564808H318.497Z" fill="#EBEBEB"/>
<path d="M239.855 294.9H158.582L153.649 237.984H234.923L239.855 294.9Z" fill="#E6E6E6"/>
<path d="M244.066 294.9H162.792L157.859 237.984H239.133L244.066 294.9Z" fill="#F0F0F0"/>
<path d="M173.906 282.672L171.188 250.2H228.019L230.736 282.672H173.906Z" fill="white"/>
<path d="M258.129 294.9H248.594V401.058H258.129V294.9Z" fill="#E6E6E6"/>
<path d="M261.14 294.9H254.519V401.058H261.14V294.9Z" fill="#F0F0F0"/>
<path d="M168.839 306.614H261.141V294.9H168.839V306.614Z" fill="#F0F0F0"/>
<path d="M172.095 306.614H162.56V401.058H172.095V306.614Z" fill="#E6E6E6"/>
<path d="M175.105 306.614H168.483V401.058H175.105V306.614Z" fill="#F0F0F0"/>
<path d="M104.223 306.614H94.6885V401.058H104.223V306.614Z" fill="#E6E6E6"/>
<path d="M107.235 306.614H100.613V401.058H107.235V306.614Z" fill="#F0F0F0"/>
<path d="M197.786 306.614H188.251V401.058H197.786V306.614Z" fill="#E6E6E6"/>
<path d="M200.785 306.614H194.163V401.058H200.785V306.614Z" fill="#F0F0F0"/>
<path d="M168.838 294.9H94.6885V306.614H168.838V294.9Z" fill="#E6E6E6"/>
<path d="M445.34 30.1979H158.52V189.881H445.34V30.1979Z" fill="#E0E0E0"/>
<path d="M461.093 30.1979H159.964V189.881H461.093V30.1979Z" fill="#F5F5F5"/>
<path d="M456.172 184.96V35.1183L164.885 35.1183V184.96L456.172 184.96Z" fill="white"/>
<path d="M282.83 184.96L337.824 35.1183H247.065L192.07 184.96H282.83Z" fill="#F5F5F5"/>
<path d="M370.186 184.96L425.181 35.1183H356.71L301.716 184.96H370.186Z" fill="#F5F5F5"/>
<path d="M536.247 248.547H511.865V401.058H536.247V248.547Z" fill="#E6E6E6"/>
<path d="M529.833 401.058H536.247V389.319H523.113L529.833 401.058Z" fill="#FAFAFA"/>
<path d="M311.447 248.547H287.065V401.058H311.447V248.547Z" fill="#E6E6E6"/>
<path d="M536.247 248.547H305.853V397.887H536.247V248.547Z" fill="#FAFAFA"/>
<path d="M531.889 296.736H310.223V254.557H531.889V296.736ZM311.447 295.512H530.665V255.781H311.447V295.512Z" fill="#E6E6E6"/>
<path d="M492.868 275.035H353.54C347.077 275.035 340.847 269.82 336.404 260.714L335.988 259.845H510.408L509.992 260.714C505.512 269.82 499.392 275.035 492.868 275.035ZM337.995 261.032C342.132 269.147 347.787 273.774 353.54 273.774H492.868C498.645 273.774 504.276 269.147 508.413 261.032H337.995Z" fill="#E6E6E6"/>
<path d="M312.267 401.058H305.853V389.319H318.987L312.267 401.058Z" fill="#FAFAFA"/>
<path d="M531.889 344.264H310.223V302.134H531.889V344.264ZM311.447 343.04H530.665V303.358H311.447V343.04Z" fill="#E6E6E6"/>
<path d="M492.868 322.611H353.54C347.077 322.611 340.847 317.385 336.404 308.291L335.988 307.409H510.408L509.992 308.291C505.512 317.336 499.392 322.611 492.868 322.611ZM337.995 308.633C342.132 316.749 347.787 321.387 353.54 321.387H492.868C498.645 321.387 504.276 316.749 508.413 308.633H337.995Z" fill="#E6E6E6"/>
<path d="M531.889 391.878H310.223V349.699H531.889V391.878ZM311.447 390.654H530.665V350.923H311.447V390.654Z" fill="#E6E6E6"/>
<path d="M492.868 370.176H353.54C347.077 370.176 340.847 364.962 336.404 355.868L335.988 354.986H510.408L509.992 355.868C505.512 364.962 499.392 370.176 492.868 370.176ZM337.995 356.21C342.132 364.325 347.787 368.952 353.54 368.952H492.868C498.645 368.952 504.276 364.325 508.413 356.21H337.995Z" fill="#E6E6E6"/>
<path d="M148.08 268.719V271.681H146.195L144.628 294.9H121.568L120.013 271.681H118.116V268.719H148.08Z" fill="#E6E6E6"/>
<path d="M140.491 211.105C138.606 197.274 119.94 193.333 96.2554 192.818C73.7216 192.341 66.5 184.373 66.5 184.373C66.5 184.373 66.5734 216.65 99.0462 228.351C129.879 239.441 142.388 224.961 140.491 211.105Z" fill="#E6E6E6"/>
<path d="M128.985 242.452C129.377 236.772 138.459 226.319 160.307 231.068C176.097 234.508 181.972 226.319 181.972 226.319C181.972 226.319 180.503 249.428 156.758 256.369C134.199 262.966 128.287 252.464 128.985 242.452Z" fill="#E6E6E6"/>
<path d="M133.967 277.434C134.09 277.435 134.212 277.409 134.324 277.358C134.436 277.308 134.535 277.233 134.616 277.14C136.195 275.267 134.897 270.787 133.11 264.582C130.809 256.626 127.945 246.711 130.368 239.526C131.712 235.731 133.281 232.02 135.068 228.412C138.496 221.166 141.458 214.948 138.985 208.363C138.947 208.259 138.888 208.162 138.812 208.081C138.736 207.999 138.644 207.933 138.543 207.887C138.441 207.84 138.331 207.815 138.22 207.811C138.108 207.807 137.997 207.826 137.893 207.866C137.788 207.905 137.693 207.965 137.612 208.042C137.531 208.119 137.466 208.211 137.421 208.313C137.375 208.415 137.351 208.525 137.348 208.637C137.346 208.748 137.366 208.859 137.406 208.963C139.622 214.826 136.941 220.505 133.538 227.703C131.728 231.368 130.134 235.136 128.765 238.988C126.182 246.675 129.12 256.87 131.482 265.047C132.877 269.943 134.322 274.839 133.33 276.063C133.252 276.147 133.191 276.247 133.153 276.356C133.115 276.465 133.101 276.581 133.11 276.696C133.119 276.811 133.152 276.923 133.207 277.025C133.262 277.127 133.337 277.216 133.428 277.287C133.585 277.398 133.776 277.45 133.967 277.434V277.434Z" fill="#E6E6E6"/>
<path d="M306 456.333C437.069 456.333 543.321 450.13 543.321 442.478C543.321 434.825 437.069 428.622 306 428.622C174.931 428.622 68.6787 434.825 68.6787 442.478C68.6787 450.13 174.931 456.333 306 456.333Z" fill="#F5F5F5"/>
<path d="M305.951 374.925H132.143L122.632 95.4003H296.44L305.951 374.925Z" fill="#FEBD17"/>
<path d="M314.629 366.247H140.821L131.298 86.7222H305.106L314.629 366.247Z" fill="#FEBD17"/>
<path opacity="0.3" d="M314.629 366.247H140.821L131.298 86.7222H305.106L314.629 366.247Z" fill="white"/>
<path d="M256.394 201.746C275.004 182.815 274.212 151.86 254.626 132.605C235.039 113.351 204.075 113.089 185.465 132.02C166.855 150.951 167.647 181.906 187.233 201.161C206.82 220.415 237.784 220.677 256.394 201.746Z" fill="#FEBD17"/>
<path d="M261.287 166.894C261.537 173.555 260.084 180.169 257.064 186.111C253.805 192.514 248.826 197.883 242.686 201.615C236.546 205.346 229.487 207.293 222.302 207.237C214.949 207.198 207.735 205.225 201.384 201.517C195.034 197.809 189.77 192.496 186.121 186.111C182.719 180.26 180.818 173.658 180.589 166.894C180.363 161.649 181.206 156.414 183.066 151.505C184.926 146.596 187.765 142.116 191.41 138.338C195.055 134.561 199.43 131.563 204.27 129.528C209.109 127.494 214.311 126.464 219.561 126.502C230.375 126.579 240.744 130.818 248.515 138.34C256.285 145.862 260.859 156.088 261.287 166.894V166.894Z" fill="white"/>
<path opacity="0.6" d="M257.04 186.111C253.781 192.514 248.802 197.883 242.662 201.615C236.521 205.346 229.463 207.293 222.278 207.237C214.924 207.198 207.71 205.225 201.36 201.517C195.009 197.809 189.746 192.496 186.097 186.111C196.448 179.054 208.697 175.302 221.225 175.352C233.956 175.38 246.402 179.118 257.04 186.111Z" fill="#FEBD17"/>
<path opacity="0.6" d="M233.505 165.888C240.348 158.927 240.056 147.544 232.854 140.464C225.652 133.384 214.266 133.288 207.423 140.249C200.58 147.21 200.871 158.592 208.073 165.672C215.276 172.752 226.661 172.849 233.505 165.888Z" fill="#FEBD17"/>
<path d="M279.708 265.022H168.838L168.092 242.99H278.962L279.708 265.022Z" fill="white"/>
<path d="M281.055 304.398H170.172L169.426 282.366H280.308L281.055 304.398Z" fill="white"/>
<path d="M238.264 285.402L211.544 289.074C211.289 289.103 211.043 289.184 210.821 289.313C210.599 289.442 210.406 289.615 210.254 289.822C210.102 290.029 209.995 290.265 209.939 290.516C209.883 290.766 209.879 291.025 209.928 291.277L213.441 309.184C213.556 309.71 213.863 310.173 214.303 310.484C214.742 310.794 215.282 310.928 215.816 310.861L242.536 307.189C242.79 307.157 243.035 307.073 243.256 306.942C243.476 306.811 243.667 306.637 243.818 306.429C243.968 306.221 244.074 305.985 244.129 305.735C244.185 305.484 244.188 305.225 244.139 304.974L240.638 287.066C240.523 286.542 240.215 286.08 239.776 285.771C239.336 285.463 238.796 285.331 238.264 285.402V285.402ZM230.589 303.542L225.693 304.19L225.216 298.413C224.711 298.195 224.267 297.859 223.92 297.432C223.572 297.006 223.333 296.503 223.221 295.965C223.131 295.548 223.129 295.117 223.217 294.7C223.304 294.282 223.477 293.888 223.727 293.541C223.976 293.195 224.295 292.905 224.663 292.69C225.031 292.475 225.441 292.34 225.865 292.293C226.734 292.181 227.614 292.399 228.33 292.905C229.046 293.41 229.547 294.166 229.732 295.022C229.839 295.54 229.806 296.076 229.638 296.577C229.471 297.078 229.174 297.525 228.778 297.874L230.589 303.542Z" fill="#FEBD17"/>
<path d="M235.62 284.435C235.147 284.495 234.67 284.376 234.28 284.102C233.891 283.828 233.617 283.419 233.514 282.954L233.172 281.204C232.683 278.815 231.344 276.685 229.404 275.208C227.463 273.732 225.053 273.009 222.621 273.174C221.393 273.244 220.195 273.577 219.108 274.151C218.021 274.726 217.07 275.527 216.32 276.501C215.569 277.475 215.038 278.6 214.761 279.797C214.484 280.995 214.468 282.239 214.714 283.443L215.106 285.463C215.151 285.687 215.15 285.918 215.101 286.141C215.052 286.364 214.957 286.574 214.822 286.759C214.688 286.943 214.516 287.097 214.318 287.211C214.12 287.326 213.901 287.397 213.673 287.421V287.421C213.2 287.487 212.719 287.371 212.329 287.096C211.938 286.821 211.666 286.408 211.568 285.94L211.238 284.239C210.902 282.649 210.89 281.007 211.205 279.413C211.519 277.818 212.153 276.304 213.068 274.961C213.982 273.617 215.159 272.473 216.527 271.596C217.896 270.719 219.427 270.127 221.03 269.857C224.505 269.274 228.071 270.05 230.988 272.026C233.905 274.002 235.95 277.026 236.697 280.469L237.089 282.477C237.134 282.703 237.132 282.937 237.081 283.162C237.03 283.388 236.932 283.6 236.793 283.785C236.654 283.97 236.478 284.123 236.276 284.235C236.074 284.347 235.85 284.415 235.62 284.435V284.435Z" fill="#FEBD17"/>
<path d="M262.756 335.255H190.576L190.099 320.91H262.266L262.756 335.255Z" fill="#FEBD17"/>
<path d="M227.933 254.006C227.955 254.529 227.87 255.052 227.684 255.541C227.497 256.031 227.214 256.477 226.85 256.854C226.486 257.23 226.049 257.529 225.566 257.732C225.084 257.934 224.565 258.037 224.041 258.033C222.962 258.025 221.927 257.602 221.15 256.853C220.373 256.104 219.914 255.085 219.867 254.006C219.845 253.483 219.93 252.961 220.117 252.471C220.303 251.982 220.587 251.535 220.951 251.159C221.314 250.782 221.751 250.484 222.234 250.281C222.717 250.078 223.236 249.976 223.759 249.979C224.84 249.985 225.876 250.406 226.653 251.156C227.431 251.906 227.889 252.927 227.933 254.006V254.006Z" fill="#263238"/>
<path d="M210.528 254.006C210.551 254.53 210.468 255.053 210.282 255.543C210.096 256.033 209.813 256.481 209.448 256.857C209.084 257.234 208.647 257.533 208.163 257.735C207.68 257.937 207.16 258.039 206.636 258.033C205.558 258.025 204.524 257.602 203.749 256.852C202.975 256.102 202.518 255.083 202.474 254.006C202.452 253.483 202.537 252.961 202.724 252.471C202.91 251.982 203.194 251.535 203.557 251.159C203.921 250.782 204.358 250.484 204.841 250.281C205.324 250.078 205.843 249.976 206.366 249.979C207.445 249.985 208.48 250.407 209.256 251.157C210.031 251.907 210.487 252.928 210.528 254.006V254.006Z" fill="#263238"/>
<path d="M193.232 254.006C193.254 254.529 193.169 255.052 192.983 255.541C192.797 256.031 192.513 256.477 192.149 256.854C191.785 257.23 191.348 257.529 190.866 257.732C190.383 257.934 189.864 258.037 189.34 258.033C188.261 258.028 187.226 257.606 186.451 256.855C185.675 256.105 185.22 255.084 185.179 254.006C185.157 253.483 185.242 252.961 185.428 252.471C185.614 251.982 185.898 251.535 186.262 251.159C186.626 250.782 187.063 250.484 187.545 250.281C188.028 250.078 188.547 249.976 189.071 249.979C190.15 249.985 191.185 250.407 191.96 251.157C192.736 251.907 193.191 252.928 193.232 254.006V254.006Z" fill="#263238"/>
<path d="M245.277 254.006C245.299 254.53 245.214 255.052 245.027 255.541C244.841 256.031 244.557 256.477 244.193 256.854C243.83 257.23 243.393 257.529 242.91 257.732C242.427 257.934 241.908 258.037 241.385 258.033C240.306 258.028 239.271 257.606 238.495 256.855C237.72 256.105 237.264 255.084 237.223 254.006C237.205 253.485 237.293 252.965 237.481 252.478C237.67 251.991 237.955 251.548 238.321 251.175C238.686 250.802 239.123 250.507 239.605 250.307C240.088 250.108 240.606 250.009 241.128 250.016C242.198 250.024 243.225 250.442 243.997 251.185C244.769 251.927 245.227 252.937 245.277 254.006V254.006Z" fill="#263238"/>
<path d="M262.621 254.006C262.644 254.53 262.561 255.053 262.375 255.543C262.19 256.033 261.906 256.481 261.542 256.857C261.177 257.234 260.74 257.533 260.256 257.735C259.773 257.937 259.253 258.039 258.729 258.033C257.651 258.025 256.617 257.602 255.843 256.852C255.068 256.102 254.611 255.083 254.567 254.006C254.546 253.483 254.631 252.961 254.817 252.471C255.003 251.982 255.287 251.535 255.651 251.159C256.015 250.782 256.451 250.484 256.934 250.281C257.417 250.078 257.936 249.976 258.46 249.979C259.539 249.985 260.574 250.407 261.349 251.157C262.124 251.907 262.58 252.928 262.621 254.006V254.006Z" fill="#263238"/>
<path d="M371.007 91.304C395.403 91.304 415.181 78.6999 415.181 63.152C415.181 47.6041 395.403 35 371.007 35C346.61 35 326.833 47.6041 326.833 63.152C326.833 78.6999 346.61 91.304 371.007 91.304Z" fill="#FEBD17"/>
<path d="M355.07 77.3259C352.16 77.3165 349.347 76.2819 347.124 74.4037C344.901 72.5256 343.411 69.9242 342.916 67.0565C342.429 63.9503 343.13 60.7747 344.879 58.1618C346.627 55.5489 349.296 53.6903 352.353 52.9561V52.9561C354.862 52.378 357.489 52.6008 359.864 53.5932C362.24 54.5856 364.245 56.2976 365.597 58.4885L393.957 52.6378C395.047 52.3991 396.187 52.5804 397.149 53.1454C398.111 53.7103 398.824 54.6175 399.147 55.6856C399.295 56.2471 399.327 56.8331 399.242 57.4075C399.156 57.982 398.954 58.533 398.648 59.0267C398.342 59.5205 397.939 59.9467 397.463 60.2793C396.986 60.6119 396.447 60.8438 395.879 60.961L395.144 61.1079C395.035 61.1275 394.932 61.1719 394.843 61.2377C394.754 61.3035 394.681 61.3889 394.63 61.4873C394.585 61.5873 394.561 61.6958 394.561 61.8056C394.561 61.9153 394.585 62.0238 394.63 62.1238L395.132 63.4213C395.3 63.8418 395.316 64.3078 395.178 64.739C395.039 65.1703 394.755 65.5397 394.373 65.7836C394.072 65.9695 393.818 66.2216 393.629 66.5206C393.44 66.8197 393.322 67.1579 393.284 67.5094C393.248 67.9129 393.085 68.2947 392.819 68.6003C392.553 68.9058 392.197 69.1195 391.803 69.2108L391.227 69.3332C390.829 69.4069 390.417 69.3517 390.051 69.1756C389.686 68.9996 389.386 68.7118 389.196 68.354C388.941 67.9271 388.56 67.5901 388.106 67.39C387.651 67.1898 387.145 67.1366 386.659 67.2377C386.173 67.3387 385.73 67.589 385.392 67.9537C385.055 68.3184 384.84 68.7792 384.777 69.272C384.743 69.6729 384.582 70.0526 384.318 70.3562C384.054 70.6599 383.7 70.8717 383.308 70.9611L382.733 71.0835C382.334 71.1553 381.923 71.0992 381.558 70.9233C381.193 70.7475 380.893 70.4608 380.701 70.1043C380.518 69.8007 380.271 69.5406 379.977 69.342C379.683 69.1433 379.35 69.0108 379 68.9537C378.529 68.8971 378.095 68.6706 377.78 68.3168C377.464 67.963 377.289 67.5061 377.286 67.0321V65.6367C377.281 65.5275 377.253 65.4207 377.202 65.3236C377.152 65.2265 377.082 65.1413 376.996 65.0739C376.91 65.0065 376.81 64.9584 376.704 64.933C376.598 64.9077 376.487 64.9055 376.38 64.9268L367.335 66.7873C366.966 69.2932 365.834 71.6247 364.093 73.4643C362.352 75.304 360.086 76.5626 357.604 77.0689C356.77 77.2393 355.921 77.3255 355.07 77.3259V77.3259ZM352.622 54.0699C349.846 54.7184 347.419 56.3947 345.829 58.7612C344.239 61.1277 343.605 64.0087 344.054 66.824C344.536 69.4432 345.939 71.8036 348.009 73.4783C350.08 75.153 352.681 76.0313 355.343 75.9544C358.005 75.8775 360.552 74.8505 362.522 73.059C364.493 71.2676 365.757 68.8301 366.086 66.1875V65.7469L376.062 63.7273C376.348 63.658 376.646 63.6534 376.934 63.7137C377.222 63.774 377.494 63.8977 377.728 64.0758C377.962 64.254 378.154 64.4821 378.289 64.7436C378.425 65.0051 378.5 65.2935 378.51 65.5877V66.9831C378.513 67.1492 378.573 67.3093 378.68 67.4364C378.787 67.5635 378.934 67.6498 379.098 67.6808C379.633 67.7574 380.143 67.9549 380.591 68.2581C381.038 68.5614 381.411 68.9625 381.68 69.4311C381.745 69.5632 381.849 69.6718 381.979 69.742C382.108 69.8122 382.256 69.8404 382.402 69.8228L382.965 69.7004C383.108 69.6637 383.235 69.5819 383.328 69.4672C383.42 69.3526 383.474 69.2112 383.479 69.0639C383.557 68.3019 383.874 67.5842 384.386 67.0145C384.898 66.4448 385.577 66.0526 386.327 65.8945C387.076 65.7365 387.856 65.8208 388.555 66.1353C389.253 66.4498 389.833 66.9782 390.211 67.6441C390.274 67.7752 390.376 67.8834 390.504 67.9536C390.631 68.0238 390.777 68.0525 390.921 68.0357L391.509 67.9133C391.649 67.8744 391.774 67.7917 391.864 67.6772C391.954 67.5628 392.006 67.4225 392.011 67.2769C392.071 66.7395 392.254 66.223 392.544 65.7669C392.835 65.3108 393.226 64.9272 393.688 64.6453C393.822 64.548 393.921 64.4084 393.968 64.2488C394.014 64.0891 394.006 63.9185 393.945 63.764L393.443 62.4665C393.339 62.1991 393.295 61.9122 393.314 61.6259C393.332 61.3396 393.413 61.0608 393.551 60.809C393.688 60.5572 393.879 60.3385 394.11 60.1682C394.341 59.9978 394.606 59.8799 394.887 59.8227L395.634 59.6636C396.038 59.5774 396.42 59.4106 396.758 59.1732C397.097 58.9358 397.383 58.6326 397.602 58.2818C397.82 57.931 397.965 57.5398 398.029 57.1316C398.092 56.7233 398.073 56.3065 397.972 55.9059C397.733 55.1356 397.211 54.4842 396.512 54.0823C395.813 53.6805 394.987 53.558 394.202 53.7394L365.046 59.7982L364.826 59.4188C363.654 57.3334 361.836 55.686 359.645 54.7254C357.455 53.7649 355.011 53.5434 352.684 54.0944L352.622 54.0699ZM355.07 72.7726C353.55 72.7896 352.057 72.3643 350.774 71.5486C349.256 70.5522 348.131 69.0601 347.59 67.3268C347.049 65.5936 347.127 63.7264 347.808 62.0436C348.49 60.3608 349.735 58.9666 351.329 58.0986C352.924 57.2307 354.771 56.9427 356.554 57.2838C358.337 57.6249 359.947 58.5739 361.109 59.9692C362.271 61.3644 362.913 63.1194 362.926 64.9351C362.938 66.7507 362.321 68.5145 361.179 69.9259C360.036 71.3372 358.44 72.3087 356.662 72.6747V72.6747C356.141 72.769 355.612 72.81 355.083 72.7971L355.07 72.7726ZM355.07 58.3172C354.614 58.3198 354.159 58.3648 353.712 58.4518C352.859 58.6335 352.05 58.9813 351.332 59.4754C350.614 59.9695 350 60.6003 349.525 61.3317C349.051 62.0631 348.725 62.8808 348.567 63.7381C348.408 64.5954 348.42 65.4756 348.602 66.3283C348.783 67.181 349.131 67.9896 349.625 68.7079C350.119 69.4262 350.75 70.0401 351.481 70.5146C352.213 70.9891 353.03 71.315 353.888 71.4735C354.745 71.632 355.625 71.6201 356.478 71.4385V71.4385C357.758 71.172 358.931 70.5325 359.848 69.6006C360.765 68.6687 361.386 67.4861 361.632 66.2019C361.878 64.9178 361.738 63.5895 361.231 62.3845C360.723 61.1796 359.87 60.1519 358.779 59.431C357.695 58.7103 356.421 58.3309 355.119 58.3417L355.07 58.3172Z" fill="white"/>
<path opacity="0.6" d="M335.058 107.816C343.075 107.816 349.574 103.673 349.574 98.5623C349.574 93.4518 343.075 89.3089 335.058 89.3089C327.04 89.3089 320.541 93.4518 320.541 98.5623C320.541 103.673 327.04 107.816 335.058 107.816Z" fill="#FEBD17"/>
<path opacity="0.3" d="M311.961 111.61C315.253 111.61 317.922 109.911 317.922 107.816C317.922 105.72 315.253 104.021 311.961 104.021C308.669 104.021 306 105.72 306 107.816C306 109.911 308.669 111.61 311.961 111.61Z" fill="#FEBD17"/>
</svg>
