<svg width="22" height="22" viewBox="0 0 22 22" fill="none" xmlns="http://www.w3.org/2000/svg">
<mask id="path-1-outside-1_950_1208" maskUnits="userSpaceOnUse" x="-0.3125" y="-0.3125" width="22" height="22" fill="black">
<rect fill="white" x="-0.3125" y="-0.3125" width="22" height="22"/>
<path d="M2.0625 2.0625H2.75V2.75H2.0625V2.0625Z"/>
<path d="M3.4375 2.0625H4.125V2.75H3.4375V2.0625Z"/>
<path d="M4.8125 2.0625H5.5V2.75H4.8125V2.0625Z"/>
<path d="M20.2812 0.6875H1.71875C1.44534 0.687813 1.18322 0.796562 0.989892 0.989892C0.796562 1.18322 0.687813 1.44534 0.6875 1.71875V20.2812C0.687813 20.5547 0.796562 20.8168 0.989892 21.0101C1.18322 21.2034 1.44534 21.3122 1.71875 21.3125H20.2812C20.5547 21.3122 20.8168 21.2034 21.0101 21.0101C21.2034 20.8168 21.3122 20.5547 21.3125 20.2812V1.71875C21.3122 1.44534 21.2034 1.18322 21.0101 0.989892C20.8168 0.796562 20.5547 0.687813 20.2812 0.6875ZM20.625 2.0625H6.1875V2.75H20.625V20.2812C20.6249 20.3724 20.5886 20.4598 20.5242 20.5242C20.4598 20.5886 20.3724 20.6249 20.2812 20.625H1.71875C1.62761 20.6249 1.54024 20.5886 1.4758 20.5242C1.41135 20.4598 1.3751 20.3724 1.375 20.2812V1.71875C1.3751 1.62761 1.41135 1.54024 1.4758 1.4758C1.54024 1.41135 1.62761 1.3751 1.71875 1.375H20.2812C20.3724 1.3751 20.4598 1.41135 20.5242 1.4758C20.5886 1.54024 20.6249 1.62761 20.625 1.71875V2.0625Z"/>
<path d="M7.21875 4.125H14.7812V4.8125H7.21875V4.125Z"/>
<path d="M2.75 7.21875V9.28125C2.75 9.37242 2.78622 9.45985 2.85068 9.52432C2.91515 9.58878 3.00258 9.625 3.09375 9.625H13.4062V8.9375H3.4375V7.5625H18.5625V8.9375H17.5312V9.625H18.9062C18.9974 9.625 19.0849 9.58878 19.1493 9.52432C19.2138 9.45985 19.25 9.37242 19.25 9.28125V7.21875C19.25 7.12758 19.2138 7.04015 19.1493 6.97568C19.0849 6.91122 18.9974 6.875 18.9062 6.875H3.09375C3.00258 6.875 2.91515 6.91122 2.85068 6.97568C2.78622 7.04015 2.75 7.12758 2.75 7.21875Z"/>
<path d="M2.75 5.5H5.84375V6.1875H2.75V5.5Z"/>
<path d="M2.75 10.6562H7.5625V11.3438H2.75V10.6562Z"/>
<path d="M18.9062 12.0311H17.875V12.7186H18.5625V14.0936H16.7765L17.1888 13.9421C17.2312 13.9266 17.2701 13.9028 17.3033 13.8722C17.3365 13.8416 17.3633 13.8048 17.3823 13.7638C17.4012 13.7228 17.4119 13.6785 17.4138 13.6334C17.4156 13.5883 17.4086 13.5433 17.393 13.5009L16.5965 11.3329L17.568 11.2285C17.637 11.221 17.7021 11.1929 17.7548 11.1478C17.8075 11.1027 17.8453 11.0427 17.8633 10.9757C17.8813 10.9087 17.8785 10.8378 17.8554 10.7723C17.8323 10.7069 17.79 10.65 17.734 10.6091L14.7312 8.41625C14.6855 8.38287 14.6323 8.36129 14.5762 8.35343C14.5202 8.34557 14.4631 8.35166 14.4099 8.37118C14.3568 8.39069 14.3093 8.42302 14.2717 8.46529C14.2341 8.50756 14.2075 8.55847 14.1942 8.61349L13.325 12.2287C13.3088 12.2962 13.3134 12.3669 13.3381 12.4317C13.3629 12.4966 13.4067 12.5524 13.4638 12.5918C13.5208 12.6313 13.5885 12.6525 13.6579 12.6528C13.7273 12.6531 13.7951 12.6323 13.8525 12.5933L14.6605 12.0441L15.4134 14.0936H3.4375V12.7186H12.7188V12.0311H3.09375C3.00258 12.0311 2.91515 12.0673 2.85068 12.1318C2.78622 12.1962 2.75 12.2837 2.75 12.3748V14.4373C2.75 14.5285 2.78622 14.616 2.85068 14.6804C2.91515 14.7449 3.00258 14.7811 3.09375 14.7811H18.9062C18.9974 14.7811 19.0849 14.7449 19.1493 14.6804C19.2138 14.616 19.25 14.5285 19.25 14.4373V12.3748C19.25 12.2837 19.2138 12.1962 19.1493 12.1318C19.0849 12.0673 18.9974 12.0311 18.9062 12.0311ZM14.9366 11.185C14.8868 11.169 14.8341 11.1646 14.7824 11.172C14.7307 11.1795 14.6814 11.1986 14.6382 11.228L14.2013 11.5249L14.7421 9.27554L16.6105 10.6399L16.0853 10.6964C16.0334 10.7019 15.9834 10.7193 15.9392 10.7471C15.8949 10.7749 15.8576 10.8124 15.8301 10.8567C15.8025 10.9011 15.7854 10.9512 15.7801 11.0032C15.7748 11.0551 15.7814 11.1076 15.7994 11.1567L16.6291 13.4153L15.9838 13.6524L15.1541 11.3937C15.1361 11.3447 15.1071 11.3004 15.0694 11.2643C15.0317 11.2281 14.9863 11.201 14.9366 11.185Z"/>
<path d="M2.75 15.8125H7.5625V16.5H2.75V15.8125Z"/>
<path d="M18.9062 17.1875H3.09375C3.00258 17.1875 2.91515 17.2237 2.85068 17.2882C2.78622 17.3526 2.75 17.4401 2.75 17.5312V19.5938C2.75 19.6849 2.78622 19.7724 2.85068 19.8368C2.91515 19.9013 3.00258 19.9375 3.09375 19.9375H18.9062C18.9974 19.9375 19.0849 19.9013 19.1493 19.8368C19.2138 19.7724 19.25 19.6849 19.25 19.5938V17.5312C19.25 17.4401 19.2138 17.3526 19.1493 17.2882C19.0849 17.2237 18.9974 17.1875 18.9062 17.1875ZM18.5625 19.25H3.4375V17.875H18.5625V19.25Z"/>
</mask>
<path d="M2.0625 2.0625H2.75V2.75H2.0625V2.0625Z" fill="#7A7979"/>
<path d="M3.4375 2.0625H4.125V2.75H3.4375V2.0625Z" fill="#7A7979"/>
<path d="M4.8125 2.0625H5.5V2.75H4.8125V2.0625Z" fill="#7A7979"/>
<path d="M20.2812 0.6875H1.71875C1.44534 0.687813 1.18322 0.796562 0.989892 0.989892C0.796562 1.18322 0.687813 1.44534 0.6875 1.71875V20.2812C0.687813 20.5547 0.796562 20.8168 0.989892 21.0101C1.18322 21.2034 1.44534 21.3122 1.71875 21.3125H20.2812C20.5547 21.3122 20.8168 21.2034 21.0101 21.0101C21.2034 20.8168 21.3122 20.5547 21.3125 20.2812V1.71875C21.3122 1.44534 21.2034 1.18322 21.0101 0.989892C20.8168 0.796562 20.5547 0.687813 20.2812 0.6875ZM20.625 2.0625H6.1875V2.75H20.625V20.2812C20.6249 20.3724 20.5886 20.4598 20.5242 20.5242C20.4598 20.5886 20.3724 20.6249 20.2812 20.625H1.71875C1.62761 20.6249 1.54024 20.5886 1.4758 20.5242C1.41135 20.4598 1.3751 20.3724 1.375 20.2812V1.71875C1.3751 1.62761 1.41135 1.54024 1.4758 1.4758C1.54024 1.41135 1.62761 1.3751 1.71875 1.375H20.2812C20.3724 1.3751 20.4598 1.41135 20.5242 1.4758C20.5886 1.54024 20.6249 1.62761 20.625 1.71875V2.0625Z" fill="#7A7979"/>
<path d="M7.21875 4.125H14.7812V4.8125H7.21875V4.125Z" fill="#7A7979"/>
<path d="M2.75 7.21875V9.28125C2.75 9.37242 2.78622 9.45985 2.85068 9.52432C2.91515 9.58878 3.00258 9.625 3.09375 9.625H13.4062V8.9375H3.4375V7.5625H18.5625V8.9375H17.5312V9.625H18.9062C18.9974 9.625 19.0849 9.58878 19.1493 9.52432C19.2138 9.45985 19.25 9.37242 19.25 9.28125V7.21875C19.25 7.12758 19.2138 7.04015 19.1493 6.97568C19.0849 6.91122 18.9974 6.875 18.9062 6.875H3.09375C3.00258 6.875 2.91515 6.91122 2.85068 6.97568C2.78622 7.04015 2.75 7.12758 2.75 7.21875Z" fill="#7A7979"/>
<path d="M2.75 5.5H5.84375V6.1875H2.75V5.5Z" fill="#7A7979"/>
<path d="M2.75 10.6562H7.5625V11.3438H2.75V10.6562Z" fill="#7A7979"/>
<path d="M18.9062 12.0311H17.875V12.7186H18.5625V14.0936H16.7765L17.1888 13.9421C17.2312 13.9266 17.2701 13.9028 17.3033 13.8722C17.3365 13.8416 17.3633 13.8048 17.3823 13.7638C17.4012 13.7228 17.4119 13.6785 17.4138 13.6334C17.4156 13.5883 17.4086 13.5433 17.393 13.5009L16.5965 11.3329L17.568 11.2285C17.637 11.221 17.7021 11.1929 17.7548 11.1478C17.8075 11.1027 17.8453 11.0427 17.8633 10.9757C17.8813 10.9087 17.8785 10.8378 17.8554 10.7723C17.8323 10.7069 17.79 10.65 17.734 10.6091L14.7312 8.41625C14.6855 8.38287 14.6323 8.36129 14.5762 8.35343C14.5202 8.34557 14.4631 8.35166 14.4099 8.37118C14.3568 8.39069 14.3093 8.42302 14.2717 8.46529C14.2341 8.50756 14.2075 8.55847 14.1942 8.61349L13.325 12.2287C13.3088 12.2962 13.3134 12.3669 13.3381 12.4317C13.3629 12.4966 13.4067 12.5524 13.4638 12.5918C13.5208 12.6313 13.5885 12.6525 13.6579 12.6528C13.7273 12.6531 13.7951 12.6323 13.8525 12.5933L14.6605 12.0441L15.4134 14.0936H3.4375V12.7186H12.7188V12.0311H3.09375C3.00258 12.0311 2.91515 12.0673 2.85068 12.1318C2.78622 12.1962 2.75 12.2837 2.75 12.3748V14.4373C2.75 14.5285 2.78622 14.616 2.85068 14.6804C2.91515 14.7449 3.00258 14.7811 3.09375 14.7811H18.9062C18.9974 14.7811 19.0849 14.7449 19.1493 14.6804C19.2138 14.616 19.25 14.5285 19.25 14.4373V12.3748C19.25 12.2837 19.2138 12.1962 19.1493 12.1318C19.0849 12.0673 18.9974 12.0311 18.9062 12.0311ZM14.9366 11.185C14.8868 11.169 14.8341 11.1646 14.7824 11.172C14.7307 11.1795 14.6814 11.1986 14.6382 11.228L14.2013 11.5249L14.7421 9.27554L16.6105 10.6399L16.0853 10.6964C16.0334 10.7019 15.9834 10.7193 15.9392 10.7471C15.8949 10.7749 15.8576 10.8124 15.8301 10.8567C15.8025 10.9011 15.7854 10.9512 15.7801 11.0032C15.7748 11.0551 15.7814 11.1076 15.7994 11.1567L16.6291 13.4153L15.9838 13.6524L15.1541 11.3937C15.1361 11.3447 15.1071 11.3004 15.0694 11.2643C15.0317 11.2281 14.9863 11.201 14.9366 11.185Z" fill="#7A7979"/>
<path d="M2.75 15.8125H7.5625V16.5H2.75V15.8125Z" fill="#7A7979"/>
<path d="M18.9062 17.1875H3.09375C3.00258 17.1875 2.91515 17.2237 2.85068 17.2882C2.78622 17.3526 2.75 17.4401 2.75 17.5312V19.5938C2.75 19.6849 2.78622 19.7724 2.85068 19.8368C2.91515 19.9013 3.00258 19.9375 3.09375 19.9375H18.9062C18.9974 19.9375 19.0849 19.9013 19.1493 19.8368C19.2138 19.7724 19.25 19.6849 19.25 19.5938V17.5312C19.25 17.4401 19.2138 17.3526 19.1493 17.2882C19.0849 17.2237 18.9974 17.1875 18.9062 17.1875ZM18.5625 19.25H3.4375V17.875H18.5625V19.25Z" fill="#7A7979"/>
<path d="M2.0625 2.0625H2.75V2.75H2.0625V2.0625Z" stroke="#7A7979" stroke-width="0.2" mask="url(#path-1-outside-1_950_1208)"/>
<path d="M3.4375 2.0625H4.125V2.75H3.4375V2.0625Z" stroke="#7A7979" stroke-width="0.2" mask="url(#path-1-outside-1_950_1208)"/>
<path d="M4.8125 2.0625H5.5V2.75H4.8125V2.0625Z" stroke="#7A7979" stroke-width="0.2" mask="url(#path-1-outside-1_950_1208)"/>
<path d="M20.2812 0.6875H1.71875C1.44534 0.687813 1.18322 0.796562 0.989892 0.989892C0.796562 1.18322 0.687813 1.44534 0.6875 1.71875V20.2812C0.687813 20.5547 0.796562 20.8168 0.989892 21.0101C1.18322 21.2034 1.44534 21.3122 1.71875 21.3125H20.2812C20.5547 21.3122 20.8168 21.2034 21.0101 21.0101C21.2034 20.8168 21.3122 20.5547 21.3125 20.2812V1.71875C21.3122 1.44534 21.2034 1.18322 21.0101 0.989892C20.8168 0.796562 20.5547 0.687813 20.2812 0.6875ZM20.625 2.0625H6.1875V2.75H20.625V20.2812C20.6249 20.3724 20.5886 20.4598 20.5242 20.5242C20.4598 20.5886 20.3724 20.6249 20.2812 20.625H1.71875C1.62761 20.6249 1.54024 20.5886 1.4758 20.5242C1.41135 20.4598 1.3751 20.3724 1.375 20.2812V1.71875C1.3751 1.62761 1.41135 1.54024 1.4758 1.4758C1.54024 1.41135 1.62761 1.3751 1.71875 1.375H20.2812C20.3724 1.3751 20.4598 1.41135 20.5242 1.4758C20.5886 1.54024 20.6249 1.62761 20.625 1.71875V2.0625Z" stroke="#7A7979" stroke-width="0.2" mask="url(#path-1-outside-1_950_1208)"/>
<path d="M7.21875 4.125H14.7812V4.8125H7.21875V4.125Z" stroke="#7A7979" stroke-width="0.2" mask="url(#path-1-outside-1_950_1208)"/>
<path d="M2.75 7.21875V9.28125C2.75 9.37242 2.78622 9.45985 2.85068 9.52432C2.91515 9.58878 3.00258 9.625 3.09375 9.625H13.4062V8.9375H3.4375V7.5625H18.5625V8.9375H17.5312V9.625H18.9062C18.9974 9.625 19.0849 9.58878 19.1493 9.52432C19.2138 9.45985 19.25 9.37242 19.25 9.28125V7.21875C19.25 7.12758 19.2138 7.04015 19.1493 6.97568C19.0849 6.91122 18.9974 6.875 18.9062 6.875H3.09375C3.00258 6.875 2.91515 6.91122 2.85068 6.97568C2.78622 7.04015 2.75 7.12758 2.75 7.21875Z" stroke="#7A7979" stroke-width="0.2" mask="url(#path-1-outside-1_950_1208)"/>
<path d="M2.75 5.5H5.84375V6.1875H2.75V5.5Z" stroke="#7A7979" stroke-width="0.2" mask="url(#path-1-outside-1_950_1208)"/>
<path d="M2.75 10.6562H7.5625V11.3438H2.75V10.6562Z" stroke="#7A7979" stroke-width="0.2" mask="url(#path-1-outside-1_950_1208)"/>
<path d="M18.9062 12.0311H17.875V12.7186H18.5625V14.0936H16.7765L17.1888 13.9421C17.2312 13.9266 17.2701 13.9028 17.3033 13.8722C17.3365 13.8416 17.3633 13.8048 17.3823 13.7638C17.4012 13.7228 17.4119 13.6785 17.4138 13.6334C17.4156 13.5883 17.4086 13.5433 17.393 13.5009L16.5965 11.3329L17.568 11.2285C17.637 11.221 17.7021 11.1929 17.7548 11.1478C17.8075 11.1027 17.8453 11.0427 17.8633 10.9757C17.8813 10.9087 17.8785 10.8378 17.8554 10.7723C17.8323 10.7069 17.79 10.65 17.734 10.6091L14.7312 8.41625C14.6855 8.38287 14.6323 8.36129 14.5762 8.35343C14.5202 8.34557 14.4631 8.35166 14.4099 8.37118C14.3568 8.39069 14.3093 8.42302 14.2717 8.46529C14.2341 8.50756 14.2075 8.55847 14.1942 8.61349L13.325 12.2287C13.3088 12.2962 13.3134 12.3669 13.3381 12.4317C13.3629 12.4966 13.4067 12.5524 13.4638 12.5918C13.5208 12.6313 13.5885 12.6525 13.6579 12.6528C13.7273 12.6531 13.7951 12.6323 13.8525 12.5933L14.6605 12.0441L15.4134 14.0936H3.4375V12.7186H12.7188V12.0311H3.09375C3.00258 12.0311 2.91515 12.0673 2.85068 12.1318C2.78622 12.1962 2.75 12.2837 2.75 12.3748V14.4373C2.75 14.5285 2.78622 14.616 2.85068 14.6804C2.91515 14.7449 3.00258 14.7811 3.09375 14.7811H18.9062C18.9974 14.7811 19.0849 14.7449 19.1493 14.6804C19.2138 14.616 19.25 14.5285 19.25 14.4373V12.3748C19.25 12.2837 19.2138 12.1962 19.1493 12.1318C19.0849 12.0673 18.9974 12.0311 18.9062 12.0311ZM14.9366 11.185C14.8868 11.169 14.8341 11.1646 14.7824 11.172C14.7307 11.1795 14.6814 11.1986 14.6382 11.228L14.2013 11.5249L14.7421 9.27554L16.6105 10.6399L16.0853 10.6964C16.0334 10.7019 15.9834 10.7193 15.9392 10.7471C15.8949 10.7749 15.8576 10.8124 15.8301 10.8567C15.8025 10.9011 15.7854 10.9512 15.7801 11.0032C15.7748 11.0551 15.7814 11.1076 15.7994 11.1567L16.6291 13.4153L15.9838 13.6524L15.1541 11.3937C15.1361 11.3447 15.1071 11.3004 15.0694 11.2643C15.0317 11.2281 14.9863 11.201 14.9366 11.185Z" stroke="#7A7979" stroke-width="0.2" mask="url(#path-1-outside-1_950_1208)"/>
<path d="M2.75 15.8125H7.5625V16.5H2.75V15.8125Z" stroke="#7A7979" stroke-width="0.2" mask="url(#path-1-outside-1_950_1208)"/>
<path d="M18.9062 17.1875H3.09375C3.00258 17.1875 2.91515 17.2237 2.85068 17.2882C2.78622 17.3526 2.75 17.4401 2.75 17.5312V19.5938C2.75 19.6849 2.78622 19.7724 2.85068 19.8368C2.91515 19.9013 3.00258 19.9375 3.09375 19.9375H18.9062C18.9974 19.9375 19.0849 19.9013 19.1493 19.8368C19.2138 19.7724 19.25 19.6849 19.25 19.5938V17.5312C19.25 17.4401 19.2138 17.3526 19.1493 17.2882C19.0849 17.2237 18.9974 17.1875 18.9062 17.1875ZM18.5625 19.25H3.4375V17.875H18.5625V19.25Z" stroke="#7A7979" stroke-width="0.2" mask="url(#path-1-outside-1_950_1208)"/>
</svg>
