<svg width="37" height="37" viewBox="0 0 37 37" fill="none" xmlns="http://www.w3.org/2000/svg">
<path d="M19.0953 18.3185C20.9157 17.9027 24.752 17.0308 26.5465 16.6159L23.976 13.3643L21.2719 15.4474C21.1318 15.5521 20.9561 15.5974 20.7828 15.5737C20.6095 15.55 20.4525 15.4591 20.3456 15.3207C20.2387 15.1823 20.1905 15.0074 20.2114 14.8337C20.2323 14.6601 20.3207 14.5016 20.4574 14.3925L23.1481 12.316L20.3772 8.81742L15.7302 18.245L15.6835 18.3318L15.2628 19.1998L19.0085 18.3451L19.0953 18.3185Z" fill="white"/>
<path d="M19.8632 31.0506H28.5093V36.0581H19.8632V31.0506Z" fill="white"/>
<path d="M10.0079 31.0506H18.5278V36.0581H10.0079V31.0506Z" fill="white"/>
<path d="M0 31.0506H8.67314V36.0581H0V31.0506Z" fill="white"/>
<path d="M5.11439 24.7938H13.7141V29.7144H5.11439V24.7938Z" fill="white"/>
<path d="M15.0489 24.7938H23.6017V29.7144H15.0489V24.7938Z" fill="white"/>
<path d="M24.9377 24.7938H33.5844V29.7144H24.9377V24.7938Z" fill="white"/>
<path d="M0 18.6515H8.67314V23.4588H0V18.6515Z" fill="white"/>
<path d="M18.5278 19.82C18.3653 19.8439 15.3368 20.5866 15.2561 20.5344C15.0347 20.5306 14.8175 20.4723 14.6239 20.3647C14.4303 20.2571 14.2661 20.1034 14.146 19.9173C14.0259 19.7312 13.9535 19.5183 13.9352 19.2975C13.9168 19.0768 13.9532 18.8549 14.041 18.6515H10.0082V23.4588H18.5278V19.82Z" fill="white"/>
<path d="M19.8632 19.513V23.4588H28.5093V18.6515H23.6158L19.8632 19.513Z" fill="white"/>
<path d="M35.0594 0.650742C34.7743 0.296522 34.3621 0.0676129 33.9106 0.0127517C33.4592 -0.0421094 33.0042 0.0814104 32.6425 0.357013L27.6482 4.14939C27.5769 4.20449 27.5172 4.27328 27.4728 4.35174C27.4283 4.43019 27.4 4.51673 27.3894 4.60628C27.3788 4.69583 27.3863 4.78658 27.4112 4.87323C27.4362 4.95987 27.4782 5.04066 27.5348 5.11086L28.0488 5.73848C27.2301 6.37065 25.8934 7.02059 25.9123 8.23562L25.8322 9.93816C25.8279 10.0398 25.8012 10.1393 25.7538 10.2293C25.7065 10.3194 25.6397 10.3978 25.5584 10.4589L24.203 11.5005L25.031 12.5554C25.8275 11.9005 27.1813 11.1974 27.1675 10.0049L27.2477 8.29567C27.2524 8.19247 27.2801 8.09162 27.3286 8.0004C27.377 7.90918 27.4452 7.82987 27.5281 7.76819L28.8968 6.76667L29.3909 7.36093C29.4986 7.49268 29.6524 7.57844 29.8211 7.60077C29.9898 7.62309 30.1607 7.5803 30.2989 7.4811L35.2932 3.86229C35.4842 3.72182 35.6448 3.54423 35.7656 3.34018C35.8863 3.13613 35.9646 2.9098 35.9958 2.67477C36.0269 2.43973 36.0104 2.20082 35.947 1.97235C35.8836 1.74388 35.7748 1.53055 35.627 1.34515L35.0594 0.650742Z" fill="white"/>
</svg>
