<svg width="13" height="13" viewBox="0 0 13 13" fill="none" xmlns="http://www.w3.org/2000/svg">
<path d="M6.49902 0.25C9.9509 0.25 12.749 3.04813 12.749 6.5C12.749 9.95187 9.9509 12.75 6.49902 12.75C3.04715 12.75 0.249023 9.95187 0.249023 6.5H1.49902C1.49902 9.26125 3.73777 11.5 6.49902 11.5C9.26027 11.5 11.499 9.26125 11.499 6.5C11.499 3.73875 9.26027 1.5 6.49902 1.5C4.78027 1.5 3.26402 2.36688 2.36465 3.6875H3.99902V4.9375H0.249023V1.1875H1.49902V2.75C2.63902 1.23125 4.45465 0.25 6.49902 0.25ZM7.12402 3.375V6.24062L9.1509 8.2675L8.26652 9.15187L5.87402 6.75813V3.375H7.12402Z" fill="#7A7979"/>
</svg>
