<svg width="23" height="24" viewBox="0 0 23 24" fill="none" xmlns="http://www.w3.org/2000/svg">
<path d="M12.7083 20.9584H19.9583V10.0568L11.5 3.47867L3.04167 10.0568V20.9584H10.2917V13.7084H12.7083V20.9584ZM22.375 22.1667C22.375 22.4872 22.2477 22.7946 22.0211 23.0212C21.7945 23.2478 21.4871 23.3751 21.1667 23.3751H1.83333C1.51286 23.3751 1.20552 23.2478 0.978913 23.0212C0.752306 22.7946 0.625 22.4872 0.625 22.1667V9.46717C0.624873 9.28303 0.666829 9.1013 0.747665 8.93586C0.828501 8.77042 0.946079 8.62564 1.09142 8.51258L10.7581 0.994334C10.9702 0.829331 11.2313 0.739746 11.5 0.739746C11.7687 0.739746 12.0298 0.829331 12.2419 0.994334L21.9086 8.51258C22.0539 8.62564 22.1715 8.77042 22.2523 8.93586C22.3332 9.1013 22.3751 9.28303 22.375 9.46717V22.1667Z" fill="#FEBD17"/>
</svg>
