<svg width="40" height="40" viewBox="0 0 40 40" fill="none" xmlns="http://www.w3.org/2000/svg">
<path d="M33.3333 8.33333H6.66659V31.6667L22.1533 16.1767C22.4658 15.8642 22.8896 15.6887 23.3316 15.6887C23.7735 15.6887 24.1974 15.8642 24.5099 16.1767L33.3333 25.0167V8.33333ZM3.33325 6.655C3.3363 6.2173 3.51142 5.79836 3.82077 5.4887C4.13013 5.17903 4.54889 5.00349 4.98659 5H35.0133C35.9266 5 36.6666 5.74167 36.6666 6.655V33.345C36.6635 33.7827 36.4884 34.2016 36.1791 34.5113C35.8697 34.821 35.451 34.9965 35.0133 35H4.98659C4.54794 34.9996 4.12741 34.825 3.8174 34.5147C3.50739 34.2043 3.33325 33.7836 3.33325 33.345V6.655ZM13.3333 18.3333C12.4492 18.3333 11.6013 17.9821 10.9762 17.357C10.3511 16.7319 9.99992 15.8841 9.99992 15C9.99992 14.1159 10.3511 13.2681 10.9762 12.643C11.6013 12.0179 12.4492 11.6667 13.3333 11.6667C14.2173 11.6667 15.0652 12.0179 15.6903 12.643C16.3154 13.2681 16.6666 14.1159 16.6666 15C16.6666 15.8841 16.3154 16.7319 15.6903 17.357C15.0652 17.9821 14.2173 18.3333 13.3333 18.3333Z" fill="#4F4F4F"/>
</svg>
