<svg width="24" height="24" viewBox="0 0 24 24" fill="none" xmlns="http://www.w3.org/2000/svg">
<path fill-rule="evenodd" clip-rule="evenodd" d="M20.2852 20.273C18.1014 22.4671 15.1396 23.6998 12.0514 23.6998C8.96319 23.6998 6.00144 22.4671 3.81774 20.273C1.63401 18.0788 0.407227 15.1028 0.407227 11.9998C0.407227 8.89678 1.63401 5.92084 3.81774 3.72666C6.00144 1.53247 8.96319 0.299805 12.0514 0.299805C15.1396 0.299805 18.1014 1.53247 20.2852 3.72666C22.4687 5.92084 23.6956 8.89678 23.6956 11.9998C23.6956 15.1028 22.4687 18.0788 20.2852 20.273ZM12.1893 14.4387C12.8049 14.4387 13.3126 13.9567 13.3445 13.3419L13.6659 7.15666C13.7098 6.31107 13.036 5.60137 12.1893 5.60137C11.3426 5.60137 10.6688 6.31107 10.7127 7.15666L11.034 13.3419C11.066 13.9567 11.5737 14.4387 12.1893 14.4387ZM11.001 16.3835C10.7309 16.6428 10.5959 17.0257 10.5959 17.5323C10.5959 18.0207 10.7339 18.4006 11.01 18.672C11.2861 18.9373 11.6762 19.07 12.1803 19.07C12.6724 19.07 13.0565 18.9343 13.3326 18.6629C13.6086 18.3855 13.7467 18.0087 13.7467 17.5323C13.7467 17.0378 13.6086 16.6579 13.3326 16.3925C13.0625 16.1272 12.6784 15.9945 12.1803 15.9945C11.6642 15.9945 11.2711 16.1242 11.001 16.3835Z" fill="white"/>
</svg>
