<svg width="54" height="90" viewBox="0 0 54 90" fill="none" xmlns="http://www.w3.org/2000/svg">
<path d="M6.99991 18.4C6.49991 18.4 5.99992 18.2 5.69992 17.7L0.999906 10.9C0.499906 10.2 0.699931 9.20001 1.39993 8.60001C2.09993 8.10001 3.09992 8.30001 3.69992 9.00001L8.39993 15.8C8.89993 16.5 8.69991 17.5 7.99991 18.1C7.69991 18.3 7.29991 18.4 6.99991 18.4Z" fill="#946618"/>
<path d="M26.7997 13.5C25.8997 13.5 25.1997 12.8 25.1997 11.9V2.29995C25.1997 1.39995 25.8997 0.699951 26.7997 0.699951C27.6997 0.699951 28.3997 1.39995 28.3997 2.29995V11.9C28.4997 12.8 27.6997 13.5 26.7997 13.5Z" fill="#946618"/>
<path d="M46.6998 18.4C46.3998 18.4 46.0998 18.3 45.7998 18.1C45.0998 17.6 44.8998 16.6 45.3998 15.8L50.0998 9.00001C50.5998 8.30001 51.5998 8.10001 52.3998 8.60001C53.0998 9.10001 53.2998 10.1 52.7998 10.9L48.0998 17.7C47.6998 18.2 47.1998 18.4 46.6998 18.4Z" fill="#946618"/>
<path d="M26.8998 19.3C13.5998 19.3 2.7998 30.2 2.7998 43.7C2.7998 50.2 5.29984 56.3001 9.89984 60.9001C11.5998 62.6001 13.0998 64.5 14.3998 66.7C14.7998 67.4 15.0998 68.2 15.0998 69.1V84.7C15.0998 87.4 17.2998 89.6001 19.9998 89.6001H33.8998C36.5998 89.6001 38.7998 87.4 38.7998 84.7V69.3001C38.7998 68.3001 39.0998 67.3 39.5998 66.5C40.9998 64.3 42.3998 62.4001 43.9998 60.8001C48.4998 56.2001 50.9998 50.1 50.9998 43.6C50.8998 30.2 40.0998 19.3 26.8998 19.3Z" fill="#946618"/>
<path d="M18.2998 75.5999H35.3998V84.6999C35.3998 85.5999 34.6998 86.2999 33.7998 86.2999H19.8998C18.9998 86.2999 18.2998 85.5999 18.2998 84.6999V75.5999Z" fill="#E79E25"/>
<path d="M47.6996 43.6999C47.6996 49.2999 45.4996 54.5999 41.5996 58.5999C39.8996 60.3999 38.1996 62.4999 36.7996 64.7999C35.8996 66.1999 35.4996 67.6999 35.4996 69.2999V71.4999H18.3997V69.0999C18.3997 67.5999 17.9996 66.1999 17.1996 64.9999C15.6996 62.5999 13.9996 60.4999 12.1996 58.5999C8.29965 54.5999 6.09961 49.2999 6.09961 43.6999C6.09961 32.0999 15.3997 22.5999 26.8997 22.5999C38.2997 22.4999 47.6996 31.9999 47.6996 43.6999Z" fill="#E49514"/>
</svg>
