<svg width="761" height="485" viewBox="0 0 761 485" fill="none" xmlns="http://www.w3.org/2000/svg">
<g clip-path="url(#clip0_55_1465)">
<path d="M284.882 97.0213C388.757 45.8452 495.508 -21.0035 616.215 6.39702C653.61 14.9264 687.702 36.1431 710.714 66.9554C772.293 149.477 767.286 275.818 733.833 368.681C729.465 380.835 724.031 392.563 717 403.332C683.121 455.787 625.91 458.239 570.723 443.1C524.06 430.306 482.723 417.085 434.461 430.092C407.72 437.342 381.832 447.258 355.304 454.827C319.081 465.063 281.793 472.099 243.972 472.846C144.146 474.765 30.1501 423.802 21.3075 312.281C20.7748 305.031 20.6683 297.781 20.9879 290.531C23.0121 245.965 37.7143 201.399 78.4118 178.263C119.429 155.021 168.01 145.852 211.797 129.326C236.834 119.944 261.018 108.856 284.882 97.0213Z" fill="#FEBD17"/>
<path opacity="0.7" d="M284.882 97.0213C388.757 45.8452 495.508 -21.0035 616.215 6.39702C653.61 14.9264 687.702 36.1431 710.714 66.9554C772.293 149.477 767.286 275.818 733.833 368.681C729.465 380.835 724.031 392.563 717 403.332C683.121 455.787 625.91 458.239 570.723 443.1C524.06 430.306 482.723 417.085 434.461 430.092C407.72 437.342 381.832 447.258 355.304 454.827C319.081 465.063 281.793 472.099 243.972 472.846C144.146 474.765 30.1501 423.802 21.3075 312.281C20.7748 305.031 20.6683 297.781 20.9879 290.531C23.0121 245.965 37.7143 201.399 78.4118 178.263C119.429 155.021 168.01 145.852 211.797 129.326C236.834 119.944 261.018 108.856 284.882 97.0213Z" fill="white"/>
<path d="M0 447.471H761" stroke="#263238" stroke-miterlimit="10"/>
<path d="M683.76 222.509L701.446 392.563" stroke="#263238" stroke-width="2" stroke-miterlimit="10"/>
<path d="M698.569 360.045L690.579 351.516" stroke="#263238" stroke-width="2" stroke-miterlimit="10"/>
<path d="M693.029 354.074C693.029 354.074 693.242 350.343 689.833 347.251C687.809 345.439 676.942 340.854 675.876 344.692C674.705 348.744 685.784 356.953 693.029 354.074Z" fill="#FEBD17" stroke="#263238" stroke-miterlimit="10"/>
<path d="M693.029 354.074L682.695 347.571" stroke="#263238" stroke-width="0.5" stroke-miterlimit="10"/>
<path d="M700.593 379.343L692.603 370.813" stroke="#263238" stroke-width="2" stroke-miterlimit="10"/>
<path d="M695.054 373.372C695.054 373.372 695.267 369.64 691.857 366.549C689.833 364.736 678.966 360.152 677.901 363.99C676.729 368.148 687.809 376.357 695.054 373.372Z" fill="#FEBD17" stroke="#263238" stroke-miterlimit="10"/>
<path d="M695.053 373.372L684.719 366.975" stroke="#263238" stroke-width="0.5" stroke-miterlimit="10"/>
<path d="M693.669 312.814L685.678 304.284" stroke="#263238" stroke-width="2" stroke-miterlimit="10"/>
<path d="M688.022 306.843C688.022 306.843 688.235 303.112 684.826 300.02C682.802 298.207 671.935 293.623 670.869 297.461C669.804 301.619 680.884 309.829 688.022 306.843Z" fill="#FEBD17" stroke="#263238" stroke-miterlimit="10"/>
<path d="M688.022 306.843L677.688 300.446" stroke="#263238" stroke-width="0.5" stroke-miterlimit="10"/>
<path d="M695.693 332.111L687.596 323.689" stroke="#263238" stroke-width="2" stroke-miterlimit="10"/>
<path d="M690.046 326.248C690.046 326.248 690.259 322.516 686.85 319.424C684.826 317.612 673.959 313.027 672.893 316.865C671.828 320.917 682.908 329.126 690.046 326.248Z" fill="#FEBD17" stroke="#263238" stroke-miterlimit="10"/>
<path d="M690.046 326.248L679.712 319.744" stroke="#263238" stroke-width="0.5" stroke-miterlimit="10"/>
<path d="M690.365 281.362L682.375 272.939" stroke="#263238" stroke-width="2" stroke-miterlimit="10"/>
<path d="M684.825 275.391C684.825 275.391 685.039 271.66 681.629 268.568C679.605 266.755 668.738 262.171 667.673 266.009C666.501 270.167 677.581 278.377 684.825 275.391Z" fill="#FEBD17" stroke="#263238" stroke-miterlimit="10"/>
<path d="M684.825 275.391L674.491 268.994" stroke="#263238" stroke-width="0.5" stroke-miterlimit="10"/>
<path d="M687.063 249.803L679.073 241.38" stroke="#263238" stroke-width="2" stroke-miterlimit="10"/>
<path d="M681.523 243.939C681.523 243.939 681.736 240.208 678.327 237.116C676.303 235.303 665.436 230.719 664.37 234.557C663.198 238.608 674.385 246.818 681.523 243.939Z" fill="#FEBD17" stroke="#263238" stroke-miterlimit="10"/>
<path d="M681.523 243.939L671.189 237.436" stroke="#263238" stroke-width="0.5" stroke-miterlimit="10"/>
<path d="M697.184 348.53L703.363 338.615" stroke="#263238" stroke-width="2" stroke-miterlimit="10"/>
<path d="M701.445 341.6C701.445 341.6 700.487 337.975 703.15 334.244C704.748 332.005 714.443 325.288 716.254 328.806C718.278 332.645 709.116 342.986 701.445 341.6Z" fill="#FEBD17" stroke="#263238" stroke-miterlimit="10"/>
<path d="M701.445 341.6L710.821 332.645" stroke="#263238" stroke-width="0.5" stroke-miterlimit="10"/>
<path d="M691.964 297.674L698.036 287.652" stroke="#263238" stroke-width="2" stroke-miterlimit="10"/>
<path d="M696.225 290.638C696.225 290.638 695.266 287.013 697.93 283.281C699.528 281.042 709.223 274.325 711.034 277.844C712.952 281.788 703.789 292.024 696.225 290.638Z" fill="#FEBD17" stroke="#263238" stroke-miterlimit="10"/>
<path d="M696.226 290.638L705.494 281.788" stroke="#263238" stroke-width="0.5" stroke-miterlimit="10"/>
<path d="M689.62 275.285L695.693 265.369" stroke="#263238" stroke-width="2" stroke-miterlimit="10"/>
<path d="M693.882 268.355C693.882 268.355 692.923 264.73 695.587 260.998C697.185 258.759 706.88 252.042 708.691 255.561C710.608 259.399 701.446 269.741 693.882 268.355Z" fill="#FEBD17" stroke="#263238" stroke-miterlimit="10"/>
<path d="M693.882 268.355L703.151 259.399" stroke="#263238" stroke-width="0.5" stroke-miterlimit="10"/>
<path d="M686.211 242.553L692.284 232.531" stroke="#263238" stroke-width="2" stroke-miterlimit="10"/>
<path d="M690.472 235.517C690.472 235.517 689.513 231.892 692.177 228.16C693.775 225.921 703.47 219.204 705.281 222.723C707.199 226.667 698.036 236.903 690.472 235.517Z" fill="#FEBD17" stroke="#263238" stroke-miterlimit="10"/>
<path d="M690.472 235.517L699.741 226.667" stroke="#263238" stroke-width="0.5" stroke-miterlimit="10"/>
<path d="M683.547 221.55C683.547 221.55 682.589 217.925 685.252 214.193C686.85 211.954 696.545 205.237 698.356 208.756C700.38 212.594 691.218 222.936 683.547 221.55Z" fill="#FEBD17" stroke="#263238" stroke-miterlimit="10"/>
<path d="M683.547 221.55L692.923 212.701" stroke="#263238" stroke-width="0.5" stroke-miterlimit="10"/>
<path d="M684.08 221.976C684.08 221.976 680.351 222.616 676.942 219.524C674.918 217.712 669.271 207.37 672.893 205.877C677.048 204.278 686.317 214.513 684.08 221.976Z" fill="#FEBD17" stroke="#263238" stroke-miterlimit="10"/>
<path d="M684.08 221.976L676.196 211.741" stroke="#263238" stroke-width="0.5" stroke-miterlimit="10"/>
<path d="M730.53 245.965L712.845 416.019" stroke="#263238" stroke-width="2" stroke-miterlimit="10"/>
<path d="M716.787 383.501L710.607 373.585" stroke="#263238" stroke-width="2" stroke-miterlimit="10"/>
<path d="M712.525 376.571C712.525 376.571 713.484 372.946 710.821 369.214C709.223 366.975 699.528 360.258 697.717 363.777C695.692 367.615 704.855 377.957 712.525 376.571Z" fill="#FEBD17" stroke="#263238" stroke-miterlimit="10"/>
<path d="M712.525 376.571L703.683 368.148" stroke="#263238" stroke-width="0.5" stroke-miterlimit="10"/>
<path d="M721.688 336.376L715.508 326.354" stroke="#263238" stroke-width="2" stroke-miterlimit="10"/>
<path d="M717.426 329.339C717.426 329.339 718.385 325.714 715.722 321.983C714.124 319.744 704.429 313.027 702.617 316.545C700.593 320.49 709.756 330.725 717.426 329.339Z" fill="#FEBD17" stroke="#263238" stroke-miterlimit="10"/>
<path d="M717.426 329.339L708.583 320.917" stroke="#263238" stroke-width="0.5" stroke-miterlimit="10"/>
<path d="M719.664 355.674L713.484 345.758" stroke="#263238" stroke-width="2" stroke-miterlimit="10"/>
<path d="M715.402 348.744C715.402 348.744 716.361 345.119 713.697 341.387C712.099 339.148 702.404 332.431 700.593 335.95C698.569 339.788 707.731 350.13 715.402 348.744Z" fill="#FEBD17" stroke="#263238" stroke-miterlimit="10"/>
<path d="M715.402 348.744L706.559 340.214" stroke="#263238" stroke-width="0.5" stroke-miterlimit="10"/>
<path d="M724.884 304.924L718.811 294.902" stroke="#263238" stroke-width="2" stroke-miterlimit="10"/>
<path d="M720.622 297.994C720.622 297.994 721.581 294.369 718.918 290.637C717.32 288.398 707.625 281.682 705.813 285.2C703.896 289.038 713.058 299.38 720.622 297.994Z" fill="#FEBD17" stroke="#263238" stroke-miterlimit="10"/>
<path d="M720.622 297.994L711.886 289.465" stroke="#263238" stroke-width="0.5" stroke-miterlimit="10"/>
<path d="M728.187 273.366L722.007 263.45" stroke="#263238" stroke-width="2" stroke-miterlimit="10"/>
<path d="M723.925 266.435C723.925 266.435 724.884 262.81 722.22 259.079C720.622 256.84 710.927 250.123 709.116 253.641C707.092 257.48 716.361 267.821 723.925 266.435Z" fill="#FEBD17" stroke="#263238" stroke-miterlimit="10"/>
<path d="M723.925 266.435L715.083 257.906" stroke="#263238" stroke-width="0.5" stroke-miterlimit="10"/>
<path d="M717.746 372.093L725.842 363.563" stroke="#263238" stroke-width="2" stroke-miterlimit="10"/>
<path d="M723.392 366.122C723.392 366.122 723.179 362.391 726.588 359.299C728.613 357.486 739.479 352.902 740.545 356.74C741.61 360.791 730.53 369.001 723.392 366.122Z" fill="#FEBD17" stroke="#263238" stroke-miterlimit="10"/>
<path d="M723.392 366.122L734.365 359.299" stroke="#263238" stroke-width="0.5" stroke-miterlimit="10"/>
<path d="M723.073 321.13L731.063 312.707" stroke="#263238" stroke-width="2" stroke-miterlimit="10"/>
<path d="M728.613 315.159C728.613 315.159 728.4 311.428 731.809 308.336C733.833 306.523 744.7 301.939 745.766 305.777C746.938 309.935 735.858 318.145 728.613 315.159Z" fill="#FEBD17" stroke="#263238" stroke-miterlimit="10"/>
<path d="M728.613 315.159L739.586 308.442" stroke="#263238" stroke-width="0.5" stroke-miterlimit="10"/>
<path d="M725.417 298.847L733.407 290.318" stroke="#263238" stroke-width="2" stroke-miterlimit="10"/>
<path d="M730.956 292.876C730.956 292.876 730.743 289.145 734.152 286.053C736.177 284.24 747.043 279.656 748.109 283.494C749.281 287.546 738.094 295.755 730.956 292.876Z" fill="#FEBD17" stroke="#263238" stroke-miterlimit="10"/>
<path d="M730.957 292.876L741.93 286.053" stroke="#263238" stroke-width="0.5" stroke-miterlimit="10"/>
<path d="M728.825 266.009L736.815 257.48" stroke="#263238" stroke-width="2" stroke-miterlimit="10"/>
<path d="M734.365 260.038C734.365 260.038 734.152 256.307 737.562 253.215C739.586 251.402 750.453 246.818 751.518 250.656C752.69 254.814 741.503 263.024 734.365 260.038Z" fill="#FEBD17" stroke="#263238" stroke-miterlimit="10"/>
<path d="M734.365 260.038L745.339 253.215" stroke="#263238" stroke-width="0.5" stroke-miterlimit="10"/>
<path d="M730.53 245.005C730.53 245.005 730.317 241.274 733.726 238.182C735.75 236.369 746.617 231.785 747.683 235.623C748.748 239.675 737.668 247.884 730.53 245.005Z" fill="#FEBD17" stroke="#263238" stroke-miterlimit="10"/>
<path d="M730.53 245.005L741.504 238.182" stroke="#263238" stroke-width="0.5" stroke-miterlimit="10"/>
<path d="M730.956 245.432C730.956 245.432 727.227 245.219 724.457 241.487C722.859 239.248 719.45 227.947 723.392 227.307C727.654 226.667 734.685 238.608 730.956 245.432Z" fill="#FEBD17" stroke="#263238" stroke-miterlimit="10"/>
<path d="M730.956 245.432L725.416 233.811" stroke="#263238" stroke-width="0.5" stroke-miterlimit="10"/>
<path d="M710.288 176.664V391.71" stroke="#263238" stroke-width="2" stroke-miterlimit="10"/>
<path d="M710.395 359.405L703.363 350.13" stroke="#263238" stroke-width="2" stroke-miterlimit="10"/>
<path d="M705.494 352.902C705.494 352.902 706.133 349.17 703.044 345.758C701.233 343.733 690.899 338.082 689.407 341.707C687.915 345.758 698.037 355.034 705.494 352.902Z" fill="#FEBD17" stroke="#263238" stroke-miterlimit="10"/>
<path d="M705.494 352.902L695.906 345.439" stroke="#263238" stroke-width="0.5" stroke-miterlimit="10"/>
<path d="M710.395 318.998L703.363 309.722" stroke="#263238" stroke-width="2" stroke-miterlimit="10"/>
<path d="M705.494 312.494C705.494 312.494 706.133 308.762 703.044 305.351C701.233 303.325 690.899 297.674 689.407 301.299C687.915 305.351 698.037 314.626 705.494 312.494Z" fill="#FEBD17" stroke="#263238" stroke-miterlimit="10"/>
<path d="M705.494 312.494L695.906 305.031" stroke="#263238" stroke-width="0.5" stroke-miterlimit="10"/>
<path d="M710.395 271.553L703.363 262.277" stroke="#263238" stroke-width="2" stroke-miterlimit="10"/>
<path d="M705.494 265.049C705.494 265.049 706.133 261.318 703.044 257.906C701.233 255.88 690.899 250.23 689.407 253.855C687.915 257.906 698.037 267.182 705.494 265.049Z" fill="#FEBD17" stroke="#263238" stroke-miterlimit="10"/>
<path d="M705.494 265.049L695.906 257.48" stroke="#263238" stroke-width="0.5" stroke-miterlimit="10"/>
<path d="M710.395 239.888L703.363 230.612" stroke="#263238" stroke-width="2" stroke-miterlimit="10"/>
<path d="M705.494 233.384C705.494 233.384 706.133 229.653 703.044 226.241C701.233 224.215 690.899 218.565 689.407 222.19C687.915 226.348 698.037 235.623 705.494 233.384Z" fill="#FEBD17" stroke="#263238" stroke-miterlimit="10"/>
<path d="M705.494 233.384L695.906 225.921" stroke="#263238" stroke-width="0.5" stroke-miterlimit="10"/>
<path d="M710.395 208.223L703.363 198.947" stroke="#263238" stroke-width="2" stroke-miterlimit="10"/>
<path d="M705.494 201.719C705.494 201.719 706.133 197.987 703.044 194.576C701.233 192.55 690.899 186.899 689.407 190.524C687.915 194.576 698.037 203.851 705.494 201.719Z" fill="#FEBD17" stroke="#263238" stroke-miterlimit="10"/>
<path d="M705.494 201.719L695.906 194.256" stroke="#263238" stroke-width="0.5" stroke-miterlimit="10"/>
<path d="M710.289 371.666L717.427 362.391" stroke="#263238" stroke-width="2" stroke-miterlimit="10"/>
<path d="M715.19 365.269C715.19 365.269 714.55 361.538 717.64 358.126C719.451 356.1 729.785 350.45 731.277 354.075C732.875 358.126 722.647 367.402 715.19 365.269Z" fill="#FEBD17" stroke="#263238" stroke-miterlimit="10"/>
<path d="M715.189 365.269L725.417 357.38" stroke="#263238" stroke-width="0.5" stroke-miterlimit="10"/>
<path d="M710.289 307.483L717.427 298.207" stroke="#263238" stroke-width="2" stroke-miterlimit="10"/>
<path d="M715.19 300.979C715.19 300.979 714.55 297.248 717.64 293.836C719.451 291.81 729.785 286.16 731.277 289.785C732.875 293.836 722.647 303.112 715.19 300.979Z" fill="#FEBD17" stroke="#263238" stroke-miterlimit="10"/>
<path d="M715.189 300.979L725.417 293.09" stroke="#263238" stroke-width="0.5" stroke-miterlimit="10"/>
<path d="M710.289 275.711L717.427 266.436" stroke="#263238" stroke-width="2" stroke-miterlimit="10"/>
<path d="M715.19 269.208C715.19 269.208 714.55 265.476 717.64 262.064C719.451 260.038 729.785 254.388 731.277 258.013C732.875 262.064 722.647 271.34 715.19 269.208Z" fill="#FEBD17" stroke="#263238" stroke-miterlimit="10"/>
<path d="M715.189 269.208L725.417 261.318" stroke="#263238" stroke-width="0.5" stroke-miterlimit="10"/>
<path d="M710.289 233.811L717.427 224.535" stroke="#263238" stroke-width="2" stroke-miterlimit="10"/>
<path d="M715.19 227.307C715.19 227.307 714.55 223.576 717.64 220.164C719.451 218.138 729.785 212.487 731.277 216.112C732.875 220.164 722.647 229.439 715.19 227.307Z" fill="#FEBD17" stroke="#263238" stroke-miterlimit="10"/>
<path d="M715.189 227.307L725.417 219.417" stroke="#263238" stroke-width="0.5" stroke-miterlimit="10"/>
<path d="M710.288 200.866L717.426 191.59" stroke="#263238" stroke-width="2" stroke-miterlimit="10"/>
<path d="M715.189 194.363C715.189 194.363 714.55 190.631 717.639 187.219C719.451 185.194 729.785 179.543 731.276 183.168C732.874 187.219 722.647 196.495 715.189 194.363Z" fill="#FEBD17" stroke="#263238" stroke-miterlimit="10"/>
<path d="M715.189 194.362L725.417 186.473" stroke="#263238" stroke-width="0.5" stroke-miterlimit="10"/>
<path d="M709.862 179.756C709.862 179.756 709.223 176.024 712.312 172.613C714.123 170.587 724.458 164.936 725.949 168.561C727.547 172.613 717.32 181.888 709.862 179.756Z" fill="#FEBD17" stroke="#263238" stroke-miterlimit="10"/>
<path d="M709.862 179.756L720.09 171.866" stroke="#263238" stroke-width="0.5" stroke-miterlimit="10"/>
<path d="M710.395 180.182C710.395 180.182 706.666 180.396 703.576 176.984C701.765 174.958 697.184 164.083 701.019 163.017C705.174 161.844 713.271 172.933 710.395 180.182Z" fill="#FEBD17" stroke="#263238" stroke-miterlimit="10"/>
<path d="M710.395 180.182L703.576 169.201" stroke="#263238" stroke-width="0.5" stroke-miterlimit="10"/>
<path d="M719.131 447.471H696.331L693.562 390.004H722.007L719.131 447.471Z" fill="#263238" stroke="#263238" stroke-miterlimit="10"/>
<path d="M114.675 89.9449C131.359 73.2488 131.359 46.1792 114.675 29.4831C97.9916 12.787 70.942 12.787 54.2583 29.4831C37.5746 46.1792 37.5746 73.2488 54.2583 89.9449C70.942 106.641 97.9916 106.641 114.675 89.9449Z" stroke="#263238" stroke-miterlimit="10"/>
<path d="M123.48 66.0642C126.977 44.5005 112.344 24.1826 90.7964 20.6829C69.2486 17.1833 48.9458 31.8271 45.4487 53.3908C41.9516 74.9546 56.5846 95.2725 78.1324 98.7721C99.6801 102.272 119.983 87.6279 123.48 66.0642Z" stroke="#263238" stroke-miterlimit="10"/>
<path d="M87.8936 59.7054C87.8936 61.6245 86.4021 63.1172 84.4844 63.1172C82.5667 63.1172 81.0752 61.6245 81.0752 59.7054C81.0752 57.7863 82.5667 56.2937 84.4844 56.2937C86.4021 56.2937 87.8936 57.893 87.8936 59.7054Z" stroke="#263238" stroke-miterlimit="10"/>
<path d="M81.0749 59.7054H69.5688" stroke="#263238" stroke-miterlimit="10"/>
<path d="M84.4844 63.1172V89.0251" stroke="#263238" stroke-miterlimit="10"/>
<path d="M98.6543 277.844H67.2256V280.616H98.6543V277.844Z" fill="#263238" stroke="#263238" stroke-miterlimit="10"/>
<path d="M83.3128 257.8H67.2256V280.509H83.3128V257.8Z" fill="#263238" stroke="#263238" stroke-miterlimit="10"/>
<path d="M123.904 179.543H21.7339V259.292H123.904V179.543Z" fill="#263238" stroke="#263238" stroke-miterlimit="10"/>
<path d="M126.993 179.543H24.8232V259.292H126.993V179.543Z" fill="white" stroke="#263238" stroke-miterlimit="10"/>
<path d="M123.478 182.315H28.3394V256.52H123.478V182.315Z" fill="#EDEDED" stroke="#263238" stroke-miterlimit="10"/>
<path d="M184.631 277.097H105.792V280.616H184.631V277.097Z" fill="white" stroke="#263238" stroke-miterlimit="10"/>
<path d="M29.5113 286.586L29.4048 292.557L26.3152 444.272C26.3152 446.085 24.8236 447.471 23.0125 447.471C21.2013 447.471 19.7098 445.978 19.7098 444.272L16.6202 292.557L16.5137 286.586H29.5113Z" fill="white" stroke="#263238" stroke-miterlimit="10"/>
<path d="M29.5113 286.586L29.4048 292.557H16.6202L16.5137 286.586H29.5113Z" fill="#263238" stroke="#263238" stroke-miterlimit="10"/>
<path d="M253.773 447.471C251.962 447.471 250.471 445.978 250.471 444.166L247.274 286.586H260.272L257.076 444.166C257.076 446.085 255.584 447.471 253.773 447.471Z" fill="white" stroke="#263238" stroke-miterlimit="10"/>
<path d="M247.381 292.557H260.165L260.272 286.586H247.274L247.381 292.557Z" fill="#263238" stroke="#263238" stroke-miterlimit="10"/>
<path d="M266.771 280.722H8.84277V288.399H266.771V280.722Z" fill="white" stroke="#263238" stroke-miterlimit="10"/>
<path d="M151.923 341.174C151.497 341.174 151.071 341.067 150.645 340.961C148.94 340.214 148.194 338.295 148.834 336.589C154.161 323.689 160.34 300.66 154.054 293.836C152.562 292.876 143.72 290.638 96.0974 295.009C94.4993 295.115 93.3274 295.222 92.5816 295.329C89.279 295.542 86.4024 299.807 85.6567 301.299C84.8044 302.898 82.8867 303.645 81.1821 302.792C79.584 301.939 78.8383 300.02 79.6906 298.314C80.1167 297.354 84.3782 289.251 92.049 288.718C92.6882 288.718 93.8601 288.612 95.4582 288.399C146.17 283.707 155.972 286.053 158.848 289.358C170.035 301.512 156.504 335.31 154.906 339.148C154.48 340.428 153.202 341.174 151.923 341.174Z" fill="#263238" stroke="#263238" stroke-miterlimit="10" stroke-linecap="round" stroke-linejoin="round"/>
<path d="M38.1405 193.829C38.1405 193.829 35.4771 204.065 36.8621 210.462C38.1405 216.859 50.1793 244.899 59.022 270.594C67.8646 296.288 66.16 324.328 66.16 332.538C66.16 340.854 65.7339 346.718 71.9131 350.023C78.0922 353.222 87.8937 351.409 90.5572 345.439C93.2206 339.468 95.0318 301.406 90.131 278.377C85.2303 255.454 70.315 220.377 65.8404 211.208C61.3658 202.146 54.5474 181.462 38.1405 193.829Z" fill="#999999" stroke="#263238" stroke-miterlimit="10" stroke-linecap="round" stroke-linejoin="round"/>
<path opacity="0.25" d="M33.879 196.282C33.879 196.282 28.9783 204.065 30.3633 210.462C31.6418 216.859 43.6805 244.899 52.5232 270.594C61.3658 296.395 59.6612 324.435 59.6612 332.645C59.6612 340.961 59.2351 346.825 65.4143 350.13C71.5935 353.328 81.3949 351.516 84.0584 345.545C86.7218 339.575 88.533 301.512 83.6322 278.483C78.7315 255.561 61.4724 215.153 56.9978 205.984C52.5232 196.708 50.2859 183.914 33.879 196.282Z" fill="black"/>
<path d="M41.3369 191.91C36.1166 193.829 32.1747 198.414 30.7897 203.851C30.257 205.984 29.9374 208.329 30.47 210.568C31.7485 216.965 43.7873 245.006 52.6299 270.7C61.366 296.395 59.6614 324.435 59.6614 332.645C59.6614 340.961 59.2353 346.825 65.4145 350.13C71.5937 353.328 81.3951 351.516 84.0586 345.545C86.722 339.575 88.5332 301.512 83.6324 278.483C78.7317 255.561 61.4726 215.153 56.998 205.984C53.2691 198.414 51.1384 188.285 41.3369 191.91Z" fill="#999999" stroke="#263238" stroke-miterlimit="10" stroke-linecap="round" stroke-linejoin="round"/>
<path d="M127.952 344.692H121.986V402.052H127.952V344.692Z" fill="#263238" stroke="#263238" stroke-miterlimit="10" stroke-linecap="round" stroke-linejoin="round"/>
<path d="M132.426 404.504V394.802H117.405V404.504L56.8911 427.747V439.261H61.0461V430.519L125.182 416.979L187.507 430.519V439.261H191.555V427.747L132.426 404.504Z" fill="white" stroke="#263238" stroke-miterlimit="10" stroke-linecap="round" stroke-linejoin="round"/>
<path d="M139.777 344.692H110.053V363.03H139.777V344.692Z" fill="#263238" stroke="#263238" stroke-miterlimit="10" stroke-linecap="round" stroke-linejoin="round"/>
<path d="M56.891 439.688C56.891 436.17 54.0145 433.291 50.4987 433.291C46.983 433.291 44.1064 436.17 44.1064 439.688C44.1064 443.206 46.983 446.085 50.4987 446.085C54.0145 446.085 56.891 443.206 56.891 439.688Z" fill="#263238" stroke="#263238" stroke-miterlimit="10" stroke-linecap="round" stroke-linejoin="round"/>
<path d="M53.2685 439.688C53.2685 438.195 51.99 436.916 50.4985 436.916C49.007 436.916 47.7285 438.195 47.7285 439.688C47.7285 441.181 49.007 442.46 50.4985 442.46C51.99 442.46 53.2685 441.181 53.2685 439.688Z" fill="white" stroke="#263238" stroke-miterlimit="10" stroke-linecap="round" stroke-linejoin="round"/>
<path d="M204.766 439.688C204.766 436.17 201.889 433.291 198.373 433.291C194.857 433.291 191.981 436.17 191.981 439.688C191.981 443.206 194.857 446.085 198.373 446.085C201.889 446.085 204.766 443.206 204.766 439.688Z" fill="#263238" stroke="#263238" stroke-miterlimit="10" stroke-linecap="round" stroke-linejoin="round"/>
<path d="M201.143 439.688C201.143 438.195 199.865 436.916 198.373 436.916C196.881 436.916 195.603 438.195 195.603 439.688C195.603 441.181 196.881 442.46 198.373 442.46C199.865 442.46 201.143 441.181 201.143 439.688Z" fill="white" stroke="#263238" stroke-miterlimit="10" stroke-linecap="round" stroke-linejoin="round"/>
<path d="M127.632 440.647H122.625L120.068 406.21H130.189L127.632 440.647Z" fill="white" stroke="#263238" stroke-miterlimit="10" stroke-linecap="round" stroke-linejoin="round"/>
<path d="M127.419 433.291H122.412V447.471H127.419V433.291Z" fill="#263238" stroke="#263238" stroke-miterlimit="10" stroke-linecap="round" stroke-linejoin="round"/>
<path opacity="0.25" d="M170.674 350.45L83.6321 353.222C81.1817 353.328 79.051 351.302 78.9444 348.85L78.4117 332.218C78.3052 329.766 80.3294 327.634 82.7798 327.527L169.821 324.755C172.272 324.648 174.402 326.674 174.509 329.126L175.042 345.758C175.148 348.317 173.23 350.45 170.674 350.45Z" fill="black"/>
<path d="M181.114 350.45L94.073 353.222C91.6226 353.328 89.4919 351.302 89.3853 348.85L88.8527 332.218C88.7461 329.766 90.7703 327.634 93.2207 327.527L180.262 324.755C182.713 324.648 184.843 326.674 184.95 329.126L185.483 345.758C185.589 348.317 183.565 350.45 181.114 350.45Z" fill="#999999" stroke="#263238" stroke-miterlimit="10" stroke-linecap="round" stroke-linejoin="round"/>
<path d="M170.674 350.45L83.6321 353.222C81.1817 353.328 79.051 351.302 78.9444 348.85L78.4117 332.218C78.3052 329.766 80.3294 327.634 82.7798 327.527L169.821 324.755C172.272 324.648 174.402 326.674 174.509 329.126L175.042 345.758C175.148 348.317 173.23 350.45 170.674 350.45Z" fill="#999999" stroke="#263238" stroke-miterlimit="10" stroke-linecap="round" stroke-linejoin="round"/>
<path d="M142.548 341.174C142.122 341.174 141.695 341.067 141.269 340.961C139.565 340.214 138.819 338.295 139.458 336.589C144.785 323.689 150.964 300.66 144.679 293.836C143.187 292.876 134.344 290.638 86.7219 295.009C85.1238 295.115 83.9519 295.222 83.2062 295.329C79.9035 295.542 77.027 299.807 76.2812 301.299C75.4289 302.898 73.5112 303.645 71.8066 302.792C70.2085 301.939 69.4628 300.02 70.3151 298.314C70.7412 297.354 75.0027 289.251 82.6735 288.718C83.3127 288.718 84.4846 288.612 86.0827 288.399C136.795 283.707 146.596 286.053 149.473 289.358C160.659 301.512 147.129 335.31 145.531 339.148C145.105 340.428 143.826 341.174 142.548 341.174Z" fill="white" stroke="#263238" stroke-miterlimit="10" stroke-linecap="round" stroke-linejoin="round"/>
<g opacity="0.3">
<path opacity="0.3" d="M406.016 118.558H280.195V447.471H406.016V118.558Z" stroke="black" stroke-miterlimit="10"/>
<g opacity="0.3">
<path opacity="0.3" d="M399.304 127.407H287.013V209.396H399.304V127.407Z" stroke="black" stroke-miterlimit="10"/>
<path opacity="0.3" d="M359.672 144.999H326.539V165.896H359.672V144.999Z" stroke="black" stroke-miterlimit="10"/>
<path opacity="0.3" d="M361.164 173.466H325.154V178.69H361.164V173.466Z" fill="#263238" stroke="black" stroke-miterlimit="10"/>
</g>
<g opacity="0.3">
<path opacity="0.3" d="M399.304 222.19H287.013V304.178H399.304V222.19Z" stroke="black" stroke-miterlimit="10"/>
<path opacity="0.3" d="M359.672 239.781H326.539V260.678H359.672V239.781Z" stroke="black" stroke-miterlimit="10"/>
<path opacity="0.3" d="M361.164 268.248H325.154V273.472H361.164V268.248Z" fill="#263238" stroke="black" stroke-miterlimit="10"/>
</g>
<g opacity="0.3">
<path opacity="0.3" d="M399.304 316.972H287.013V398.96H399.304V316.972Z" stroke="black" stroke-miterlimit="10"/>
<path opacity="0.3" d="M359.672 334.564H326.539V355.461H359.672V334.564Z" stroke="black" stroke-miterlimit="10"/>
<path opacity="0.3" d="M361.164 363.03H325.154V368.255H361.164V363.03Z" fill="#263238" stroke="black" stroke-miterlimit="10"/>
</g>
</g>
<g opacity="0.3">
<path opacity="0.3" d="M649.775 17.4851H433.822V447.471H649.775V17.4851Z" stroke="black" stroke-miterlimit="10"/>
<path opacity="0.3" d="M643.062 26.8674H440.747V438.089H643.062V26.8674Z" stroke="black" stroke-miterlimit="10"/>
<path opacity="0.3" d="M625.058 214.406H440.747V250.549H625.058V214.406Z" stroke="black" stroke-miterlimit="10"/>
<path opacity="0.3" d="M642.53 180.715H625.058V275.498H642.53V180.715Z" stroke="black" stroke-miterlimit="10"/>
<path opacity="0.3" d="M524.593 80.9221L517.028 88.4919" stroke="black" stroke-miterlimit="10"/>
<path opacity="0.3" d="M570.084 35.3967L530.771 74.6317" stroke="black" stroke-miterlimit="10"/>
<path opacity="0.3" d="M522.781 71.1134L497.319 96.4882" stroke="black" stroke-miterlimit="10"/>
<path opacity="0.3" d="M552.612 317.931L493.803 376.891" stroke="black" stroke-miterlimit="10"/>
<path opacity="0.3" d="M561.987 308.549L557.086 313.453" stroke="black" stroke-miterlimit="10"/>
<path opacity="0.3" d="M530.772 314.839L523.634 321.983" stroke="black" stroke-miterlimit="10"/>
<path opacity="0.3" d="M561.135 284.454L535.246 310.362" stroke="black" stroke-miterlimit="10"/>
</g>
<path d="M667.886 280.296C667.886 280.296 669.484 297.354 669.058 298.74C668.632 300.126 664.583 308.762 663.411 309.295C662.239 309.935 654.782 307.909 653.61 307.483C652.438 307.056 650.307 305.884 650.307 305.884L654.036 279.549C653.929 279.656 664.477 281.255 667.886 280.296Z" fill="white" stroke="#263238" stroke-miterlimit="10" stroke-linecap="round" stroke-linejoin="round"/>
<path d="M658.084 290.851C658.084 290.851 659.469 295.115 660.854 296.395C662.239 297.674 663.624 298.314 663.624 298.314L663.198 303.432L652.225 300.446" stroke="#263238" stroke-miterlimit="10" stroke-linecap="round" stroke-linejoin="round"/>
<path d="M666.927 149.477C666.927 149.477 675.45 211.741 675.45 221.656C675.45 231.572 669.484 280.722 669.484 280.722C669.484 280.722 665.542 284.134 660.322 283.068C657.978 282.641 655.101 282.002 655.101 282.002L653.503 251.936L649.881 230.186L663.518 155.874C663.411 155.98 665.968 148.197 666.927 149.477Z" fill="#FEBD17" stroke="#263238" stroke-miterlimit="10" stroke-linecap="round" stroke-linejoin="round"/>
<path d="M656.38 276.031C656.38 276.031 662.346 279.443 668.951 273.899" stroke="#263238" stroke-miterlimit="10" stroke-linecap="round" stroke-linejoin="round"/>
<path d="M656.06 218.245C656.06 218.245 661.6 227.094 663.092 229.226" stroke="#263238" stroke-miterlimit="10" stroke-linecap="round" stroke-linejoin="round"/>
<path d="M654.568 220.057C654.568 220.057 659.789 235.197 663.198 239.461" stroke="#263238" stroke-miterlimit="10" stroke-linecap="round" stroke-linejoin="round"/>
<path d="M645.193 457.706C645.193 457.706 647.537 473.272 647.324 477.004C647.111 480.735 638.908 482.868 636.351 483.081C633.794 483.294 631.983 483.827 630.278 482.654C628.68 481.482 626.336 480.522 626.336 480.522L625.59 464.21C625.697 464.21 639.334 462.397 645.193 457.706Z" fill="white" stroke="#263238" stroke-miterlimit="10" stroke-linecap="round" stroke-linejoin="round"/>
<path d="M647.218 477.004C647.218 476.364 647.218 475.191 647.111 473.912C645.193 475.405 641.465 478.07 637.203 479.136C632.515 480.202 627.934 478.603 626.123 477.857L626.23 480.522C626.23 480.522 628.573 481.482 630.171 482.654C631.77 483.827 633.687 483.401 636.244 483.081C638.908 482.868 647.005 480.735 647.218 477.004Z" fill="white" stroke="#263238" stroke-miterlimit="10" stroke-linecap="round" stroke-linejoin="round"/>
<path d="M598.956 457.919C598.956 457.919 592.67 462.61 587.983 464.636C583.295 466.768 577.755 468.794 578.714 471.886C579.673 474.871 600.767 481.162 608.225 482.335C615.682 483.507 627.295 487.239 630.065 480.522C632.835 473.805 629.852 466.342 629.852 466.342L598.956 457.919Z" fill="white" stroke="#263238" stroke-miterlimit="10" stroke-linecap="round" stroke-linejoin="round"/>
<path d="M630.065 480.522C630.385 479.882 630.598 479.136 630.704 478.496C626.017 479.882 616.961 481.375 606.094 478.39C593.736 474.978 583.615 470.927 579.566 469.221C578.714 470.074 578.394 470.927 578.607 471.886C579.566 474.871 600.661 481.162 608.118 482.335C615.683 483.507 627.295 487.239 630.065 480.522Z" fill="white" stroke="#263238" stroke-miterlimit="10" stroke-linecap="round" stroke-linejoin="round"/>
<path d="M577.009 253.535C577.009 253.535 573.813 277.63 573.813 304.711C573.813 331.792 581.164 374.758 582.975 381.795C584.786 388.832 596.825 432.438 597.358 434.144C597.997 435.956 599.382 453.548 599.382 453.548C599.382 453.548 596.719 455.36 596.719 456.746C596.719 458.239 597.038 460.585 597.038 460.585C597.038 460.585 605.561 467.088 612.06 469.967C618.559 472.952 629.958 470.287 629.958 470.287C629.958 470.287 633.474 470.287 637.629 468.474C641.784 466.662 644.98 464.636 646.152 461.438C647.324 458.239 647.324 452.908 647.324 450.243C647.324 447.577 644.661 411.434 643.808 395.762C642.956 380.196 641.145 367.188 641.145 367.188C641.145 367.188 653.077 302.472 654.036 292.13C654.995 281.788 656.38 253.855 656.38 253.855L657.019 250.336L577.009 253.535Z" fill="#263238" stroke="#263238" stroke-miterlimit="10" stroke-linecap="round" stroke-linejoin="round"/>
<path d="M629.106 448.11C629.852 461.118 629.958 470.393 629.958 470.393" stroke="white" stroke-miterlimit="10" stroke-linecap="round" stroke-linejoin="round"/>
<path d="M630.811 295.542L617.28 301.406C617.28 301.406 616.961 340.534 616.641 354.075C616.321 367.615 626.016 408.556 627.828 429.986C628.147 433.93 628.467 437.875 628.68 441.607" stroke="white" stroke-miterlimit="10" stroke-linecap="round" stroke-linejoin="round"/>
<path d="M591.072 143.826C591.072 143.826 571.469 152.888 571.469 154.914C571.469 156.94 575.198 257.266 575.198 257.266C575.198 257.266 571.789 259.292 578.607 260.998C585.426 262.704 606.946 266.755 626.336 262.064C645.726 257.266 657.339 257.266 659.043 252.895C660.748 248.417 656.273 230.079 656.273 230.079C656.273 230.079 667.886 152.675 666.821 149.583C665.755 146.491 637.842 137.749 637.842 137.749C637.842 137.749 616.854 131.458 591.072 143.826Z" fill="#FEBD17" stroke="#263238" stroke-miterlimit="10" stroke-linecap="round" stroke-linejoin="round"/>
<path d="M590.22 71.6465C590.22 71.6465 582.123 88.1721 582.655 90.1979C583.188 92.2236 583.188 92.2236 583.188 92.2236L577.435 107.043L582.336 111.415L592.137 121.863L592.457 128.58L596.825 129.113L597.145 136.043L627.827 130.819L628.147 113.44C628.147 113.44 613.338 114.933 611.101 110.562C608.757 106.19 615.15 86.7861 615.469 81.0288C615.789 75.2715 610.568 71.7531 606.52 70.2605C602.365 68.7679 590.22 71.6465 590.22 71.6465Z" fill="white" stroke="#263238" stroke-miterlimit="10" stroke-linecap="round" stroke-linejoin="round"/>
<path d="M597.145 63.5436C597.145 63.5436 589.58 63.8634 588.728 69.3009C587.876 74.845 592.777 76.8707 594.268 76.5508C595.76 76.231 607.905 76.8707 605.241 77.4038C602.685 77.9369 595.44 78.5766 595.12 79.7494C594.801 80.9221 590.22 86.6794 591.605 88.4919C593.096 90.1978 596.186 91.3706 596.186 91.3706C596.186 91.3706 594.481 103.845 592.67 109.922C590.965 115.999 583.082 111.628 582.229 111.415C581.377 111.095 581.057 117.172 581.057 119.517C581.057 121.863 578.714 125.914 581.59 128.793C584.467 131.672 591.178 130.286 592.35 128.473C593.522 126.767 597.571 121.543 597.251 116.852C596.931 112.267 598.103 97.7676 598.103 97.7676C598.103 97.7676 603.004 92.8632 604.815 99.4735C606.52 106.19 603.963 113.334 603.963 113.334C603.963 113.334 609.503 120.051 616.961 120.903C624.418 121.756 627.934 120.051 630.278 114.506C632.622 108.962 643.595 104.058 643.595 91.3706C643.595 78.6832 634.007 67.2752 628.573 65.8892C623.033 64.3965 612.379 64.1833 612.379 64.1833C612.379 64.1833 615.256 58.9591 610.675 58.9591C606.094 58.8524 597.145 63.5436 597.145 63.5436Z" fill="#263238" stroke="#263238" stroke-miterlimit="10" stroke-linecap="round" stroke-linejoin="round"/>
<path d="M584.147 90.9441C584.147 90.9441 586.917 88.8118 589.474 91.6904" stroke="#263238" stroke-miterlimit="10" stroke-linecap="round" stroke-linejoin="round"/>
<path d="M587.769 95.3154C587.769 96.4882 587.343 97.4478 586.704 97.4478C586.065 97.4478 585.639 96.4882 585.639 95.3154C585.639 94.1427 586.065 93.1831 586.704 93.1831C587.343 93.1831 587.769 94.1427 587.769 95.3154Z" fill="#263238"/>
<path d="M592.883 135.297L591.072 143.826C591.072 143.826 609.716 139.455 618.452 137.856C627.295 136.256 637.842 137.642 637.842 137.642C637.842 137.642 635.285 129.859 631.13 128.367C627.082 126.767 601.939 129.113 592.883 135.297Z" fill="white" stroke="#263238" stroke-miterlimit="10" stroke-linecap="round" stroke-linejoin="round"/>
<path d="M633.9 182.528C633.9 182.528 630.811 198.52 624.312 208.436" stroke="#263238" stroke-miterlimit="10" stroke-linecap="round" stroke-linejoin="round"/>
<path d="M622.714 217.498C620.796 219.737 618.985 221.656 617.6 222.829" stroke="#263238" stroke-miterlimit="10" stroke-linecap="round" stroke-linejoin="round"/>
<path d="M634.859 201.612C634.859 201.612 629.745 208.756 624.631 215.046" stroke="#263238" stroke-miterlimit="10" stroke-linecap="round" stroke-linejoin="round"/>
<path d="M525.445 204.811L518.2 194.362C518.2 194.362 536.951 195.855 539.295 195.322C541.532 194.789 554.103 192.017 554.103 192.017L575.198 222.083L545.154 231.892L525.445 204.811Z" fill="white" stroke="#263238" stroke-miterlimit="10" stroke-linecap="round" stroke-linejoin="round"/>
<path d="M548.563 230.399C548.563 230.399 545.154 226.881 544.515 225.281C543.876 223.789 542.597 216.006 541.958 215.046C541.319 214.193 538.016 210.675 536.738 209.182C535.459 207.69 534.181 202.892 532.796 204.384C531.411 205.77 530.771 207.903 531.411 209.609C532.05 211.315 532.689 213.34 532.902 213.767C533.115 214.3 525.551 204.704 525.551 204.704C525.551 204.704 524.379 212.594 525.018 214.62C525.658 216.645 528.747 226.241 529.386 227.52C530.026 228.8 541.638 236.903 542.278 237.329C542.81 237.862 548.563 230.399 548.563 230.399Z" fill="white" stroke="#263238" stroke-miterlimit="10" stroke-linecap="round" stroke-linejoin="round"/>
<path d="M532.902 213.873C532.902 213.873 534.394 220.27 534.607 221.017C534.713 221.763 537.697 224.855 537.697 224.855" fill="white"/>
<path d="M532.902 213.873C532.902 213.873 534.394 220.27 534.607 221.017C534.713 221.763 537.697 224.855 537.697 224.855" stroke="#263238" stroke-miterlimit="10" stroke-linecap="round" stroke-linejoin="round"/>
<path d="M599.808 188.712C599.808 188.712 599.808 188.712 598.103 204.065C596.399 219.417 583.827 253.215 581.377 256.627C579.033 260.038 572.854 258.972 567.74 256.627C562.626 254.281 545.261 246.391 545.261 246.391C545.261 246.391 538.762 242.34 542.171 234.45C545.58 226.561 548.99 228.693 552.079 229.972C555.169 231.358 564.651 231.998 564.651 231.998C564.651 231.998 568.06 176.451 568.06 166.535C568.06 156.62 571.469 154.914 571.469 154.914C571.469 154.914 574.239 152.142 578.607 150.863" fill="#FEBD17"/>
<path d="M599.808 188.712C599.808 188.712 599.808 188.712 598.103 204.065C596.399 219.417 583.827 253.215 581.377 256.627C579.033 260.038 572.854 258.972 567.74 256.627C562.626 254.281 545.261 246.391 545.261 246.391C545.261 246.391 538.762 242.34 542.171 234.45C545.58 226.561 548.99 228.693 552.079 229.972C555.169 231.358 564.651 231.998 564.651 231.998C564.651 231.998 568.06 176.451 568.06 166.535C568.06 156.62 571.469 154.914 571.469 154.914C571.469 154.914 574.239 152.142 578.607 150.863" stroke="#263238" stroke-miterlimit="10" stroke-linecap="round" stroke-linejoin="round"/>
<path d="M564.651 231.998C564.651 231.998 562.626 240.847 564.651 243.939" stroke="#263238" stroke-miterlimit="10" stroke-linecap="round" stroke-linejoin="round"/>
<path d="M552.079 232.318C552.079 232.318 543.875 235.41 550.055 247.351" stroke="#263238" stroke-miterlimit="10" stroke-linecap="round" stroke-linejoin="round"/>
<path d="M594.801 184.767C595.12 186.579 595.334 188.499 595.44 190.418" stroke="#263238" stroke-miterlimit="10" stroke-linecap="round" stroke-linejoin="round"/>
<path d="M585.425 163.763C585.425 163.763 591.391 171.44 594.055 181.888" stroke="#263238" stroke-miterlimit="10" stroke-linecap="round" stroke-linejoin="round"/>
<path d="M472.708 336.27C472.708 336.27 476.437 364.416 476.437 366.442C476.437 368.468 477.396 385.846 480.486 395.335C483.682 404.824 489.009 451.096 489.009 452.482C489.009 453.868 495.081 471.14 500.834 470.607C506.588 470.074 505.416 459.732 503.711 455.361C502.006 451.096 500.089 444.166 500.089 444.166C500.089 444.166 504.244 390.857 503.711 381.688C503.178 372.519 500.515 358.446 500.515 358.446L502.859 337.122L472.708 336.27Z" fill="white" stroke="#263238" stroke-miterlimit="10" stroke-linecap="round" stroke-linejoin="round"/>
<path d="M500.834 470.713C505.735 470.18 505.629 462.824 504.457 457.919L492.525 460.158L490.713 457.706C492.844 463.144 496.893 471.033 500.834 470.713Z" fill="#263238" stroke="#263238" stroke-miterlimit="10" stroke-linecap="round" stroke-linejoin="round"/>
<path d="M436.166 337.762L441.067 367.615C441.067 367.615 440.748 373.372 441.919 393.736C443.091 414.1 444.263 445.445 444.263 445.445C444.263 445.445 432.757 457.493 430.733 459.199C428.709 460.905 425.3 466.342 431.905 466.342C438.51 466.342 445.116 464.636 447.992 462.611C450.869 460.585 456.089 456 456.941 455.467C457.794 454.934 458.646 453.122 458.646 450.03C458.646 446.831 457.474 441.927 457.474 439.155C457.474 436.276 464.932 396.935 464.932 387.979C464.932 379.023 464.079 359.832 464.079 359.832L465.784 339.148L436.166 337.762Z" fill="white" stroke="#263238" stroke-miterlimit="10" stroke-linecap="round" stroke-linejoin="round"/>
<path d="M447.992 462.824C450.869 460.798 456.089 456.214 456.941 455.68C457.794 455.147 458.646 453.335 458.646 450.243C458.646 449.177 458.539 447.897 458.326 446.618C457.261 447.791 456.089 449.283 454.917 450.776C451.508 455.361 443.731 458.559 443.731 458.559L434.568 455.68C432.864 457.493 431.372 458.879 430.733 459.412C428.709 461.118 425.3 466.555 431.905 466.555C438.51 466.555 445.116 464.85 447.992 462.824Z" fill="#263238" stroke="#263238" stroke-miterlimit="10" stroke-linecap="round" stroke-linejoin="round"/>
<path d="M445.222 75.698C445.222 75.698 439.576 76.2311 435.421 87.9589C431.372 99.6868 429.561 118.665 430.413 121.33C431.266 123.995 439.469 128.793 447.246 130.606C455.024 132.418 465.038 132.205 477.077 129.859C489.116 127.514 495.934 120.051 495.934 118.665C495.934 117.279 492.205 94.6758 483.895 80.8156C475.585 67.062 452.254 68.2348 445.222 75.698Z" fill="#263238" stroke="#263238" stroke-miterlimit="10" stroke-linecap="round" stroke-linejoin="round"/>
<path d="M436.06 217.072C436.06 217.072 427.004 232.638 422.316 259.719C417.629 286.799 420.718 342.347 420.718 342.347H509.677C509.677 342.347 510.53 283.174 505.522 255.88C500.622 228.48 490.607 217.072 490.607 217.072H436.06Z" fill="#263238" stroke="#263238" stroke-miterlimit="10" stroke-linecap="round" stroke-linejoin="round"/>
<path d="M453.532 141.054C453.532 141.054 428.176 151.289 427.75 152.462C427.324 153.741 432.225 175.598 432.225 175.598C432.225 175.598 430.733 186.26 432.225 194.789C433.716 203.318 436.593 208.329 436.593 208.329C436.593 208.329 434.675 214.833 435.953 217.072C437.232 219.311 452.36 222.296 465.677 222.083C478.995 221.87 490.501 217.925 490.501 217.072C490.501 216.219 491.14 208.969 491.14 208.969C491.14 208.969 504.883 152.462 504.67 150.863C504.457 149.157 475.159 139.775 475.159 139.775L453.532 141.054Z" fill="white" stroke="#263238" stroke-miterlimit="10" stroke-linecap="round" stroke-linejoin="round"/>
<path d="M455.663 137.003C455.663 137.003 451.614 138.282 450.336 140.734C449.057 143.186 448.738 151.396 448.205 154.594C447.672 157.793 447.14 161.844 447.14 161.844L458.006 154.701L472.069 163.763C472.069 163.763 476.118 145.639 476.544 142.76C476.864 139.881 476.331 139.242 475.479 137.962C474.626 136.683 471.217 135.297 470.684 135.297C470.045 135.403 455.663 137.003 455.663 137.003Z" fill="white" stroke="#263238" stroke-miterlimit="10" stroke-linecap="round" stroke-linejoin="round"/>
<path d="M454.384 133.271L454.704 143.933C454.704 143.933 457.58 154.061 457.9 154.808C458.22 155.554 470.685 140.095 470.685 140.095L472.815 119.091C472.815 119.091 465.038 125.168 462.907 126.874C460.777 128.687 454.384 133.271 454.384 133.271Z" fill="white" stroke="#263238" stroke-miterlimit="10" stroke-linecap="round" stroke-linejoin="round"/>
<path d="M467.915 126.021L455.237 142.014L454.384 133.271L467.915 126.021Z" fill="#263238" stroke="#263238" stroke-miterlimit="10" stroke-linecap="round" stroke-linejoin="round"/>
<path d="M460.67 84.4406C460.67 84.4406 448.418 94.2493 443.837 97.9809C439.256 101.712 437.445 102.992 437.445 102.992C437.445 102.992 440.108 115.999 440.641 119.731C441.174 123.462 446.714 132.525 449.164 133.911C451.614 135.297 453.745 135.83 455.237 135.51C456.622 135.19 467.808 127.727 469.939 126.128C472.07 124.528 472.922 119.198 472.922 119.198C472.922 119.198 476.97 117.385 479.634 113.547C482.297 109.602 481.232 104.271 478.782 103.738C476.331 103.205 473.242 106.084 473.242 106.084C473.242 106.084 463.973 95.6353 461.203 91.1574C458.433 86.6795 460.67 84.4406 460.67 84.4406Z" fill="white" stroke="#263238" stroke-miterlimit="10" stroke-linecap="round" stroke-linejoin="round"/>
<path d="M448.951 102.885L450.549 107.576L446.82 117.172L451.934 118.025" stroke="#263238" stroke-miterlimit="10" stroke-linecap="round" stroke-linejoin="round"/>
<path d="M450.016 122.076C450.016 122.076 456.941 123.356 461.416 118.131" stroke="#263238" stroke-miterlimit="10" stroke-linecap="round" stroke-linejoin="round"/>
<path d="M453.745 101.179C453.745 101.179 458.859 99.2602 462.588 101.712" stroke="#263238" stroke-miterlimit="10" stroke-linecap="round" stroke-linejoin="round"/>
<path d="M446.927 101.179C446.927 101.179 442.665 99.3669 440.321 102.032" stroke="#263238" stroke-miterlimit="10" stroke-linecap="round" stroke-linejoin="round"/>
<path d="M446.82 107.15C446.82 108.429 446.288 109.495 445.648 109.495C445.009 109.495 444.477 108.429 444.477 107.15C444.477 105.87 445.009 104.804 445.648 104.804C446.288 104.911 446.82 105.87 446.82 107.15Z" fill="#263238"/>
<path d="M459.072 107.15C459.072 108.429 458.539 109.495 457.9 109.495C457.261 109.495 456.728 108.429 456.728 107.15C456.728 105.87 457.261 104.804 457.9 104.804C458.539 104.804 459.072 105.87 459.072 107.15Z" fill="#263238"/>
<path d="M433.716 281.468L433.929 269.527H466.849L467.488 281.149L463.333 281.042V272.406H437.338V281.468H433.716Z" fill="white" stroke="#263238" stroke-miterlimit="10" stroke-linecap="round" stroke-linejoin="round"/>
<path d="M433.716 281.468L433.929 269.527H466.849L467.488 281.149L463.333 281.042V272.406H437.338V281.468H433.716Z" fill="#969696" stroke="#263238" stroke-miterlimit="10" stroke-linecap="round" stroke-linejoin="round"/>
<path d="M441.919 253.322C441.919 253.322 449.803 263.13 450.016 264.41C450.229 265.689 451.508 272.939 451.508 272.939C451.508 272.939 449.271 274.432 448.418 274.219C447.566 274.005 446.181 272.726 446.181 272.726C446.181 272.726 439.149 273.792 438.297 273.792C437.445 273.792 435.421 272.086 435.421 270.487C435.421 268.888 433.503 256.733 433.503 256.733L441.919 253.322Z" fill="white" stroke="#263238" stroke-miterlimit="10" stroke-linecap="round" stroke-linejoin="round"/>
<path d="M427.856 152.462C427.856 152.462 420.292 204.598 420.292 207.05C420.292 209.502 433.396 256.627 433.396 256.627L441.919 253.322L436.06 217.072L436.699 208.329C436.699 208.329 431.905 197.241 431.692 190.844C431.478 184.34 432.331 175.598 432.331 175.598L427.856 152.462Z" fill="white" stroke="#263238" stroke-miterlimit="10" stroke-linecap="round" stroke-linejoin="round"/>
<path d="M489.116 171.653L477.716 217.072L459.604 255.454L468.128 258.759L497.532 212.701C497.532 212.701 510.423 156.833 510.636 154.381C510.849 151.929 494.336 147.131 494.336 147.131" fill="white"/>
<path d="M489.116 171.653L477.716 217.072L459.604 255.454L468.128 258.759L497.532 212.701C497.532 212.701 510.423 156.833 510.636 154.381C510.849 151.929 494.336 147.131 494.336 147.131" stroke="#263238" stroke-miterlimit="10" stroke-linecap="round" stroke-linejoin="round"/>
<path d="M459.605 255.454C459.605 255.454 451.721 265.263 451.508 266.542C451.295 267.822 450.016 275.071 450.016 275.071C450.016 275.071 452.253 276.564 453.106 276.351C453.958 276.138 455.343 274.858 455.343 274.858C455.343 274.858 462.374 275.924 463.227 275.924C464.079 275.924 466.103 274.219 466.103 272.619C466.103 270.913 468.021 258.866 468.021 258.866L459.605 255.454Z" fill="white" stroke="#263238" stroke-miterlimit="10" stroke-linecap="round" stroke-linejoin="round"/>
<path d="M483.682 280.616L418.587 279.123C418.587 279.123 413.367 330.512 414.432 334.564C415.498 338.508 421.251 339.148 421.251 339.148H480.912C480.912 339.148 485.387 340.108 486.772 335.203C488.157 330.299 487.517 326.994 487.517 326.994L483.682 280.616Z" fill="#969696" stroke="#263238" stroke-miterlimit="10" stroke-linecap="round" stroke-linejoin="round"/>
<path d="M418.801 308.656L476.118 309.722" stroke="#263238" stroke-miterlimit="10" stroke-linecap="round" stroke-linejoin="round"/>
<path d="M486.772 335.097C488.157 330.192 487.518 326.887 487.518 326.887L483.682 280.616C483.682 280.616 477.929 334.777 480.912 339.042C480.912 339.042 485.387 340.001 486.772 335.097Z" fill="#6B6B6B" stroke="#263238" stroke-miterlimit="10" stroke-linecap="round" stroke-linejoin="round"/>
<path d="M400.05 270.38C400.05 270.38 399.836 282.108 399.73 285.413C399.623 288.718 391.313 296.928 391.313 296.928L389.609 271.34L400.05 270.38Z" fill="white" stroke="#263238" stroke-miterlimit="10" stroke-linecap="round" stroke-linejoin="round"/>
<path d="M396.108 273.899C396.108 273.899 395.894 281.149 395.894 282.535C395.894 283.814 393.018 291.064 392.485 291.917C391.953 292.77 391.207 291.064 391.207 289.251C391.207 287.439 391.739 283.494 391.739 283.494L389.822 274.219" fill="white"/>
<path d="M396.108 273.899C396.108 273.899 395.894 281.149 395.894 282.535C395.894 283.814 393.018 291.064 392.485 291.917C391.953 292.77 391.207 291.064 391.207 289.251C391.207 287.439 391.739 283.494 391.739 283.494L389.822 274.219" stroke="#263238" stroke-miterlimit="10" stroke-linecap="round" stroke-linejoin="round"/>
<path d="M396.641 146.811C396.641 146.811 401.328 160.245 401.754 171.44C402.181 182.635 402.181 223.789 402.394 233.704C402.607 243.619 399.943 270.38 399.943 270.38L389.503 271.446L387.159 227.094L394.19 167.602L396.641 146.811Z" fill="#FEBD17" stroke="#263238" stroke-miterlimit="10" stroke-linecap="round" stroke-linejoin="round"/>
<path d="M317.696 442.353L311.304 448.964C311.304 448.964 299.265 459.305 298.732 461.331C298.199 463.357 302.461 469.008 313.754 465.169C325.047 461.331 326.112 458.452 329.308 457.493C332.505 456.533 336.127 456.107 336.873 447.044C337.618 437.875 317.696 442.353 317.696 442.353Z" fill="white" stroke="#263238" stroke-miterlimit="10" stroke-linecap="round" stroke-linejoin="round"/>
<path d="M388.97 443.739L397.067 451.202C397.067 451.202 408.466 462.184 408.892 464.316C409.318 466.449 404.737 471.78 393.764 467.302C382.684 462.824 381.725 459.945 378.635 458.772C375.546 457.599 371.924 457.066 371.604 447.897C371.497 438.835 388.97 443.739 388.97 443.739Z" fill="white" stroke="#263238" stroke-miterlimit="10" stroke-linecap="round" stroke-linejoin="round"/>
<path d="M317.163 240.314L316.204 258.013C316.204 258.013 314.606 355.567 315.671 364.203C316.737 372.839 318.228 434.784 318.228 434.784L316.311 438.942L316.417 444.379C316.417 444.379 318.761 445.765 324.194 446.618C329.628 447.578 336.979 446.938 336.979 446.938L339.323 436.063L354.025 294.796L368.621 419.217L371.71 448.964C371.71 448.964 376.398 449.603 379.061 447.897C381.725 446.192 389.502 445.339 389.502 445.339C389.502 445.339 390.248 437.236 390.035 434.464C389.822 431.692 388.863 429.773 388.863 428.493C388.863 427.214 393.657 298.421 393.657 298.421L391.739 239.781L317.163 240.314Z" fill="#263238" stroke="#263238" stroke-miterlimit="10" stroke-linecap="round" stroke-linejoin="round"/>
<path d="M316.843 244.899C324.194 246.498 339.429 249.164 356.262 248.844C371.391 248.63 384.495 246.498 391.952 245.006L391.739 239.675L317.056 240.314L316.843 244.899Z" fill="#969696" stroke="#263238" stroke-miterlimit="10" stroke-linecap="round" stroke-linejoin="round"/>
<path d="M365.533 242.897L354.993 243.304L355.227 249.376L365.767 248.969L365.533 242.897Z" fill="white" stroke="#263238" stroke-miterlimit="10" stroke-linecap="round" stroke-linejoin="round"/>
<path d="M323.982 251.296L323.769 238.928L329.628 239.462L330.694 249.59" fill="#263238"/>
<path d="M323.982 251.296L323.769 238.928L329.628 239.462L330.694 249.59" stroke="#263238" stroke-miterlimit="10" stroke-linecap="round" stroke-linejoin="round"/>
<path d="M381.618 250.976L381.405 238.715L387.265 239.248L388.33 249.27" fill="#263238"/>
<path d="M381.618 250.976L381.405 238.715L387.265 239.248L388.33 249.27" stroke="#263238" stroke-miterlimit="10" stroke-linecap="round" stroke-linejoin="round"/>
<path d="M333.463 139.668C333.463 139.668 307.681 149.05 307.681 152.889C307.575 156.727 317.163 240.314 317.163 240.314C317.163 240.314 360.204 248.311 391.846 239.675L395.575 176.451C395.575 176.451 398.664 148.091 396.64 146.811C394.616 145.532 367.342 135.51 367.342 135.51L333.463 139.668Z" fill="#FEBD17" stroke="#263238" stroke-miterlimit="10" stroke-linecap="round" stroke-linejoin="round"/>
<path d="M341.773 130.925C341.773 130.925 336.659 132.098 336.127 132.845C335.594 133.591 331.439 140.947 331.439 140.947L341.454 166.642L357.221 152.462L374.054 165.683C374.054 165.683 374.267 145.852 373.415 139.775C372.669 133.804 371.71 134.444 369.153 131.565C366.596 128.687 365.105 129.22 365.105 129.22L341.773 130.925Z" fill="white" stroke="#263238" stroke-miterlimit="10" stroke-linecap="round" stroke-linejoin="round"/>
<path d="M339.43 125.062L339.643 136.896C339.643 136.896 345.183 146.598 346.781 149.05C348.379 151.503 354.984 162.378 355.41 161.631C355.837 160.885 367.662 139.455 368.088 137.429C368.515 135.403 366.49 120.37 366.49 120.37C366.49 120.37 355.517 129.966 351.575 130.499C347.74 130.926 339.43 125.062 339.43 125.062Z" fill="white" stroke="#263238" stroke-miterlimit="10" stroke-linecap="round" stroke-linejoin="round"/>
<path d="M353.599 131.352L344.011 143.933L339.749 136.789L339.43 125.062L353.599 131.352Z" fill="#263238" stroke="#263238" stroke-miterlimit="10" stroke-linecap="round" stroke-linejoin="round"/>
<path d="M332.185 97.4479C332.185 97.4479 329.202 96.3817 328.35 100.86C327.497 105.338 332.398 108.429 332.398 108.429L332.185 97.4479Z" fill="white" stroke="#263238" stroke-miterlimit="10" stroke-linecap="round" stroke-linejoin="round"/>
<path d="M332.078 85.72C332.078 85.72 332.291 103.738 332.398 108.536C332.504 113.44 335.487 118.558 337.192 123.249C338.897 127.94 346.248 136.043 350.935 135.19C355.623 134.337 363.294 127.301 366.383 122.716C369.473 118.131 370.432 111.201 370.432 111.201C370.432 111.201 377.037 107.47 376.824 103.099C376.611 98.8338 373.628 96.8081 373.628 96.8081L373.202 85.72C373.202 85.72 370.219 78.6833 357.754 77.2972C345.289 75.8046 333.463 81.3487 333.463 81.3487L332.078 85.72Z" fill="white" stroke="#263238" stroke-miterlimit="10" stroke-linecap="round" stroke-linejoin="round"/>
<path d="M334.848 95.3154C334.848 95.3154 337.725 92.7566 343.052 95.9551" stroke="#263238" stroke-miterlimit="10" stroke-linecap="round" stroke-linejoin="round"/>
<path d="M350.19 96.0618C350.19 96.0618 354.025 92.9699 358.819 96.7015" stroke="#263238" stroke-miterlimit="10" stroke-linecap="round" stroke-linejoin="round"/>
<path d="M344.543 97.1279L345.609 99.9L342.625 112.374L348.805 112.161" stroke="#263238" stroke-miterlimit="10" stroke-linecap="round" stroke-linejoin="round"/>
<path d="M345.289 116.532C345.289 116.532 353.279 119.517 357.541 112.907" stroke="#263238" stroke-miterlimit="10" stroke-linecap="round" stroke-linejoin="round"/>
<path d="M355.836 102.032C355.836 103.312 355.197 104.271 354.451 104.271C353.706 104.271 353.173 103.205 353.173 102.032C353.173 100.753 353.812 99.7935 354.558 99.7935C355.304 99.7935 355.836 100.86 355.836 102.032Z" fill="#263238"/>
<path d="M340.069 101.499C340.069 102.779 339.429 103.738 338.684 103.738C337.938 103.738 337.405 102.672 337.405 101.499C337.405 100.22 338.044 99.2603 338.79 99.2603C339.536 99.1537 340.175 100.22 340.069 101.499Z" fill="#263238"/>
<path d="M343.478 68.3414C338.684 69.7275 334.209 72.073 330.48 75.1649C327.817 77.4039 325.153 80.0693 324.727 81.8818C323.875 85.9332 338.897 89.7714 343.478 88.9185C347.952 88.0656 358.393 83.6943 358.393 83.6943C358.393 83.6943 357.328 88.492 358.606 88.7053C359.885 88.9185 364.04 88.0656 364.04 88.0656C364.04 88.0656 363.4 92.117 363.933 93.2898C364.466 94.4626 366.277 96.7015 366.277 96.7015C366.277 96.7015 367.023 103.418 367.769 103.632C368.514 103.845 368.514 103.845 368.514 103.845C368.514 103.845 370.006 98.4074 370.538 97.7677C371.071 97.0214 373.735 96.7015 373.735 96.7015C373.735 96.7015 377.25 84.0141 376.398 80.2825C375.546 76.5509 368.94 72.8194 368.94 72.8194L365.425 71.9664C365.425 71.9664 358.5 63.7569 347.42 66.9554C345.715 67.7017 344.437 68.0216 343.478 68.3414Z" fill="#263238" stroke="#263238" stroke-miterlimit="10" stroke-linecap="round" stroke-linejoin="round"/>
<path d="M384.389 199.16C384.389 199.16 388.118 197.561 388.544 196.921C389.076 196.282 394.19 188.818 395.575 188.072C396.96 187.326 406.549 187.219 406.549 187.219C406.549 187.219 412.089 183.381 412.408 185.727C412.728 188.072 407.188 190.418 406.122 190.844C405.164 191.271 400.902 192.657 400.902 192.657C400.902 192.657 409.638 191.377 411.023 190.738C412.408 190.098 423.808 187.646 423.488 189.245C423.062 190.844 418.8 193.296 418.8 193.296C418.8 193.296 408.679 202.465 406.335 203.745C403.992 205.024 386.306 207.05 386.306 207.05L384.389 199.16Z" fill="white" stroke="#263238" stroke-miterlimit="10" stroke-linecap="round" stroke-linejoin="round"/>
<path d="M378.209 199.054L386.306 198.414L387.158 209.822L378.103 211.421L378.209 199.054Z" fill="#FEBD17" stroke="#263238" stroke-miterlimit="10" stroke-linecap="round" stroke-linejoin="round"/>
<path d="M320.573 144.892C320.573 144.892 302.035 150.65 300.757 153.848C299.478 157.047 314.18 227.414 314.393 228.587C314.606 229.759 317.27 231.892 318.761 231.678C320.253 231.465 378.742 216.112 380.234 214.407C381.725 212.701 379.168 198.627 379.168 198.627L332.292 200.653L328.243 164.083" fill="#FEBD17"/>
<path d="M320.573 144.892C320.573 144.892 302.035 150.65 300.757 153.848C299.478 157.047 314.18 227.414 314.393 228.587C314.606 229.759 317.27 231.892 318.761 231.678C320.253 231.465 378.742 216.112 380.234 214.407C381.725 212.701 379.168 198.627 379.168 198.627L332.292 200.653L328.243 164.083" stroke="#263238" stroke-miterlimit="10" stroke-linecap="round" stroke-linejoin="round"/>
<path d="M354.025 294.902L354.771 285.094L365.851 278.27" stroke="white" stroke-miterlimit="10" stroke-linecap="round" stroke-linejoin="round"/>
<path d="M244.398 179.969L257.289 158.966L258.887 145.852C258.887 145.852 259.526 139.668 259.739 139.028C259.952 138.389 259.313 126.661 260.805 126.234C262.19 125.808 263.042 130.499 263.255 131.992C263.468 133.378 263.681 142.44 263.681 142.44C263.681 142.44 266.558 129.859 266.558 128.9C266.558 127.834 267.623 125.808 269.008 127.087C270.393 128.367 268.795 132.845 268.795 135.084C268.795 137.322 268.156 141.267 268.156 141.267C268.156 141.267 273.057 129.326 274.335 128.153C275.614 126.874 276.785 128.153 275.72 132.311C274.655 136.47 272.844 141.8 272.63 142.973C272.417 144.253 272.417 144.253 272.417 144.253C272.417 144.253 276.146 140.095 277.957 136.47C279.769 132.845 281.473 135.19 279.769 138.069C278.17 140.947 273.163 150.223 272.95 150.863C272.737 151.503 271.139 155.127 269.008 158.646C266.984 162.164 263.255 165.469 263.255 165.469L253.986 187.219L244.398 179.969Z" fill="white" stroke="#263238" stroke-miterlimit="10" stroke-linecap="round" stroke-linejoin="round"/>
<path d="M259.42 153.635C259.42 153.635 262.723 144.786 264.321 140.841C265.919 136.896 268.263 131.565 268.795 135.084C269.435 138.602 267.517 142.653 266.771 144.999C265.919 147.238 267.197 151.396 265.919 154.701C264.64 158.006 262.19 159.819 262.19 159.819" fill="white"/>
<path d="M259.42 153.635C259.42 153.635 262.723 144.786 264.321 140.841C265.919 136.896 268.263 131.565 268.795 135.084C269.435 138.602 267.517 142.653 266.771 144.999C265.919 147.238 267.197 151.396 265.919 154.701C264.64 158.006 262.19 159.819 262.19 159.819" stroke="#263238" stroke-miterlimit="10" stroke-linecap="round" stroke-linejoin="round"/>
<path d="M267.943 142.76L273.589 147.238" stroke="#263238" stroke-miterlimit="10" stroke-linecap="round" stroke-linejoin="round"/>
<path d="M218.083 153.635L233.318 193.083L245.25 178.05L256.969 186.26C256.969 186.26 238.538 218.351 237.473 220.164C236.408 221.976 230.868 222.829 229.056 221.976C227.245 221.123 220.64 209.395 220.64 209.395L218.083 153.635Z" fill="#FEBD17" stroke="#263238" stroke-miterlimit="10" stroke-linecap="round" stroke-linejoin="round"/>
<path d="M149.899 271.66C149.899 271.66 146.916 291.277 154.586 313.667C162.257 336.163 163.642 345.439 162.044 355.247C160.446 365.056 154.799 370.174 154.799 390.218C154.799 410.262 159.167 445.978 159.061 448.324C158.954 450.669 157.569 467.408 158.528 472.846C159.487 478.283 167.264 484.893 169.715 484.147C172.165 483.401 177.279 474.871 177.492 470.713C177.705 466.555 172.911 452.589 173.124 448.964C173.23 445.339 186.121 384.14 187.933 377.957C189.744 371.773 191.981 361.751 191.981 361.751C191.981 361.751 187.72 376.784 191.875 397.574C196.03 418.364 195.71 439.581 194.964 448.217C194.325 456.853 193.473 469.327 193.473 469.327C193.473 469.327 196.03 472.099 199.865 472.846C203.7 473.592 204.339 471.886 210.199 474.552C216.059 477.217 220.107 478.923 225.221 479.136C230.335 479.349 234.17 478.603 233.105 475.938C232.039 473.166 221.812 467.941 218.935 465.169C216.059 462.397 209.879 453.441 209.986 451.629C210.093 449.816 220.533 389.898 220.533 381.262C220.64 372.626 227.032 335.203 228.204 317.078C229.269 298.954 224.582 263.45 224.582 263.45L152.775 260.252L149.899 271.66Z" fill="white" stroke="#263238" stroke-miterlimit="10" stroke-linecap="round" stroke-linejoin="round"/>
<path d="M194.751 450.136C198.799 451.629 204.339 452.908 210.199 452.375C210.093 451.949 209.986 451.736 209.986 451.522C210.093 449.71 220.533 389.791 220.533 381.155C220.64 372.519 227.032 335.097 228.204 316.972C229.269 298.847 224.582 263.344 224.582 263.344L152.775 260.145L149.899 271.66C149.899 271.66 146.916 291.277 154.586 313.667C162.257 336.163 163.642 345.439 162.044 355.247C160.446 365.056 154.799 370.174 154.799 390.218C154.799 410.262 159.167 445.978 159.061 448.324C159.061 448.324 165.347 449.923 173.124 449.283C173.124 449.177 173.124 449.07 173.124 448.964C173.23 445.339 186.121 384.141 187.933 377.957C189.211 373.585 190.596 367.402 191.448 364.097C190.49 369.108 188.678 381.688 191.875 397.574C196.03 418.365 195.71 439.581 194.964 448.217C194.858 448.75 194.751 449.39 194.751 450.136Z" fill="#263238" stroke="#263238" stroke-miterlimit="10" stroke-linecap="round" stroke-linejoin="round"/>
<path d="M193.899 356.847C193.899 356.847 196.562 345.225 196.562 336.269C196.562 327.314 195.39 290.318 195.39 290.318" stroke="white" stroke-miterlimit="10" stroke-linecap="round" stroke-linejoin="round"/>
<path d="M177.492 470.713C177.599 469.221 176.959 466.555 176.32 463.57C174.189 462.077 170.887 460.371 167.371 461.118C161.405 462.291 158.422 464.103 158.422 464.103L158.315 463.89C158.209 467.515 158.315 470.927 158.635 472.846C159.594 478.283 167.371 484.893 169.821 484.147C172.165 483.294 177.279 474.871 177.492 470.713Z" fill="white" stroke="#263238" stroke-miterlimit="10" stroke-linecap="round" stroke-linejoin="round"/>
<path d="M233.105 475.831C232.039 473.059 221.812 467.835 218.935 465.063C218.829 464.956 218.829 464.85 218.722 464.85C217.231 464.636 215.846 464.636 215.1 464.956C212.969 465.809 208.495 467.302 208.495 467.302L194.005 460.798C193.686 465.596 193.366 469.327 193.366 469.327C193.366 469.327 195.923 472.099 199.758 472.846C203.594 473.592 204.233 471.886 210.093 474.552C215.952 477.217 220.001 478.923 225.114 479.136C230.228 479.243 234.17 478.603 233.105 475.831Z" stroke="#263238" stroke-miterlimit="10" stroke-linecap="round" stroke-linejoin="round"/>
<path d="M219.255 233.598C219.681 232.212 219.681 227.414 219.894 226.454C220.107 225.388 223.09 212.807 223.09 212.807C223.09 212.807 218.829 154.594 218.19 153.635C217.55 152.569 197.841 145.425 197.841 145.425L172.165 145.852C172.165 145.852 144.465 155.767 144.465 156.514C144.465 157.367 161.724 232.958 161.724 232.958C161.724 232.958 152.775 252.149 150.112 261.638C147.448 271.233 147.448 280.189 147.448 280.189L163.536 268.888C163.536 268.888 173.124 276.671 179.09 279.976C185.056 283.281 191.022 285.627 191.022 285.627L199.972 276.991L205.298 285.627C205.298 285.627 209.134 284.987 217.231 279.016C225.328 273.046 227.352 269.208 227.352 269.208L219.255 233.598Z" fill="#FEBD17" stroke="#263238" stroke-miterlimit="10" stroke-linecap="round" stroke-linejoin="round"/>
<path d="M180.688 137.216C180.688 137.216 173.55 138.282 172.059 140.095C170.674 141.907 167.904 146.492 167.904 146.492C167.904 146.492 168.969 164.936 169.715 168.668C170.567 172.399 172.165 175.705 173.018 174.852C173.87 173.999 186.974 163.124 187.613 162.911C188.253 162.697 204.446 170.054 206.044 170.907C207.642 171.76 208.921 171.76 208.708 169.308C208.495 166.855 206.897 153.848 203.594 147.344C200.291 140.841 195.604 136.896 195.604 136.896L180.688 137.216Z" fill="white" stroke="#263238" stroke-miterlimit="10" stroke-linecap="round" stroke-linejoin="round"/>
<path d="M215.846 84.9736C215.846 84.9736 219.149 92.0104 219.149 97.3412C219.149 102.672 218.296 106.19 218.722 108.643C219.149 111.095 223.41 112.587 223.197 114.187C222.984 115.786 219.042 118.451 219.042 118.451C219.042 118.451 214.78 129.113 213.715 132.845C212.65 136.576 208.388 135.723 206.364 135.297C204.34 134.87 199.226 133.271 199.226 133.271C199.226 133.271 197.841 142.547 197.841 143.72C197.841 144.999 200.078 147.238 199.865 154.381C199.652 161.525 198.267 177.624 196.136 180.076C194.112 182.528 190.809 178.05 190.383 176.344C189.957 174.745 180.688 158.219 177.812 151.716C175.468 146.278 174.722 144.572 175.788 142.653C176.853 140.841 177.812 139.348 177.812 139.348C177.812 139.348 179.41 133.164 179.41 128.26C179.41 123.356 176.96 120.477 176.96 120.477C176.96 120.477 184.737 115.786 185.163 107.896C185.589 100.113 191.768 97.0213 197.947 93.2897C204.127 89.7714 215.846 84.9736 215.846 84.9736Z" fill="white" stroke="#263238" stroke-miterlimit="10" stroke-linecap="round" stroke-linejoin="round"/>
<path d="M199.226 133.271C199.226 133.271 196.136 132.418 194.538 131.032C192.94 129.646 191.449 127.94 191.449 127.94C191.449 127.94 193.473 138.389 198.267 139.881L199.226 133.271Z" fill="#263238" stroke="#263238" stroke-miterlimit="10" stroke-linecap="round" stroke-linejoin="round"/>
<path d="M213.076 109.709C213.841 109.709 214.461 108.42 214.461 106.83C214.461 105.24 213.841 103.951 213.076 103.951C212.311 103.951 211.691 105.24 211.691 106.83C211.691 108.42 212.311 109.709 213.076 109.709Z" fill="#263238"/>
<path d="M209.454 118.131C209.454 118.131 211.478 121.65 216.059 120.157" stroke="#263238" stroke-miterlimit="10" stroke-linecap="round" stroke-linejoin="round"/>
<path d="M210.093 101.606C210.093 101.606 211.691 98.0875 216.059 98.9405" stroke="#263238" stroke-miterlimit="10" stroke-linecap="round" stroke-linejoin="round"/>
<path d="M199.013 99.7934C199.013 99.7934 194.538 101.073 194.538 106.937C194.538 112.907 188.146 120.477 183.245 122.929C178.344 125.381 169.715 122.503 164.601 109.815C159.487 97.0213 164.068 80.2825 172.591 74.845C185.376 66.8488 197.201 69.301 204.872 70.1539C212.436 71.0068 219.042 74.6318 220.427 78.5766C221.812 82.5215 217.55 85.72 211.584 90.731C205.511 95.6353 199.013 99.7934 199.013 99.7934Z" fill="#263238" stroke="#263238" stroke-miterlimit="10" stroke-linecap="round" stroke-linejoin="round"/>
<path d="M162.896 106.617C162.896 106.617 153.628 98.6206 149.366 103.099C145.105 107.576 143.187 123.676 147.555 128.793C151.817 133.911 168.543 133.698 170.78 128.367C173.018 123.036 171.42 119.304 171.42 119.304C171.42 119.304 162.896 109.496 162.896 106.617Z" fill="#263238" stroke="#263238" stroke-miterlimit="10" stroke-linecap="round" stroke-linejoin="round"/>
<path d="M144.359 156.514C144.359 156.514 125.075 226.348 125.288 229.866C125.501 233.384 132.639 234.131 136.581 234.131C140.523 234.131 154.267 200.013 154.267 200.013L144.359 156.514Z" fill="#FEBD17" stroke="#263238" stroke-miterlimit="10" stroke-linecap="round" stroke-linejoin="round"/>
<path d="M176.533 186.153L172.698 235.09C172.698 235.09 182.286 238.928 189.744 238.075C197.201 237.222 213.289 236.263 213.289 236.263L220.427 183.381C220.427 183.488 190.276 190.631 176.533 186.153Z" fill="white" stroke="#263238" stroke-miterlimit="10" stroke-linecap="round" stroke-linejoin="round"/>
<path d="M135.516 216.965C135.516 216.965 159.381 229.546 162.79 229.12C162.79 229.12 164.388 228.267 164.601 227.307C164.814 226.241 170.78 206.09 171.739 205.984C172.804 205.77 183.671 205.557 185.482 206.837C187.294 208.116 188.572 208.436 187.72 209.929C186.867 211.315 185.269 211.208 183.991 211.208C182.712 211.208 179.516 209.822 177.599 210.781C175.788 211.848 173.657 216.965 173.444 217.605C173.231 218.245 180.795 215.366 182.926 215.792C184.95 216.219 190.703 221.976 190.49 223.575C190.277 225.175 187.826 224.428 187.826 224.428C187.826 224.428 184.097 221.976 183.565 221.976C183.032 221.976 180.262 222.403 180.262 222.403C180.262 222.403 186.654 224.855 186.654 226.881C186.654 228.906 184.417 230.399 184.417 230.399C184.417 230.399 185.696 232.638 183.778 234.131C181.967 235.517 178.238 234.557 177.173 234.77C176.107 234.983 174.083 238.715 171.419 240.101C168.756 241.487 163.855 241.167 163.855 241.167C163.855 241.167 139.032 238.075 132.427 236.689C125.821 235.303 122.945 231.998 126.247 222.296" fill="#FEBD17"/>
<path d="M135.516 216.965C135.516 216.965 159.381 229.546 162.79 229.12C162.79 229.12 164.388 228.267 164.601 227.307C164.814 226.241 170.78 206.09 171.739 205.984C172.804 205.77 183.671 205.557 185.482 206.837C187.294 208.116 188.572 208.436 187.72 209.929C186.867 211.315 185.269 211.208 183.991 211.208C182.712 211.208 179.516 209.822 177.599 210.781C175.788 211.848 173.657 216.965 173.444 217.605C173.231 218.245 180.795 215.366 182.926 215.792C184.95 216.219 190.703 221.976 190.49 223.575C190.277 225.175 187.826 224.428 187.826 224.428C187.826 224.428 184.097 221.976 183.565 221.976C183.032 221.976 180.262 222.403 180.262 222.403C180.262 222.403 186.654 224.855 186.654 226.881C186.654 228.906 184.417 230.399 184.417 230.399C184.417 230.399 185.696 232.638 183.778 234.131C181.967 235.517 178.238 234.557 177.173 234.77C176.107 234.983 174.083 238.715 171.419 240.101C168.756 241.487 163.855 241.167 163.855 241.167C163.855 241.167 139.032 238.075 132.427 236.689C125.821 235.303 122.945 231.998 126.247 222.296" stroke="#263238" stroke-miterlimit="10" stroke-linecap="round" stroke-linejoin="round"/>
<path d="M188.146 224.109C188.146 224.109 190.596 224.962 190.809 223.256C191.022 221.656 185.269 215.899 183.245 215.473C181.221 215.046 173.55 217.925 173.763 217.285C173.976 216.645 176 211.528 177.918 210.462C179.729 209.395 183.032 210.888 184.31 210.888C185.589 210.888 187.187 211.101 188.039 209.609C188.892 208.223 187.613 207.796 185.802 206.517C183.991 205.237 173.017 205.451 172.059 205.664C170.993 205.877 165.027 226.028 164.92 226.987C164.707 228.053 163.109 228.8 163.109 228.8C161.085 229.013 152.349 224.962 145.318 221.443C144.039 222.403 141.802 224.535 139.884 228.8C138.393 231.998 138.179 234.77 138.286 236.903C147.981 238.395 164.388 240.421 164.388 240.421C164.388 240.421 169.289 240.847 171.952 239.355C174.615 237.969 176.64 234.237 177.705 234.024C178.77 233.811 182.393 234.877 184.31 233.384C186.122 231.998 184.95 229.653 184.95 229.653C184.95 229.653 187.187 228.267 187.187 226.134C187.187 224.109 180.795 221.656 180.795 221.656C180.795 221.656 183.458 221.23 184.097 221.23C184.417 221.656 188.146 224.109 188.146 224.109Z" fill="white" stroke="#263238" stroke-miterlimit="10" stroke-linecap="round" stroke-linejoin="round"/>
<path d="M184.63 230.079L174.189 226.561" stroke="#263238" stroke-miterlimit="10" stroke-linecap="round" stroke-linejoin="round"/>
<path d="M180.475 222.083L175.148 220.803" stroke="#263238" stroke-miterlimit="10" stroke-linecap="round" stroke-linejoin="round"/>
<path d="M141.696 219.737C141.696 219.737 138.926 220.377 135.943 225.814C132.959 231.252 133.918 237.222 133.918 237.222L139.565 238.182C139.565 238.182 139.139 233.064 141.483 228.693C143.826 224.322 147.236 222.616 147.236 222.616L141.696 219.737Z" fill="white" stroke="#263238" stroke-miterlimit="10" stroke-linecap="round" stroke-linejoin="round"/>
<path d="M236.621 188.605L248.872 199.693L256.863 186.366L245.25 178.05L236.621 188.605Z" fill="white" stroke="#263238" stroke-miterlimit="10" stroke-linecap="round" stroke-linejoin="round"/>
</g>
<defs>
<clipPath id="clip0_55_1465">
<rect width="761" height="485" fill="white"/>
</clipPath>
</defs>
</svg>
