<svg width="26" height="24" viewBox="0 0 26 24" fill="none" xmlns="http://www.w3.org/2000/svg">
<path d="M16.0346 8.28637L15.9596 8.58078H16.2634H23.5179C24.0565 8.58078 24.5731 8.79475 24.954 9.17561C25.3348 9.55647 25.5488 10.073 25.5488 10.6116L25.5488 12.9965L25.5488 12.9968C25.5491 13.2622 25.4973 13.525 25.3965 13.7705C25.3965 13.7705 25.3965 13.7705 25.3965 13.7705L21.8883 22.2887C21.8883 22.2887 21.8883 22.2887 21.8883 22.2887C21.8206 22.4531 21.7055 22.5936 21.5577 22.6925C21.41 22.7914 21.2361 22.8442 21.0583 22.8441H21.0582H1.98117C1.74318 22.8441 1.51494 22.7496 1.34665 22.5813C1.17837 22.413 1.08383 22.1848 1.08383 21.9468V10.6116C1.08383 10.3736 1.17837 10.1454 1.34666 9.97712C1.51494 9.80884 1.74318 9.7143 1.98117 9.7143H5.928C5.92802 9.7143 5.92804 9.7143 5.92806 9.7143C6.14732 9.71434 6.36339 9.66175 6.55811 9.56094C6.75284 9.46012 6.92051 9.31402 7.04704 9.13492L7.04711 9.13482L13.2282 0.376163L13.2282 0.376157C13.2737 0.311569 13.3409 0.265452 13.4176 0.246165C13.4943 0.226879 13.5753 0.235701 13.646 0.271032L15.7021 1.2991L15.7022 1.29911C16.2326 1.56424 16.6564 2.00287 16.903 2.54214C17.1497 3.0814 17.2044 3.68883 17.0581 4.2635L17.0581 4.26353L16.0346 8.28637ZM7.5288 11.0747L7.41256 11.1432V11.2781V20.8133V21.0494H7.64874H20.2987H20.4569L20.5171 20.9032L23.7363 13.0865L23.7541 13.0433V12.9965V10.6116V10.3755H23.5179H16.2635C16.2635 10.3755 16.2635 10.3755 16.2634 10.3755C15.9542 10.3754 15.649 10.3047 15.3711 10.1688C15.0933 10.0328 14.8502 9.83523 14.6604 9.59103C14.4706 9.34684 14.339 9.06251 14.2758 8.75974C14.2126 8.45698 14.2193 8.14378 14.2956 7.84404C14.2956 7.84403 14.2956 7.84402 14.2956 7.844L15.3191 3.82252C15.3191 3.82246 15.3191 3.8224 15.3191 3.82234C15.3645 3.64467 15.3476 3.45683 15.2714 3.29006C15.1951 3.12323 15.064 2.98754 14.9 2.90557L14.8999 2.90554L14.1506 2.53148L13.9692 2.44089L13.8522 2.60658L8.51339 10.1693C8.24978 10.5426 7.91218 10.8487 7.5288 11.0747ZM5.61788 11.7451V11.509H5.38171H3.11468H2.87851V11.7451V20.8133V21.0494H3.11468H5.38171H5.61788V20.8133V11.7451Z" fill="#7A7979" stroke="white" stroke-width="0.472349"/>
</svg>
