<svg width="24" height="22" viewBox="0 0 24 22" fill="none" xmlns="http://www.w3.org/2000/svg">
<path d="M1.09091 8.69352H4.36364V22H1.09091C0.801582 22 0.524105 21.8832 0.31952 21.6752C0.114935 21.4673 0 21.1852 0 20.8911V9.80239C0 9.5083 0.114935 9.22625 0.31952 9.0183C0.524105 8.81035 0.801582 8.69352 1.09091 8.69352ZM6.86509 7.25975L13.8469 0.162955C13.9397 0.0683612 14.063 0.0110023 14.1941 0.00142696C14.3251 -0.00814841 14.4552 0.0307035 14.5604 0.110838L15.4909 0.820517C15.7493 1.01772 15.9446 1.2883 16.0519 1.59812C16.1593 1.90794 16.174 2.24314 16.0942 2.56145L14.8364 7.58465H21.8182C22.3968 7.58465 22.9518 7.8183 23.361 8.23421C23.7701 8.65012 24 9.21421 24 9.80239V12.1355C24.0003 12.4253 23.9447 12.7123 23.8364 12.9804L20.46 21.3136C20.3776 21.5168 20.2377 21.6905 20.0581 21.8127C19.8784 21.9349 19.6671 22.0001 19.4509 22H7.63636C7.34704 22 7.06956 21.8832 6.86497 21.6752C6.66039 21.4673 6.54545 21.1852 6.54545 20.8911V8.04372C6.54552 7.74965 6.66049 7.46765 6.86509 7.25975Z" fill="#19ACDA"/>
</svg>
