<svg width="25" height="25" viewBox="0 0 25 25" fill="none" xmlns="http://www.w3.org/2000/svg">
<path d="M13.7791 7.79954L15.4889 9.50933C16.2744 10.2948 16.8975 11.2272 17.3226 12.2535C17.7477 13.2798 17.9666 14.3797 17.9666 15.4906C17.9666 16.6014 17.7477 17.7014 17.3226 18.7276C16.8975 19.7539 16.2744 20.6864 15.4889 21.4718L15.0611 21.8984C13.4748 23.4847 11.3233 24.3759 9.07986 24.3759C6.83646 24.3759 4.68494 23.4847 3.09861 21.8984C1.51228 20.312 0.621094 18.1605 0.621094 15.9171C0.621094 13.6737 1.51228 11.5222 3.09861 9.93587L4.8084 11.6457C4.24335 12.2058 3.79449 12.872 3.48761 13.6061C3.18072 14.3401 3.02184 15.1276 3.0201 15.9232C3.01836 16.7188 3.17378 17.507 3.47745 18.2424C3.78112 18.9778 4.22706 19.6459 4.78965 20.2085C5.35225 20.7711 6.02042 21.2171 6.75582 21.5207C7.49122 21.8244 8.27936 21.9798 9.07498 21.9781C9.87061 21.9763 10.6581 21.8175 11.3921 21.5106C12.1262 21.2037 12.7924 20.7548 13.3525 20.1898L13.7803 19.762C14.9129 18.6291 15.5492 17.0926 15.5492 15.4906C15.5492 13.8885 14.9129 12.3521 13.7803 11.2191L12.0705 9.50933L13.7803 7.80075L13.7791 7.79954ZM21.8967 15.0628L20.1881 13.3542C20.7531 12.7941 21.202 12.1279 21.5089 11.3938C21.8158 10.6598 21.9746 9.87233 21.9764 9.0767C21.9781 8.28108 21.8227 7.49294 21.519 6.75754C21.2153 6.02214 20.7694 5.35397 20.2068 4.79137C19.6442 4.22878 18.976 3.78284 18.2407 3.47917C17.5053 3.17551 16.7171 3.02008 15.9215 3.02182C15.1259 3.02356 14.3384 3.18244 13.6043 3.48933C12.8703 3.79621 12.2041 4.24507 11.6439 4.81012L11.2162 5.23787C10.0836 6.37085 9.44728 7.9073 9.44728 9.50933C9.44728 11.1114 10.0836 12.6478 11.2162 13.7808L12.926 15.4906L11.2162 17.1992L9.50761 15.4906C8.72209 14.7051 8.09898 13.7727 7.67385 12.7464C7.24873 11.7201 7.02992 10.6202 7.02992 9.50933C7.02992 8.39849 7.24873 7.29854 7.67385 6.27227C8.09898 5.246 8.72209 4.31352 9.50761 3.52808L9.93536 3.10154C11.5217 1.51521 13.6732 0.624023 15.9166 0.624023C18.16 0.624023 20.3115 1.51521 21.8979 3.10154C23.4842 4.68786 24.3754 6.83938 24.3754 9.08279C24.3754 11.3262 23.4842 13.4777 21.8979 15.064L21.8967 15.0628Z" fill="#00A912"/>
</svg>
