<svg width="124" height="124" viewBox="0 0 124 124" fill="none" xmlns="http://www.w3.org/2000/svg">
<rect width="124" height="124" fill="#FEBD17"/>
<path d="M64.2222 63.8387H46.7956L46.7011 56.5186H62.522C65.1352 56.5186 67.4178 56.0778 69.3698 55.1962C71.3219 54.3147 72.8331 53.0553 73.9036 51.4181C75.0056 49.7495 75.5565 47.7659 75.5565 45.4676C75.5565 42.9488 75.0685 40.9023 74.0925 39.3281C73.148 37.7224 71.684 36.5575 69.7004 35.8334C67.7484 35.0777 65.2611 34.6999 62.2386 34.6999H48.8263V96H39.7116V27.2381H62.2386C65.7649 27.2381 68.9133 27.6002 71.684 28.3243C74.4546 29.017 76.8002 30.1189 78.7207 31.6302C80.6727 33.11 82.1525 34.999 83.16 37.2974C84.1675 39.5957 84.6713 42.3506 84.6713 45.562C84.6713 48.3956 83.9471 50.9616 82.4988 53.26C81.0506 55.5268 79.0356 57.3844 76.4538 58.8327C73.9036 60.281 70.9126 61.2098 67.4808 61.6191L64.2222 63.8387ZM63.7971 96H43.2063L48.354 88.5854H63.7971C66.6937 88.5854 69.1495 88.0817 71.1645 87.0742C73.2109 86.0667 74.7694 84.6499 75.8399 82.8238C76.9104 80.9662 77.4456 78.778 77.4456 76.2593C77.4456 73.7091 76.9891 71.5052 76.076 69.6476C75.163 67.79 73.7304 66.3575 71.7784 65.35C69.8264 64.3425 67.3076 63.8387 64.2222 63.8387H51.2348L51.3293 56.5186H69.0865L71.0228 59.1633C74.3286 59.4466 77.1307 60.3912 79.4291 61.9969C81.7275 63.5711 83.4748 65.5861 84.6713 68.0419C85.8991 70.4977 86.5131 73.2053 86.5131 76.1648C86.5131 80.4467 85.5686 84.0674 83.6795 87.027C81.8219 89.955 79.193 92.1904 75.7927 93.7331C72.3923 95.2444 68.3938 96 63.7971 96Z" fill="#1C2226"/>
</svg>
