<svg width="482" height="124" viewBox="0 0 482 124" fill="none" xmlns="http://www.w3.org/2000/svg">
<rect width="481.12" height="124" fill="#FEBD17"/>
<path d="M69.8068 62.7987H52.3802L52.2857 55.4786H68.1066C70.7198 55.4786 73.0024 55.0378 74.9545 54.1563C76.9065 53.2747 78.4177 52.0153 79.4882 50.3781C80.5902 48.7095 81.1411 46.726 81.1411 44.4276C81.1411 41.9088 80.6531 39.8624 79.6771 38.2881C78.7326 36.6824 77.2686 35.5175 75.285 34.7934C73.333 34.0378 70.8457 33.6599 67.8232 33.6599H54.4109V94.96H45.2962V26.1981H67.8232C71.3495 26.1981 74.4979 26.5602 77.2686 27.2844C80.0392 27.977 82.3848 29.079 84.3053 30.5902C86.2573 32.07 87.7371 33.959 88.7446 36.2574C89.7521 38.5558 90.2559 41.3106 90.2559 44.5221C90.2559 47.3556 89.5317 49.9216 88.0834 52.22C86.6352 54.4869 84.6202 56.3444 82.0384 57.7927C79.4882 59.241 76.4972 60.1698 73.0654 60.5791L69.8068 62.7987ZM69.3817 94.96H48.7909L53.9386 87.5455H69.3817C72.2783 87.5455 74.7341 87.0417 76.7491 86.0342C78.7955 85.0267 80.354 83.6099 81.4245 81.7838C82.495 79.9262 83.0302 77.7381 83.0302 75.2193C83.0302 72.6691 82.5737 70.4652 81.6606 68.6076C80.7476 66.75 79.315 65.3175 77.363 64.31C75.411 63.3025 72.8922 62.7987 69.8068 62.7987H56.8195L56.9139 55.4786H74.6711L76.6074 58.1233C79.9132 58.4067 82.7153 59.3512 85.0137 60.9569C87.3121 62.5311 89.0595 64.5461 90.2559 67.0019C91.4837 69.4577 92.0977 72.1653 92.0977 75.1249C92.0977 79.4067 91.1532 83.0274 89.2641 85.987C87.4065 88.915 84.7776 91.1504 81.3773 92.6931C77.977 94.2044 73.9784 94.96 69.3817 94.96ZM135.499 83.1534V43.8609H144.283V94.96H135.924L135.499 83.1534ZM137.152 72.3857L140.788 72.2913C140.788 75.6916 140.426 78.84 139.702 81.7366C139.009 84.6017 137.876 87.0889 136.302 89.1984C134.728 91.3078 132.665 92.9608 130.115 94.1572C127.565 95.3221 124.464 95.9046 120.811 95.9046C118.324 95.9046 116.042 95.5425 113.964 94.8183C111.917 94.0942 110.154 92.9765 108.674 91.4653C107.194 89.954 106.045 87.9862 105.227 85.5619C104.44 83.1376 104.046 80.2253 104.046 76.825V43.8609H112.783V76.9195C112.783 79.2178 113.035 81.1226 113.539 82.6339C114.074 84.1137 114.782 85.2943 115.664 86.1759C116.577 87.026 117.584 87.6242 118.686 87.9705C119.82 88.3168 120.985 88.49 122.181 88.49C125.896 88.49 128.84 87.7816 131.012 86.3648C133.185 84.9165 134.743 82.9802 135.688 80.5559C136.664 78.1001 137.152 75.3767 137.152 72.3857ZM187.354 81.406C187.354 80.1466 187.07 78.9817 186.504 77.9112C185.968 76.8093 184.851 75.8175 183.151 74.936C181.482 74.0229 178.963 73.2358 175.594 72.5746C172.761 71.9764 170.195 71.268 167.896 70.4494C165.629 69.6308 163.693 68.6391 162.087 67.4742C160.513 66.3092 159.301 64.9397 158.451 63.3655C157.601 61.7912 157.176 59.9494 157.176 57.8399C157.176 55.8249 157.617 53.9201 158.498 52.1255C159.411 50.3309 160.686 48.741 162.324 47.3556C163.992 45.9703 165.992 44.8841 168.321 44.097C170.651 43.3099 173.249 42.9163 176.114 42.9163C180.207 42.9163 183.701 43.6405 186.598 45.0888C189.495 46.5371 191.714 48.4733 193.257 50.8976C194.8 53.2905 195.571 55.9509 195.571 58.8789H186.834C186.834 57.4621 186.409 56.0926 185.559 54.7702C184.74 53.4164 183.528 52.2987 181.923 51.4171C180.348 50.5356 178.412 50.0948 176.114 50.0948C173.689 50.0948 171.722 50.4726 170.21 51.2282C168.731 51.9524 167.644 52.8812 166.952 54.0146C166.291 55.148 165.96 56.3444 165.96 57.6038C165.96 58.5483 166.117 59.3984 166.432 60.154C166.779 60.8782 167.377 61.5551 168.227 62.1848C169.077 62.783 170.273 63.3497 171.816 63.8849C173.359 64.4202 175.327 64.9554 177.719 65.4906C181.907 66.4352 185.354 67.5686 188.062 68.891C190.77 70.2133 192.785 71.8347 194.107 73.7553C195.429 75.6758 196.091 78.0057 196.091 80.7448C196.091 82.9802 195.618 85.0267 194.674 86.8843C193.761 88.7419 192.423 90.3476 190.66 91.7014C188.928 93.0237 186.85 94.0627 184.426 94.8183C182.033 95.5425 179.341 95.9046 176.35 95.9046C171.848 95.9046 168.038 95.1017 164.921 93.496C161.804 91.8903 159.443 89.8123 157.837 87.2621C156.231 84.7119 155.429 82.0199 155.429 79.1863H164.213C164.339 81.5792 165.031 83.484 166.291 84.9008C167.55 86.2861 169.093 87.2778 170.919 87.876C172.745 88.4428 174.555 88.7261 176.35 88.7261C178.743 88.7261 180.742 88.4113 182.348 87.7816C183.985 87.1519 185.228 86.2861 186.079 85.1841C186.929 84.0822 187.354 82.8228 187.354 81.406ZM217.059 43.8609V94.96H208.275V43.8609H217.059ZM207.614 30.3069C207.614 28.8901 208.039 27.6937 208.889 26.7176C209.771 25.7416 211.061 25.2536 212.762 25.2536C214.43 25.2536 215.705 25.7416 216.587 26.7176C217.5 27.6937 217.956 28.8901 217.956 30.3069C217.956 31.6607 217.5 32.8256 216.587 33.8016C215.705 34.7462 214.43 35.2184 212.762 35.2184C211.061 35.2184 209.771 34.7462 208.889 33.8016C208.039 32.8256 207.614 31.6607 207.614 30.3069ZM235.289 26.1981H244.12L266.647 82.2561L289.127 26.1981H298.005L270.047 94.96H263.152L235.289 26.1981ZM232.408 26.1981H240.2L241.475 68.1353V94.96H232.408V26.1981ZM293.047 26.1981H300.839V94.96H291.772V68.1353L293.047 26.1981ZM336.731 95.9046C333.174 95.9046 329.946 95.3064 327.05 94.1099C324.185 92.8821 321.713 91.1662 319.635 88.9622C317.589 86.7583 316.015 84.1451 314.913 81.1226C313.811 78.1001 313.26 74.7943 313.26 71.2051V69.2215C313.26 65.0656 313.874 61.3662 315.102 58.1233C316.329 54.8489 317.998 52.0783 320.108 49.8114C322.217 47.5446 324.61 45.8287 327.286 44.6637C329.962 43.4988 332.733 42.9163 335.598 42.9163C339.25 42.9163 342.398 43.546 345.043 44.8054C347.719 46.0648 349.907 47.8279 351.608 50.0948C353.308 52.3302 354.567 54.9749 355.386 58.0288C356.204 61.0513 356.614 64.3572 356.614 67.9464V71.8662H318.455V64.735H347.877V64.0738C347.751 61.807 347.279 59.6031 346.46 57.4621C345.673 55.3212 344.413 53.5581 342.682 52.1728C340.95 50.7874 338.589 50.0948 335.598 50.0948C333.614 50.0948 331.788 50.5198 330.12 51.3699C328.451 52.1885 327.018 53.4164 325.822 55.0536C324.626 56.6908 323.697 58.69 323.036 61.0513C322.374 63.4127 322.044 66.1361 322.044 69.2215V71.2051C322.044 73.6294 322.374 75.912 323.036 78.0529C323.728 80.1624 324.72 82.0199 326.011 83.6256C327.333 85.2313 328.923 86.4907 330.781 87.4038C332.67 88.3168 334.811 88.7733 337.204 88.7733C340.289 88.7733 342.902 88.1437 345.043 86.8843C347.184 85.6249 349.057 83.9405 350.663 81.831L355.952 86.0342C354.851 87.7029 353.449 89.2928 351.749 90.8041C350.049 92.3153 347.955 93.5432 345.468 94.4878C343.012 95.4323 340.1 95.9046 336.731 95.9046ZM388.019 95.9046C384.462 95.9046 381.234 95.3064 378.338 94.1099C375.473 92.8821 373.001 91.1662 370.923 88.9622C368.877 86.7583 367.303 84.1451 366.201 81.1226C365.099 78.1001 364.548 74.7943 364.548 71.2051V69.2215C364.548 65.0656 365.162 61.3662 366.39 58.1233C367.617 54.8489 369.286 52.0783 371.396 49.8114C373.505 47.5446 375.898 45.8287 378.574 44.6637C381.25 43.4988 384.021 42.9163 386.886 42.9163C390.538 42.9163 393.687 43.546 396.331 44.8054C399.007 46.0648 401.196 47.8279 402.896 50.0948C404.596 52.3302 405.855 54.9749 406.674 58.0288C407.492 61.0513 407.902 64.3572 407.902 67.9464V71.8662H369.743V64.735H399.165V64.0738C399.039 61.807 398.567 59.6031 397.748 57.4621C396.961 55.3212 395.702 53.5581 393.97 52.1728C392.238 50.7874 389.877 50.0948 386.886 50.0948C384.902 50.0948 383.076 50.5198 381.408 51.3699C379.739 52.1885 378.306 53.4164 377.11 55.0536C375.914 56.6908 374.985 58.69 374.324 61.0513C373.662 63.4127 373.332 66.1361 373.332 69.2215V71.2051C373.332 73.6294 373.662 75.912 374.324 78.0529C375.016 80.1624 376.008 82.0199 377.299 83.6256C378.621 85.2313 380.211 86.4907 382.069 87.4038C383.958 88.3168 386.099 88.7733 388.492 88.7733C391.577 88.7733 394.19 88.1437 396.331 86.8843C398.472 85.6249 400.345 83.9405 401.951 81.831L407.241 86.0342C406.139 87.7029 404.738 89.2928 403.037 90.8041C401.337 92.3153 399.244 93.5432 396.756 94.4878C394.3 95.4323 391.388 95.9046 388.019 95.9046ZM439.496 43.8609V50.5671H411.869V43.8609H439.496ZM421.22 31.4403H429.957V82.3033C429.957 84.0349 430.224 85.3415 430.759 86.2231C431.295 87.1047 431.987 87.6871 432.837 87.9705C433.687 88.2539 434.6 88.3955 435.576 88.3955C436.301 88.3955 437.056 88.3326 437.843 88.2066C438.662 88.0492 439.276 87.9233 439.685 87.8288L439.732 94.96C439.04 95.1804 438.127 95.3851 436.993 95.574C435.891 95.7944 434.553 95.9046 432.979 95.9046C430.838 95.9046 428.87 95.4795 427.076 94.6294C425.281 93.7794 423.849 92.3626 422.778 90.379C421.739 88.364 421.22 85.6564 421.22 82.2561V31.4403Z" fill="#1C2226"/>
</svg>
