<svg width="77" height="69" viewBox="0 0 77 69" fill="none" xmlns="http://www.w3.org/2000/svg">
<path d="M70.4998 6.49995C62.0998 -1.90005 48.2998 -1.90005 39.8998 6.49995L38.7998 7.59995L37.6998 6.49995C29.2998 -1.90005 15.4998 -1.90005 7.0998 6.49995C-1.3002 14.9 -1.3002 28.6999 7.0998 37.0999L9.19981 39.1999L9.29979 39.3L37.5998 67.6C37.8998 67.9 38.2998 68.1 38.6998 68.1C39.0998 68.1 39.4998 67.9 39.7998 67.6L68.0998 39.3L68.1998 39.1999L70.2998 37.0999C78.9998 28.6999 78.9998 15 70.4998 6.49995Z" fill="#BA2D00"/>
<path d="M11.8 37.2L38.8 64.2L65.8 37.2L65.9 37.1L68.1 34.9C71.6 31.4 73.5 26.8 73.5 21.9C73.5 17 71.6 12.4 68.1 8.9C60.9 1.7 49.3 1.7 42.1 8.9L39.9 11.1C39.3 11.7 38.2 11.7 37.6 11.1L35.4 8.9C31.9 5.4 27.3 3.5 22.4 3.5C17.5 3.5 12.9 5.4 9.39999 8.9C5.89999 12.4 4 17 4 21.9C4 26.8 5.89999 31.4 9.39999 34.9L11.6 37.1C11.7 37.1 11.7 37.1 11.8 37.2Z" fill="#D67350"/>
</svg>
