<svg width="20" height="22" viewBox="0 0 20 22" fill="none" xmlns="http://www.w3.org/2000/svg">
<path d="M12.2222 19.671L10 21.831L7.77778 19.671H2.21667C1.62877 19.671 1.06495 19.444 0.649247 19.0399C0.233541 18.6358 0 18.0878 0 17.5164V2.38556C0 1.1954 0.992222 0.230957 2.21667 0.230957H17.7833C19.0078 0.230957 20 1.1954 20 2.38556V17.5164C20 18.0878 19.7665 18.6358 19.3508 19.0399C18.935 19.444 18.3712 19.671 17.7833 19.671H12.2222ZM17.7778 17.511V2.39096H2.22222V17.511H8.69778L10 18.7767L11.3022 17.511H17.7778ZM5.52445 16.6254C4.84109 16.3377 4.18929 15.9838 3.57889 15.5691C4.28363 14.5075 5.25107 13.6347 6.39266 13.0305C7.53425 12.4264 8.81351 12.1102 10.1133 12.111C12.78 12.111 15.1322 13.4145 16.5333 15.4017C15.9346 15.8322 15.2929 16.2031 14.6178 16.5087C14.1032 15.8154 13.4264 15.2508 12.6432 14.8618C11.86 14.4727 10.9929 14.2702 10.1133 14.271C8.20778 14.271 6.52445 15.2041 5.52445 16.6254ZM10 11.031C9.4893 11.031 8.98361 10.9332 8.51179 10.7432C8.03997 10.5533 7.61126 10.2748 7.25014 9.92382C6.88902 9.57281 6.60257 9.15611 6.40714 8.6975C6.2117 8.23889 6.11111 7.74735 6.11111 7.25096C6.11111 6.75456 6.2117 6.26302 6.40714 5.80441C6.60257 5.3458 6.88902 4.9291 7.25014 4.57809C7.61126 4.22709 8.03997 3.94866 8.51179 3.75869C8.98361 3.56873 9.4893 3.47096 10 3.47096C11.0314 3.47096 12.0206 3.86921 12.7499 4.57809C13.4792 5.28698 13.8889 6.24844 13.8889 7.25096C13.8889 8.25348 13.4792 9.21493 12.7499 9.92382C12.0206 10.6327 11.0314 11.031 10 11.031ZM10 8.87096C10.442 8.87096 10.866 8.70028 11.1785 8.39647C11.4911 8.09266 11.6667 7.68061 11.6667 7.25096C11.6667 6.82131 11.4911 6.40925 11.1785 6.10544C10.866 5.80164 10.442 5.63096 10 5.63096C9.55797 5.63096 9.13405 5.80164 8.82149 6.10544C8.50893 6.40925 8.33333 6.82131 8.33333 7.25096C8.33333 7.68061 8.50893 8.09266 8.82149 8.39647C9.13405 8.70028 9.55797 8.87096 10 8.87096Z" fill="#7A7979"/>
</svg>
