<svg width="13" height="16" viewBox="0 0 13 16" fill="none" xmlns="http://www.w3.org/2000/svg">
<path d="M6.39595 0.5C4.86514 0.5 3.39703 1.07946 2.31458 2.11091C1.23214 3.14236 0.624023 4.54131 0.624023 6C0.624023 8.905 5.76629 15.05 5.98667 15.315C6.03584 15.3734 6.09814 15.4205 6.16898 15.4529C6.23982 15.4853 6.31738 15.5021 6.39595 15.5021C6.47452 15.5021 6.55209 15.4853 6.62293 15.4529C6.69377 15.4205 6.75607 15.3734 6.80524 15.315C7.02562 15.05 12.1679 8.905 12.1679 6C12.1679 4.54131 11.5598 3.14236 10.4773 2.11091C9.39488 1.07946 7.92676 0.5 6.39595 0.5ZM6.39595 7.5C5.98083 7.5 5.57504 7.3827 5.22988 7.16294C4.88472 6.94318 4.6157 6.63082 4.45684 6.26537C4.29798 5.89991 4.25641 5.49778 4.3374 5.10982C4.41839 4.72186 4.61828 4.36549 4.91182 4.08579C5.20535 3.80608 5.57934 3.6156 5.98648 3.53843C6.39363 3.46126 6.81564 3.50087 7.19916 3.65224C7.58268 3.80362 7.91048 4.05996 8.14111 4.38886C8.37174 4.71776 8.49484 5.10444 8.49484 5.5C8.49484 6.03043 8.27371 6.53914 7.88009 6.91421C7.48647 7.28929 6.95261 7.5 6.39595 7.5Z" fill="#FEBD17"/>
</svg>
