<svg width="22" height="22" viewBox="0 0 22 22" fill="none" xmlns="http://www.w3.org/2000/svg">
<path d="M12.0832 16.9248V19.0915H16.4165V21.2581H5.58317V19.0915H9.9165V16.9248H1.24984C0.962519 16.9248 0.686969 16.8107 0.483805 16.6075C0.28064 16.4043 0.166504 16.1288 0.166504 15.8415V1.75814C0.166504 1.47082 0.28064 1.19527 0.483805 0.992106C0.686969 0.788941 0.962519 0.674805 1.24984 0.674805H20.7498C21.0372 0.674805 21.3127 0.788941 21.5159 0.992106C21.719 1.19527 21.8332 1.47082 21.8332 1.75814V15.8415C21.8332 16.1288 21.719 16.4043 21.5159 16.6075C21.3127 16.8107 21.0372 16.9248 20.7498 16.9248H12.0832ZM8.83317 5.5498V12.0498L14.2498 8.7998L8.83317 5.5498Z" fill="#19ACDA"/>
</svg>
