<svg width="24" height="23" viewBox="0 0 24 23" fill="none" xmlns="http://www.w3.org/2000/svg">
<path d="M12.8769 17.3417H12.6407V17.5779V19.8449V20.0811H12.8769H17.1747V21.8758H6.31195V20.0811H10.6098H10.846V19.8449V17.5779V17.3417H10.6098H1.54172C1.30373 17.3417 1.07549 17.2472 0.907202 17.0789L0.740202 17.2459L0.907202 17.0789C0.738919 16.9106 0.644378 16.6824 0.644378 16.4444V1.70871C0.644378 1.47072 0.738918 1.24248 0.907202 1.07419C1.07549 0.905911 1.30373 0.81137 1.54172 0.81137H21.945C22.183 0.81137 22.4112 0.905911 22.5795 1.07419L22.7455 0.908137L22.5795 1.07419C22.7478 1.24248 22.8423 1.47072 22.8423 1.70871V16.4444C22.8423 16.6824 22.7478 16.9106 22.5795 17.0789C22.4112 17.2472 22.183 17.3417 21.945 17.3417H12.8769ZM2.67523 2.60605H2.43906V2.84222V15.3109V15.547H2.67523H20.8114H21.0476V15.3109V2.84222V2.60605H20.8114H2.67523ZM9.71249 6.09314L14.6848 9.07655L9.71249 12.06V6.09314Z" fill="#7A7979" stroke="white" stroke-width="0.472349"/>
</svg>
