<svg width="19" height="5" viewBox="0 0 19 5" fill="none" xmlns="http://www.w3.org/2000/svg">
<path d="M2.78711 0.787109C1.68711 0.787109 0.787109 1.68711 0.787109 2.78711C0.787109 3.88711 1.68711 4.78711 2.78711 4.78711C3.88711 4.78711 4.78711 3.88711 4.78711 2.78711C4.78711 1.68711 3.88711 0.787109 2.78711 0.787109ZM16.7871 0.787109C15.6871 0.787109 14.7871 1.68711 14.7871 2.78711C14.7871 3.88711 15.6871 4.78711 16.7871 4.78711C17.8871 4.78711 18.7871 3.88711 18.7871 2.78711C18.7871 1.68711 17.8871 0.787109 16.7871 0.787109ZM9.78711 0.787109C8.68711 0.787109 7.78711 1.68711 7.78711 2.78711C7.78711 3.88711 8.68711 4.78711 9.78711 4.78711C10.8871 4.78711 11.7871 3.88711 11.7871 2.78711C11.7871 1.68711 10.8871 0.787109 9.78711 0.787109Z" fill="#9D9D9D"/>
</svg>
