<svg width="21" height="22" viewBox="0 0 21 22" fill="none" xmlns="http://www.w3.org/2000/svg">
<path d="M17.4917 2.0625H16.6523V1.375C16.6523 1.19266 16.5789 1.0178 16.4484 0.888864C16.3178 0.759933 16.1408 0.6875 15.9562 0.6875C15.7715 0.6875 15.5945 0.759933 15.4639 0.888864C15.3334 1.0178 15.2601 1.19266 15.2601 1.375V2.0625H11.0835V1.375C11.0835 1.19266 11.0102 1.0178 10.8796 0.888864C10.7491 0.759933 10.572 0.6875 10.3874 0.6875C10.2028 0.6875 10.0257 0.759933 9.89519 0.888864C9.76465 1.0178 9.69131 1.19266 9.69131 1.375V2.0625H5.51475V1.375C5.51475 1.19266 5.44141 1.0178 5.31087 0.888864C5.18032 0.759933 5.00327 0.6875 4.81865 0.6875C4.63404 0.6875 4.45698 0.759933 4.32644 0.888864C4.1959 1.0178 4.12256 1.19266 4.12256 1.375V2.0625H3.28307C2.58298 2.06359 1.91188 2.33875 1.41684 2.82768C0.921794 3.31661 0.643194 3.97943 0.64209 4.67088V18.7041C0.643194 19.3956 0.921794 20.0584 1.41684 20.5473C1.91188 21.0362 2.58298 21.3114 3.28307 21.3125H17.4917C18.1918 21.3114 18.8629 21.0362 19.358 20.5473C19.853 20.0584 20.1316 19.3956 20.1327 18.7041V4.67088C20.1316 3.97943 19.853 3.31661 19.358 2.82768C18.8629 2.33875 18.1918 2.06359 17.4917 2.0625ZM8.79057 14.2361L6.70228 16.2986C6.57175 16.4274 6.39472 16.4999 6.21015 16.4999C6.02557 16.4999 5.84854 16.4274 5.71801 16.2986L4.32582 14.9236C4.25934 14.8601 4.20631 14.7843 4.16982 14.7004C4.13334 14.6165 4.11414 14.5263 4.11334 14.435C4.11253 14.3437 4.13015 14.2532 4.16515 14.1687C4.20015 14.0842 4.25183 14.0075 4.31719 13.9429C4.38255 13.8784 4.46027 13.8273 4.54582 13.7927C4.63136 13.7582 4.72303 13.7408 4.81545 13.7416C4.90788 13.7424 4.99922 13.7613 5.08415 13.7974C5.16907 13.8334 5.24588 13.8858 5.3101 13.9514L6.21084 14.8404L7.80699 13.2639C7.93827 13.1387 8.1141 13.0694 8.29662 13.071C8.47913 13.0725 8.65372 13.1448 8.78278 13.2723C8.91184 13.3998 8.98505 13.5722 8.98664 13.7525C8.98822 13.9327 8.91806 14.1064 8.79126 14.2361H8.79057ZM8.79057 8.04856L6.70228 10.1111C6.57175 10.2399 6.39472 10.3124 6.21015 10.3124C6.02557 10.3124 5.84854 10.2399 5.71801 10.1111L4.32582 8.73606C4.25934 8.67264 4.20631 8.59678 4.16982 8.5129C4.13334 8.42903 4.11414 8.33881 4.11334 8.24753C4.11253 8.15624 4.13015 8.06571 4.16515 7.98122C4.20015 7.89673 4.25183 7.81997 4.31719 7.75542C4.38255 7.69087 4.46027 7.63982 4.54582 7.60525C4.63136 7.57068 4.72303 7.55328 4.81545 7.55408C4.90788 7.55487 4.99922 7.57384 5.08415 7.60987C5.16907 7.6459 5.24588 7.69827 5.3101 7.76394L6.21084 8.65288L7.80699 7.07644C7.93827 6.9512 8.1141 6.88191 8.29662 6.88347C8.47913 6.88504 8.65372 6.95734 8.78278 7.08481C8.91184 7.21228 8.98505 7.38471 8.98664 7.56497C8.98822 7.74523 8.91806 7.9189 8.79126 8.04856H8.79057ZM15.9562 15.8125H11.0835C10.8989 15.8125 10.7218 15.7401 10.5913 15.6111C10.4607 15.4822 10.3874 15.3073 10.3874 15.125C10.3874 14.9427 10.4607 14.7678 10.5913 14.6389C10.7218 14.5099 10.8989 14.4375 11.0835 14.4375H15.9562C16.1408 14.4375 16.3178 14.5099 16.4484 14.6389C16.5789 14.7678 16.6523 14.9427 16.6523 15.125C16.6523 15.3073 16.5789 15.4822 16.4484 15.6111C16.3178 15.7401 16.1408 15.8125 15.9562 15.8125ZM15.9562 9.625H11.0835C10.8989 9.625 10.7218 9.55257 10.5913 9.42364C10.4607 9.2947 10.3874 9.11984 10.3874 8.9375C10.3874 8.75516 10.4607 8.5803 10.5913 8.45136C10.7218 8.32243 10.8989 8.25 11.0835 8.25H15.9562C16.1408 8.25 16.3178 8.32243 16.4484 8.45136C16.5789 8.5803 16.6523 8.75516 16.6523 8.9375C16.6523 9.11984 16.5789 9.2947 16.4484 9.42364C16.3178 9.55257 16.1408 9.625 15.9562 9.625Z" fill="black"/>
</svg>
