<svg width="20" height="21" viewBox="0 0 20 21" fill="none" xmlns="http://www.w3.org/2000/svg">
<path d="M0 20.231C0 18.2103 0.802719 16.2723 2.23157 14.8435C3.66042 13.4146 5.59835 12.6119 7.61905 12.6119C9.63974 12.6119 11.5777 13.4146 13.0065 14.8435C14.4354 16.2723 15.2381 18.2103 15.2381 20.231H13.3333C13.3333 18.7154 12.7313 17.262 11.6597 16.1903C10.588 15.1187 9.13457 14.5167 7.61905 14.5167C6.10352 14.5167 4.65007 15.1187 3.57844 16.1903C2.5068 17.262 1.90476 18.7154 1.90476 20.231H0ZM7.61905 11.6595C4.4619 11.6595 1.90476 9.10239 1.90476 5.94524C1.90476 2.7881 4.4619 0.230957 7.61905 0.230957C10.7762 0.230957 13.3333 2.7881 13.3333 5.94524C13.3333 9.10239 10.7762 11.6595 7.61905 11.6595ZM7.61905 9.75477C9.72381 9.75477 11.4286 8.05 11.4286 5.94524C11.4286 3.84048 9.72381 2.13572 7.61905 2.13572C5.51429 2.13572 3.80952 3.84048 3.80952 5.94524C3.80952 8.05 5.51429 9.75477 7.61905 9.75477ZM15.5086 13.2814C16.847 13.8842 17.9828 14.8607 18.7796 16.0935C19.5764 17.3264 20.0002 18.7631 20 20.231H18.0952C18.0955 19.13 17.7777 18.0524 17.1801 17.1277C16.5825 16.203 15.7305 15.4706 14.7267 15.0186L15.5076 13.2814H15.5086ZM14.8533 2.52905C15.8129 2.92457 16.6333 3.59623 17.2105 4.4588C17.7877 5.32136 18.0956 6.33595 18.0952 7.37381C18.0956 8.6808 17.6073 9.9407 16.7262 10.906C15.8451 11.8714 14.6349 12.4724 13.3333 12.591V10.6738C14.039 10.5727 14.6937 10.2481 15.2012 9.74758C15.7088 9.24705 16.0426 8.59698 16.1535 7.8928C16.2644 7.18862 16.1466 6.46743 15.8175 5.8351C15.4884 5.20278 14.9652 4.69262 14.3248 4.37953L14.8533 2.52905Z" fill="#7A7979"/>
</svg>
