<svg width="20" height="20" viewBox="0 0 20 20" fill="none" xmlns="http://www.w3.org/2000/svg">
<path d="M17.6923 0H2.30769C1.69565 0 1.10868 0.243131 0.675907 0.675907C0.243131 1.10868 0 1.69565 0 2.30769V16.9231C0 17.5351 0.243131 18.1221 0.675907 18.5549C1.10868 18.9876 1.69565 19.2308 2.30769 19.2308H17.6923C18.3043 19.2308 18.8913 18.9876 19.3241 18.5549C19.7569 18.1221 20 17.5351 20 16.9231V2.30769C20 1.69565 19.7569 1.10868 19.3241 0.675907C18.8913 0.243131 18.3043 0 17.6923 0ZM18.4615 16.9231C18.4615 17.1271 18.3805 17.3227 18.2362 17.467C18.092 17.6113 17.8963 17.6923 17.6923 17.6923H2.30769C2.10368 17.6923 1.90802 17.6113 1.76376 17.467C1.61951 17.3227 1.53846 17.1271 1.53846 16.9231V2.30769C1.53846 2.10368 1.61951 1.90802 1.76376 1.76376C1.90802 1.61951 2.10368 1.53846 2.30769 1.53846H17.6923C17.8963 1.53846 18.092 1.61951 18.2362 1.76376C18.3805 1.90802 18.4615 2.10368 18.4615 2.30769V16.9231Z" fill="#7A7979"/>
<path d="M15.0021 8.46179C15.2061 8.46179 15.4018 8.38074 15.546 8.23648C15.6903 8.09223 15.7713 7.89657 15.7713 7.69256C15.7713 7.48854 15.6903 7.29289 15.546 7.14863C15.4018 7.00437 15.2061 6.92333 15.0021 6.92333H6.47519L7.47135 5.92717C7.61569 5.78283 7.69678 5.58707 7.69678 5.38294C7.69678 5.17881 7.61569 4.98305 7.47135 4.83871C7.32701 4.69437 7.13124 4.61328 6.92712 4.61328C6.72299 4.61328 6.52723 4.69437 6.38289 4.83871L4.07519 7.1464C3.96695 7.25377 3.89305 7.39087 3.86287 7.54032C3.8327 7.68976 3.84761 7.8448 3.90573 7.98575C3.96384 8.12671 4.06252 8.24721 4.18925 8.33197C4.31598 8.41672 4.46504 8.46191 4.6175 8.46179H15.0021Z" fill="#7A7979"/>
<path d="M15.7691 11.1538H5.38447C5.18045 11.1538 4.9848 11.2349 4.84054 11.3791C4.69628 11.5234 4.61523 11.719 4.61523 11.923C4.61523 12.1271 4.69628 12.3227 4.84054 12.467C4.9848 12.6112 5.18045 12.6923 5.38447 12.6923H13.9114L12.9152 13.6884C12.7709 13.8328 12.6898 14.0285 12.6898 14.2327C12.6898 14.4368 12.7709 14.6325 12.9152 14.7769C13.0596 14.9212 13.2553 15.0023 13.4595 15.0023C13.6636 15.0023 13.8594 14.9212 14.0037 14.7769L16.3114 12.4692C16.4196 12.3618 16.4935 12.2247 16.5237 12.0753C16.5539 11.9258 16.539 11.7708 16.4809 11.6298C16.4227 11.4889 16.3241 11.3684 16.1973 11.2836C16.0706 11.1989 15.9215 11.1537 15.7691 11.1538Z" fill="#7A7979"/>
</svg>
