<svg width="16" height="16" viewBox="0 0 16 16" fill="none" xmlns="http://www.w3.org/2000/svg">
<path d="M0.500006 8C0.500006 3.85775 3.85776 0.5 8.00001 0.5C12.1423 0.5 15.5 3.85775 15.5 8C15.5 12.1423 12.1423 15.5 8.00001 15.5H0.500006L2.69676 13.3032C1.99928 12.6076 1.44616 11.7809 1.06917 10.8708C0.692176 9.96073 0.49875 8.9851 0.500006 8ZM4.12101 14H8.00001C9.18669 14 10.3467 13.6481 11.3334 12.9888C12.3201 12.3295 13.0892 11.3925 13.5433 10.2961C13.9974 9.19974 14.1162 7.99334 13.8847 6.82946C13.6532 5.66557 13.0818 4.59647 12.2426 3.75736C11.4035 2.91824 10.3344 2.3468 9.17055 2.11529C8.00666 1.88378 6.80026 2.0026 5.70391 2.45672C4.60755 2.91085 3.67048 3.67988 3.01119 4.66658C2.3519 5.65327 2.00001 6.81331 2.00001 8C2.00001 9.614 2.63826 11.1237 3.75726 12.2428L4.81776 13.3032L4.12101 14ZM5.00001 8.75H11C11 9.54565 10.6839 10.3087 10.1213 10.8713C9.55872 11.4339 8.79566 11.75 8.00001 11.75C7.20436 11.75 6.44129 11.4339 5.87869 10.8713C5.31608 10.3087 5.00001 9.54565 5.00001 8.75Z" fill="#7A7979"/>
</svg>
