<svg width="20" height="18" viewBox="0 0 20 18" fill="none" xmlns="http://www.w3.org/2000/svg">
<path d="M14.8548 1.82485C14.8028 1.77243 14.7382 1.73452 14.6685 1.71252L10.4675 0.393481C8.78759 -0.13404 7.69463 0.786196 7.40021 1.08155C7.22843 1.25333 7.0969 1.43448 7.02949 1.59222L5.15813 5.994C5.05094 6.24582 5.08745 6.58143 5.25549 6.91611C5.49608 7.39401 5.92952 7.73852 6.44768 7.86256C7.02762 8.00157 7.6291 7.81294 8.09998 7.34252C8.22309 7.21942 8.32794 7.08368 8.38972 6.96853L9.01882 5.80162C9.12226 5.60831 9.27251 5.40797 9.43072 5.24976C9.97041 4.7096 10.2269 4.95675 10.336 5.06159C11.2773 5.97013 16.2122 10.9261 16.2122 10.9261C16.3877 11.1016 16.3512 11.4344 16.1317 11.6535C15.9126 11.8721 15.5794 11.9095 15.4043 11.7349L14.0179 10.349C13.8391 10.1697 13.5507 10.1697 13.3719 10.349C13.1931 10.5264 13.1931 10.8161 13.3719 10.9944L14.7584 12.3814C14.9334 12.5559 14.8969 12.8887 14.6778 13.1073C14.4588 13.3269 14.125 13.3634 13.9509 13.1888L12.564 11.8028C12.3852 11.624 12.0959 11.624 11.9181 11.8028C11.7393 11.9802 11.7393 12.27 11.9181 12.4488L13.3045 13.8352C13.4796 14.0103 13.4417 14.3431 13.2231 14.5621C13.0045 14.7807 12.6717 14.8182 12.4961 14.6426L11.1097 13.2567C10.9318 13.0783 10.6421 13.0783 10.4638 13.2567C10.2859 13.435 10.2859 13.7247 10.4638 13.9021L11.8502 15.289C12.0257 15.4646 11.9883 15.7974 11.7697 16.0164C11.5497 16.2355 11.2169 16.2725 11.0423 16.0974L9.35443 14.4081C9.59548 14.0458 9.52995 13.5202 9.17234 13.1612C8.77167 12.761 8.15522 12.724 7.79854 13.0816C8.15522 12.7245 8.12011 12.1089 7.7185 11.7078C7.31689 11.3071 6.70184 11.2701 6.34517 11.6268C6.70184 11.2701 6.6658 10.6551 6.26372 10.2544C5.86305 9.85281 5.248 9.8163 4.89039 10.173C5.248 9.8163 5.21102 9.20125 4.80988 8.79917C4.43449 8.42378 3.87513 8.37276 3.51144 8.65875L0.778349 5.92566C0.600012 5.74686 0.310273 5.74686 0.131937 5.92566C-0.045932 6.10353 -0.045932 6.39327 0.131937 6.57207L2.85801 9.29767L2.04964 10.106C1.69297 10.4622 1.72901 11.0773 2.13109 11.4794C2.53176 11.88 3.14681 11.917 3.50395 11.5599C3.14681 11.917 3.18332 12.5316 3.58493 12.9332C3.9856 13.3334 4.60112 13.3713 4.95826 13.0142C4.60112 13.3713 4.63716 13.9859 5.03877 14.3871C5.44038 14.7887 6.05543 14.8252 6.4121 14.4685C6.05543 14.8247 6.09147 15.4393 6.49308 15.8414C6.89422 16.242 7.5088 16.279 7.86641 15.9219L8.72018 15.0686L10.3964 16.7443C10.9314 17.2793 11.8362 17.2418 12.4156 16.6633C12.6979 16.3811 12.8486 16.0206 12.8697 15.664C13.2263 15.6429 13.5872 15.4917 13.869 15.209C14.1517 14.9267 14.3034 14.5663 14.3249 14.2097C14.6811 14.1886 15.0406 14.0379 15.3243 13.7552C15.6065 13.4724 15.7577 13.1125 15.7783 12.7553C16.1354 12.7347 16.4958 12.584 16.7786 12.3004C17.3571 11.7218 17.3927 10.8156 16.8591 10.2816L16.1523 9.57431L19.0543 6.67271C19.2327 6.49484 19.2327 6.2051 19.0543 6.02677L14.8548 1.82485Z" fill="black"/>
</svg>
