<svg width="22" height="25" viewBox="0 0 22 25" fill="none" xmlns="http://www.w3.org/2000/svg">
<path d="M21.712 9.93497L17.854 5.88136C17.4604 5.46751 16.8015 5.44929 16.3854 5.84028L14.838 7.29454C14.4098 7.69668 13.8339 7.90937 13.2144 7.89208C12.606 7.87535 11.9953 8.0345 11.4712 8.34201L10.5379 8.04249C10.0205 7.87926 9.47293 7.87721 8.95421 8.03673C8.36354 8.21856 7.72472 8.05997 7.28763 7.62287L5.89063 6.22606C5.69392 6.02917 5.43215 5.92059 5.15383 5.92059C4.87532 5.92059 4.61373 6.02917 4.41684 6.22587L0.304676 10.338C-0.101559 10.7445 -0.101559 11.4054 0.304676 11.812L2.41561 13.9228C2.57661 14.0838 2.6653 14.2979 2.6653 14.5257C2.6653 15.0193 2.85772 15.4835 3.20669 15.8325C3.208 15.8338 3.20911 15.8351 3.21041 15.8362L3.30505 15.9288L2.48105 16.7528C1.83535 17.3987 1.83535 18.4493 2.48105 19.0952C2.79395 19.4079 3.20985 19.5803 3.65216 19.5803C3.65941 19.5803 3.66666 19.5792 3.67391 19.5792C3.68655 19.986 3.84607 20.389 4.15581 20.699C4.47875 21.0217 4.90284 21.1833 5.32692 21.1833C5.347 21.1833 5.36689 21.1811 5.38697 21.1803C5.40705 21.5758 5.56583 21.9653 5.8672 22.2665C6.17992 22.5792 6.59582 22.7515 7.03831 22.7515C7.04444 22.7515 7.05021 22.7508 7.05634 22.7506C7.06564 23.1624 7.22553 23.5712 7.53899 23.8847C7.86193 24.2076 8.28602 24.369 8.7101 24.369C9.13418 24.369 9.55826 24.2076 9.8812 23.8847L10.8392 22.9267L11.7973 23.8847C12.1202 24.2076 12.5443 24.369 12.9684 24.369C13.3925 24.369 13.8166 24.2076 14.1395 23.8847C14.4717 23.5525 14.6316 23.1133 14.6222 22.677C15.023 22.6604 15.4192 22.5015 15.7245 22.196C16.0374 21.8833 16.2095 21.4674 16.2095 21.0249C16.2095 21.0124 16.208 21.0002 16.2079 20.9877C16.6102 20.9721 17.0081 20.8129 17.3145 20.5064C17.632 20.189 17.7925 19.7736 17.7978 19.3566C18.2375 19.3548 18.6507 19.183 18.9617 18.8719C19.5611 18.2725 19.6031 17.3247 19.09 16.6753C19.3676 16.275 19.5297 15.7925 19.5542 15.2757L19.6085 14.1414C19.6273 13.7452 19.7892 13.3696 20.0644 13.0839L21.7079 11.3762C22.0957 10.9731 22.0976 10.3401 21.712 9.93497ZM3.18531 18.391C2.92781 18.1335 2.92781 17.7146 3.18531 17.4571L5.31391 15.3283C5.44256 15.1996 5.61175 15.1353 5.78094 15.1353C5.94994 15.1353 6.11912 15.1996 6.24797 15.3283C6.50546 15.5858 6.50546 16.0049 6.24797 16.2624L4.11919 18.391C3.99443 18.5157 3.82859 18.5845 3.65216 18.5845C3.47591 18.5845 3.31006 18.5157 3.18531 18.391ZM4.86008 19.9947C4.60258 19.7372 4.60258 19.3183 4.86008 19.0608L6.98867 16.9322C7.11751 16.8034 7.28651 16.7391 7.4557 16.7391C7.62489 16.7391 7.79389 16.8034 7.92273 16.9322C8.18023 17.1897 8.18023 17.6086 7.92273 17.8661L5.79414 19.9947C5.53645 20.2522 5.11757 20.2524 4.86008 19.9947ZM6.57147 21.5622C6.31397 21.3049 6.31397 20.8858 6.57147 20.6283L8.70006 18.4995C8.82871 18.3709 8.9979 18.3066 9.16709 18.3066C9.33609 18.3066 9.50528 18.3709 9.63393 18.4995C9.75868 18.6243 9.82747 18.7901 9.82747 18.9666C9.82747 19.143 9.75868 19.3088 9.63393 19.4336L7.50534 21.5624C7.38059 21.6869 7.21475 21.7557 7.03831 21.7557C6.86206 21.7557 6.69622 21.6869 6.57147 21.5622ZM9.17713 23.1806C8.91963 23.4381 8.50057 23.4381 8.24325 23.1806C7.98576 22.9231 7.98576 22.5041 8.24325 22.2466L10.3679 20.1219C10.3694 20.1204 10.3713 20.1195 10.3728 20.118C10.4975 19.9932 10.6632 19.9246 10.8394 19.9246C11.0138 19.9246 11.1778 19.9925 11.302 20.1148C11.3048 20.1178 11.3068 20.1213 11.3096 20.1241L11.3165 20.131C11.5619 20.3892 11.5593 20.7984 11.3059 21.052L9.17713 23.1806ZM13.4354 23.1806C13.1779 23.4381 12.7591 23.4381 12.5016 23.1806L11.5435 22.2226L12.01 21.7561C12.1756 21.5906 12.298 21.398 12.3787 21.1928L13.3823 22.196C13.3904 22.2042 13.3995 22.211 13.4077 22.219L13.4354 22.2466C13.6929 22.5041 13.6929 22.9231 13.4354 23.1806ZM18.2576 18.1677C18.1331 18.2924 17.967 18.3612 17.7908 18.3612C17.6143 18.3612 17.4485 18.2924 17.3237 18.1677L15.195 16.0391C15.145 15.9891 15.0868 15.9523 15.0249 15.9281C14.8443 15.853 14.6287 15.8887 14.4818 16.0354C14.2873 16.2298 14.2873 16.5451 14.4818 16.7396L16.6104 18.8682C16.8679 19.1259 16.8679 19.5448 16.6104 19.8023C16.3529 20.0598 15.934 20.0598 15.6765 19.8023L13.5477 17.6737C13.3534 17.4792 13.0381 17.4792 12.8436 17.6737C12.6492 17.868 12.6492 18.1833 12.8436 18.3778L12.8766 18.4105C12.8819 18.4166 12.8858 18.4235 12.8918 18.4293L15.0204 20.558C15.1451 20.6826 15.2139 20.8484 15.2139 21.0249C15.2139 21.2013 15.1451 21.3672 15.0204 21.4919C14.7672 21.7451 14.3585 21.7479 14.0999 21.5029L12.0109 19.4139C11.698 19.101 11.2821 18.9288 10.8398 18.9288C10.84 18.9288 10.8396 18.9288 10.8398 18.9288C10.834 18.9288 10.8273 18.9296 10.8214 18.9296C10.8121 18.5012 10.6422 18.0996 10.3382 17.7955C10 17.4575 9.55101 17.2981 9.10704 17.3141C9.08696 16.9188 8.92818 16.5293 8.62681 16.228C8.29847 15.8996 7.86528 15.7392 7.43395 15.7448C7.42168 15.3378 7.26216 14.9343 6.95204 14.6242C6.30634 13.9785 5.25571 13.9785 4.60983 14.6242L4.00931 15.2247L3.90928 15.1268C3.74939 14.9659 3.66127 14.7525 3.66127 14.5257C3.66127 14.0319 3.46903 13.5676 3.11987 13.2187L1.00894 11.1077C0.990905 11.0897 0.990905 11.0603 1.00894 11.0421L5.12111 6.92995C5.13914 6.9121 5.1687 6.9121 5.18674 6.93014L6.58355 8.32695C7.28224 9.02564 8.30312 9.27923 9.24722 8.98845C9.57165 8.88861 9.9143 8.88991 10.2359 8.99143L10.5293 9.08569L8.10902 11.4549C7.60574 11.9475 7.46053 12.7323 7.75559 13.3631C7.99226 13.869 8.49517 14.255 9.06799 14.3703C9.77207 14.5123 10.3542 14.2174 10.8446 13.93C11.1468 13.753 11.3825 13.5141 11.5905 13.3033C11.7309 13.161 11.8637 13.0266 12.0035 12.9216C12.2113 12.7656 12.4521 12.6747 12.6813 12.6658C12.9143 12.6563 13.2041 12.7591 13.484 12.8582L13.565 12.8868C13.9404 13.0184 14.2626 13.2235 14.5496 13.5135L14.5513 13.5119C14.6482 13.6115 14.9696 13.9347 16.0984 15.0675C16.1086 15.0799 16.1173 15.0933 16.129 15.105L18.2578 17.2338C18.5151 17.4913 18.5151 17.9102 18.2576 18.1677ZM20.9905 10.6855L19.3469 12.3932C18.9046 12.8528 18.6443 13.4568 18.6138 14.094L18.5597 15.2281C18.5475 15.4856 18.4831 15.7275 18.3733 15.9396C17.4584 15.0215 15.2967 12.8522 15.2569 12.8124C14.8666 12.4185 14.4083 12.1271 13.8946 11.947L13.8162 11.9193C13.4823 11.801 13.0669 11.6544 12.6425 11.6707C12.213 11.6874 11.7737 11.8488 11.4056 12.1253C11.2066 12.2746 11.0415 12.4419 10.8818 12.6037C10.7009 12.787 10.5301 12.9601 10.341 13.0709C9.90668 13.3254 9.59136 13.4598 9.26451 13.394C8.99957 13.3406 8.76123 13.1627 8.65748 12.9411C8.54035 12.6909 8.60264 12.3649 8.80566 12.1662L11.2509 9.77247C11.4286 9.59845 11.6223 9.43819 11.825 9.29671C11.8256 9.29633 11.8296 9.29354 11.83 9.29317C12.2245 9.01838 12.7057 8.87448 13.187 8.88731C14.0703 8.91111 14.899 8.6036 15.52 8.02L17.0674 6.56592C17.0858 6.54844 17.1151 6.54919 17.1326 6.56778L20.9906 10.6214C21.0077 10.6394 21.0077 10.6677 20.9905 10.6855Z" fill="#7A7979"/>
<path d="M13.7096 14.6658C13.6066 14.4109 13.3164 14.2878 13.0613 14.391C12.8064 14.4942 12.6833 14.7844 12.7865 15.0393L12.7938 15.0573C12.8722 15.2511 13.0587 15.3687 13.2556 15.3687C13.3177 15.3687 13.3809 15.357 13.4421 15.3323C13.697 15.2291 13.82 14.9389 13.7168 14.684L13.7096 14.6658Z" fill="#7A7979"/>
<path d="M7.61569 5.42327H14.7282C15.1516 5.42327 15.4961 5.07876 15.4961 4.65524V0.768034C15.4961 0.344509 15.1516 0 14.728 0H7.61569C7.19216 0 6.84766 0.344509 6.84766 0.768034V4.65524C6.84766 5.07876 7.19216 5.42327 7.61569 5.42327ZM7.84344 0.995785H14.5003V4.42749H7.84344V0.995785Z" fill="#7A7979"/>
<path d="M10.0299 2.49049C9.9269 2.23559 9.6365 2.11251 9.3816 2.2157C9.12671 2.3187 9.00363 2.60892 9.10681 2.86382L9.11351 2.88036C9.19178 3.07428 9.37826 3.19178 9.57514 3.19178C9.63724 3.19178 9.70045 3.18006 9.76162 3.15534C10.0165 3.05234 10.1396 2.76212 10.0366 2.50704L10.0299 2.49049Z" fill="#7A7979"/>
<path d="M11.5554 2.49049C11.4522 2.23559 11.162 2.11251 10.9071 2.2157C10.6522 2.3187 10.5291 2.60892 10.6321 2.86382L10.6388 2.88036C10.7173 3.07428 10.9037 3.19178 11.1006 3.19178C11.1627 3.19178 11.2259 3.18006 11.2871 3.15534C11.542 3.05234 11.6651 2.76212 11.5619 2.50704L11.5554 2.49049Z" fill="#7A7979"/>
<path d="M13.0826 2.49049C12.9796 2.23559 12.6894 2.11251 12.4343 2.2157C12.1794 2.3187 12.0564 2.60892 12.1595 2.86382L12.1661 2.88036C12.2445 3.07428 12.431 3.19178 12.6279 3.19178C12.69 3.19178 12.7532 3.18006 12.8144 3.15534C13.0693 3.05234 13.1923 2.76212 13.0893 2.50704L13.0826 2.49049Z" fill="#7A7979"/>
</svg>
