<svg width="20" height="15" viewBox="0 0 20 15" fill="none" xmlns="http://www.w3.org/2000/svg">
<path d="M6.58413 5.4375C6.58413 6.54297 5.72125 7.44102 4.66 7.44102C3.59875 7.44102 2.74 6.54258 2.74 5.4375C2.74 4.33203 3.59875 3.43359 4.66 3.43359C5.72125 3.43359 6.58413 4.33203 6.58413 5.4375Z" fill="black"/>
<path d="M10 6.83594C11.6051 6.83594 12.9062 5.48055 12.9062 3.80859C12.9062 2.13664 11.6051 0.78125 10 0.78125C8.39492 0.78125 7.09375 2.13664 7.09375 3.80859C7.09375 5.48055 8.39492 6.83594 10 6.83594Z" fill="black"/>
<path d="M15.34 3.43359C16.4013 3.43359 17.2638 4.33203 17.2638 5.4375C17.2638 6.54297 16.4013 7.44102 15.34 7.44102C14.2788 7.44102 13.42 6.54258 13.42 5.4375C13.42 4.33203 14.2788 3.43359 15.34 3.43359Z" fill="black"/>
<path d="M19.375 10.2106V11.5313C19.375 11.6953 19.2775 11.8438 19.1312 11.8977C18.3366 12.1988 17.515 12.4016 16.675 12.5078V10.6488C16.6791 9.73868 16.3532 8.86407 15.7675 8.18751C16.1125 8.12969 16.4425 8.0004 16.7391 7.8086C17.9012 8.09727 19.3675 8.76173 19.375 10.2106Z" fill="black"/>
<path d="M15.925 10.6488V12.5C15.925 12.8285 15.7263 13.1254 15.4304 13.2344C11.9208 14.5469 8.08 14.5469 4.57037 13.2344C4.27412 13.1254 4.07538 12.8285 4.07538 12.5V10.6488C4.07913 8.45781 6.30663 7.45781 8.05788 7.03125C9.24663 7.8125 10.7579 7.80859 11.9466 7.03125C13.6971 7.46484 15.9171 8.45273 15.925 10.6488Z" fill="black"/>
<path d="M4.2325 8.18751C3.6475 8.86329 3.325 9.73868 3.325 10.6488V12.5082C2.48875 12.4024 1.66375 12.2 0.8725 11.8984C0.7225 11.8438 0.625 11.6953 0.625 11.5313V10.2106C0.62875 8.76173 2.1025 8.09727 3.26125 7.8086C3.5575 7.99962 3.8875 8.12852 4.2325 8.18751Z" fill="black"/>
</svg>
