<svg width="242" height="137" viewBox="0 0 242 137" fill="none" xmlns="http://www.w3.org/2000/svg">
<path d="M220.248 104.178C212.012 107.253 215.282 119.915 205.246 118.94C196.754 118.1 195.959 117.455 193.454 120.215C192.599 121.16 191.894 122.241 191.339 123.396C190.678 124.776 189.298 126.861 186.883 127.656C172.061 132.532 147.997 113.059 162.069 98.357C163.089 97.2918 164.709 96.7067 166.51 96.1516C176.306 93.1361 180.087 97.2768 186.268 84.3298C192.449 71.3828 205.621 86.7602 212.252 85.1849C218.883 83.6097 224.509 80.7442 230.78 87.1052C237.051 93.4812 228.484 101.117 220.248 104.178Z" fill="#EAEAEA"/>
<path d="M169.301 114.032L168.911 113.597C169.106 113.432 188.324 96.3745 232.281 88.9634L232.371 89.5335C188.579 96.9296 169.481 113.852 169.301 114.032Z" fill="white"/>
<path d="M194.286 93.0132C187.715 88.6175 186.08 84.6119 186.02 84.4469L186.56 84.2368C186.575 84.2818 188.21 88.2574 194.616 92.5331L194.286 93.0132Z" fill="white"/>
<path d="M196.17 99.0463C194.115 96.4059 193.665 92.2353 194.88 86.9695C195.78 83.0388 197.31 79.8283 197.325 79.7983L197.85 80.0534C197.79 80.1734 191.909 92.6103 196.635 98.6863L196.17 99.0463Z" fill="white"/>
<path d="M36.0213 38.8214C34.326 40.1116 33.4109 39.9466 32.9008 39.2715C32.3907 38.5964 32.4958 37.6512 34.191 36.361C37.2965 34.0057 39.6969 34.0957 39.6969 34.0957C39.6969 34.0957 39.1718 36.436 36.0213 38.8214Z" fill="#D5D6DA"/>
<path d="M40.9001 89.0789L40.4951 89.0939C40.4951 89.0338 40.27 82.6879 37.1195 73.7015C34.2091 65.4202 28.1331 53.1333 15.7412 41.6565L16.0113 41.3564C28.4782 52.8932 34.5841 65.2552 37.4946 73.5814C40.6751 82.6129 40.9001 89.0188 40.9001 89.0789Z" fill="#D5D6DA"/>
<path d="M28.6279 56.179L28.2678 55.9989C34.6888 42.6769 28.1928 28.1096 28.1328 27.9746L28.4929 27.8096C28.5679 27.9446 35.1239 42.6919 28.6279 56.179Z" fill="#D5D6DA"/>
<path d="M21.8109 50.2679C17.7303 50.733 14.4148 49.0077 14.3848 48.9777L14.5648 48.6177C14.6098 48.6327 18.8555 50.838 23.5812 49.5028L23.6862 49.8929C23.0561 50.0729 22.426 50.1929 21.8109 50.2679Z" fill="#D5D6DA"/>
<path d="M15.2123 39.4216C17.5527 41.1168 17.8678 42.182 17.3877 42.8721C16.9076 43.5622 15.8124 43.6072 13.4721 41.9119C9.19641 38.8065 8.01123 36.061 8.01123 36.061C8.01123 36.061 10.8767 36.2711 15.2123 39.4216Z" fill="#D5D6DA"/>
<path d="M15.3215 47.5548C18.067 48.47 18.6671 49.3851 18.412 50.1952C18.157 51.0054 17.1368 51.3804 14.3914 50.4803C9.39562 48.83 7.44531 46.5647 7.44531 46.5647C7.44531 46.5647 10.2507 45.8746 15.3215 47.5548Z" fill="#D5D6DA"/>
<path d="M25.1848 43.3219C25.905 45.3623 25.4849 46.1874 24.7048 46.4724C23.9246 46.7575 23.0695 46.3824 22.3344 44.3421C21.0142 40.6365 21.7943 38.3262 21.7943 38.3262C21.7943 38.3262 23.8346 39.5564 25.1848 43.3219Z" fill="#D5D6DA"/>
<path d="M29.1564 26.0539C30.1465 28.7993 29.8015 29.8495 29.0214 30.1345C28.2413 30.4196 27.3111 29.8345 26.306 27.0891C24.4907 22.0933 25.0458 19.1528 25.0458 19.1528C25.0458 19.1528 27.3261 20.9981 29.1564 26.0539Z" fill="#D5D6DA"/>
<path d="M85.1827 90.866C85.1827 90.866 52.1326 36.9176 37.9704 46.5491C23.7932 56.1806 68.035 77.7389 77.1715 93.7464L85.1827 90.866Z" fill="#D5D6DA"/>
<path d="M69.7764 91.5421C69.7764 91.5421 26.3596 45.845 11.6874 59.122C-2.98492 72.3991 49.0431 82.7357 61.18 96.4628L69.7764 91.5421Z" fill="#D5D6DA"/>
<path d="M65.0005 94.346C56.7942 84.6995 44.6723 77.1683 35.941 72.5326C26.4745 67.5218 18.8533 64.7464 18.7783 64.7164L18.9433 64.2363C19.0184 64.2663 26.6695 67.0418 36.166 72.0825C44.9424 76.7333 57.1243 84.3094 65.3755 94.0159L65.0005 94.346Z" fill="white"/>
<path d="M87.2986 117.6C82.1678 128.732 72.6263 131.492 65.0952 131.192C55.6137 131.282 51.323 127.231 49.7778 125.206C48.9677 124.156 48.0525 123.181 47.0174 122.371C43.8669 119.88 43.1468 120.735 34.3404 123.226C26.8692 125.341 25.324 118.665 21.6334 114.074C21.5734 113.984 21.4984 113.909 21.4234 113.819C19.9982 112.124 18.2579 110.759 15.7675 110.294C13.1121 109.799 10.3667 108.914 7.93629 107.713C7.72626 107.608 7.53123 107.518 7.3362 107.413C2.47545 104.878 -0.990091 101.067 0.255102 96.6417C0.285106 96.5367 0.315111 96.4317 0.345116 96.3267C0.585153 95.5916 0.960211 94.8414 1.48529 94.0763C6.93114 86.1101 13.3971 88.1204 20.7033 88.5405C24.7389 88.7805 29.9147 83.1096 35.2555 80.1392C35.3305 80.0942 35.4056 80.0491 35.4806 80.0191C39.7262 77.7238 44.0619 77.1987 47.9775 82.7496C48.0525 82.8696 48.1425 82.9746 48.2175 83.0796C56.9639 95.2915 60.2344 90.2657 71.0361 91.6309C73.0464 91.886 74.8617 92.201 76.1369 93.1462C87.9587 101.908 97.5452 109.904 87.2986 117.6Z" fill="#EAEAEA"/>
<path d="M71.3885 111.208L71.7185 110.682C71.4935 110.532 48.0448 95.9802 0.232422 96.3553V96.9854C47.8648 96.5953 71.1484 111.058 71.3885 111.208Z" fill="white"/>
<path d="M41.1362 93.5047C47.2722 87.5788 48.2473 83.003 48.2924 82.808L47.6773 82.688C47.6623 82.733 46.6871 87.2787 40.7012 93.0546L41.1362 93.5047Z" fill="white"/>
<path d="M40.2359 100.288C41.9162 97.0774 41.6161 92.5467 39.3658 87.1759C37.6855 83.1552 35.4802 80.0198 35.4652 79.9897L34.9551 80.3498C35.0451 80.4698 43.5514 92.6217 39.6808 99.9878L40.2359 100.288Z" fill="white"/>
<path d="M27.6232 99.5963C28.3583 98.9362 28.7484 98.5161 28.7634 98.5011L28.3133 98.0811C28.2383 98.1711 19.942 107.097 7.31006 107.112V107.743C17.4816 107.728 24.8928 102.042 27.6232 99.5963Z" fill="white"/>
<path d="M21.8512 114.269C24.6416 110.939 25.3617 107.668 25.4817 105.523C25.6168 103.182 25.0767 101.637 25.0617 101.577L24.4766 101.787C24.4916 101.847 26.4719 107.773 21.3711 113.879L21.8512 114.269Z" fill="white"/>
<path d="M17.8792 82.9752C15.7638 82.7051 15.2237 81.94 15.3288 81.0999C15.4338 80.2597 16.1539 79.6596 18.2692 79.9297C22.1248 80.4248 23.7901 82.18 23.7901 82.18C23.7901 82.18 21.7948 83.4702 17.8792 82.9752Z" fill="#D5D6DA"/>
<path d="M177.499 136.968H62.1307C60.4804 136.968 59.0252 135.903 58.5301 134.327L35.2465 60.1709C34.0313 56.2853 36.9268 52.3247 41.0074 52.3247H146.009C148.934 52.3247 151.515 54.23 152.4 57.0204L177.499 136.968Z" fill="#364154"/>
<path d="M172.89 135.212H64.0636L40.6 60.4855C40.0899 58.8652 41.3051 57.23 42.9853 57.23H145.616C147.267 57.23 148.737 58.3101 149.232 59.8854L172.89 135.212Z" fill="#D5D6DA"/>
<path d="M64.7099 136.969H233.816V131.479H61.2744L64.7099 136.969Z" fill="#364154"/>
<path d="M143.375 136.969H240.32C241.25 136.969 242 136.009 242 134.824V133.624C242 132.439 241.25 131.479 240.32 131.479H143.615C142.85 131.479 142.175 132.139 141.98 133.099L141.74 134.299C141.47 135.649 142.28 136.969 143.375 136.969Z" fill="#364154"/>
<path d="M101.131 126.885C98.8505 127.681 96.3451 126.465 95.565 124.185L86.4586 97.9159C85.6635 95.6356 86.8786 93.1302 89.159 92.335C91.4394 91.5399 93.9447 92.7551 94.7249 95.0355L103.831 121.305C104.641 123.6 103.426 126.09 101.131 126.885Z" fill="#FFDC89"/>
<path d="M94.0589 73.8943C94.0589 73.8943 122.953 50.1006 132.87 19.2559L171.246 115.286C171.246 115.286 126.899 94.4325 102.13 94.6876C102.13 94.6876 94.704 92.5572 92.6187 85.8212C90.3533 78.5451 94.0589 73.8943 94.0589 73.8943Z" fill="#FEBD17"/>
<path d="M179.895 115.97C191.01 111.658 190.945 84.7669 179.749 55.9077C168.552 27.0485 150.465 7.14948 139.349 11.462C128.233 15.7745 128.299 42.6655 139.495 71.5247C150.691 100.384 168.779 120.283 179.895 115.97Z" fill="#FFDC89"/>
<path d="M175.934 112.708C171.704 112.708 166.468 109.227 160.872 102.626C154.151 94.7048 147.7 83.228 142.674 70.296C137.663 57.364 134.693 44.537 134.303 34.1554C133.928 23.6988 136.223 16.9777 140.784 15.2074C145.345 13.4372 151.586 16.8577 158.352 24.8389C165.073 32.7602 171.524 44.2369 176.549 57.1689C181.56 70.101 184.531 82.9279 184.921 93.3095C185.296 103.766 183 110.487 178.44 112.257C177.645 112.558 176.804 112.708 175.934 112.708ZM143.289 15.1624C142.464 15.1624 141.684 15.2975 140.949 15.5825C138.744 16.4376 137.093 18.523 136.028 21.7785C134.993 24.959 134.558 29.1146 134.738 34.1254C135.113 44.462 138.068 57.244 143.079 70.131C148.075 83.018 154.511 94.4647 161.202 102.341C164.443 106.167 167.563 108.942 170.488 110.592C173.474 112.287 176.099 112.708 178.305 111.852C180.51 110.997 182.16 108.912 183.225 105.656C184.261 102.476 184.696 98.3203 184.516 93.3095C184.141 82.9729 181.185 70.191 176.174 57.304C171.179 44.417 164.743 32.9702 158.052 25.094C154.811 21.2684 151.691 18.4929 148.765 16.8427C146.77 15.7325 144.939 15.1624 143.289 15.1624Z" fill="#131F2D"/>
<path d="M145.423 56.2837L163.876 54.5734C166.247 54.3034 168.497 55.6686 169.352 57.889L170.792 61.5945C171.813 64.2199 170.912 67.2204 168.617 68.8557L153.045 79.9724C153.045 79.9874 141.718 70.6559 145.423 56.2837Z" fill="#FEBD17"/>
<path d="M168.544 69.0345C168.499 69.0195 164.404 67.2342 162.633 62.1034C161.703 59.403 162.048 57.4677 162.513 56.3125C163.008 55.0523 163.729 54.4372 163.759 54.4072L164.014 54.7073C164.014 54.7073 163.324 55.2924 162.873 56.4776C162.453 57.5577 162.123 59.403 163.008 61.9684C164.719 66.9342 168.664 68.6444 168.694 68.6594L168.544 69.0345Z" fill="#131F2D"/>
<path d="M94.0573 73.896L81.0203 81.5472C78.3349 83.1224 77.1797 86.4229 78.3049 89.3334L80.3452 94.5842C81.5154 97.5997 84.7709 99.2649 87.8914 98.4398L102.114 94.7042C102.114 94.7042 97.4928 93.579 94.5674 85.5828C92.317 79.3568 94.0573 73.896 94.0573 73.896Z" fill="#FEBD17"/>
<path d="M102.126 94.8848C102.081 94.8848 102.036 94.8698 102.006 94.8398C96.9655 90.6692 95.0302 85.1783 94.28 81.3227C93.4699 77.1371 93.86 73.8966 93.875 73.8666C93.89 73.7615 93.995 73.6865 94.1 73.6865C94.205 73.7015 94.28 73.8065 94.28 73.9116C94.28 73.9416 93.89 77.1371 94.6851 81.2477C95.4202 85.0433 97.3255 90.4141 102.276 94.5248C102.366 94.5998 102.366 94.7198 102.306 94.8098C102.231 94.8548 102.171 94.8848 102.126 94.8848Z" fill="#131F2D"/>
<path d="M117.08 96.6394C117.035 96.6394 116.99 96.6244 116.945 96.5944C112.744 92.9638 109.429 89.0182 107.104 84.8776C105.228 81.562 103.983 78.1115 103.368 74.631C102.348 68.69 103.593 64.6394 103.608 64.5944C103.638 64.4894 103.758 64.4294 103.863 64.4594C103.968 64.4894 104.028 64.6094 103.998 64.7144C103.983 64.7594 102.768 68.735 103.773 74.586C104.373 78.0215 105.603 81.427 107.464 84.6975C109.774 88.7932 113.06 92.6938 117.215 96.2943C117.305 96.3693 117.305 96.4894 117.23 96.5794C117.185 96.6094 117.125 96.6394 117.08 96.6394Z" fill="#131F2D"/>
<path d="M175.78 34.3828C175.615 34.3828 175.435 34.3527 175.27 34.2927C174.52 34.0077 174.145 33.1676 174.415 32.4174L186.281 0.942568C186.566 0.192452 187.407 -0.182607 188.157 0.0874352C188.907 0.372479 189.282 1.21261 189.012 1.96273L177.13 33.4376C176.92 34.0227 176.365 34.3828 175.78 34.3828Z" fill="#FEBD17"/>
<path d="M187.442 44.5248C186.977 44.5248 186.527 44.2997 186.241 43.8947C185.791 43.2346 185.956 42.3194 186.617 41.8694L230.453 11.7747C231.113 11.3246 232.029 11.4896 232.479 12.1497C232.929 12.8099 232.764 13.725 232.104 14.1751L188.267 44.2697C188.012 44.4348 187.727 44.5248 187.442 44.5248Z" fill="#FEBD17"/>
<path d="M211.159 60.2914L190.516 60.1414C189.706 60.1414 189.06 59.4813 189.075 58.6712C189.075 57.8611 189.736 57.231 190.546 57.231L211.174 57.381C211.984 57.381 212.629 58.0411 212.614 58.8512C212.614 59.6463 211.954 60.2914 211.159 60.2914Z" fill="#FEBD17"/>
</svg>
