<svg version="1.2" xmlns="http://www.w3.org/2000/svg" viewBox="0 0 1188 882" width="1188" height="882">
	<title>3024050-ai</title>
	<style>
		.s0 { fill: #f5f5f5 } 
		.s1 { fill: #e0e0e0 } 
		.s2 { fill: none;stroke: #ffffff;stroke-width: 2 } 
		.s3 { opacity: .2;fill: #000000 } 
		.s4 { fill: #263238 } 
		.s5 { fill: #ffbe26 } 
		.s6 { fill: #e8505b } 
		.s7 { fill: #ffffff } 
	</style>
	<g id="Background Complete">
		<g id="&lt;Group&gt;">
			<g id="&lt;Group&gt;">
				<path id="&lt;Path&gt;" class="s0" d="m472.8 575l-224.4 150.1-221.1-330.4 224.5-150.1z"/>
			</g>
			<g id="&lt;Group&gt;">
				<g id="&lt;Group&gt;">
					<path id="&lt;Path&gt;" class="s1" d="m356.8 559.3l-2.5 15.8-111.6-16.1 2.6-15.8z"/>
				</g>
				<g id="&lt;Group&gt;">
					<path id="&lt;Path&gt;" class="s1" d="m300.7 503.1l16 2.3-17.8 109.8-16-2.3z"/>
				</g>
			</g>
			<g id="&lt;Group&gt;">
				<g id="&lt;Group&gt;">
					<path id="&lt;Path&gt;" class="s2" d=""/>
				</g>
			</g>
			<g id="&lt;Group&gt;">
				<g id="&lt;Group&gt;">
					<path id="&lt;Path&gt;" class="s1" d="m197.9 363.5c0.2 0.2-22.3 15.6-50.2 34.2-27.9 18.7-50.7 33.6-50.8 33.4-0.2-0.3 22.3-15.6 50.2-34.3 27.9-18.6 50.6-33.5 50.8-33.3z"/>
				</g>
			</g>
			<g id="&lt;Group&gt;">
				<g id="&lt;Group&gt;">
					<path id="&lt;Path&gt;" class="s1" d="m280.4 342.8c0.2 0.2-37.2 25.5-83.5 56.5-46.3 30.9-83.9 55.8-84.1 55.6-0.2-0.2 37.2-25.5 83.5-56.5 46.3-31 84-55.9 84.1-55.6z"/>
				</g>
			</g>
			<g id="&lt;Group&gt;">
				<g id="&lt;Group&gt;">
					<path id="&lt;Path&gt;" class="s1" d="m297 367.5c0.1 0.2-37.3 25.5-83.5 56.5-46.3 31-84 55.9-84.2 55.6-0.1-0.2 37.3-25.5 83.6-56.5 46.3-30.9 83.9-55.8 84.1-55.6z"/>
				</g>
			</g>
			<g id="&lt;Group&gt;">
				<g id="&lt;Group&gt;">
					<path id="&lt;Path&gt;" class="s1" d="m313.5 392.2c0.2 0.3-37.2 25.6-83.5 56.5-46.3 31-83.9 55.9-84.1 55.7-0.2-0.3 37.2-25.6 83.5-56.5 46.3-31 84-55.9 84.1-55.7z"/>
				</g>
			</g>
			<g id="&lt;Group&gt;">
				<g id="&lt;Group&gt;">
					<path id="&lt;Path&gt;" class="s1" d="m330.1 417c0.1 0.2-37.3 25.5-83.6 56.5-46.3 30.9-83.9 55.8-84.1 55.6-0.1-0.3 37.3-25.5 83.6-56.5 46.2-31 83.9-55.9 84.1-55.6z"/>
				</g>
			</g>
		</g>
		<g id="&lt;Group&gt;">
			<g id="&lt;Group&gt;">
				<path id="&lt;Path&gt;" class="s0" d="m1187.8 743.5l-188.5 126.1-185.6-277.5 188.4-126.1z"/>
			</g>
			<g id="&lt;Group&gt;">
				<g id="&lt;Group&gt;">
					<path id="&lt;Path&gt;" class="s1" d="m1090.4 730.4l-2.1 13.2-93.7-13.5 2.1-13.2z"/>
				</g>
				<g id="&lt;Group&gt;">
					<path id="&lt;Path&gt;" class="s1" d="m1043.2 683.1l13.5 2-14.9 92.2-13.5-1.9z"/>
				</g>
			</g>
			<g id="&lt;Group&gt;">
				<g id="&lt;Group&gt;">
					<path id="&lt;Path&gt;" class="s2" d=""/>
				</g>
			</g>
			<g id="&lt;Group&gt;">
				<g id="&lt;Group&gt;">
					<path id="&lt;Path&gt;" class="s1" d="m956.9 565.9c0.2 0.2-18.7 13.1-42.1 28.8-23.4 15.7-42.6 28.2-42.7 27.9-0.2-0.2 18.7-13.1 42.1-28.8 23.4-15.6 42.6-28.1 42.7-27.9z"/>
				</g>
			</g>
			<g id="&lt;Group&gt;">
				<g id="&lt;Group&gt;">
					<path id="&lt;Path&gt;" class="s1" d="m1026.2 548.5c0.2 0.2-31.2 21.5-70.1 47.5-38.8 26-70.5 46.9-70.6 46.7-0.2-0.3 31.2-21.6 70.1-47.6 38.8-26 70.5-46.8 70.6-46.6z"/>
				</g>
			</g>
			<g id="&lt;Group&gt;">
				<g id="&lt;Group&gt;">
					<path id="&lt;Path&gt;" class="s1" d="m1040.1 569.3c0.2 0.2-31.2 21.5-70.1 47.5-38.9 26-70.5 46.9-70.7 46.6-0.1-0.2 31.3-21.5 70.1-47.5 38.9-26 70.6-46.9 70.7-46.6z"/>
				</g>
			</g>
			<g id="&lt;Group&gt;">
				<g id="&lt;Group&gt;">
					<path id="&lt;Path&gt;" class="s1" d="m1054 590c0.2 0.3-31.2 21.6-70.1 47.6-38.9 26-70.5 46.8-70.7 46.6-0.1-0.2 31.3-21.5 70.1-47.5 38.9-26 70.6-46.9 70.7-46.7z"/>
				</g>
			</g>
			<g id="&lt;Group&gt;">
				<g id="&lt;Group&gt;">
					<path id="&lt;Path&gt;" class="s1" d="m1067.9 610.8c0.2 0.3-31.2 21.5-70.1 47.5-38.9 26-70.5 46.9-70.7 46.7-0.1-0.3 31.3-21.5 70.1-47.5 38.9-26 70.5-46.9 70.7-46.7z"/>
				</g>
			</g>
		</g>
		<g id="&lt;Group&gt;">
			<g id="&lt;Group&gt;">
				<path id="&lt;Path&gt;" class="s0" d="m542 559.5l-205.6-110 161.9-302.8 205.7 110z"/>
			</g>
			<g id="&lt;Group&gt;">
				<g id="&lt;Group&gt;">
					<path id="&lt;Path&gt;" class="s1" d="m506.8 464.7l-13 4.5-33.1-91.5 13-4.5z"/>
				</g>
				<g id="&lt;Group&gt;">
					<path id="&lt;Path&gt;" class="s1" d="m526.8 399.1l4.8 13.1-90.9 31.1-4.8-13.1z"/>
				</g>
			</g>
			<g id="&lt;Group&gt;">
				<g id="&lt;Group&gt;">
					<path id="&lt;Path&gt;" class="s2" d=""/>
				</g>
			</g>
			<g id="&lt;Group&gt;">
				<g id="&lt;Group&gt;">
					<path id="&lt;Path&gt;" class="s1" d="m591.4 264c-0.1 0.3-21-10.6-46.5-24.2-25.6-13.7-46.2-25-46-25.3 0.1-0.3 21 10.5 46.6 24.2 25.5 13.7 46.1 25 45.9 25.3z"/>
				</g>
			</g>
			<g id="&lt;Group&gt;">
				<g id="&lt;Group&gt;">
					<path id="&lt;Path&gt;" class="s1" d="m640.8 318.5c-0.2 0.3-34.7-17.9-77.1-40.6-42.4-22.7-76.7-41.3-76.5-41.6 0.2-0.3 34.7 17.8 77.1 40.5 42.4 22.7 76.7 41.4 76.5 41.7z"/>
				</g>
			</g>
			<g id="&lt;Group&gt;">
				<g id="&lt;Group&gt;">
					<path id="&lt;Path&gt;" class="s1" d="m628.7 341.1c-0.2 0.3-34.7-17.8-77.1-40.5-42.4-22.7-76.7-41.3-76.5-41.6 0.1-0.3 34.6 17.8 77.1 40.5 42.4 22.7 76.6 41.3 76.5 41.6z"/>
				</g>
			</g>
			<g id="&lt;Group&gt;">
				<g id="&lt;Group&gt;">
					<path id="&lt;Path&gt;" class="s1" d="m616.6 363.8c-0.2 0.3-34.7-17.9-77.1-40.5-42.5-22.7-76.7-41.4-76.5-41.7 0.1-0.3 34.6 17.9 77 40.6 42.5 22.6 76.7 41.3 76.6 41.6z"/>
				</g>
			</g>
			<g id="&lt;Group&gt;">
				<g id="&lt;Group&gt;">
					<path id="&lt;Path&gt;" class="s1" d="m604.4 386.4c-0.1 0.3-34.6-17.8-77.1-40.5-42.4-22.7-76.6-41.3-76.5-41.6 0.2-0.3 34.7 17.8 77.1 40.5 42.4 22.7 76.7 41.3 76.5 41.6z"/>
				</g>
			</g>
		</g>
		<path id="&lt;Path&gt;" class="s3" d="m605.5 88h-5.2v-88h5.2z"/>
	</g>
	<g id="Floor">
		<g id="&lt;Group&gt;">
			<g id="&lt;Group&gt;">
				<path id="&lt;Path&gt;" class="s4" d="m1139.3 879.7c0 0.2-258.5 0.5-577.3 0.5-318.9 0-577.3-0.3-577.3-0.5 0-0.3 258.4-0.6 577.3-0.6 318.8 0 577.3 0.3 577.3 0.6z"/>
			</g>
		</g>
	</g>
	<g id="Plant">
		<g id="&lt;Group&gt;">
			<g id="&lt;Group&gt;">
				<path id="&lt;Path&gt;" class="s5" d="m48.6 754.4c6.7 0.2 13.1 3.9 17.5 9 4.5 5.1 7.2 11.5 9 18 3.4 12.7 1.3 27.6-2.3 40.2-13.7-4.9-22.2-19.5-26-27.2-6-12.1-9.5-37.7 1.8-40z"/>
			</g>
			<g id="&lt;Group&gt;">
				<path id="&lt;Path&gt;" class="s5" d="m92.5 836.9c-4.3-6.2-4.4-14.8-1-21.6 3.4-6.7 10-11.6 17.2-13.8 3.3-1 7.2-1.4 10.1 0.5 2.7 1.8 3.9 5.4 3.5 8.6-0.3 3.3-2 6.2-3.9 8.9-6.7 9-14.7 16.5-25.9 17.4z"/>
			</g>
			<g id="&lt;Group&gt;">
				<g id="&lt;Group&gt;">
					<path id="&lt;Path&gt;" class="s4" d="m94 879.2c-0.1 0-0.3-1-0.6-2.7q-0.6-2.8-1.4-7.2c-1.1-6-2.8-14.6-1.5-24.2 1.2-9.5 5-17.6 9-22.4 1.9-2.5 3.8-4.2 5.1-5.3 0.7-0.5 1.3-0.9 1.7-1.1q0.6-0.4 0.6-0.4c0.1 0.2-3.2 2.3-6.9 7.2-3.8 4.9-7.4 12.8-8.6 22.2-1.3 9.3 0.3 17.8 1.2 23.9 0.5 3.1 0.9 5.6 1.1 7.3 0.3 1.7 0.4 2.7 0.3 2.7z"/>
				</g>
			</g>
			<g id="&lt;Group&gt;">
				<g id="&lt;Group&gt;">
					<path id="&lt;Path&gt;" class="s4" d="m53 773.7q0-0.1 0.5 1 0.6 1.2 1.4 3c1.3 2.7 3 6.6 5 11.3 4.1 9.6 9.7 22.9 15.4 37.8 5.8 14.8 10.7 28.4 14.1 38.2 1.7 4.9 3 8.9 3.9 11.7q0.7 2 1 3.2 0.4 1.1 0.3 1.2 0 0-0.4-1.1-0.5-1.2-1.2-3.2c-1.1-2.8-2.5-6.7-4.2-11.6-3.6-9.7-8.6-23.3-14.4-38.1-5.7-14.8-11.1-28.2-15.1-37.8-1.9-4.7-3.5-8.6-4.7-11.4q-0.8-1.9-1.2-3.1-0.5-1.1-0.4-1.1z"/>
				</g>
			</g>
			<g id="&lt;Group&gt;">
				<path id="&lt;Path&gt;" class="s5" d="m77.9 852.3c-15.7 6.4-35.1 2-46.6-10.4-2.7-3-5.1-7.3-3.3-10.9 1.8-3.7 6.6-4.3 10.7-4.1 15.9 1.2 31 10.6 39 24.3"/>
			</g>
			<g id="&lt;Group&gt;">
				<g id="&lt;Group&gt;">
					<path id="&lt;Path&gt;" class="s4" d="m44.9 837.8c0-0.1 0.9 0 2.5 0.1 0.8 0 1.8 0.1 2.9 0.3 1.2 0.2 2.5 0.4 3.9 0.8 1.4 0.3 3 0.6 4.6 1.2 1.7 0.5 3.4 1.2 5.2 2 3.5 1.6 7.3 3.7 10.8 6.4 3.6 2.8 6.5 5.8 9 8.9 1.1 1.5 2.3 3 3.1 4.5 1 1.4 1.7 2.9 2.4 4.2 0.7 1.2 1.1 2.5 1.6 3.6 0.5 1 0.8 2 1 2.8 0.5 1.5 0.7 2.4 0.7 2.4-0.3 0.1-1.2-3.4-3.9-8.5-0.7-1.3-1.5-2.7-2.4-4.1-0.9-1.4-2-2.9-3.2-4.4-2.4-2.9-5.4-5.9-8.9-8.6-3.5-2.7-7.1-4.8-10.6-6.4-1.7-0.8-3.4-1.5-5-2-1.6-0.6-3.1-1-4.5-1.4-5.6-1.4-9.3-1.6-9.2-1.8z"/>
				</g>
			</g>
		</g>
	</g>
	<g id="Folder">
		<g id="&lt;Group&gt;">
			<g id="&lt;Group&gt;">
				<path id="&lt;Path&gt;" class="s6" d="m432.5 445l477.8-0.5c16.1 0 27.4 22.1 22.3 43.3l-83.8 343.3c-6.8 27.9-25.5 46.8-46.7 46.9l-472.2 2.3 9.3-47.6 70.7-363.6c2.8-14.2 12-24 22.6-24.1z"/>
			</g>
			<g id="&lt;Group&gt;" style="opacity: .5">
				<path id="&lt;Path&gt;" class="s5" d="m432.5 445l477.8-0.5c16.1 0 27.4 22.1 22.3 43.3l-83.8 343.3c-6.8 27.9-25.5 46.8-46.7 46.9l-472.2 2.3 9.3-47.6 70.7-363.6c2.8-14.2 12-24 22.6-24.1z"/>
			</g>
			<g id="&lt;Group&gt;">
				<path id="&lt;Path&gt;" class="s5" d="m830.6 864.6c0 0-5.6 17.5-64.8 16.3l-531.3 1c-15.5 0.1-28.6-12.2-30.7-28.7l-46.4-372.3c-2.4-19.8 11.9-37.5 30.5-37.6l304.9-1.5 52-55.4c5.8-6.1 13.5-9.5 21.7-9.6l109.6-0.3c15.5-0.1 28.6 12.2 30.7 28.7l50 402.9c0 0 6 71.6 73.8 56.5z"/>
			</g>
			<g id="&lt;Group&gt;" style="opacity: .5">
				<path id="&lt;Path&gt;" class="s7" d="m527.7 727.4l-17.9 19.3-138-124.2 17.9-19.2z"/>
				<path id="&lt;Path&gt;" class="s7" d="m502.3 599l19.8 17.8-124.9 134.1-19.8-17.8z"/>
			</g>
		</g>
	</g>
</svg>