<svg width="445" height="445" viewBox="0 0 445 445" fill="none" xmlns="http://www.w3.org/2000/svg">
<path d="M445 340.336H0V340.558H445V340.336Z" fill="#EBEBEB"/>
<path d="M400.41 354.656H370.934V354.879H400.41V354.656Z" fill="#EBEBEB"/>
<path d="M294.785 357.077H287.051V357.3H294.785V357.077Z" fill="#EBEBEB"/>
<path d="M370.044 346.397H352.965V346.619H370.044V346.397Z" fill="#EBEBEB"/>
<path d="M85.1286 347.892H46.6895V348.115H85.1286V347.892Z" fill="#EBEBEB"/>
<path d="M98.6923 347.892H93.0586V348.115H98.6923V347.892Z" fill="#EBEBEB"/>
<path d="M200.383 351.648H117.008V351.87H200.383V351.648Z" fill="#EBEBEB"/>
<path d="M210.931 300.642H39.0808C37.7346 300.64 36.4442 300.103 35.4931 299.151C34.542 298.198 34.0078 296.907 34.0078 295.56V53.9876C34.0195 52.6491 34.5589 51.3692 35.5087 50.426C36.4586 49.4828 37.7422 48.9525 39.0808 48.9502H210.931C212.279 48.9502 213.571 49.4856 214.524 50.4386C215.477 51.3917 216.013 52.6843 216.013 54.0321V295.56C216.013 296.908 215.477 298.201 214.524 299.154C213.571 300.107 212.279 300.642 210.931 300.642ZM39.0808 49.1282C37.7936 49.1306 36.5598 49.6436 35.6505 50.5546C34.7411 51.4657 34.2303 52.7003 34.2303 53.9876V295.56C34.2303 296.848 34.7411 298.082 35.6505 298.993C36.5598 299.904 37.7936 300.417 39.0808 300.42H210.931C212.219 300.417 213.454 299.905 214.364 298.994C215.275 298.083 215.788 296.848 215.79 295.56V53.9876C215.788 52.6995 215.275 51.4649 214.364 50.5541C213.454 49.6433 212.219 49.1305 210.931 49.1282H39.0808Z" fill="#EBEBEB"/>
<path d="M403.447 300.642H231.588C230.241 300.64 228.949 300.104 227.997 299.151C227.044 298.199 226.508 296.907 226.506 295.56V53.9876C226.52 52.6482 227.061 51.3684 228.013 50.4255C228.964 49.4825 230.248 48.9525 231.588 48.9502H403.447C404.784 48.9548 406.065 49.4862 407.013 50.4291C407.961 51.3721 408.499 52.6506 408.511 53.9876V295.56C408.511 296.905 407.978 298.195 407.029 299.147C406.079 300.1 404.791 300.637 403.447 300.642ZM231.588 49.1282C230.3 49.1305 229.065 49.6433 228.154 50.5541C227.243 51.4649 226.731 52.6995 226.728 53.9876V295.56C226.731 296.848 227.243 298.083 228.154 298.994C229.065 299.905 230.3 300.417 231.588 300.42H403.447C404.735 300.417 405.969 299.905 406.88 298.994C407.791 298.083 408.304 296.848 408.306 295.56V53.9876C408.304 52.6995 407.791 51.4649 406.88 50.5541C405.969 49.6433 404.735 49.1305 403.447 49.1282H231.588Z" fill="#EBEBEB"/>
<path d="M194.42 254.424H81.9062V262.363H194.42V254.424Z" fill="#EBEBEB"/>
<path d="M194.421 254.424H145.498V262.363H194.421V254.424Z" fill="#E0E0E0"/>
<path d="M98.5314 262.363H81.9062V340.336H98.5314V262.363Z" fill="#EBEBEB"/>
<path d="M98.5314 270.409L81.9062 264.748V262.363H98.5314V270.409Z" fill="#E0E0E0"/>
<path d="M194.42 262.363H177.795V340.336H194.42V262.363Z" fill="#E0E0E0"/>
<path d="M162.123 262.363H145.498V340.336H162.123V262.363Z" fill="#EBEBEB"/>
<path d="M162.114 270.409L145.498 264.748V262.363H162.114V270.409Z" fill="#E0E0E0"/>
<path d="M130.83 262.363H114.205V340.336H130.83V262.363Z" fill="#E0E0E0"/>
<path d="M204.993 77.5815H63.1895V198.328H204.993V77.5815Z" fill="#EBEBEB"/>
<path d="M204.994 198.319H206.578L206.578 77.5726H204.994L204.994 198.319Z" fill="#E0E0E0"/>
<path d="M199.662 192.979V82.9126L68.5384 82.9126V192.979H199.662Z" fill="#F5F5F5"/>
<path d="M132.512 176.274C140.522 149.574 142.747 110.191 159.781 115.62C176.816 121.049 154.504 179.282 154.504 179.282L132.512 176.274Z" fill="white"/>
<path d="M146.271 177.6C138.119 138.902 140.175 87.5315 114.845 88.7063C89.516 89.8811 114.845 179.282 114.845 179.282L146.271 177.6Z" fill="white"/>
<path d="M164.17 173.257H108.714C107.583 173.22 106.482 173.63 105.65 174.397C104.817 175.165 104.32 176.229 104.264 177.36C103.134 202.903 107.317 228.98 115.105 254.425H157.567C165.354 228.935 169.537 202.903 168.407 177.36C168.363 176.262 167.899 175.224 167.11 174.46C166.321 173.696 165.269 173.265 164.17 173.257Z" fill="#EBEBEB"/>
<path d="M290.317 91.0474H287.193V340.336H290.317V91.0474Z" fill="#E0E0E0"/>
<path d="M363.733 91.0474H360.609V340.336H363.733V91.0474Z" fill="#E0E0E0"/>
<path d="M268.167 91.0474H265.043V340.336H268.167V91.0474Z" fill="#EBEBEB"/>
<path d="M341.583 91.0474H338.459V340.336H341.583V91.0474Z" fill="#EBEBEB"/>
<path d="M363.735 89.3384H265.043V92.7471H363.735V89.3384Z" fill="#EBEBEB"/>
<path d="M363.735 150.383H265.043V153.792H363.735V150.383Z" fill="#EBEBEB"/>
<path d="M363.735 211.429H265.043V214.837H363.735V211.429Z" fill="#EBEBEB"/>
<path d="M363.735 272.474H265.043V275.882H363.735V272.474Z" fill="#EBEBEB"/>
<path d="M363.735 333.519H265.043V336.927H363.735V333.519Z" fill="#EBEBEB"/>
<path d="M363.734 89.3384H341.582V92.7471H363.734V89.3384Z" fill="#E0E0E0"/>
<path d="M363.734 150.383H341.582V153.792H363.734V150.383Z" fill="#E0E0E0"/>
<path d="M363.734 211.429H341.582V214.837H363.734V211.429Z" fill="#E0E0E0"/>
<path d="M363.734 272.474H341.582V275.882H363.734V272.474Z" fill="#E0E0E0"/>
<path d="M363.734 333.519H341.582V336.927H363.734V333.519Z" fill="#E0E0E0"/>
<path d="M304.852 110.102V105.296H292.988V110.102C292.988 111.609 292.39 113.054 291.326 114.12C290.261 115.186 288.817 115.787 287.31 115.789C285.803 115.789 284.358 116.387 283.292 117.452C282.226 118.516 281.625 119.96 281.623 121.467V150.41H316.226V121.467C316.224 119.96 315.624 118.516 314.557 117.452C313.491 116.387 312.046 115.789 310.539 115.789C309.031 115.789 307.584 115.19 306.518 114.123C305.451 113.057 304.852 111.61 304.852 110.102Z" fill="#F0F0F0"/>
<path d="M329.406 191.582H277.412V211.437H329.406V191.582Z" fill="#F0F0F0"/>
<path d="M329.408 211.429H338.459V191.573H329.408V211.429Z" fill="#E6E6E6"/>
<path d="M329.408 202.6H338.459V200.41H329.408V202.6Z" fill="#EBEBEB"/>
<path d="M329.406 200.41H277.412V202.6H329.406V200.41Z" fill="#F5F5F5"/>
<path d="M315.478 298.417H274.867V333.519H315.478V298.417Z" fill="#F0F0F0"/>
<path d="M315.478 333.528H322.545V298.426H315.478V333.528Z" fill="#E6E6E6"/>
<path d="M315.478 317.908H322.545V314.037H315.478V317.908Z" fill="#EBEBEB"/>
<path d="M315.478 314.037H274.867V317.908H315.478V314.037Z" fill="#F5F5F5"/>
<path d="M315.478 311.322H322.545V309.943H315.478V311.322Z" fill="#EBEBEB"/>
<path d="M315.478 309.943H274.867V311.322H315.478V309.943Z" fill="#F5F5F5"/>
<path d="M284.763 236.785H277.412V272.474H284.763V236.785Z" fill="#F0F0F0"/>
<path d="M284.763 249.503H277.412V259.756H284.763V249.503Z" fill="#FAFAFA"/>
<path d="M284.764 272.482H309.773V236.793H284.764V272.482Z" fill="#E6E6E6"/>
<path d="M296.12 232.174H287.816V272.473H296.12V232.174Z" fill="#EBEBEB"/>
<path d="M296.12 244.981H287.816V251.185H296.12V244.981Z" fill="#FAFAFA"/>
<path d="M296.12 255.341H287.816V261.545H296.12V255.341Z" fill="#FAFAFA"/>
<path d="M296.129 272.474H324.369V232.174H296.129V272.474Z" fill="#E0E0E0"/>
<path d="M305.367 236.785H300.891V272.474H305.367V236.785Z" fill="#F0F0F0"/>
<path d="M304.593 241.306H301.656V267.952H304.593V241.306Z" fill="#FAFAFA"/>
<path d="M305.358 272.482H320.568V236.793H305.358V272.482Z" fill="#E6E6E6"/>
<path d="M317.321 234.907H312.266V272.474H317.321V234.907Z" fill="#EBEBEB"/>
<path d="M317.321 246.842H312.266V252.627H317.321V246.842Z" fill="#FAFAFA"/>
<path d="M317.321 256.507H312.266V262.292H317.321V256.507Z" fill="#FAFAFA"/>
<path d="M317.321 272.474H334.498V234.907H317.321V272.474Z" fill="#E0E0E0"/>
<path d="M315.022 188.339C319.345 184.015 319.345 177.005 315.022 172.681C310.698 168.358 303.688 168.358 299.364 172.681C295.04 177.005 295.04 184.015 299.364 188.339C303.688 192.663 310.698 192.663 315.022 188.339Z" fill="#F5F5F5"/>
<path d="M320.678 191.458C324.86 190.779 327.7 186.838 327.021 182.656C326.342 178.473 322.401 175.633 318.219 176.312C314.037 176.991 311.197 180.932 311.876 185.114C312.555 189.296 316.495 192.137 320.678 191.458Z" fill="#EBEBEB"/>
<path d="M222.5 380.529C317.803 380.529 395.062 376.018 395.062 370.454C395.062 364.89 317.803 360.379 222.5 360.379C127.196 360.379 49.9375 364.89 49.9375 370.454C49.9375 376.018 127.196 380.529 222.5 380.529Z" fill="#F5F5F5"/>
<path d="M112.238 301.434H226.55V360.45C226.55 361.206 226.401 361.955 226.112 362.654C225.822 363.352 225.398 363.987 224.863 364.522C224.329 365.056 223.694 365.481 222.995 365.77C222.297 366.059 221.548 366.208 220.792 366.208H117.997C117.24 366.208 116.492 366.059 115.793 365.77C115.094 365.481 114.46 365.056 113.925 364.522C113.39 363.987 112.966 363.352 112.677 362.654C112.387 361.955 112.238 361.206 112.238 360.45V301.434Z" fill="#FEBD17"/>
<path d="M112.239 301.434H193.131L183.181 288.698C182.086 287.301 179.38 286.17 177.129 286.17H104.38C102.137 286.17 101.194 287.301 102.288 288.698L112.239 301.434Z" fill="#FEBD17"/>
<path opacity="0.2" d="M112.239 301.434H193.131L183.181 288.698C182.086 287.301 179.38 286.17 177.129 286.17H104.38C102.137 286.17 101.194 287.301 102.288 288.698L112.239 301.434Z" fill="black"/>
<path d="M226.551 301.434H145.668L155.618 293.13C156.713 292.24 159.418 291.484 161.67 291.484H234.41C236.662 291.484 237.596 292.223 236.501 293.13L226.551 301.434Z" fill="#FEBD17"/>
<path opacity="0.2" d="M145.668 301.434H226.551V360.45C226.551 361.206 226.402 361.955 226.113 362.654C225.823 363.352 225.399 363.987 224.865 364.522C224.33 365.056 223.695 365.481 222.996 365.77C222.298 366.059 221.549 366.208 220.793 366.208H151.426C150.67 366.208 149.921 366.059 149.223 365.77C148.524 365.481 147.889 365.056 147.355 364.522C146.82 363.987 146.396 363.352 146.106 362.654C145.817 361.955 145.668 361.206 145.668 360.45V301.434Z" fill="white"/>
<path opacity="0.5" d="M122.277 301.434V341.911L125.072 339.704L127.039 341.911L128.748 339.455L130.501 341.911L132.94 340.069L135.627 341.911V301.434H122.277Z" fill="white"/>
</svg>
