<svg width="22" height="22" viewBox="0 0 22 22" fill="none" xmlns="http://www.w3.org/2000/svg">
<path d="M6.6002 0H15.3979C19.0361 0 21.9961 2.96004 21.9961 6.59824V11.7302C21.9961 15.2456 19.2329 18.1276 15.7644 18.3185V21.3772C15.7644 21.7207 15.4844 22 15.1402 22C14.9756 22 14.8198 21.9348 14.7021 21.8171L14.0144 21.1294C12.2087 19.3233 9.80731 18.3284 7.25306 18.3284H6.6002C2.962 18.3284 0.00196075 15.3684 0.00196075 11.7302V6.59824C0.00196075 2.96004 2.962 0 6.6002 0ZM15.7644 10.6305C16.5731 10.6305 17.2307 9.97287 17.2307 9.16422C17.2307 8.35557 16.5731 7.69795 15.7644 7.69795C14.9558 7.69795 14.2981 8.35557 14.2981 9.16422C14.2981 9.97287 14.9561 10.6305 15.7644 10.6305ZM10.999 10.6305C11.8077 10.6305 12.4653 9.97287 12.4653 9.16422C12.4653 8.35557 11.8077 7.69795 10.999 7.69795C10.1904 7.69795 9.53275 8.35557 9.53275 9.16422C9.53275 9.97287 10.1907 10.6305 10.999 10.6305ZM6.23363 10.6305C7.04228 10.6305 7.69991 9.97287 7.69991 9.16422C7.69991 8.35557 7.04228 7.69795 6.23363 7.69795C5.42498 7.69795 4.76735 8.35557 4.76735 9.16422C4.76735 9.97287 5.42535 10.6305 6.23363 10.6305Z" fill="#00A912"/>
</svg>
