<svg width="22" height="22" viewBox="0 0 22 22" fill="none" xmlns="http://www.w3.org/2000/svg">
<path d="M2.29165 9.625C1.0285 9.625 0 10.6535 0 11.9167V19.25C0 20.5132 1.0285 21.5417 2.29165 21.5417H5.04165C5.55775 21.5417 6.03255 21.3675 6.41665 21.0778V9.625H2.29165Z" fill="#FEBD17"/>
<path d="M22.0006 13.0626C22.0006 12.5117 21.7825 11.9984 21.4039 11.6198C21.832 11.1514 22.0501 10.5235 21.9905 9.8699C21.8833 8.7048 20.8337 7.7918 19.5999 7.7918H13.9376C14.2181 6.9402 14.6673 5.37915 14.6673 4.12515C14.6673 2.1369 12.9779 0.458496 11.9173 0.458496C10.9649 0.458496 10.2847 0.994746 10.2554 1.01675C10.1472 1.10384 10.084 1.23584 10.084 1.37515V4.48355L7.44398 10.2026L7.33398 10.2586V20.0834C8.08014 20.4354 9.02429 20.6251 9.62564 20.6251H18.0397C19.038 20.6251 19.9116 19.9523 20.1169 19.0237C20.2223 18.5461 20.1609 18.0649 19.951 17.6469C20.6284 17.3059 21.084 16.6083 21.084 15.8126C21.084 15.4881 21.0097 15.1774 20.8686 14.896C21.546 14.555 22.0006 13.8574 22.0006 13.0626Z" fill="#FEBD17"/>
</svg>
