<svg width="23" height="24" viewBox="0 0 23 24" fill="none" xmlns="http://www.w3.org/2000/svg">
<path d="M20.5012 16.7881H22.6843V18.9443H0.853516V16.7881H3.03659V9.24169C3.03659 6.95433 3.9566 4.76065 5.59423 3.14325C7.23185 1.52584 9.45295 0.617188 11.7689 0.617188C14.0849 0.617188 16.306 1.52584 17.9436 3.14325C19.5812 4.76065 20.5012 6.95433 20.5012 9.24169V16.7881ZM18.3181 16.7881V9.24169C18.3181 7.52617 17.6281 5.88091 16.3999 4.66786C15.1717 3.4548 13.5059 2.77331 11.7689 2.77331C10.0319 2.77331 8.36612 3.4548 7.1379 4.66786C5.90968 5.88091 5.21967 7.52617 5.21967 9.24169V16.7881H18.3181ZM8.49429 21.1004H15.0435V23.2565H8.49429V21.1004Z" fill="#7A7979"/>
</svg>
