<svg width="24" height="26" viewBox="0 0 24 26" fill="none" xmlns="http://www.w3.org/2000/svg">
<path d="M4.164 8.37595C4.02642 8.17382 3.94654 7.938 3.93297 7.69386C3.9194 7.44973 3.97265 7.20651 4.08698 6.99038C4.20132 6.77424 4.37242 6.59337 4.58187 6.46722C4.79133 6.34106 5.03121 6.2744 5.27573 6.2744C5.52024 6.2744 5.76013 6.34106 5.96958 6.46722C6.17904 6.59337 6.35013 6.77424 6.46447 6.99038C6.57881 7.20651 6.63205 7.44973 6.61848 7.69386C6.60491 7.938 6.52504 8.17382 6.38745 8.37595C6.88748 8.66399 7.25688 9.13409 7.41848 9.68805C7.72116 9.28911 7.90644 8.81359 7.95349 8.31504C8.00053 7.81649 7.90745 7.3147 7.68475 6.86619C7.46204 6.41767 7.11854 6.04023 6.69293 5.77637C6.26731 5.51252 5.77649 5.37272 5.27573 5.37272C4.77496 5.37272 4.28414 5.51252 3.85853 5.77637C3.43292 6.04023 3.08942 6.41767 2.86671 6.86619C2.644 7.3147 2.55093 7.81649 2.59797 8.31504C2.64501 8.81359 2.8303 9.28911 3.13297 9.68805C3.29458 9.13409 3.66398 8.66399 4.164 8.37595Z" fill="white"/>
<path d="M5.27573 8.06897C5.5233 8.06897 5.724 7.86827 5.724 7.62069C5.724 7.37311 5.5233 7.17241 5.27573 7.17241C5.02815 7.17241 4.82745 7.37311 4.82745 7.62069C4.82745 7.86827 5.02815 8.06897 5.27573 8.06897Z" fill="white"/>
<path d="M5.27573 19.7241C4.91906 19.7241 4.57699 19.8658 4.32479 20.118C4.07259 20.3702 3.9309 20.7123 3.9309 21.069V21.1532C4.33899 21.3916 4.80311 21.5172 5.27573 21.5172C5.74834 21.5172 6.21246 21.3916 6.62055 21.1532V21.069C6.62055 20.7123 6.47887 20.3702 6.22666 20.118C5.97446 19.8658 5.6324 19.7241 5.27573 19.7241Z" fill="white"/>
<path d="M5.27573 8.96552C4.91906 8.96552 4.57699 9.1072 4.32479 9.35941C4.07259 9.61161 3.9309 9.95367 3.9309 10.3103V10.3946C4.33899 10.633 4.80311 10.7586 5.27573 10.7586C5.74834 10.7586 6.21246 10.633 6.62055 10.3946V10.3103C6.62055 9.95367 6.47887 9.61161 6.22666 9.35941C5.97446 9.1072 5.6324 8.96552 5.27573 8.96552Z" fill="white"/>
<path d="M14.2412 7.358L13.2133 8.3859C13.1293 8.46994 13.0153 8.51715 12.8964 8.51715C12.7776 8.51715 12.6636 8.46994 12.5795 8.3859L11.6829 7.48935L12.3168 6.85548L12.8964 7.4351L14.0557 6.27586H11.5516V8.96552H14.2412V7.358Z" fill="white"/>
<path d="M5.27573 18.8276C5.5233 18.8276 5.724 18.6269 5.724 18.3793C5.724 18.1317 5.5233 17.931 5.27573 17.931C5.02815 17.931 4.82745 18.1317 4.82745 18.3793C4.82745 18.6269 5.02815 18.8276 5.27573 18.8276Z" fill="white"/>
<path d="M0.792969 26H20.5171V2.68966H0.792969V26ZM19.6206 24.2069H8.86193V23.3103H19.6206V24.2069ZM19.6206 22.4138H8.86193V21.5172H19.6206V22.4138ZM10.655 20.1724V16.5862C10.655 16.4673 10.7023 16.3533 10.7863 16.2692C10.8704 16.1852 10.9844 16.1379 11.1033 16.1379H14.6895C14.7619 16.1394 14.8327 16.1588 14.8957 16.1944L15.7174 15.3727L16.3513 16.0066L15.1378 17.2201V20.1724C15.1378 20.2913 15.0906 20.4053 15.0065 20.4894C14.9224 20.5735 14.8084 20.6207 14.6895 20.6207H11.1033C10.9844 20.6207 10.8704 20.5735 10.7863 20.4894C10.7023 20.4053 10.655 20.2913 10.655 20.1724ZM19.6206 13.4483H8.86193V12.5517H19.6206V13.4483ZM19.6206 11.6552H8.86193V10.7586H19.6206V11.6552ZM10.655 5.82759C10.655 5.7087 10.7023 5.59468 10.7863 5.51061C10.8704 5.42654 10.9844 5.37931 11.1033 5.37931H14.6895C14.7619 5.38076 14.8327 5.40017 14.8957 5.43579L15.7174 4.6141L16.3513 5.24797L15.1378 6.46145V9.41379C15.1378 9.53268 15.0906 9.6467 15.0065 9.73077C14.9224 9.81484 14.8084 9.86207 14.6895 9.86207H11.1033C10.9844 9.86207 10.8704 9.81484 10.7863 9.73077C10.7023 9.6467 10.655 9.53268 10.655 9.41379V5.82759ZM5.27573 4.48276C5.98501 4.48276 6.67837 4.69309 7.26812 5.08714C7.85787 5.4812 8.31752 6.04129 8.58895 6.69658C8.86038 7.35188 8.9314 8.07294 8.79303 8.7686C8.65465 9.46426 8.3131 10.1033 7.81156 10.6048C7.31002 11.1063 6.67102 11.4479 5.97536 11.5863C5.27971 11.7246 4.55864 11.6536 3.90335 11.3822C3.24805 11.1108 2.68796 10.6511 2.29391 10.0614C1.89985 9.47161 1.68952 8.77825 1.68952 8.06897C1.69059 7.11817 2.06876 6.20663 2.74108 5.53431C3.41339 4.862 4.32493 4.48383 5.27573 4.48276ZM5.27573 15.2414C5.98501 15.2414 6.67837 15.4517 7.26812 15.8458C7.85787 16.2398 8.31752 16.7999 8.58895 17.4552C8.86038 18.1105 8.9314 18.8316 8.79303 19.5272C8.65465 20.2229 8.3131 20.8619 7.81156 21.3634C7.31002 21.865 6.67102 22.2065 5.97536 22.3449C5.27971 22.4833 4.55864 22.4122 3.90335 22.1408C3.24805 21.8694 2.68796 21.4097 2.29391 20.82C1.89985 20.2302 1.68952 19.5369 1.68952 18.8276C1.69059 17.8768 2.06876 16.9652 2.74108 16.2929C3.41339 15.6206 4.32493 15.2424 5.27573 15.2414Z" fill="white"/>
<path d="M3.48262 0V1.7931H20.9654C21.0843 1.7931 21.1983 1.84033 21.2824 1.9244C21.3664 2.00847 21.4137 2.12249 21.4137 2.24138V23.3103H23.2068V0H3.48262Z" fill="white"/>
<path d="M14.2412 18.1166L13.2133 19.1445C13.1293 19.2286 13.0153 19.2758 12.8964 19.2758C12.7776 19.2758 12.6636 19.2286 12.5795 19.1445L11.6829 18.248L12.3168 17.6141L12.8964 18.1937L14.0557 17.0345H11.5516V19.7241H14.2412V18.1166Z" fill="white"/>
<path d="M4.164 19.1346C4.02642 18.9324 3.94654 18.6966 3.93297 18.4525C3.9194 18.2083 3.97265 17.9651 4.08698 17.749C4.20132 17.5329 4.37242 17.352 4.58187 17.2258C4.79133 17.0997 5.03121 17.033 5.27573 17.033C5.52024 17.033 5.76013 17.0997 5.96958 17.2258C6.17904 17.352 6.35013 17.5329 6.46447 17.749C6.57881 17.9651 6.63205 18.2083 6.61848 18.4525C6.60491 18.6966 6.52504 18.9324 6.38745 19.1346C6.88748 19.4226 7.25688 19.8927 7.41848 20.4467C7.72116 20.0477 7.90644 19.5722 7.95349 19.0737C8.00053 18.5751 7.90745 18.0733 7.68475 17.6248C7.46204 17.1763 7.11854 16.7989 6.69293 16.535C6.26731 16.2711 5.77649 16.1313 5.27573 16.1313C4.77496 16.1313 4.28414 16.2711 3.85853 16.535C3.43292 16.7989 3.08942 17.1763 2.86671 17.6248C2.644 18.0733 2.55093 18.5751 2.59797 19.0737C2.64501 19.5722 2.8303 20.0477 3.13297 20.4467C3.29458 19.8927 3.66398 19.4226 4.164 19.1346Z" fill="white"/>
</svg>
