<svg width="22" height="19" viewBox="0 0 22 19" fill="none" xmlns="http://www.w3.org/2000/svg">
<path d="M13.1716 7.87166C12.9796 7.68525 12.7192 7.58053 12.4477 7.58053C12.1763 7.58053 11.9159 7.68525 11.7239 7.87166L11 8.57367C10.8111 8.76361 10.5851 8.91512 10.3353 9.01934C10.0855 9.12357 9.81678 9.17843 9.54489 9.18072C9.27299 9.18302 9.00335 9.1327 8.75169 9.03271C8.50003 8.93271 8.2714 8.78505 8.07913 8.59832C7.88686 8.4116 7.73481 8.18956 7.63185 7.94515C7.52889 7.70075 7.47708 7.43888 7.47944 7.17482C7.4818 6.91076 7.53829 6.6498 7.64561 6.40717C7.75293 6.16454 7.90893 5.9451 8.10451 5.76165L13.8689 0.161473C15.2336 -0.139988 16.6615 -0.0159213 17.9494 0.516032C19.2374 1.04799 20.3199 1.96075 21.043 3.12453C21.7661 4.28831 22.093 5.64387 21.9772 6.99845C21.8614 8.35304 21.3088 9.6377 20.3981 10.6698L18.2397 12.7927L13.1716 7.87067V7.87166ZM1.95006 1.89363C3.00952 0.864853 4.39528 0.213158 5.8833 0.0439066C7.37133 -0.125344 8.87464 0.197741 10.1502 0.96093L6.65574 4.35564C5.8989 5.0892 5.46748 6.08114 5.45366 7.1195C5.43985 8.15786 5.84473 9.16029 6.5818 9.9126C7.31887 10.6649 8.32967 11.1074 9.39822 11.1456C10.4668 11.1838 11.5083 10.8146 12.3003 10.1169L12.4477 9.98068L16.792 14.1987L12.4477 18.4177C12.0637 18.7906 11.543 19 11 19C10.457 19 9.93626 18.7906 9.55226 18.4177L1.94904 11.0337C0.701085 9.82161 0 8.17773 0 6.46366C0 4.74959 0.701085 3.10571 1.94904 1.89363H1.95006Z" fill="#00AB63"/>
</svg>
