<svg width="26" height="26" viewBox="0 0 26 26" fill="none" xmlns="http://www.w3.org/2000/svg">
<path fill-rule="evenodd" clip-rule="evenodd" d="M13 25C16.1826 25 19.2349 23.7357 21.4854 21.4854C23.7357 19.2349 25 16.1826 25 13C25 9.81741 23.7357 6.76516 21.4854 4.51473C19.2349 2.26428 16.1826 1 13 1C9.81741 1 6.76516 2.26428 4.51473 4.51473C2.26428 6.76516 1 9.81741 1 13C1 16.1826 2.26428 19.2349 4.51473 21.4854C6.76516 23.7357 9.81741 25 13 25Z" fill="white"/>
<path d="M13.0861 19.3597C10.0102 19.3597 7.50782 16.8573 7.50782 13.7814C7.50782 13.4126 7.20884 13.1136 6.84002 13.1136C6.47123 13.1136 6.17222 13.4126 6.17222 13.7814C6.17222 17.5938 9.27376 20.6953 13.0861 20.6953C16.8985 20.6953 20 17.5937 20 13.7814C20 10.378 17.5276 7.54286 14.2849 6.97356C14.1395 6.94801 14.021 6.81291 14.021 6.66538V5.45184C14.021 5.30428 13.9284 5.2604 13.8142 5.35369L11.3519 7.36618C11.2376 7.45959 11.2376 7.61087 11.3519 7.70427L13.8142 9.71676C13.9285 9.81017 14.021 9.76617 14.021 9.61864V8.55007C14.021 8.40254 14.1392 8.30227 14.2833 8.33396C16.7856 8.88342 18.6645 11.1165 18.6645 13.7813C18.6644 16.8573 16.162 19.3597 13.0861 19.3597Z" fill="#19ACDA"/>
<path d="M21.4854 21.4854L21.945 21.945L21.945 21.945L21.4854 21.4854ZM21.4854 4.51473L21.945 4.05512L21.945 4.05511L21.4854 4.51473ZM4.51473 4.51473L4.97434 4.97435L4.97435 4.97434L4.51473 4.51473ZM4.51473 21.4854L4.05511 21.945L4.05512 21.945L4.51473 21.4854ZM14.2849 6.97356L14.1723 7.61374L14.1725 7.61377L14.2849 6.97356ZM13.8142 5.35369L13.4031 4.85023L13.4028 4.8504L13.8142 5.35369ZM11.3519 7.36618L10.9405 6.86289L10.9404 6.86297L11.3519 7.36618ZM11.3519 7.70427L10.9404 8.20748L10.9405 8.20756L11.3519 7.70427ZM13.8142 9.71676L14.2256 9.2135L14.2255 9.21348L13.8142 9.71676ZM14.2833 8.33396L14.1436 8.96878L14.1438 8.96883L14.2833 8.33396ZM18.6645 13.7813L19.3145 13.7814V13.7813H18.6645ZM13 25.65C16.355 25.65 19.5726 24.3172 21.945 21.945L21.0258 21.0257C18.8972 23.1541 16.0102 24.35 13 24.35V25.65ZM21.945 21.945C24.3172 19.5726 25.65 16.355 25.65 13H24.35C24.35 16.0102 23.1541 18.8972 21.0257 21.0258L21.945 21.945ZM25.65 13C25.65 9.64501 24.3172 6.42745 21.945 4.05512L21.0257 4.97433C23.1541 7.10288 24.35 9.98981 24.35 13H25.65ZM21.945 4.05511C19.5726 1.68275 16.3549 0.35 13 0.35V1.65C16.0102 1.65 18.8972 2.8458 21.0257 4.97435L21.945 4.05511ZM13 0.35C9.64502 0.35 6.42744 1.68276 4.05511 4.05511L4.97435 4.97434C7.10288 2.84579 9.9898 1.65 13 1.65V0.35ZM4.05511 4.05511C1.68276 6.42744 0.35 9.64502 0.35 13H1.65C1.65 9.9898 2.84579 7.10288 4.97434 4.97435L4.05511 4.05511ZM0.35 13C0.35 16.3549 1.68275 19.5726 4.05511 21.945L4.97435 21.0257C2.8458 18.8972 1.65 16.0102 1.65 13H0.35ZM4.05512 21.945C6.42745 24.3172 9.64501 25.65 13 25.65V24.35C9.98981 24.35 7.10288 23.1541 4.97433 21.0257L4.05512 21.945ZM13.0861 18.7097C10.3692 18.7097 8.15782 16.4983 8.15782 13.7814H6.85782C6.85782 17.2163 9.65123 20.0097 13.0861 20.0097V18.7097ZM8.15782 13.7814C8.15782 13.0536 7.5678 12.4636 6.84002 12.4636V13.7636C6.84368 13.7636 6.84553 13.7642 6.84676 13.7647C6.84842 13.7654 6.85053 13.7667 6.85262 13.7688C6.8547 13.7709 6.856 13.773 6.8567 13.7747C6.85721 13.7759 6.85782 13.7777 6.85782 13.7814H8.15782ZM6.84002 12.4636C6.11228 12.4636 5.52222 13.0536 5.52222 13.7814H6.82222C6.82222 13.7777 6.82283 13.7759 6.82334 13.7747C6.82404 13.773 6.82534 13.7709 6.82743 13.7688C6.82951 13.7667 6.83164 13.7654 6.8333 13.7647C6.83453 13.7642 6.83637 13.7636 6.84002 13.7636V12.4636ZM5.52222 13.7814C5.52222 17.9527 8.91478 21.3453 13.0861 21.3453V20.0453C9.63275 20.0453 6.82222 17.2348 6.82222 13.7814H5.52222ZM13.0861 21.3453C17.2575 21.3453 20.65 17.9527 20.65 13.7814H19.35C19.35 17.2347 16.5395 20.0453 13.0861 20.0453V21.3453ZM20.65 13.7814C20.65 10.0562 17.9448 6.95616 14.3972 6.33335L14.1725 7.61377C17.1104 8.12957 19.35 10.6998 19.35 13.7814H20.65ZM14.3974 6.33338C14.486 6.34895 14.55 6.3935 14.5906 6.44067C14.6316 6.48817 14.671 6.56443 14.671 6.66538H13.371C13.371 7.14345 13.7312 7.53619 14.1723 7.61374L14.3974 6.33338ZM14.671 6.66538V5.45184H13.371V6.66538H14.671ZM14.671 5.45184C14.671 5.29029 14.6207 4.90622 14.239 4.72517C13.8574 4.54414 13.5282 4.74807 13.4031 4.85023L14.2253 5.85715C14.2145 5.86602 13.9886 6.04524 13.6819 5.89973C13.375 5.75418 13.371 5.46583 13.371 5.45184H14.671ZM13.4028 4.8504L10.9405 6.86289L11.7632 7.86947L14.2255 5.85698L13.4028 4.8504ZM10.9404 6.86297C10.7459 7.02204 10.6162 7.26216 10.6162 7.53523C10.6162 7.80829 10.7459 8.04841 10.9404 8.20748L11.7633 7.20106C11.8436 7.26673 11.9162 7.3845 11.9162 7.53523C11.9162 7.68595 11.8436 7.80373 11.7633 7.86939L10.9404 6.86297ZM10.9405 8.20756L13.4028 10.22L14.2255 9.21348L11.7632 7.20099L10.9405 8.20756ZM13.4028 10.22C13.5279 10.3223 13.8573 10.5265 14.2392 10.3453C14.6208 10.1641 14.671 9.78009 14.671 9.61864H13.371C13.371 9.60472 13.375 9.31645 13.6817 9.17085C13.9887 9.02512 14.2147 9.20464 14.2256 9.2135L13.4028 10.22ZM14.671 9.61864V8.55007H13.371V9.61864H14.671ZM14.671 8.55007C14.671 8.65381 14.6263 8.78095 14.5138 8.87455C14.3987 8.97023 14.2568 8.99369 14.1436 8.96878L14.4229 7.69913C14.1656 7.64254 13.8926 7.70029 13.6825 7.87507C13.4748 8.04776 13.371 8.2988 13.371 8.55007H14.671ZM14.1438 8.96883C16.3551 9.45439 18.0145 11.429 18.0145 13.7813H19.3145C19.3145 10.804 17.216 8.31245 14.4227 7.69908L14.1438 8.96883ZM18.0145 13.7813C18.0144 16.4983 15.803 18.7097 13.0861 18.7097V20.0097C16.521 20.0097 19.3144 17.2163 19.3145 13.7814L18.0145 13.7813Z" fill="#19ACDA"/>
</svg>
