<svg width="24" height="23" viewBox="0 0 24 23" fill="none" xmlns="http://www.w3.org/2000/svg">
<path d="M13.2 17.9579H13V18.1579V20.5789V20.7789H13.2H17.8V22.8H6.2V20.7789H10.8H11V20.5789V18.1579V17.9579H10.8H1.2C0.93535 17.9579 0.681183 17.8519 0.49351 17.6625C0.305777 17.4732 0.2 17.2159 0.2 16.9474V1.21053C0.2 0.941957 0.305777 0.684736 0.493509 0.495357C0.681183 0.306038 0.93535 0.2 1.2 0.2H22.8C23.0647 0.2 23.3188 0.306038 23.5065 0.495357L23.6477 0.355404L23.5065 0.495358C23.6942 0.684736 23.8 0.941957 23.8 1.21053V16.9474C23.8 17.2159 23.6942 17.4732 23.5065 17.6625C23.3188 17.8519 23.0647 17.9579 22.8 17.9579H13.2ZM2.4 2.22105H2.2V2.42105V15.7368V15.9368H2.4H21.6H21.8V15.7368V2.42105V2.22105H21.6H2.4ZM9.8 5.8022L15.2138 9.07895L9.8 12.3557V5.8022Z" fill="#FEBD17" stroke="#FEBD17" stroke-width="0.4"/>
</svg>
