<svg width="22" height="23" viewBox="0 0 22 23" fill="none" xmlns="http://www.w3.org/2000/svg">
<path d="M3.73383 0.637695C1.99179 0.637695 0.550781 2.06069 0.550781 3.78096V19.2194C0.550781 20.9397 1.99179 22.3627 3.73383 22.3627H9.07115C7.2289 20.7659 6.05346 18.4342 6.05346 15.845C6.05346 15.095 6.16135 14.3691 6.34558 13.6731H6.05563C5.4483 13.6754 4.95406 13.1911 4.95164 12.5914C4.94927 11.9917 5.43969 11.5036 6.04702 11.5012H6.05563H7.2541C7.73834 10.6826 8.3532 9.94954 9.07115 9.32725H6.05563C5.4483 9.32959 4.95406 8.8453 4.95164 8.24556C4.94927 7.64582 5.43969 7.15776 6.04702 7.15537H6.05563H10.4565C10.902 7.15731 11.3023 7.42444 11.4703 7.83197C12.5129 7.39848 13.6558 7.15751 14.8509 7.15751C15.2235 7.15751 15.5896 7.18856 15.9506 7.23386V7.15537C15.9506 5.47715 15.2772 3.86897 14.0755 2.68227L13.8801 2.49774C12.6784 1.31114 11.0519 0.637746 9.35249 0.637746H3.73383V0.637695ZM14.8508 9.32939C11.2198 9.32939 8.25278 12.2594 8.25278 15.845C8.25278 19.4306 11.2199 22.3606 14.8508 22.3606C18.4818 22.3606 21.4489 19.4306 21.4489 15.845C21.4489 12.2595 18.4818 9.32939 14.8508 9.32939ZM14.8464 12.5915C15.4537 12.5891 15.948 13.0733 15.9505 13.673V13.6731V14.7633H17.0459C17.6532 14.7598 18.1484 15.2432 18.152 15.8429V15.845C18.1496 16.4448 17.6554 16.9291 17.0481 16.9267C17.0473 16.9267 17.0466 16.9267 17.0459 16.9267H14.8465C14.2426 16.9243 13.7536 16.4414 13.7511 15.845V13.6731C13.7535 13.0767 14.2425 12.5938 14.8465 12.5915H14.8464Z" fill="white"/>
</svg>
