<svg width="20" height="21" viewBox="0 0 20 21" fill="none" xmlns="http://www.w3.org/2000/svg">
<path d="M10 0.230957C15.523 0.230957 20 4.70796 20 10.231C20 15.754 15.523 20.231 10 20.231C4.477 20.231 0 15.754 0 10.231H2C2 14.649 5.582 18.231 10 18.231C14.418 18.231 18 14.649 18 10.231C18 5.81296 14.418 2.23096 10 2.23096C7.25 2.23096 4.824 3.61796 3.385 5.73096H6V7.73096H0V1.73096H2V4.23096C3.824 1.80096 6.729 0.230957 10 0.230957ZM11 5.23096V9.81596L14.243 13.059L12.828 14.474L9 10.644V5.23096H11Z" fill="#7A7979"/>
</svg>
