<svg width="22" height="24" viewBox="0 0 22 24" fill="none" xmlns="http://www.w3.org/2000/svg">
<path d="M13.8387 18.1495L7.87699 14.898C7.30473 15.4661 6.57711 15.852 5.78584 16.0071C4.99458 16.1622 4.17511 16.0796 3.43074 15.7697C2.68636 15.4597 2.05041 14.9363 1.60306 14.2655C1.15571 13.5946 0.916992 12.8064 0.916992 12C0.916992 11.1937 1.15571 10.4055 1.60306 9.73461C2.05041 9.06376 2.68636 8.54037 3.43074 8.23043C4.17511 7.92049 4.99458 7.83787 5.78584 7.99298C6.57711 8.1481 7.30473 8.534 7.87699 9.10205L13.8387 5.85055C13.6342 4.89124 13.7819 3.89039 14.2547 3.03101C14.7275 2.17164 15.4939 1.51117 16.4136 1.17039C17.3334 0.829606 18.345 0.831284 19.2637 1.17511C20.1823 1.51895 20.9464 2.18195 21.4164 3.04289C21.8864 3.90383 22.0307 4.90517 21.8231 5.86379C21.6154 6.82242 21.0696 7.67427 20.2855 8.26357C19.5015 8.85286 18.5314 9.14023 17.5529 9.07311C16.5743 9.00599 15.6526 8.58888 14.9563 7.89805L8.99466 11.1495C9.11358 11.7103 9.11358 12.2898 8.99466 12.8505L14.9563 16.102C15.6526 15.4112 16.5743 14.9941 17.5529 14.927C18.5314 14.8599 19.5015 15.1472 20.2855 15.7365C21.0696 16.3258 21.6154 17.1777 21.8231 18.1363C22.0307 19.0949 21.8864 20.0963 21.4164 20.9572C20.9464 21.8181 20.1823 22.4811 19.2637 22.825C18.345 23.1688 17.3334 23.1705 16.4136 22.8297C15.4939 22.4889 14.7275 21.8285 14.2547 20.9691C13.7819 20.1097 13.6342 19.1089 13.8387 18.1495Z" fill="#19ACDA"/>
</svg>
