<svg width="23" height="23" viewBox="0 0 23 23" fill="none" xmlns="http://www.w3.org/2000/svg">
<path d="M13.3717 16.9332L13.4445 16.7374L13.2591 16.6412L8.60644 14.2258L8.44749 14.1433L8.32514 14.2741C7.73612 14.9038 6.9713 15.3418 6.13008 15.5311C5.28887 15.7204 4.41015 15.6523 3.60814 15.3357C2.80612 15.0191 2.11789 14.4685 1.63288 13.7556C1.14788 13.0427 0.888518 12.2003 0.888518 11.3381C0.888518 10.4758 1.14788 9.6335 1.63288 8.92058C2.11789 8.20766 2.80612 7.65711 3.60814 7.34047C4.41015 7.02384 5.28887 6.95576 6.13008 7.14508C6.9713 7.33441 7.73612 7.77238 8.32514 8.40209L8.45009 8.53567L8.61068 8.44811L13.3714 5.85237L13.5322 5.76471L13.4874 5.58717C13.2312 4.57295 13.3536 3.5001 13.8319 2.56974C14.3101 1.63937 15.1112 0.915351 16.0851 0.533399C17.0589 0.151447 18.1387 0.137783 19.1219 0.494968C20.1051 0.852154 20.9243 1.55567 21.4259 2.47363C21.9275 3.3916 22.0771 4.461 21.8466 5.48138C21.6162 6.50176 21.0215 7.40306 20.174 8.01634C19.3266 8.62962 18.2846 8.91277 17.2433 8.81272C16.202 8.71267 15.2329 8.23628 14.5178 7.47286L14.3928 7.33948L14.2324 7.42697L9.47161 10.0227L9.31103 10.1103L9.35561 10.2876C9.52884 10.9768 9.52884 11.6982 9.35561 12.3874L9.31104 12.5647L9.47158 12.6523L14.2312 15.248L14.3917 15.3356L14.5166 15.2022C15.2318 14.4387 16.2009 13.9624 17.2421 13.8623C18.2834 13.7623 19.3255 14.0454 20.1729 14.6587C21.0204 15.272 21.615 16.1733 21.8455 17.1936C22.076 18.214 21.9264 19.2834 21.4247 20.2014C20.9231 21.1194 20.1039 21.8229 19.1207 22.1801C18.1375 22.5372 17.0578 22.5236 16.0839 22.1416C15.1014 21.7563 14.2597 21.066 13.7854 20.1434C13.5321 19.6505 13.3549 19.291 13.2675 18.8544C13.1813 18.4237 13.1798 17.9009 13.3126 17.0921L13.3717 16.9332ZM5.18663 13.8407C5.85052 13.8407 6.48722 13.577 6.95666 13.1075C7.4261 12.6381 7.68983 12.0014 7.68983 11.3375C7.68983 10.6736 7.4261 10.0369 6.95666 9.56748C6.48722 9.09804 5.85052 8.83431 5.18663 8.83431C4.52274 8.83431 3.88604 9.09804 3.4166 9.56748C2.94716 10.0369 2.68343 10.6736 2.68343 11.3375C2.68343 12.0014 2.94716 12.6381 3.4166 13.1075C3.88604 13.577 4.52274 13.8407 5.18663 13.8407ZM17.6553 7.03964C18.3192 7.03964 18.9559 6.77591 19.4253 6.30646C19.8948 5.83702 20.1585 5.20032 20.1585 4.53643C20.1585 3.87254 19.8948 3.23584 19.4253 2.7664C18.9559 2.29696 18.3192 2.03323 17.6553 2.03323C16.9914 2.03323 16.3547 2.29696 15.8853 2.7664C15.4158 3.23584 15.1521 3.87254 15.1521 4.53643C15.1521 5.20032 15.4158 5.83702 15.8853 6.30646C16.3547 6.77591 16.9914 7.03964 17.6553 7.03964ZM17.6553 20.6418C18.3192 20.6418 18.9559 20.3781 19.4253 19.9086C19.8948 19.4392 20.1585 18.8025 20.1585 18.1386C20.1585 17.4747 19.8948 16.838 19.4253 16.3686C18.9559 15.8991 18.3192 15.6354 17.6553 15.6354C16.9914 15.6354 16.3547 15.8991 15.8853 16.3686C15.4397 16.8141 15.0395 17.435 15.0395 18.126C15.0395 18.8146 15.437 19.4604 15.8853 19.9086C16.3547 20.3781 16.9914 20.6418 17.6553 20.6418Z" fill="#7A7979" stroke="white" stroke-width="0.472349"/>
</svg>
