<svg width="20" height="20" viewBox="0 0 20 20" fill="none" xmlns="http://www.w3.org/2000/svg">
<path d="M10.3436 9.83217V14.5577L13.6106 12.6521C13.6624 12.6217 13.7054 12.5783 13.7353 12.5262C13.7652 12.4742 13.781 12.4152 13.7811 12.3551V7.84847L10.5195 9.75108C10.4636 9.78359 10.4047 9.81074 10.3436 9.83217Z" fill="black"/>
<path d="M10.1731 5.34276C10.1205 5.31214 10.0608 5.29601 9.9999 5.29601C9.93905 5.29601 9.87929 5.31214 9.8267 5.34276L6.55709 7.24999L7.29489 7.68038L8.94305 6.69149L10.8908 7.83709L9.25058 8.82119L9.82668 9.15724C9.87926 9.18787 9.93903 9.20401 9.99988 9.20401C10.0607 9.20401 10.1205 9.18787 10.1731 9.15724L13.4427 7.25L10.1731 5.34276Z" fill="black"/>
<path d="M8.94519 9.43896L8.9446 11.2502L6.88229 10.038V8.2356L6.21864 7.84848V12.3551C6.21877 12.4152 6.23457 12.4742 6.26449 12.5263C6.2944 12.5783 6.3374 12.6217 6.38922 12.6521L9.65615 14.5578V9.83217C9.5951 9.81074 9.53621 9.78359 9.48026 9.75108L8.94519 9.43896Z" fill="black"/>
<path d="M7.5698 9.64461L8.25747 10.0489L8.25781 9.03797L7.5698 8.63664V9.64461Z" fill="black"/>
<path d="M9.54473 7.84297L8.94652 7.4911L7.97241 8.0756L8.57303 8.42597L9.54473 7.84297Z" fill="black"/>
<path d="M9.99988 2.5C6.39854 2.5 2.49989 5.89864 2.49989 9.5C2.49989 14 6.39854 17.5 9.99988 17.5C13.6012 17.5 17.4999 14.5 17.4999 10.5C17.4999 5 13.6012 2.5 9.99988 2.5ZM14.4686 12.3551C14.4683 12.5353 14.4209 12.7123 14.3312 12.8685C14.2414 13.0247 14.1125 13.1548 13.957 13.2459L10.5195 15.2511C10.3617 15.3429 10.1824 15.3913 9.99988 15.3913C9.81733 15.3913 9.63803 15.3429 9.48026 15.2511L6.04278 13.2459C5.88733 13.1548 5.75836 13.0247 5.66862 12.8685C5.57889 12.7123 5.5315 12.5353 5.53114 12.3551V7.64486C5.5315 7.4647 5.57888 7.28775 5.66861 7.13152C5.75834 6.97529 5.8873 6.84519 6.04274 6.7541L9.48028 4.74892C9.63805 4.65706 9.81735 4.60867 9.9999 4.60867C10.1825 4.60867 10.3618 4.65706 10.5195 4.74892L13.957 6.7541C14.1125 6.84518 14.2414 6.97527 14.3312 7.13151C14.4209 7.28774 14.4683 7.46469 14.4686 7.64486V12.3551Z" fill="black"/>
<path d="M18.2548 11.3465L18.2548 8.65353L19.5515 7.96721L18.9364 6.09505L17.4807 6.29378L15.8819 4.11781L16.5301 2.79405L14.9163 1.63389L13.8426 2.65297L11.2616 1.82331L10.9989 0.375H9.00087L8.73819 1.82331L6.15721 2.65297L5.08358 1.63393L3.46974 2.79409L4.11786 4.11781L2.51907 6.29374L1.06336 6.09505L0.448242 7.96725L1.74496 8.65353V11.3465L0.448242 12.0328L1.06338 13.905L2.51904 13.7062L4.11786 15.8822L3.46972 17.206L5.08356 18.3661L6.15724 17.347L8.73822 18.1767L9.00089 19.625H10.9989L11.2616 18.1767L13.8426 17.347L14.9162 18.3661L16.5301 17.2059L15.8819 15.8822L17.4807 13.7063L18.9364 13.9049L19.5516 12.0327L18.2548 11.3465ZM9.99989 17.2188C6.01945 17.2188 2.78114 13.9804 2.78114 10C2.78114 6.01956 6.01945 2.78125 9.99989 2.78125C13.9803 2.78125 17.2186 6.01956 17.2186 10C17.2186 13.9804 13.9803 17.2188 9.99989 17.2188Z" fill="black"/>
</svg>
