<svg width="19" height="20" viewBox="0 0 19 20" fill="none" xmlns="http://www.w3.org/2000/svg">
<path d="M6.33609 7.36147L9.25322 8.864C9.32135 8.8989 9.39657 8.91707 9.47285 8.91707C9.54914 8.91707 9.62436 8.8989 9.69249 8.864L18.0514 4.55991C18.0183 4.53341 17.983 4.50989 17.946 4.48961L14.9739 2.89633L6.45368 7.2843C6.41218 7.30619 6.3728 7.33203 6.33609 7.36147Z" fill="black"/>
<path d="M3.69892 6.00365C3.7358 5.9741 3.77541 5.94826 3.81719 5.92648L12.3907 1.51101L9.81752 0.132578C9.71145 0.0750263 9.59308 0.0449219 9.47286 0.0449219C9.35264 0.0449219 9.23427 0.0750263 9.1282 0.132578L0.999916 4.48961C0.962872 4.50979 0.92765 4.53325 0.894659 4.55973L3.69892 6.00365Z" fill="black"/>
<path d="M9.92125 9.32394C9.85903 9.35569 9.79368 9.38064 9.72628 9.39836V19.9087C9.75754 19.897 9.78802 19.8833 9.81752 19.8676L17.9458 15.5106C18.0646 15.447 18.164 15.3515 18.2334 15.2346C18.3028 15.1177 18.3395 14.9837 18.3395 14.8471V5.15305C18.3391 5.10103 18.3335 5.04918 18.3226 4.99836L9.92125 9.32394Z" fill="black"/>
<path d="M9.21943 9.39836C9.15228 9.38076 9.08716 9.35598 9.02513 9.32445L6.06577 7.79992C6.05483 7.85074 6.04917 7.90259 6.04888 7.95461V11.8424C6.04874 11.9175 6.02655 11.9908 5.98515 12.0529C5.94375 12.115 5.88503 12.1631 5.81655 12.191C5.74807 12.2189 5.67295 12.2253 5.60084 12.2095C5.52874 12.1936 5.46295 12.1562 5.41193 12.102L4.68036 11.3251C4.63705 11.2788 4.58272 11.2447 4.52263 11.226C4.46255 11.2073 4.39874 11.2047 4.33739 11.2185L3.85926 11.3234C3.80542 11.335 3.74971 11.3342 3.69621 11.3211C3.6427 11.308 3.59274 11.283 3.54999 11.2477C3.50723 11.2124 3.47277 11.1679 3.4491 11.1174C3.42544 11.0668 3.41318 11.0115 3.41323 10.9555V6.5968C3.41366 6.54478 3.41932 6.49295 3.43012 6.44211L0.623829 4.99836C0.612933 5.04919 0.607271 5.10103 0.606934 5.15305V14.8468C0.606927 14.9834 0.643592 15.1173 0.712969 15.2343C0.782345 15.3512 0.881799 15.4466 1.00059 15.5102L9.12887 19.8673C9.15837 19.883 9.18885 19.8967 9.2201 19.9083L9.21943 9.39836Z" fill="black"/>
</svg>
