<svg width="73" height="75" viewBox="0 0 73 75" fill="none" xmlns="http://www.w3.org/2000/svg">
<path d="M68.6002 37.1999C67.6002 35.1999 65.6002 33.9999 63.3002 33.9999H61.4002C58.1002 29.7999 54.4002 25.8999 50.9002 22.0999C50.0002 21.0999 49.0002 20.0999 48.1002 19.0999C46.2002 17.0999 44.3002 14.8999 42.5002 12.6999C41.0002 10.7999 40.0002 8.59994 38.9002 6.29994C38.6002 5.69994 38.3002 5.09994 38.0002 4.49994C36.4002 1.39994 34.0002 -0.200065 31.2002 0.0999346C28.4002 0.399935 26.1002 2.49994 25.6002 5.29994C24.5002 11.4999 26.6002 19.3999 31.7002 28.1999H8.2002C6.1002 28.1999 4.1002 28.9999 2.6002 30.4999C1.1002 31.9999 0.200195 33.9999 0.200195 36.1999V36.3999C0.200195 39.3999 1.9002 41.9999 4.3002 43.2999C3.1002 44.6999 2.5002 46.3999 2.5002 48.1999C2.5002 51.1999 4.2002 53.6999 6.7002 54.8999C6.0002 55.9999 5.5002 57.2999 5.5002 58.5999C5.5002 60.3999 6.2002 61.9999 7.4002 63.2999C8.0002 63.8999 8.6002 64.2999 9.4002 64.6999C8.9002 66.5999 9.2002 68.6999 10.3002 70.4999C11.9002 73.0999 14.9002 74.5999 18.1002 74.5999H37.8002C38.0002 74.5999 38.2002 74.5999 38.3002 74.4999L49.4002 70.6999H63.1002C65.4002 70.6999 67.5002 69.3999 68.5002 67.2999C73.5002 56.9999 73.5002 46.7999 68.6002 37.1999ZM65.6002 65.8999C65.2002 66.7999 64.2002 67.3999 63.2002 67.3999H49.3002C49.1002 67.3999 48.9002 67.3999 48.8002 67.4999L37.7002 71.2999H18.2002C16.1002 71.2999 14.2002 70.2999 13.2002 68.6999C12.3002 67.2999 12.3002 65.7999 13.1002 64.5999C13.2002 64.4999 13.3002 64.2999 13.3002 64.1999C13.3002 64.1999 13.3002 64.1999 13.3002 64.0999C13.4002 63.8999 13.4002 63.7999 13.4002 63.5999C13.4002 63.4999 13.4002 63.3999 13.4002 63.2999V63.1999C13.4002 63.0999 13.4002 63.0999 13.3002 62.9999C13.3002 62.9999 13.3002 62.8999 13.2002 62.8999C13.2002 62.7999 13.1002 62.7999 13.1002 62.6999L13.0002 62.5999L12.9002 62.4999L12.8002 62.3999L12.7002 62.2999C12.7002 62.2999 12.6002 62.2999 12.6002 62.1999L12.5002 62.0999C12.5002 62.0999 12.4002 62.0999 12.4002 61.9999C12.3002 61.9999 12.3002 61.9999 12.2002 61.9999H12.1002H12.0002C11.2002 61.8999 10.5002 61.5999 9.9002 60.9999C9.3002 60.3999 8.9002 59.4999 8.9002 58.5999C8.9002 57.1999 9.7002 55.9999 11.0002 55.4999C11.1002 55.4999 11.2002 55.3999 11.3002 55.2999L11.4002 55.1999L11.5002 55.0999L11.6002 54.9999L11.7002 54.8999C11.7002 54.8999 11.7002 54.7999 11.8002 54.7999L11.9002 54.6999C11.9002 54.5999 11.9002 54.5999 12.0002 54.4999V54.3999C12.0002 54.2999 12.0002 54.1999 12.0002 54.0999C12.0002 54.0999 12.0002 54.0999 12.0002 53.9999C12.0002 53.8999 12.0002 53.7999 12.0002 53.6999C12.0002 53.5999 12.0002 53.4999 11.9002 53.4999C11.9002 53.4999 11.9002 53.4999 11.9002 53.3999C11.9002 53.2999 11.8002 53.1999 11.7002 53.0999L11.6002 52.9999L11.5002 52.8999L11.4002 52.7999L11.3002 52.6999C11.3002 52.6999 11.2002 52.6999 11.2002 52.5999L11.1002 52.4999C11.0002 52.4999 11.0002 52.4999 10.9002 52.3999H10.8002C10.7002 52.3999 10.6002 52.3999 10.5002 52.3999H10.0002C7.7002 52.3999 5.8002 50.4999 5.8002 48.1999C5.8002 47.0999 6.2002 45.9999 7.0002 45.1999C7.5002 44.6999 8.2002 44.2999 8.8002 44.0999H8.9002C9.0002 44.0999 9.0002 44.0999 9.1002 43.9999C9.1002 43.9999 9.2002 43.9999 9.2002 43.8999L9.3002 43.7999L9.4002 43.6999L9.5002 43.5999L9.6002 43.4999L9.7002 43.3999L9.8002 43.2999C9.8002 43.2999 9.8002 43.1999 9.9002 43.1999C9.9002 43.0999 9.9002 43.0999 9.9002 42.9999V42.8999C9.9002 42.7999 9.9002 42.7999 9.9002 42.6999V42.5999C9.9002 42.5999 9.9002 42.5999 9.9002 42.4999C9.9002 42.3999 9.9002 42.3999 9.9002 42.2999C9.9002 42.1999 9.9002 42.1999 9.9002 42.0999C9.9002 42.0999 9.9002 42.0999 9.9002 41.9999V41.8999C9.9002 41.7999 9.9002 41.7999 9.8002 41.6999C9.8002 41.6999 9.8002 41.5999 9.7002 41.5999L9.6002 41.4999L9.5002 41.3999L9.4002 41.2999L9.3002 41.1999C9.3002 41.1999 9.2002 41.1999 9.2002 41.0999C9.10019 41.0999 9.1002 40.9999 9.0002 40.9999H8.9002C8.8002 40.9999 8.8002 40.9999 8.7002 40.8999H8.6002C8.5002 40.8999 8.5002 40.8999 8.4002 40.8999C8.4002 40.8999 8.4002 40.8999 8.3002 40.8999H8.0002C5.5002 40.8999 3.5002 38.8999 3.5002 36.3999V36.1999C3.5002 34.8999 4.0002 33.6999 4.9002 32.7999C5.8002 31.8999 7.0002 31.3999 8.2002 31.3999H34.6002C35.2002 31.3999 35.7002 31.0999 36.0002 30.5999C36.3002 30.0999 36.3002 29.4999 36.0002 28.9999C30.3002 19.7999 27.8002 11.7999 28.8002 5.89994C29.0002 4.59994 30.2002 3.59994 31.5002 3.39994C32.0002 3.29994 33.7002 3.19994 35.1002 5.99994C35.4002 6.59994 35.7002 7.19994 36.0002 7.79994C37.1002 10.1999 38.3002 12.5999 40.0002 14.7999C41.8002 17.0999 43.8002 19.2999 45.7002 21.3999C46.6002 22.3999 47.6002 23.3999 48.5002 24.3999C52.2002 28.2999 56.0002 32.3999 59.3002 36.6999C59.6002 37.0999 60.1002 37.2999 60.6002 37.2999H63.3002C64.3002 37.2999 65.3002 37.8999 65.7002 38.6999C70.2002 47.4999 70.1002 56.3999 65.6002 65.8999Z" fill="#19ACDA"/>
<path d="M65.6 65.8999C65.2 66.7999 64.2 67.3999 63.2 67.3999H49.3C49.1 67.3999 48.9 67.3999 48.8 67.4999L37.7 71.2999H18.2C16.1 71.2999 14.2 70.2999 13.2 68.6999C12.3 67.2999 12.3 65.7999 13.1 64.5999C13.2 64.4999 13.3 64.2999 13.3 64.1999C13.3 64.1999 13.3 64.1999 13.3 64.0999C13.4 63.8999 13.4 63.7999 13.4 63.5999C13.4 63.4999 13.4 63.3999 13.4 63.2999V63.1999C13.4 63.0999 13.4 63.0999 13.3 62.9999C13.3 62.9999 13.3 62.8999 13.2 62.8999C13.2 62.7999 13.1 62.7999 13.1 62.6999L13 62.5999L12.9 62.4999L12.8 62.3999L12.7 62.2999C12.7 62.2999 12.6 62.2999 12.6 62.1999L12.5 62.0999C12.5 62.0999 12.4 62.0999 12.4 61.9999C12.3 61.9999 12.3 61.9999 12.2 61.9999H12.1H12C11.2 61.8999 10.5 61.5999 9.9 60.9999C9.3 60.3999 8.9 59.4999 8.9 58.5999C8.9 57.1999 9.7 55.9999 11 55.4999C11.1 55.4999 11.2 55.3999 11.3 55.2999L11.4 55.1999L11.5 55.0999L11.6 54.9999L11.7 54.8999C11.7 54.8999 11.7 54.7999 11.8 54.7999L11.9 54.6999C11.9 54.5999 11.9 54.5999 12 54.4999V54.3999C12 54.2999 12 54.1999 12 54.0999C12 54.0999 12 54.0999 12 53.9999C12 53.8999 12 53.7999 12 53.6999C12 53.5999 12 53.4999 11.9 53.4999C11.9 53.4999 11.9 53.4999 11.9 53.3999C11.9 53.2999 11.8 53.1999 11.7 53.0999L11.6 52.9999L11.5 52.8999L11.4 52.7999L11.3 52.6999C11.3 52.6999 11.2 52.6999 11.2 52.5999L11.1 52.4999C11 52.4999 11 52.4999 10.9 52.3999H10.8C10.7 52.3999 10.6 52.3999 10.5 52.3999H10C7.7 52.3999 5.8 50.4999 5.8 48.1999C5.8 47.0999 6.2 45.9999 7 45.1999C7.5 44.6999 8.2 44.2999 8.8 44.0999H8.9C9 44.0999 9 44.0999 9.1 43.9999C9.1 43.9999 9.2 43.9999 9.2 43.8999L9.3 43.7999L9.4 43.6999L9.5 43.5999L9.6 43.4999L9.7 43.3999L9.8 43.2999C9.8 43.2999 9.8 43.1999 9.9 43.1999C9.9 43.0999 9.9 43.0999 9.9 42.9999V42.8999C9.9 42.7999 9.9 42.7999 9.9 42.6999V42.5999C9.9 42.5999 9.9 42.5999 9.9 42.4999C9.9 42.3999 9.9 42.3999 9.9 42.2999C9.9 42.1999 9.9 42.1999 9.9 42.0999C9.9 42.0999 9.9 42.0999 9.9 41.9999V41.8999C9.9 41.7999 9.9 41.7999 9.8 41.6999C9.8 41.6999 9.8 41.5999 9.7 41.5999L9.6 41.4999L9.5 41.3999L9.4 41.2999L9.3 41.1999C9.3 41.1999 9.2 41.1999 9.2 41.0999C9.1 41.0999 9.1 40.9999 9 40.9999H8.9C8.8 40.9999 8.8 40.9999 8.7 40.8999H8.6C8.5 40.8999 8.5 40.8999 8.4 40.8999C8.4 40.8999 8.4 40.8999 8.3 40.8999H8C5.5 40.8999 3.5 38.8999 3.5 36.3999V36.1999C3.5 34.8999 4 33.6999 4.9 32.7999C5.8 31.8999 7 31.3999 8.2 31.3999H34.6C35.2 31.3999 35.7 31.0999 36 30.5999C36.3 30.0999 36.3 29.4999 36 28.9999C30.3 19.7999 27.8 11.7999 28.8 5.89993C29 4.59993 30.2 3.59993 31.5 3.39993C32 3.29993 33.7 3.19993 35.1 5.99993C35.4 6.59993 35.7 7.19993 36 7.79993C37.1 10.1999 38.3 12.5999 40 14.7999C41.8 17.0999 43.8 19.2999 45.7 21.3999C46.6 22.3999 47.6 23.3999 48.5 24.3999C52.2 28.2999 56 32.3999 59.3 36.6999C59.6 37.0999 60.1 37.2999 60.6 37.2999H63.3C64.3 37.2999 65.3 37.8999 65.7 38.6999C70.2 47.4999 70.1 56.3999 65.6 65.8999Z" fill="#0290BC"/>
</svg>
