<svg width="21" height="20" viewBox="0 0 21 20" fill="none" xmlns="http://www.w3.org/2000/svg">
<path d="M19.9835 10.8173H15.8348C15.5521 10.8173 15.3028 11.0024 15.2208 11.2729L14.5035 13.6402H6.12166L5.40424 11.2729C5.32229 11.0024 5.07291 10.8173 4.79018 10.8173H0.64151C0.28727 10.8173 0 11.1046 0 11.4588V19.1573C0 19.5117 0.28727 19.7991 0.64151 19.7991H19.9835C20.3377 19.7991 20.625 19.5117 20.625 19.1573V11.4588C20.625 11.1046 20.3379 10.8173 19.9835 10.8173Z" fill="white"/>
<path d="M9.84987 12.1084C9.97085 12.2342 10.138 12.3053 10.3125 12.3053C10.487 12.3053 10.6542 12.2342 10.7751 12.1084L14.9813 7.73201C15.1596 7.54646 15.2097 7.27266 15.109 7.03599C15.0083 6.79933 14.7759 6.64575 14.5188 6.64575H13.1084V0.636627C13.1084 0.282513 12.8213 -0.00488281 12.4669 -0.00488281H8.1581C7.80374 -0.00488281 7.51647 0.282513 7.51647 0.636627V6.64575H6.10618C5.84912 6.64575 5.61674 6.79933 5.51603 7.03599C5.41507 7.27253 5.46542 7.54646 5.64355 7.73188L9.84987 12.1084Z" fill="white"/>
</svg>
