<svg width="19" height="18" viewBox="0 0 19 18" fill="none" xmlns="http://www.w3.org/2000/svg">
<path d="M17.5439 9.21679C17.8444 9.5092 18.0328 9.91964 18.0328 10.375C18.0328 11.195 17.4243 11.8724 16.6429 11.9668C16.9434 12.259 17.1317 12.6696 17.1317 13.125C17.1317 13.945 16.5232 14.6224 15.7418 14.7168C16.0423 15.009 16.2306 15.4196 16.2306 15.875C16.2306 16.7593 15.523 17.4792 14.6537 17.4792H13.3021H9.80999C8.51852 17.4792 7.24305 17.1347 6.12188 16.4827L5.86823 16.3354V6.75279C6.64045 5.91427 7.25228 4.92977 7.66024 3.85108L8.81475 0.796979C8.981 0.357666 9.4036 0.0625 9.86608 0.0625H9.96092C10.6113 0.0625 11.2055 0.36775 11.5919 0.899645C11.978 1.43177 12.0899 2.09933 11.8987 2.73137L10.9933 5.72406C10.9719 5.79441 10.9845 5.86843 11.0273 5.92756C11.0706 5.98691 11.1368 6.02083 11.2089 6.02083H17.357C18.2263 6.02083 18.9338 6.74041 18.9338 7.625C18.9338 8.44495 18.3254 9.12237 17.5439 9.21679ZM4.96715 6.70833V16.7917C4.96715 17.4235 4.46187 17.9375 3.84081 17.9375H1.13758C0.516509 17.9375 0.0112305 17.4235 0.0112305 16.7917V6.70833C0.0112305 6.07652 0.516509 5.5625 1.13758 5.5625H3.84081C4.46187 5.5625 4.96715 6.07652 4.96715 6.70833ZM3.39027 15.4167C3.39027 14.9111 2.98614 14.5 2.48919 14.5C1.99225 14.5 1.58811 14.9111 1.58811 15.4167C1.58811 15.9222 1.99225 16.3333 2.48919 16.3333C2.98614 16.3333 3.39027 15.9222 3.39027 15.4167Z" fill="black"/>
</svg>
