<svg width="23" height="23" viewBox="0 0 23 23" fill="none" xmlns="http://www.w3.org/2000/svg">
<path fill-rule="evenodd" clip-rule="evenodd" d="M19.4792 7.47083C19.6167 7.74583 20.0292 8.1125 20.3958 8.43333C20.4357 8.47057 20.4764 8.50827 20.5176 8.54648C21.1866 9.16667 22 9.92066 22 11C22 11.5353 21.7999 11.9906 21.5166 12.3892C20.411 11.5191 19.0161 11 17.5 11C13.9101 11 11 13.9101 11 17.5C11 19.0161 11.5191 20.411 12.3892 21.5166C11.9906 21.7999 11.5353 22 11 22C9.92066 22 9.16667 21.1866 8.54648 20.5176C8.50827 20.4764 8.47057 20.4357 8.43333 20.3958C8.39195 20.3485 8.34981 20.2997 8.30719 20.2504C8.01944 19.917 7.71036 19.559 7.47083 19.4792C7.19583 19.3875 6.6 19.3875 6.09583 19.4333C6.0492 19.4355 6.00237 19.4377 5.95538 19.4399C4.98644 19.4858 3.95146 19.5348 3.20833 18.7917C2.475 18.0125 2.52083 16.8667 2.56667 15.9042C2.6125 15.4 2.65833 14.8042 2.52083 14.5292C2.38333 14.2542 1.97083 13.8875 1.60417 13.5667C1.56427 13.5294 1.5236 13.4917 1.48239 13.4535C0.813365 12.8333 0 12.0793 0 11C0 9.92066 0.813364 9.16667 1.48239 8.54648C1.5236 8.50827 1.56427 8.47057 1.60417 8.43333C1.65146 8.39195 1.70028 8.3498 1.74964 8.30719C2.08297 8.01943 2.44099 7.71036 2.52083 7.47083C2.6125 7.19583 2.6125 6.6 2.56667 6.09583C2.56455 6.0492 2.56233 6.00237 2.5601 5.95538C2.51422 4.98644 2.4652 3.95146 3.20833 3.20833C3.9875 2.475 5.13333 2.52083 6.09583 2.56667C6.6 2.6125 7.19583 2.65833 7.47083 2.52083C7.74583 2.38333 8.1125 1.97083 8.43333 1.60417C8.47057 1.56427 8.50827 1.5236 8.54648 1.48239C9.16667 0.813364 9.92066 0 11 0C12.0793 0 12.8333 0.813365 13.4535 1.48239C13.4917 1.5236 13.5294 1.56427 13.5667 1.60417C13.6081 1.65146 13.6502 1.70028 13.6928 1.74964C13.9806 2.08297 14.2896 2.44099 14.5292 2.52083C14.8042 2.6125 15.4 2.6125 15.9042 2.56667C15.9508 2.56455 15.9976 2.56233 16.0446 2.5601C17.0136 2.51422 18.0485 2.4652 18.7917 3.20833C19.5348 3.95146 19.4858 4.98644 19.4399 5.95538C19.4377 6.00237 19.4355 6.0492 19.4333 6.09583C19.3875 6.6 19.3417 7.19583 19.4792 7.47083ZM7.70833 5.33333C6.92917 5.33333 6.33333 5.92917 6.33333 6.70833C6.33333 7.4875 6.92917 8.08333 7.70833 8.08333C8.4875 8.08333 9.08333 7.4875 9.08333 6.70833C9.08333 5.92917 8.4875 5.33333 7.70833 5.33333ZM6.88333 10.8333L8.16667 12.1167L13.1167 7.16667L11.8333 5.88333L6.88333 10.8333ZM10.9167 11.2917C10.9167 12.0708 11.5125 12.6667 12.2917 12.6667C13.0708 12.6667 13.6667 12.0708 13.6667 11.2917C13.6667 10.5125 13.0708 9.91667 12.2917 9.91667C11.5125 9.91667 10.9167 10.5125 10.9167 11.2917Z" fill="white"/>
<path d="M17.5 12C14.4673 12 12 14.4673 12 17.5C12 20.5327 14.4673 23 17.5 23C20.5327 23 23 20.5327 23 17.5C23 14.4673 20.5327 12 17.5 12ZM19.7654 18.9012C20.0041 19.1399 20.0041 19.5268 19.7654 19.7655C19.6461 19.8848 19.4897 19.9444 19.3333 19.9444C19.1769 19.9444 19.0205 19.8848 18.9012 19.7654L17.5 18.3642L16.0988 19.7655C15.9795 19.8848 15.8231 19.9444 15.6667 19.9444C15.5103 19.9444 15.3539 19.8848 15.2346 19.7654C14.9959 19.5268 14.9959 19.1399 15.2346 18.9012L16.6358 17.5L15.2345 16.0988C14.9959 15.8601 14.9959 15.4732 15.2345 15.2345C15.4731 14.9959 15.8601 14.9959 16.0988 15.2345L17.5 16.6358L18.9012 15.2345C19.1399 14.9959 19.5268 14.9959 19.7655 15.2345C20.0041 15.4731 20.0041 15.8601 19.7655 16.0988L18.3642 17.5L19.7654 18.9012Z" fill="white"/>
</svg>
