<svg width="24" height="26" viewBox="0 0 24 26" fill="none" xmlns="http://www.w3.org/2000/svg">
<path d="M12.6829 16.0723V18.6071C11.5852 18.219 10.4104 18.1 9.25717 18.26C8.10393 18.42 7.00592 18.8544 6.05535 19.5267C5.10478 20.199 4.3294 21.0895 3.79433 22.1236C3.25925 23.1576 2.98011 24.305 2.98033 25.4692L0.554688 25.468C0.554311 23.987 0.892969 22.5256 1.54471 21.1957C2.19645 19.8659 3.14398 18.7028 4.3147 17.7958C5.48541 16.8887 6.84823 16.2617 8.29874 15.9627C9.74924 15.6638 11.2489 15.7008 12.6829 16.0711V16.0723ZM10.2573 14.5539C6.23675 14.5539 2.98033 11.2974 2.98033 7.27693C2.98033 3.25642 6.23675 0 10.2573 0C14.2778 0 17.5342 3.25642 17.5342 7.27693C17.5342 11.2974 14.2778 14.5539 10.2573 14.5539ZM10.2573 12.1282C12.9376 12.1282 15.1085 9.95726 15.1085 7.27693C15.1085 4.59659 12.9376 2.42564 10.2573 2.42564C7.57692 2.42564 5.40597 4.59659 5.40597 7.27693C5.40597 9.95726 7.57692 12.1282 10.2573 12.1282ZM17.5342 19.4051V15.7667H19.9598V19.4051H23.5983V21.8308H19.9598V25.4692H17.5342V21.8308H13.8957V19.4051H17.5342Z" fill="#7A7979"/>
</svg>
