<svg width="69" height="70" viewBox="0 0 69 70" fill="none" xmlns="http://www.w3.org/2000/svg">
<g clip-path="url(#clip0_1_66)">
<path d="M16.2253 56.5387C16.2253 55.7715 15.6012 55.1473 14.834 55.1473C14.0669 55.1473 13.4427 55.7715 13.4427 56.5387C13.4427 57.037 13.7069 57.4736 14.1017 57.7195V60.0265C14.1017 62.0319 12.4702 63.6634 10.4648 63.6634C8.45944 63.6634 6.82794 62.0319 6.82794 60.0265V57.7195C7.22278 57.4738 7.48698 57.037 7.48698 56.5387C7.48698 55.7715 6.86279 55.1473 6.09566 55.1473C5.32854 55.1473 4.70435 55.7715 4.70435 56.5387C4.70435 57.037 4.96855 57.4736 5.36339 57.7195V60.0265C5.36339 62.8394 7.65189 65.1279 10.4648 65.1279C13.2778 65.1279 15.5663 62.8394 15.5663 60.0265V57.7195C15.9611 57.4738 16.2253 57.037 16.2253 56.5387Z" fill="#7A7979"/>
<path d="M45.1872 60.789H43.503C43.0987 60.789 42.7708 60.4611 42.7708 60.0567C42.7708 59.6524 43.0987 59.3245 43.503 59.3245H45.1872C45.5916 59.3245 45.9195 59.6524 45.9195 60.0567C45.9195 60.4611 45.5916 60.789 45.1872 60.789Z" fill="#7A7979"/>
<path d="M58.2871 60.789H55.0121C54.6077 60.789 54.2798 60.4611 54.2798 60.0567C54.2798 59.6524 54.6077 59.3245 55.0121 59.3245H58.2871C58.6914 59.3245 59.0193 59.6524 59.0193 60.0567C59.0193 60.4611 58.6914 60.789 58.2871 60.789ZM51.737 60.789H48.462C48.0576 60.789 47.7297 60.4611 47.7297 60.0567C47.7297 59.6524 48.0576 59.3245 48.462 59.3245H51.737C52.1414 59.3245 52.4693 59.6524 52.4693 60.0567C52.4693 60.4611 52.1414 60.789 51.737 60.789Z" fill="#7A7979"/>
<path d="M63.2468 60.789H61.5626C61.1582 60.789 60.8303 60.4611 60.8303 60.0567C60.8303 59.6524 61.1582 59.3245 61.5626 59.3245H63.2468C63.6512 59.3245 63.9791 59.6524 63.9791 60.0567C63.9791 60.4611 63.6512 60.789 63.2468 60.789Z" fill="#7A7979"/>
<path d="M56.2506 55.4745H43.5064C43.1021 55.4745 42.7742 55.1465 42.7742 54.7422C42.7742 54.3378 43.1021 54.0099 43.5064 54.0099H56.2508C56.6551 54.0099 56.983 54.3378 56.983 54.7422C56.983 55.1465 56.6551 55.4745 56.2506 55.4745Z" fill="#7A7979"/>
<path d="M49.1827 40.9123C49.1827 39.0002 47.6271 37.4446 45.715 37.4446H41.3956L39.7171 33.467C39.5599 33.0944 39.1299 32.9199 38.7578 33.077C38.3852 33.2341 38.2106 33.6637 38.3678 34.0363L39.806 37.4444H29.1985L30.6367 34.0363C30.794 33.6637 30.6194 33.2341 30.2467 33.077C29.8741 32.9197 29.4446 33.0943 29.2874 33.467L27.6089 37.4446H23.2895C21.3774 37.4446 19.8218 39.0002 19.8218 40.9123C19.8218 42.6147 21.0552 44.0334 22.6752 44.3244L24.2841 53.7791C24.4644 54.8384 25.3752 55.6073 26.4499 55.6073H34.358C34.7623 55.6073 35.0903 55.2794 35.0903 54.875C35.0903 54.4707 34.7623 54.1428 34.358 54.1428H26.4499C26.0916 54.1428 25.788 53.8865 25.728 53.5334L24.1703 44.3799H44.834L44.4512 46.6293C44.3834 47.028 44.6515 47.4063 45.0502 47.4741C45.0918 47.4811 45.1331 47.4846 45.174 47.4846C45.5244 47.4846 45.8342 47.2321 45.8949 46.8751L46.329 44.3244C47.9493 44.0336 49.1827 42.6149 49.1827 40.9123ZM45.715 42.9155H23.2898C22.1853 42.9155 21.2866 42.0169 21.2866 40.9123C21.2866 39.8078 22.1853 38.9091 23.2898 38.9091H26.9912L26.8179 39.3198C26.1529 39.4239 25.642 39.9989 25.642 40.6926C25.642 41.4598 26.2662 42.084 27.0333 42.084C27.8005 42.084 28.4247 41.4598 28.4247 40.6926C28.4247 40.3933 28.3287 40.1163 28.1672 39.8892L28.5808 38.9091H40.4243L40.8379 39.8892C40.6763 40.1165 40.5804 40.3933 40.5804 40.6926C40.5804 41.4598 41.2046 42.084 41.9717 42.084C42.7389 42.084 43.363 41.4598 43.363 40.6926C43.363 39.9989 42.8521 39.4238 42.1872 39.3198L42.0139 38.9091H45.7153C46.8198 38.9091 47.7185 39.8078 47.7185 40.9123C47.7185 42.0169 46.8195 42.9155 45.715 42.9155Z" fill="#7A7979"/>
<path d="M34.5028 52.2782C34.0984 52.2782 33.7705 51.9503 33.7705 51.546V47.1523C33.7705 46.748 34.0984 46.42 34.5028 46.42C34.9071 46.42 35.235 46.748 35.235 47.1523V51.546C35.235 51.9505 34.9071 52.2782 34.5028 52.2782Z" fill="#7A7979"/>
<path d="M65.0661 48.5552H41.6812C41.3094 48.5552 40.9504 48.6113 40.612 48.7148L41.0556 47.3839C41.1834 47.0002 40.9761 46.5855 40.5923 46.4575C40.2086 46.3297 39.794 46.5371 39.666 46.9208L38.5092 50.3913C38.1985 50.9291 38.0197 51.5521 38.0197 52.2166V58.5365H20.6502V54.1833C20.6502 53.779 20.3223 53.451 19.9179 53.451C19.5136 53.451 19.1857 53.779 19.1857 54.1833V67.6355H1.74247V51.8402H19.9181C20.4532 51.8564 20.8302 51.2295 20.5648 50.7645L19.5907 48.9301L20.5648 47.0958C20.8302 46.6308 20.4532 46.0038 19.9181 46.0201H1.0102C0.475053 46.0038 0.0980792 46.6308 0.363455 47.0958L1.33752 48.9301L0.363455 50.7643C0.308242 50.871 0.280855 50.9884 0.277925 51.1078V68.3679C0.277925 68.7722 0.605837 69.1002 1.0102 69.1002H19.9181C20.3224 69.1002 20.6503 68.7722 20.6503 68.3679V66.6242H38.2179C38.7117 68.0628 40.0771 69.1002 41.6812 69.1002H65.0661C67.085 69.1002 68.7274 67.4577 68.7274 65.4388V52.2166C68.7274 50.1977 67.085 48.5552 65.0661 48.5552ZM2.81335 48.5867L2.22812 47.4846H18.7L18.1148 48.5867C18.0007 48.8014 18.0007 49.0587 18.1148 49.2736L18.7 50.3755H2.22812L2.81335 49.2736C2.92744 49.0589 2.92744 48.8016 2.81335 48.5867ZM38.0199 65.1595H20.6503V60.0011H38.0199V65.1595ZM67.2629 65.4388C67.2629 66.6501 66.2774 67.6356 65.0661 67.6356H41.6812C40.4699 67.6356 39.4844 66.6501 39.4844 65.4388V52.2166C39.4844 51.0053 40.4699 50.0198 41.6812 50.0198H65.0661C66.2774 50.0198 67.2629 51.0053 67.2629 52.2166V65.4388Z" fill="#7A7979"/>
<path d="M30.1088 52.2787C29.8021 52.2787 29.5165 52.0846 29.4142 51.7778L27.9496 47.3841C27.8218 47.0004 28.0291 46.5858 28.4129 46.4578C28.7967 46.3299 29.2112 46.5373 29.3392 46.921L30.8037 51.3147C30.9675 51.7778 30.5974 52.2863 30.1088 52.2787Z" fill="#7A7979"/>
<path d="M64.9564 23.573C64.9522 23.5027 64.9251 23.4357 64.9021 23.37L60.2488 12.9859C59.6596 11.6713 58.3481 10.8219 56.9076 10.8219H50.6049V8.06255H59.3851C60.5965 8.06255 61.582 7.07705 61.582 5.86573V2.65617C61.582 1.44484 60.5965 0.459351 59.3851 0.459351H9.62189C8.41057 0.459351 7.42507 1.44484 7.42507 2.65617V5.86573C7.42507 7.07705 8.41057 8.06255 9.62189 8.06255H18.4021V10.8219H12.0996C10.6591 10.8219 9.34744 11.6713 8.7584 12.9859L4.10509 23.37C4.05369 23.4926 4.03611 23.6295 4.04109 23.762C4.04109 25.9319 5.07609 27.8635 6.67728 29.0926V43.2369C6.67728 43.6412 7.00519 43.9691 7.40955 43.9691C7.81391 43.9691 8.14182 43.6412 8.14182 43.2369V29.9489C8.94659 30.2906 9.83103 30.4798 10.759 30.4798C13.3534 30.4798 15.6074 29.0004 16.7261 26.842C17.8197 28.9978 20.0569 30.4798 22.6353 30.4798C25.2123 30.4798 27.4487 28.9993 28.5428 26.8451C29.66 29.0018 31.9117 30.4798 34.5037 30.4798C37.0956 30.4798 39.3474 29.0016 40.4645 26.8449C41.5587 28.9993 43.795 30.4798 46.3722 30.4798C48.9504 30.4798 51.1876 28.9979 52.2812 26.842C53.4 29.0004 55.6539 30.4798 58.2484 30.4798C59.1763 30.4798 60.0607 30.2906 60.8655 29.9489V41.3783C60.8655 41.7827 61.1934 42.1106 61.5978 42.1106C62.0021 42.1106 62.33 41.7827 62.33 41.3783V29.0927C63.9705 27.836 65.0455 25.791 64.9564 23.573ZM56.9076 12.2864C57.7719 12.2864 58.5588 12.7961 58.9122 13.5849L63.1032 22.9374H52.812L49.7096 12.2864H56.9076ZM20.8229 12.2864H29.3173L27.8854 22.9374H17.7205L20.8229 12.2864ZM19.8667 10.8219V8.06255H49.1403V10.8219H19.8667ZM30.7948 12.2864H38.2122L39.6441 22.9374H29.3631L30.7948 12.2864ZM41.1218 22.9372L39.6899 12.2863H48.1843L51.2866 22.9372H41.1218ZM9.62189 6.598C9.21812 6.598 8.88962 6.2695 8.88962 5.86573V2.65617C8.88962 2.2524 9.21812 1.9239 9.62189 1.9239H59.3851C59.7889 1.9239 60.1174 2.2524 60.1174 2.65617V5.86573C60.1174 6.2695 59.7889 6.598 59.3851 6.598H9.62189ZM10.0948 13.5849C10.4483 12.7961 11.2352 12.2864 12.0995 12.2864H19.2974L16.1951 22.9374H5.90385L10.0948 13.5849ZM10.7588 29.0154C8.0787 29.0154 5.86094 26.9978 5.5443 24.4018H15.9735C15.6569 26.9978 13.4389 29.0154 10.7588 29.0154ZM22.6351 29.0154C19.9748 29.0154 17.7788 26.9909 17.5058 24.4018H27.7646C27.4914 26.9909 25.2955 29.0154 22.6351 29.0154ZM34.5035 29.0154C31.8249 29.0154 29.6089 26.9974 29.2959 24.4018H39.7112C39.3982 26.9974 37.182 29.0154 34.5035 29.0154ZM46.3719 29.0154C43.7116 29.0154 41.5156 26.9909 41.2426 24.4018H51.5013C51.2283 26.9909 49.0323 29.0154 46.3719 29.0154ZM58.2482 29.0154C55.5681 29.0154 53.3503 26.9978 53.0337 24.4018H63.4629C63.1461 26.9978 60.9283 29.0154 58.2482 29.0154Z" fill="#7A7979"/>
<path d="M61.5972 46.4927C62.2038 46.4927 62.6956 46.0009 62.6956 45.3943C62.6956 44.7877 62.2038 44.2959 61.5972 44.2959C60.9906 44.2959 60.4988 44.7877 60.4988 45.3943C60.4988 46.0009 60.9906 46.4927 61.5972 46.4927Z" fill="#7A7979"/>
</g>
<defs>
<clipPath id="clip0_1_66">
<rect width="68.6404" height="68.6404" fill="white" transform="translate(0.182129 0.460327)"/>
</clipPath>
</defs>
</svg>
