<svg width="20" height="24" viewBox="0 0 20 24" fill="none" xmlns="http://www.w3.org/2000/svg">
<path d="M19.5113 17.9035L17.2242 15.8767V3.34983C17.2242 3.22552 17.1747 3.10627 17.0869 3.01837L14.2058 0.137297C14.1178 0.0494062 13.9986 0 13.8743 0H2.76289C2.504 0 2.29414 0.209859 2.29414 0.46875V1.96406H0.798828C0.539937 1.96406 0.330078 2.17392 0.330078 2.43281V20.1514C0.330078 20.4103 0.539937 20.6202 0.798828 20.6202H8.44995C8.28106 21.4522 8.19861 22.4169 8.19861 23.5312C8.19861 23.7565 8.35887 23.9499 8.58022 23.9918C8.60947 23.9974 8.63872 24 8.66759 24C8.85725 24 9.03228 23.8845 9.10367 23.7025C10.0443 21.3057 11.6106 20.8298 14.9011 20.7923V21.6488C14.9011 21.8333 15.0093 22.0005 15.1775 22.0763C15.3457 22.152 15.5427 22.122 15.6807 21.9996L19.5113 18.6051C19.6117 18.5161 19.6692 18.3884 19.6692 18.2543C19.6692 18.1202 19.6117 17.9925 19.5113 17.9035ZM14.343 1.60041L15.6237 2.88112H14.343V1.60041ZM3.23164 0.9375H13.4055V3.34983C13.4055 3.60872 13.6154 3.81858 13.8743 3.81858H16.2866V15.0459L15.6807 14.509C15.5427 14.3867 15.3457 14.3567 15.1775 14.4324C15.0093 14.5081 14.9011 14.6754 14.9011 14.8598V16.0243C12.5289 16.0796 10.9885 16.568 9.94339 17.5865C9.89937 17.6295 9.85648 17.6737 9.81416 17.7186H3.23164V0.9375ZM8.69511 19.6827H1.26758V2.90156H2.29414V18.1873C2.29414 18.4462 2.504 18.6561 2.76289 18.6561H9.13653C8.96544 18.966 8.81844 19.3074 8.69511 19.6827ZM15.8386 20.6071V20.3211C15.8386 20.0622 15.6288 19.8523 15.3699 19.8523C13.5253 19.8523 12.0576 19.9519 10.8896 20.4379C10.2362 20.7098 9.69172 21.0984 9.23773 21.6242C9.70278 17.7311 11.761 16.9564 15.3698 16.9564C15.6287 16.9564 15.8386 16.7466 15.8386 16.4877V15.9015L18.4936 18.2543L15.8386 20.6071ZM5.88495 11.3782C5.88495 11.1193 6.09481 10.9095 6.3537 10.9095H12.8194C13.0782 10.9095 13.2881 11.1193 13.2881 11.3782C13.2881 11.6371 13.0782 11.847 12.8194 11.847H6.3537C6.09481 11.847 5.88495 11.6371 5.88495 11.3782ZM6.3537 14.8262C6.09481 14.8262 5.88495 14.6163 5.88495 14.3574C5.88495 14.0985 6.09481 13.8887 6.3537 13.8887H12.8194C13.0782 13.8887 13.2881 14.0985 13.2881 14.3574C13.2881 14.6163 13.0782 14.8262 12.8194 14.8262H6.3537ZM5.88495 8.39892C5.88495 8.14003 6.09481 7.93017 6.3537 7.93017H12.8194C13.0782 7.93017 13.2881 8.14003 13.2881 8.39892C13.2881 8.65781 13.0782 8.86767 12.8194 8.86767H6.3537C6.09481 8.86767 5.88495 8.65781 5.88495 8.39892ZM5.88495 5.41964C5.88495 5.16075 6.09481 4.95089 6.3537 4.95089H12.8194C13.0782 4.95089 13.2881 5.16075 13.2881 5.41964C13.2881 5.67853 13.0782 5.88839 12.8194 5.88839H6.3537C6.09481 5.88839 5.88495 5.67853 5.88495 5.41964Z" fill="#7A7979"/>
</svg>
