<svg width="25" height="17" viewBox="0 0 25 17" fill="none" xmlns="http://www.w3.org/2000/svg">
<path d="M2.99784 2.36111V0.937833C2.99984 0.689802 3.11464 0.452405 3.31746 0.276928C3.52027 0.10145 3.79481 0.00197828 4.08177 0H23.7673C24.3661 0 24.8512 0.420278 24.8512 0.937833V16.0622C24.8492 16.3102 24.7344 16.5476 24.5316 16.7231C24.3288 16.8985 24.0542 16.998 23.7673 17H4.08177C3.79419 16.9998 3.51849 16.9008 3.31525 16.725C3.112 16.5491 2.99784 16.3107 2.99784 16.0622V15.1111H22.6659V4.06111L13.9245 10.8611L2.99784 2.36111ZM0.8125 6.61111H6.27584V8.5H0.8125V6.61111ZM0.8125 11.3333H9.55385V13.2222H0.8125V11.3333Z" fill="#FEBD17"/>
</svg>
