<svg width="21" height="20" viewBox="0 0 21 20" fill="none" xmlns="http://www.w3.org/2000/svg">
<path d="M4.33356 2.54507C5.36029 1.62535 6.56625 0.928062 7.87556 0.49707C8.24994 0.966094 8.72522 1.3447 9.26608 1.60474C9.80693 1.86478 10.3994 1.99956 10.9996 1.99907C11.5997 1.99956 12.1922 1.86478 12.733 1.60474C13.2739 1.3447 13.7492 0.966094 14.1236 0.49707C15.4329 0.928062 16.6388 1.62535 17.6656 2.54507C17.4471 3.10352 17.3572 3.70401 17.4025 4.30196C17.4479 4.89991 17.6273 5.47997 17.9276 5.99907C18.2272 6.51916 18.6402 6.96502 19.1358 7.30349C19.6315 7.64196 20.1971 7.86433 20.7906 7.95407C21.0711 9.30297 21.0711 10.6952 20.7906 12.0441C19.6306 12.2221 18.5606 12.9041 17.9276 13.9991C17.6272 14.5183 17.4476 15.0985 17.4023 15.6967C17.3569 16.2948 17.4469 16.8955 17.6656 17.4541C16.6387 18.3734 15.4328 19.0704 14.1236 19.5011C13.7491 19.0322 13.2738 18.6538 12.7329 18.394C12.1921 18.1341 11.5996 17.9995 10.9996 18.0001C10.3994 17.9996 9.80693 18.1344 9.26608 18.3944C8.72522 18.6544 8.24994 19.033 7.87556 19.5021C6.56633 19.0714 5.36038 18.3744 4.33356 17.4551C4.55221 16.8965 4.6422 16.2958 4.59684 15.6977C4.55148 15.0995 4.37194 14.5193 4.07156 14.0001C3.77185 13.4802 3.35881 13.0345 2.86314 12.6962C2.36748 12.3579 1.80194 12.1357 1.20856 12.0461C0.927876 10.6968 0.927876 9.30429 1.20856 7.95507C1.80203 7.86533 2.36763 7.64296 2.8633 7.30449C3.35897 6.96602 3.77196 6.52016 4.07156 6.00007C4.37179 5.48097 4.55124 4.90091 4.5966 4.30296C4.64196 3.70501 4.55205 3.10452 4.33356 2.54607V2.54507ZM12.4996 12.5971C12.8435 12.4015 13.1454 12.1399 13.3878 11.8272C13.6302 11.5145 13.8083 11.157 13.912 10.7751C14.0157 10.3933 14.0428 9.99478 13.9918 9.60244C13.9408 9.2101 13.8127 8.83172 13.6149 8.48909C13.417 8.14646 13.1534 7.84634 12.8391 7.60601C12.5248 7.36569 12.1661 7.1899 11.7836 7.08877C11.4011 6.98765 11.0024 6.96318 10.6104 7.01678C10.2184 7.07037 9.84087 7.20098 9.49956 7.40107C8.81614 7.80172 8.31894 8.45643 8.11645 9.22232C7.91396 9.9882 8.02263 10.8031 8.41874 11.4892C8.81485 12.1752 9.46624 12.6768 10.2308 12.8843C10.9953 13.0919 11.8109 12.9886 12.4996 12.5971Z" fill="#363636"/>
</svg>
