<svg width="16" height="16" viewBox="0 0 16 16" fill="none" xmlns="http://www.w3.org/2000/svg">
<path d="M8.00072 6.23219L3.2275 1.45897L3.05072 1.28219L2.87394 1.45897L1.45994 2.87297L1.28317 3.04974L1.45994 3.22652L6.23317 7.99974L1.45994 12.773L1.28317 12.9497L1.45994 13.1265L2.87394 14.5405L3.05072 14.7173L3.2275 14.5405L8.00072 9.7673L12.7739 14.5405L12.9507 14.7173L13.1275 14.5405L14.5415 13.1265L14.7183 12.9497L14.5415 12.773L9.76827 7.99974L14.5415 3.22652L14.7183 3.04974L14.5415 2.87297L13.1275 1.45897L12.9507 1.28219L12.7739 1.45897L8.00072 6.23219Z" fill="#FF0000" stroke="#FF0000" stroke-width="0.5"/>
</svg>
