<svg width="18" height="19" viewBox="0 0 18 19" fill="none" xmlns="http://www.w3.org/2000/svg">
<path d="M17.0732 7.99873L14.1651 5.00429C13.8684 4.69857 13.3718 4.68511 13.0581 4.97394L11.8917 6.04822C11.569 6.34528 11.1348 6.5024 10.6678 6.48963C10.2093 6.47727 9.74891 6.59483 9.35385 6.82199L8.65033 6.60074C8.26031 6.48015 7.84759 6.47864 7.45659 6.59648C7.01135 6.7308 6.52982 6.61365 6.20034 6.29076L5.1473 5.25892C4.99903 5.11348 4.80171 5.03327 4.59191 5.03327C4.38198 5.03327 4.1848 5.11348 4.03638 5.25878L0.936691 8.29648C0.630478 8.59671 0.630478 9.08496 0.936691 9.38532L2.52788 10.9445C2.64924 11.0635 2.71609 11.2217 2.71609 11.3899C2.71609 11.7546 2.86114 12.0975 3.12419 12.3553C3.12517 12.3563 3.12601 12.3572 3.12699 12.3581L3.19833 12.4265L2.57721 13.0351C2.09049 13.5123 2.09049 14.2884 2.57721 14.7655C2.81307 14.9965 3.12657 15.1238 3.45997 15.1238C3.46544 15.1238 3.47091 15.123 3.47637 15.123C3.4859 15.4235 3.60614 15.7213 3.83962 15.9502C4.08305 16.1886 4.40272 16.308 4.72239 16.308C4.73752 16.308 4.75252 16.3063 4.76765 16.3058C4.78279 16.5979 4.90247 16.8856 5.12964 17.1081C5.36536 17.3391 5.67887 17.4664 6.01241 17.4664C6.01703 17.4664 6.02138 17.4659 6.026 17.4658C6.03301 17.77 6.15353 18.072 6.38981 18.3035C6.63324 18.5421 6.95291 18.6613 7.27258 18.6613C7.59224 18.6613 7.91191 18.5421 8.15534 18.3035L8.8775 17.5958L9.59966 18.3035C9.84309 18.5421 10.1628 18.6613 10.4824 18.6613C10.8021 18.6613 11.1218 18.5421 11.3652 18.3035C11.6156 18.0581 11.7361 17.7337 11.729 17.4114C12.0311 17.3991 12.3298 17.2817 12.5599 17.0561C12.7958 16.8251 12.9255 16.5178 12.9255 16.191C12.9255 16.1818 12.9244 16.1727 12.9243 16.1635C13.2276 16.152 13.5275 16.0344 13.7584 15.8079C13.9978 15.5735 14.1187 15.2667 14.1228 14.9586C14.4542 14.9572 14.7656 14.8303 15.0001 14.6006C15.4519 14.1578 15.4836 13.4576 15.0968 12.9779C15.306 12.6822 15.4282 12.3258 15.4467 11.944L15.4876 11.1061C15.5018 10.8134 15.6239 10.536 15.8313 10.3249L17.0701 9.06339C17.3625 8.76564 17.3639 8.29799 17.0732 7.99873ZM3.10807 14.2453C2.91398 14.055 2.91398 13.7456 3.10807 13.5554L4.71258 11.9828C4.80956 11.8878 4.93709 11.8403 5.06462 11.8403C5.19201 11.8403 5.31954 11.8878 5.41666 11.9828C5.61076 12.1731 5.61076 12.4826 5.41666 12.6728L3.81201 14.2453C3.71798 14.3374 3.59297 14.3882 3.45997 14.3882C3.32712 14.3882 3.20211 14.3374 3.10807 14.2453ZM4.37049 15.43C4.17639 15.2397 4.17639 14.9303 4.37049 14.7401L5.97499 13.1677C6.07211 13.0725 6.1995 13.025 6.32703 13.025C6.45456 13.025 6.58195 13.0725 6.67907 13.1677C6.87317 13.3579 6.87317 13.6673 6.67907 13.8575L5.07457 15.43C4.88033 15.6202 4.56458 15.6203 4.37049 15.43ZM5.66051 16.5879C5.46641 16.3978 5.46641 16.0882 5.66051 15.898L7.26501 14.3255C7.36199 14.2304 7.48952 14.1829 7.61705 14.1829C7.74444 14.1829 7.87197 14.2304 7.96895 14.3255C8.06299 14.4176 8.11484 14.5401 8.11484 14.6705C8.11484 14.8008 8.06299 14.9233 7.96895 15.0155L6.36445 16.588C6.27041 16.68 6.1454 16.7308 6.01241 16.7308C5.87955 16.7308 5.75454 16.68 5.66051 16.5879ZM7.62462 17.7834C7.43052 17.9736 7.11464 17.9736 6.92068 17.7834C6.72658 17.5932 6.72658 17.2836 6.92068 17.0934L8.52224 15.5239C8.52336 15.5228 8.52476 15.5221 8.52588 15.521C8.61992 15.4289 8.74478 15.3782 8.87764 15.3782C9.00909 15.3782 9.1327 15.4283 9.22632 15.5187C9.22842 15.5209 9.22996 15.5235 9.23206 15.5255L9.23725 15.5306C9.42224 15.7214 9.42028 16.0237 9.22926 16.211L7.62462 17.7834ZM10.8345 17.7834C10.6404 17.9736 10.3246 17.9736 10.1305 17.7834L9.40836 17.0757L9.75998 16.7311C9.88485 16.6089 9.97707 16.4666 10.0379 16.315L10.7944 17.0561C10.8005 17.0621 10.8074 17.0672 10.8136 17.0731L10.8345 17.0934C11.0286 17.2836 11.0286 17.5932 10.8345 17.7834ZM14.4694 14.0803C14.3755 14.1725 14.2503 14.2233 14.1175 14.2233C13.9845 14.2233 13.8595 14.1725 13.7654 14.0803L12.1608 12.5079C12.1231 12.471 12.0792 12.4438 12.0325 12.4259C11.8965 12.3704 11.7339 12.3968 11.6232 12.5051C11.4766 12.6488 11.4766 12.8817 11.6232 13.0254L13.2277 14.5978C13.4218 14.7882 13.4218 15.0976 13.2277 15.2878C13.0336 15.478 12.7179 15.478 12.5238 15.2878L10.9191 13.7154C10.7727 13.5717 10.535 13.5717 10.3884 13.7154C10.2418 13.8589 10.2418 14.0918 10.3884 14.2355L10.4132 14.2597C10.4173 14.2642 10.4202 14.2693 10.4247 14.2735L12.0292 15.8461C12.1232 15.9381 12.1751 16.0606 12.1751 16.191C12.1751 16.3213 12.1232 16.4438 12.0292 16.536C11.8383 16.723 11.5303 16.7251 11.3353 16.5441L9.76068 15.0009C9.52482 14.7698 9.21132 14.6426 8.87792 14.6426C8.87806 14.6426 8.87778 14.6426 8.87792 14.6426C8.87358 14.6426 8.86853 14.6431 8.86405 14.6431C8.85704 14.3267 8.72895 14.03 8.49981 13.8054C8.24489 13.5557 7.90645 13.438 7.57178 13.4498C7.55665 13.1578 7.43697 12.8701 7.20979 12.6474C6.9623 12.4049 6.63577 12.2864 6.31063 12.2905C6.30138 11.9898 6.18114 11.6918 5.94738 11.4627C5.46066 10.9857 4.66871 10.9857 4.18185 11.4627L3.72919 11.9063L3.65379 11.834C3.53327 11.7152 3.46684 11.5575 3.46684 11.3899C3.46684 11.0252 3.32193 10.6822 3.05874 10.4244L1.46755 8.86507C1.45396 8.85175 1.45396 8.83005 1.46755 8.81659L4.56725 5.77889C4.58084 5.76571 4.60312 5.76571 4.61672 5.77903L5.66962 6.81087C6.19628 7.32699 6.9658 7.51433 7.67745 7.29953C7.922 7.22577 8.18029 7.22674 8.42273 7.30172L8.64388 7.37136L6.81949 9.12149C6.44012 9.48544 6.33067 10.0652 6.55308 10.5312C6.73148 10.9049 7.11057 11.19 7.54235 11.2751C8.07308 11.3801 8.51187 11.1622 8.88156 10.9499C9.1093 10.8192 9.287 10.6427 9.44382 10.4869C9.54963 10.3819 9.64969 10.2826 9.75508 10.205C9.91176 10.0897 10.0932 10.0226 10.266 10.016C10.4416 10.009 10.6601 10.0849 10.871 10.1581L10.9321 10.1793C11.2151 10.2765 11.458 10.428 11.6743 10.6423L11.6756 10.641C11.7486 10.7146 11.9909 10.9533 12.8417 11.7902C12.8494 11.7994 12.856 11.8092 12.8649 11.8179L14.4695 13.3904C14.6635 13.5807 14.6635 13.8901 14.4694 14.0803ZM16.5293 8.55317L15.2905 9.81465C14.9571 10.1542 14.7609 10.6004 14.7379 11.071L14.6971 11.9088C14.6878 12.099 14.6394 12.2777 14.5565 12.4344C13.8669 11.7562 12.2374 10.1537 12.2074 10.1243C11.9133 9.83332 11.5678 9.61811 11.1806 9.48503L11.1215 9.46456C10.8698 9.37721 10.5567 9.26885 10.2368 9.28094C9.91302 9.2933 9.58186 9.41251 9.30438 9.61674C9.15442 9.72702 9.02998 9.85063 8.90959 9.97011C8.77323 10.1055 8.64444 10.2334 8.50192 10.3153C8.17454 10.5033 7.93686 10.6026 7.69049 10.5539C7.49078 10.5145 7.31112 10.3831 7.23292 10.2194C7.14463 10.0345 7.19157 9.79377 7.34461 9.64695L9.18778 7.87869C9.32175 7.75014 9.46778 7.63175 9.62054 7.52724C9.62096 7.52696 9.62404 7.5249 9.62432 7.52463C9.92171 7.32164 10.2844 7.21534 10.6472 7.22481C11.3131 7.24239 11.9377 7.01523 12.4058 6.58412L13.5722 5.50998C13.586 5.49707 13.6082 5.49762 13.6214 5.51135L16.5295 8.50579C16.5424 8.51911 16.5424 8.53999 16.5293 8.55317Z" fill="#FEBD17"/>
<path d="M11.0411 11.4941C10.9635 11.3059 10.7447 11.2149 10.5524 11.2912C10.3603 11.3674 10.2675 11.5818 10.3453 11.7701L10.3508 11.7834C10.4099 11.9265 10.5505 12.0134 10.6989 12.0134C10.7457 12.0134 10.7934 12.0048 10.8395 11.9865C11.0316 11.9103 11.1244 11.6959 11.0466 11.5076L11.0411 11.4941Z" fill="#FEBD17"/>
<path d="M6.44763 4.6659H11.809C12.1281 4.6659 12.3877 4.4114 12.3877 4.09854V1.22702C12.3877 0.91416 12.1281 0.659668 11.8088 0.659668H6.44763C6.12838 0.659668 5.8687 0.91416 5.8687 1.22702V4.09854C5.8687 4.4114 6.12838 4.6659 6.44763 4.6659ZM6.6193 1.39526H11.6371V3.9303H6.6193V1.39526Z" fill="#FEBD17"/>
<path d="M8.26743 2.49978C8.18979 2.31149 7.97089 2.22057 7.77875 2.29679C7.58661 2.37288 7.49384 2.58726 7.57162 2.77556L7.57666 2.78778C7.63566 2.93103 7.77623 3.01783 7.92464 3.01783C7.97145 3.01783 8.0191 3.00917 8.0652 2.99091C8.25734 2.91482 8.35011 2.70043 8.27247 2.512L8.26743 2.49978Z" fill="#FEBD17"/>
<path d="M9.41731 2.49978C9.33953 2.31149 9.12076 2.22057 8.92863 2.29679C8.73649 2.37288 8.64372 2.58726 8.72136 2.77556L8.7264 2.78778C8.78554 2.93103 8.92611 3.01783 9.07452 3.01783C9.12132 3.01783 9.16897 3.00917 9.21508 2.99091C9.40721 2.91482 9.49999 2.70043 9.42221 2.512L9.41731 2.49978Z" fill="#FEBD17"/>
<path d="M10.5685 2.49978C10.4909 2.31149 10.2721 2.22057 10.0799 2.29679C9.88772 2.37288 9.79494 2.58726 9.87272 2.77556L9.87763 2.78778C9.93677 2.93103 10.0773 3.01783 10.2257 3.01783C10.2726 3.01783 10.3202 3.00917 10.3663 2.99091C10.5584 2.91482 10.6512 2.70043 10.5736 2.512L10.5685 2.49978Z" fill="#FEBD17"/>
</svg>
