<svg width="40" height="40" viewBox="0 0 40 40" fill="none" xmlns="http://www.w3.org/2000/svg">
<path d="M24.3442 11.7729C23.4068 11.7729 22.6249 12.4484 22.4582 13.338L16.3009 15.8956H14.0689C13.0912 15.8956 12.2959 16.6491 12.2959 17.5754V20.4649C12.2959 21.1584 12.7418 21.7551 13.3763 22.0112V25.7827C13.3763 26.7832 14.1902 27.5971 15.1907 27.5971C16.1911 27.5971 17.005 26.7832 17.005 25.7827V22.4372L22.4582 24.7022C22.6249 25.5919 23.4069 26.2674 24.3442 26.2674C25.4025 26.2674 26.2636 25.4064 26.2636 24.348V22.1858C27.6768 21.8192 28.7194 20.521 28.7194 19.0201C28.7194 17.5192 27.6768 16.2211 26.2636 15.8545V13.6922C26.2636 12.6339 25.4025 11.7729 24.3442 11.7729ZM17.005 16.8746L22.4249 14.6233V23.4171L17.005 21.1658V16.8746ZM13.47 17.5754C13.47 17.2966 13.7386 17.0697 14.0688 17.0697H15.8308V20.9705H14.0689C13.7387 20.9705 13.4701 20.7437 13.4701 20.4648V17.5754H13.47ZM15.1907 26.4229C14.8376 26.4229 14.5504 26.1358 14.5504 25.7827V22.1447H15.8308V25.7827C15.8309 26.1358 15.5436 26.4229 15.1907 26.4229ZM25.0893 24.3481C25.0893 24.759 24.755 25.0933 24.3442 25.0933C23.9333 25.0933 23.599 24.759 23.599 24.3481V13.6922C23.599 13.2814 23.9333 12.9471 24.3442 12.9471C24.755 12.9471 25.0893 13.2813 25.0893 13.6922V24.3481ZM27.5453 19.0201C27.5453 19.8754 27.0171 20.6281 26.2636 20.9497V17.0907C27.0171 17.4122 27.5453 18.1647 27.5453 19.0201Z" fill="black"/>
<path d="M34.6138 30.0384C33.5894 30.0384 32.6171 30.3738 31.8201 30.9908L29.1588 28.3295C31.1617 26.1294 32.2291 23.3765 32.3604 20.587H34.4934C34.7637 21.8412 35.881 22.7841 37.2148 22.7841C38.75 22.7842 39.999 21.5352 39.999 20C39.999 18.4648 38.75 17.2158 37.2148 17.2158C35.881 17.2158 34.7638 18.1588 34.4934 19.4129H32.3604C32.2291 16.6235 31.1617 13.8706 29.1588 11.6705L31.8201 9.00914C32.6131 9.62281 33.58 9.9582 34.5987 9.96148H34.6007C34.924 9.96148 35.1867 9.69992 35.1878 9.37633C35.1889 9.05211 34.9268 8.78844 34.6026 8.78734C33.6982 8.78438 32.8478 8.43055 32.2082 7.79094C30.8818 6.46445 30.8818 4.30609 32.2082 2.97961C32.8507 2.33703 33.705 1.9832 34.6139 1.9832C35.5226 1.9832 36.3769 2.33703 37.0195 2.97961C37.6621 3.62219 38.016 4.47648 38.016 5.38523C38.016 6.29398 37.6621 7.14828 37.0195 7.79094C36.8689 7.94148 36.7046 8.07797 36.5309 8.19672C36.2632 8.37961 36.1945 8.745 36.3774 9.01266C36.5603 9.28023 36.9256 9.34906 37.1933 9.16609C37.4271 9.00633 37.648 8.82297 37.8498 8.62109C38.7142 7.75672 39.1901 6.6075 39.1901 5.38516C39.1901 4.16281 38.7141 3.01359 37.8498 2.1493C36.9855 1.285 35.8363 0.808984 34.6139 0.808984C33.3914 0.808984 32.2423 1.285 31.3778 2.1493C29.7344 3.79281 29.6061 6.38508 30.9903 8.17844L28.3286 10.8402C26.1285 8.83727 23.3757 7.76984 20.5862 7.63859V5.50562C21.8404 5.23531 22.7833 4.11805 22.7833 2.78422C22.7832 1.24898 21.5343 0 19.999 0C18.4638 0 17.2148 1.24898 17.2148 2.78422C17.2148 4.11805 18.1578 5.23531 19.4119 5.50562V7.63867C16.6225 7.76992 13.8696 8.83734 11.6695 10.8402L9.00777 8.17852C10.392 6.38516 10.2636 3.79289 8.6202 2.14937C7.7559 1.28508 6.60668 0.809062 5.38434 0.809062C4.16199 0.809062 3.01277 1.28508 2.1484 2.14937C1.28402 3.01367 0.808008 4.16297 0.808008 5.38531C0.808008 6.60766 1.28402 7.75687 2.14832 8.62125C3.01262 9.48563 4.16184 9.96156 5.38426 9.96156C6.40863 9.96156 7.3809 9.62617 8.17793 9.00922L10.84 11.6714C10.1877 12.3879 9.62176 13.1739 9.15621 14.0168C8.99949 14.3006 9.10246 14.6577 9.38629 14.8145C9.67004 14.9713 10.0272 14.8683 10.184 14.5845C10.6903 13.6679 11.3264 12.8238 12.0746 12.0755C16.4439 7.70609 23.5539 7.70602 27.9234 12.0755C32.293 16.4452 32.293 23.5548 27.9234 27.9245C23.5539 32.2939 16.4441 32.2939 12.0746 27.9245C9.1109 24.9608 8.05066 20.6335 9.30785 16.6313C9.40504 16.322 9.23301 15.9924 8.92371 15.8953C8.61387 15.7981 8.28481 15.9702 8.18762 16.2795C7.86316 17.3123 7.68027 18.3647 7.62941 19.413H5.50465C5.23434 18.1588 4.11707 17.2159 2.78324 17.2159C1.24801 17.2158 -0.000976562 18.4648 -0.000976562 20C-0.000976562 21.5352 1.24801 22.7842 2.78324 22.7842C4.11707 22.7842 5.23426 21.8413 5.50465 20.5871H7.62809C7.76051 23.4253 8.87043 26.1656 10.8401 28.3287L8.17801 30.9908C7.38098 30.3738 6.40871 30.0384 5.38434 30.0384C4.16191 30.0384 3.01277 30.5145 2.1484 31.3788C1.28402 32.2432 0.808086 33.3923 0.808086 34.6147C0.808086 35.837 1.2841 36.9863 2.1484 37.8506C3.0127 38.715 4.16199 39.1909 5.38434 39.1909C5.70863 39.1909 5.97145 38.928 5.97145 38.6038C5.97145 38.2796 5.70863 38.0167 5.38434 38.0167C4.47559 38.0167 3.62121 37.6628 2.97871 37.0203C2.33605 36.3777 1.98223 35.5234 1.98223 34.6146C1.98223 33.7059 2.33605 32.8516 2.97871 32.209C3.62121 31.5664 4.47559 31.2126 5.38434 31.2126C6.29309 31.2126 7.14738 31.5664 7.79004 32.209C9.11645 33.5355 9.11645 35.6938 7.79012 37.0202C7.62652 37.1838 7.44684 37.3306 7.2559 37.4566C6.98527 37.6353 6.91074 37.9995 7.08941 38.27C7.26801 38.5406 7.63223 38.6152 7.90277 38.4366C8.15949 38.2671 8.4009 38.0699 8.62035 37.8505C10.2638 36.207 10.3921 33.6147 9.00793 31.8214L11.6696 29.1597C13.8698 31.1626 16.6227 32.23 19.4121 32.3613V34.4943C18.1579 34.7646 17.215 35.8819 17.215 37.2157C17.2148 38.751 18.4638 40 19.999 40C21.5343 40 22.7832 38.751 22.7832 37.2158C22.7832 35.882 21.8403 34.7647 20.5861 34.4944V32.3613C23.3755 32.2301 26.1284 31.1627 28.3286 29.1598L30.9902 31.8215C29.606 33.6148 29.7343 36.2071 31.3778 37.8506C32.2422 38.715 33.3914 39.1909 34.6138 39.1909C35.8362 39.1909 36.9854 38.7149 37.8497 37.8506C38.7141 36.9863 39.19 35.8371 39.19 34.6148C39.19 33.3924 38.714 32.2432 37.8497 31.3788C36.9854 30.5145 35.8361 30.0384 34.6138 30.0384ZM18.3889 2.78422C18.3889 1.89641 19.1112 1.17414 19.999 1.17414C20.8868 1.17414 21.6091 1.89641 21.6091 2.78422C21.6091 3.67203 20.8868 4.3943 19.999 4.3943C19.1112 4.3943 18.3889 3.67203 18.3889 2.78422ZM2.97871 7.79094C2.33605 7.14836 1.98223 6.29406 1.98223 5.38523C1.98223 4.47648 2.33605 3.62219 2.97871 2.97961C3.62121 2.33703 4.47559 1.9832 5.38434 1.9832C6.29309 1.9832 7.14738 2.33703 7.79004 2.97961C9.11645 4.30609 9.11645 6.46445 7.79004 7.79094C7.14746 8.43352 6.29316 8.78734 5.38434 8.78734C4.47551 8.78734 3.62121 8.43352 2.97871 7.79094ZM37.2148 18.3899C38.1026 18.3899 38.8249 19.1122 38.8249 20C38.8249 20.8878 38.1026 21.6101 37.2148 21.6101C36.327 21.6101 35.6047 20.8878 35.6047 20C35.6047 19.1122 36.327 18.3899 37.2148 18.3899ZM2.78324 21.6101C1.89543 21.6101 1.17316 20.8878 1.17316 20C1.17316 19.1122 1.89543 18.3899 2.78324 18.3899C3.67105 18.3899 4.39332 19.1123 4.39332 20C4.39332 20.8877 3.67105 21.6101 2.78324 21.6101ZM21.6091 37.2158C21.6091 38.1035 20.8868 38.8259 19.999 38.8259C19.1112 38.8259 18.3889 38.1036 18.3889 37.2158C18.3889 36.328 19.1112 35.6057 19.999 35.6057C20.8868 35.6057 21.6091 36.328 21.6091 37.2158ZM37.0193 37.0204C36.3768 37.663 35.5225 38.0168 34.6137 38.0168C33.705 38.0168 32.8506 37.663 32.208 37.0204C30.8816 35.6939 30.8816 33.5355 32.208 32.2091C32.8506 31.5665 33.7049 31.2127 34.6137 31.2127C35.5225 31.2127 36.3768 31.5665 37.0193 32.2091C37.662 32.8516 38.0158 33.7059 38.0158 34.6148C38.0159 35.5234 37.662 36.3777 37.0193 37.0204Z" fill="black"/>
</svg>
