<svg width="22" height="22" viewBox="0 0 22 22" fill="none" xmlns="http://www.w3.org/2000/svg">
<mask id="path-1-outside-1_1162_1298" maskUnits="userSpaceOnUse" x="0.98291" y="0.363281" width="21" height="22" fill="black">
<rect fill="white" x="0.98291" y="0.363281" width="21" height="22"/>
<path d="M19.329 2.36328H3.61648C3.2659 2.36328 2.98291 2.65117 2.98291 3.00781V18.9922C2.98291 19.3488 3.2659 19.6367 3.61648 19.6367H19.329C19.6796 19.6367 19.9626 19.3488 19.9626 18.9922V3.00781C19.9626 2.65117 19.6796 2.36328 19.329 2.36328ZM9.90994 3.65234H13.0356V6.1875H9.90994V3.65234Z"/>
</mask>
<path d="M9.20644 12.1264C8.80288 11.7494 8.17008 11.7709 7.79305 12.1745C7.41601 12.578 7.43752 13.2108 7.84109 13.5879L9.20644 12.1264ZM10.8174 15L10.1347 15.7307C10.3297 15.9128 10.5893 16.0095 10.8559 15.9993C11.1225 15.989 11.3739 15.8726 11.5543 15.676L10.8174 15ZM16.1416 10.676C16.5149 10.2691 16.4877 9.63651 16.0808 9.26314C15.6738 8.88977 15.0412 8.917 14.6679 9.32396L16.1416 10.676ZM7.84109 13.5879L10.1347 15.7307L11.5001 14.2693L9.20644 12.1264L7.84109 13.5879ZM11.5543 15.676L16.1416 10.676L14.6679 9.32396L10.0806 14.324L11.5543 15.676ZM9.90994 3.65234V1.65234H7.90994V3.65234H9.90994ZM13.0356 3.65234H15.0356V1.65234H13.0356V3.65234ZM13.0356 6.1875V8.1875H15.0356V6.1875H13.0356ZM9.90994 6.1875H7.90994V8.1875H9.90994V6.1875ZM3.61648 0.363281C2.12913 0.363281 0.98291 1.57908 0.98291 3.00781H4.98291C4.98291 3.72326 4.40268 4.36328 3.61648 4.36328V0.363281ZM0.98291 3.00781V18.9922H4.98291V3.00781H0.98291ZM0.98291 18.9922C0.98291 20.4209 2.12913 21.6367 3.61648 21.6367V17.6367C4.40268 17.6367 4.98291 18.2767 4.98291 18.9922H0.98291ZM3.61648 21.6367H19.329V17.6367H3.61648V21.6367ZM19.329 21.6367C20.8164 21.6367 21.9626 20.4209 21.9626 18.9922H17.9626C17.9626 18.2767 18.5428 17.6367 19.329 17.6367V21.6367ZM21.9626 18.9922V3.00781H17.9626V18.9922H21.9626ZM21.9626 3.00781C21.9626 1.57908 20.8164 0.363281 19.329 0.363281V4.36328C18.5428 4.36328 17.9626 3.72326 17.9626 3.00781H21.9626ZM9.90994 5.65234H13.0356V1.65234H9.90994V5.65234ZM11.0356 3.65234V6.1875H15.0356V3.65234H11.0356ZM13.0356 4.1875H9.90994V8.1875H13.0356V4.1875ZM11.9099 6.1875V3.65234H7.90994V6.1875H11.9099ZM19.329 0.363281H3.61648V4.36328H19.329V0.363281Z" fill="white" mask="url(#path-1-outside-1_1162_1298)"/>
</svg>
