<svg width="19" height="18" viewBox="0 0 19 18" fill="none" xmlns="http://www.w3.org/2000/svg">
<path d="M5.41818 11.291C7.15996 11.291 8.57195 9.8546 8.57195 8.08268C8.57195 6.31077 7.15996 4.87435 5.41818 4.87435C3.6764 4.87435 2.26441 6.31077 2.26441 8.08268C2.26441 9.8546 3.6764 11.291 5.41818 11.291Z" fill="black"/>
<path d="M6.76979 12.2077H4.06656C2.99152 12.2089 1.96084 12.6439 1.20067 13.4172C0.4405 14.1905 0.0129113 15.239 0.0117188 16.3327V17.2494C0.0116833 17.3096 0.0233126 17.3692 0.0459417 17.4248C0.0685708 17.4804 0.101756 17.531 0.143599 17.5735C0.185443 17.6161 0.235124 17.6499 0.289802 17.6729C0.344479 17.6959 0.403082 17.7077 0.462257 17.7077H10.3741C10.4333 17.7077 10.4919 17.6959 10.5466 17.6729C10.6012 17.6499 10.6509 17.6161 10.6928 17.5735C10.7346 17.531 10.7678 17.4804 10.7904 17.4248C10.813 17.3692 10.8247 17.3096 10.8246 17.2494V16.3327C10.8234 15.239 10.3959 14.1905 9.63568 13.4172C8.87551 12.6439 7.84484 12.2089 6.76979 12.2077Z" fill="black"/>
<path d="M17.5827 0.291016H11.2752C10.9168 0.291416 10.5733 0.43641 10.3199 0.694186C10.0665 0.951961 9.92397 1.30147 9.92357 1.66601V6.24935C9.92397 6.6139 10.0665 6.9634 10.3199 7.22117C10.5733 7.47895 10.9168 7.62394 11.2752 7.62434H12.6268V8.99934C12.6269 9.08567 12.6509 9.17023 12.6961 9.2433C12.7412 9.31637 12.8058 9.37497 12.8823 9.41238C12.9588 9.44979 13.0441 9.46447 13.1284 9.45475C13.2127 9.44503 13.2926 9.41129 13.3589 9.35742L15.4884 7.62434H17.5827C17.9411 7.62394 18.2846 7.47895 18.538 7.22117C18.7914 6.9634 18.9339 6.6139 18.9343 6.24935V1.66601C18.9339 1.30147 18.7914 0.951961 18.538 0.694186C18.2846 0.43641 17.9411 0.291416 17.5827 0.291016Z" fill="black"/>
</svg>
