<svg width="16" height="16" viewBox="0 0 16 16" fill="none" xmlns="http://www.w3.org/2000/svg">
<path d="M14.8936 6.43159C14.6882 6.29371 14.5027 6.12828 14.3423 5.93996C14.3542 5.67775 14.4069 5.419 14.4985 5.17302C14.6707 4.59002 14.8852 3.86446 14.4719 3.29672C14.0555 2.72446 13.295 2.70526 12.6839 2.68962C12.4269 2.69989 12.1697 2.67225 11.9208 2.60759C11.7839 2.39285 11.6793 2.15912 11.6105 1.91392C11.4067 1.33329 11.1527 0.610622 10.4725 0.389589C9.8125 0.175089 9.2202 0.582622 8.69793 0.941022C8.48805 1.1086 8.25241 1.24107 8.00016 1.33329C7.74779 1.24117 7.51203 1.10869 7.3021 0.941022C6.7798 0.582322 6.18733 0.176055 5.5275 0.389589C4.8475 0.610622 4.5936 1.33292 4.3895 1.91369C4.32083 2.15767 4.21746 2.39052 4.08253 2.60509C3.83276 2.67173 3.57435 2.70016 3.31607 2.68942C2.70507 2.70502 1.9445 2.72426 1.52817 3.29649C1.11483 3.86456 1.32927 4.59012 1.5015 5.17316C1.59205 5.41782 1.64521 5.67472 1.6592 5.93522C1.49953 6.12622 1.31334 6.29339 1.1063 6.43162C0.613333 6.80759 0 7.27566 0 7.99996C0 8.72426 0.613333 9.19233 1.10643 9.56833C1.31182 9.70621 1.4973 9.87163 1.6577 10.06C1.6458 10.3222 1.59309 10.5809 1.50147 10.8269C1.32927 11.4099 1.1148 12.1355 1.52813 12.7032C1.94447 13.2755 2.70503 13.2947 3.31607 13.3103C3.5731 13.3 3.83025 13.3277 4.07923 13.3923C4.21613 13.6071 4.32066 13.8408 4.38947 14.086C4.59357 14.6667 4.84747 15.3893 5.52763 15.6104C5.64814 15.6499 5.77415 15.67 5.90097 15.67C6.41287 15.67 6.8803 15.3487 7.3022 15.059C7.51208 14.8914 7.74773 14.7589 8 14.6666C8.25239 14.7588 8.48815 14.8912 8.6981 15.0589C9.22037 15.4176 9.81266 15.8235 10.4727 15.6103C11.1527 15.3893 11.4066 14.667 11.6107 14.0862C11.6793 13.8422 11.7827 13.6094 11.9176 13.3948C12.1674 13.3282 12.4258 13.2998 12.6841 13.3105C13.2951 13.2949 14.0557 13.2757 14.472 12.7034C14.8853 12.1354 14.6709 11.4098 14.4987 10.8268C14.4081 10.5821 14.355 10.3252 14.341 10.0647C14.5006 9.87369 14.6868 9.70653 14.8939 9.56829C15.3867 9.19233 16 8.72426 16 7.99996C16 7.27566 15.3867 6.80759 14.8936 6.43159ZM10.9714 6.80466L7.63803 10.138C7.57614 10.1999 7.50266 10.249 7.42178 10.2825C7.3409 10.316 7.25421 10.3333 7.16667 10.3333C7.07912 10.3333 6.99243 10.316 6.91155 10.2825C6.83068 10.249 6.75719 10.1999 6.6953 10.138L5.02863 8.47133C4.96544 8.40971 4.91511 8.33617 4.88056 8.25495C4.84601 8.17373 4.82793 8.08647 4.82737 7.99821C4.82681 7.90995 4.84378 7.82246 4.8773 7.74081C4.91082 7.65917 4.96021 7.58499 5.02262 7.52258C5.08503 7.46017 5.15921 7.41078 5.24086 7.37726C5.3225 7.34374 5.40999 7.32677 5.49825 7.32733C5.58651 7.32789 5.67377 7.34597 5.75499 7.38052C5.83621 7.41507 5.90975 7.4654 5.97137 7.52859L7.16667 8.72393L10.0286 5.86192C10.0902 5.79873 10.1638 5.7484 10.245 5.71385C10.3262 5.6793 10.4135 5.66122 10.5017 5.66066C10.59 5.6601 10.6775 5.67707 10.7591 5.71059C10.8408 5.74411 10.915 5.7935 10.9774 5.85591C11.0398 5.91832 11.0892 5.9925 11.1227 6.07415C11.1562 6.15579 11.1732 6.24328 11.1726 6.33154C11.1721 6.4198 11.154 6.50707 11.1194 6.58828C11.0849 6.6695 11.0346 6.74305 10.9714 6.80466Z" fill="white"/>
</svg>
