<svg width="24" height="24" viewBox="0 0 24 24" fill="none" xmlns="http://www.w3.org/2000/svg">
<path d="M6.12663 10.3499H4.96797C4.85752 10.3499 4.76797 10.2604 4.76797 10.1499V8.83755C4.76797 8.7271 4.85752 8.63755 4.96797 8.63755H6.10393C6.58283 8.63755 6.99063 9.0294 6.98263 9.50825C6.97488 9.97365 6.59388 10.3499 6.12663 10.3499ZM14.8394 16.7905C14.9162 17.0471 14.7241 17.3052 14.4562 17.3052H2.80001C1.25361 17.3052 0 16.0516 0 14.5052V6.99464C0 5.44824 1.25361 4.19463 2.80001 4.19463H19.0001C20.5465 4.19463 21.8001 5.44824 21.8001 6.99464V14.5052C21.8001 14.9626 21.6898 15.3947 21.4944 15.7764C21.407 15.9472 21.2085 16.0296 21.0247 15.9746L16.0942 14.4986C15.1813 14.2251 14.3269 15.0783 14.6005 15.9924L14.8394 16.7905ZM7.34548 10.8866C7.27403 10.8089 7.27403 10.691 7.34548 10.6133C8.33008 9.5427 7.54143 7.83755 6.09528 7.83755H4.36797C4.14707 7.83755 3.96797 8.01665 3.96797 8.23755C3.96797 8.35775 3.96797 13.3465 3.96797 13.2622C3.96797 13.4831 4.14707 13.6622 4.36797 13.6622H6.09528C7.53888 13.6622 8.33228 11.9595 7.34548 10.8866ZM12.8074 8.23755C12.8074 8.01665 12.6283 7.83755 12.4074 7.83755C12.1865 7.83755 12.0074 8.01665 12.0074 8.23755V11.7548C12.0074 12.3654 11.5106 12.8622 10.9 12.8622C10.2895 12.8622 9.79269 12.3654 9.79269 11.7548V8.23755C9.79269 8.01665 9.61359 7.83755 9.39269 7.83755C9.17179 7.83755 8.99269 8.01665 8.99269 8.23755V11.7548C8.99269 12.8066 9.84834 13.6622 10.9 13.6622C11.9517 13.6622 12.8074 12.8066 12.8074 11.7548V8.23755ZM14.0743 8.44335L15.4962 10.8132C15.5369 10.8811 15.5247 10.7089 15.5247 13.2615C15.5247 13.4913 15.7184 13.6758 15.9513 13.6607C16.1639 13.6469 16.3247 13.4609 16.3247 13.2478C16.3247 10.7153 16.3125 10.881 16.3532 10.8133L17.7751 8.4434C17.8887 8.25395 17.8273 8.00825 17.6379 7.8946C17.4483 7.78084 17.2028 7.8424 17.0891 8.0318L16.0962 9.68665C16.0185 9.8161 15.8309 9.8161 15.7532 9.68665L14.7603 8.03185C14.6467 7.84239 14.401 7.78099 14.2115 7.89465C14.0221 8.00825 13.9607 8.25395 14.0743 8.44335ZM4.96797 12.8622H6.10393C6.58283 12.8622 6.99063 12.4704 6.98263 11.9915C6.97483 11.5261 6.59383 11.1499 6.12658 11.1499H4.96797C4.85752 11.1499 4.76797 11.2395 4.76797 11.3499V12.6622C4.76797 12.7727 4.85752 12.8622 4.96797 12.8622ZM11.3 20.9982V20.2982C11.3 20.0773 11.1209 19.8982 10.9 19.8982C10.6791 19.8982 10.5 20.0773 10.5 20.2982V20.9982C10.5 21.2191 10.6791 21.3982 10.9 21.3982C11.1209 21.3982 11.3 21.2192 11.3 20.9982ZM7.20833 20.1909L7.70328 19.696C7.85948 19.5398 7.85948 19.2865 7.70328 19.1303C7.54703 18.9741 7.29383 18.9741 7.13758 19.1303L6.64263 19.6253C6.38978 19.8781 6.57243 20.3081 6.92548 20.3081C7.02788 20.3081 7.13023 20.269 7.20833 20.1909ZM11.3 1.20157V0.501564C11.3 0.280663 11.1209 0.101562 10.9 0.101562C10.6791 0.101562 10.5 0.280663 10.5 0.501564V1.20157C10.5 1.42247 10.6791 1.60157 10.9 1.60157C11.1209 1.60157 11.3 1.42252 11.3 1.20157ZM7.70328 1.80382L7.20833 1.30887C7.05208 1.15267 6.79888 1.15267 6.64263 1.30887C6.48643 1.46507 6.48643 1.71832 6.64263 1.87452L7.13758 2.36947C7.21573 2.44757 7.31803 2.48662 7.42043 2.48662C7.77363 2.48662 7.95603 2.05652 7.70328 1.80382ZM14.6625 2.36947L15.1575 1.87452C15.3137 1.71832 15.3137 1.46507 15.1575 1.30887C15.0012 1.15267 14.748 1.15267 14.5918 1.30887L14.0968 1.80382C13.844 2.05667 14.0266 2.48667 14.3797 2.48667C14.4821 2.48662 14.5844 2.44757 14.6625 2.36947ZM23.8576 21.1692L21.1756 18.9157L22.2881 17.8037C22.5011 17.5906 22.4109 17.2252 22.1201 17.1377L15.8646 15.2652C15.5606 15.1732 15.2751 15.4586 15.3671 15.7627L17.2396 22.0182C17.3256 22.3076 17.6917 22.4001 17.9056 22.1862L19.0176 21.0737L21.2711 23.7557C21.4199 23.9324 21.6918 23.9495 21.8601 23.7812L23.8831 21.7582C24.0479 21.5935 24.0375 21.3208 23.8576 21.1692Z" fill="black"/>
</svg>
