<svg width="20" height="20" viewBox="0 0 20 20" fill="none" xmlns="http://www.w3.org/2000/svg">
<path d="M7.59375 3.8125C7.59302 3.74883 7.6104 3.68626 7.64388 3.63209C7.67735 3.57792 7.72554 3.53439 7.78281 3.50656L9.15781 2.81906C9.23079 2.78099 9.31525 2.7712 9.395 2.79156L12.145 3.47906C12.2195 3.49749 12.2857 3.54033 12.3331 3.60076C12.3804 3.66119 12.4062 3.73573 12.4062 3.8125V4.01531L12.75 3.67156V3.46875C12.75 3.01291 12.5689 2.57574 12.2466 2.25341C11.9243 1.93108 11.4871 1.75 11.0312 1.75H8.96875C8.51291 1.75 8.07574 1.93108 7.75341 2.25341C7.43108 2.57574 7.25 3.01291 7.25 3.46875V3.67156L7.59375 4.01531V3.8125Z" fill="#FEBD17"/>
<path d="M12.4062 5.1875H12.75V5.53125H12.4062V5.1875Z" fill="#FEBD17"/>
<path d="M7.25 5.1875H7.59375V5.53125H7.25V5.1875Z" fill="#FEBD17"/>
<path d="M7.67316 12.2791L4.68254 8.625H3.40723L5.4766 11.8769C5.5133 11.9318 5.53247 11.9965 5.5316 12.0625V12.75H6.2191C6.31027 12.75 6.3977 12.7862 6.46217 12.8507C6.52664 12.9151 6.56285 13.0026 6.56285 13.0938V18.25H13.4379V13.0938C13.4379 13.0026 13.4741 12.9151 13.5385 12.8507C13.603 12.7862 13.6904 12.75 13.7816 12.75H14.4691V12.0625C14.4691 11.9388 14.4691 11.8872 16.5866 8.625H15.3182L12.3275 12.2791L11.7982 11.8459L13.2729 10.0412C13.056 9.88367 12.8127 9.7661 12.5544 9.69406L11.0488 11.8013L11.7157 15.7888C11.7242 15.8427 11.72 15.8978 11.7033 15.9498C11.6865 16.0017 11.6578 16.049 11.6194 16.0878L10.2444 17.4628C10.1793 17.5267 10.0916 17.5625 10.0004 17.5625C9.90908 17.5625 9.82145 17.5267 9.75629 17.4628L8.38129 16.0878C8.34289 16.049 8.31416 16.0017 8.29744 15.9498C8.28072 15.8978 8.27647 15.8427 8.28504 15.7888L8.95191 11.8013L7.44629 9.69406C7.18805 9.7661 6.94475 9.88367 6.72785 10.0412L8.20254 11.8459L7.67316 12.2791Z" fill="#FEBD17"/>
<path d="M11.4676 9.36084L10.2439 10.588C10.179 10.6524 10.0912 10.6886 9.9998 10.6886C9.90837 10.6886 9.82064 10.6524 9.75574 10.588L8.53199 9.36084L8.14355 9.49147L9.48762 11.3752H10.512L11.8561 9.49147L11.4676 9.36084Z" fill="#FEBD17"/>
<path d="M17.2188 5.1875C17.6947 5.1875 18.1599 5.04638 18.5556 4.78197C18.9513 4.51757 19.2597 4.14177 19.4418 3.70208C19.624 3.2624 19.6716 2.77858 19.5788 2.31182C19.4859 1.84505 19.2567 1.4163 18.9202 1.07978C18.5837 0.743255 18.155 0.514082 17.6882 0.421237C17.2214 0.328391 16.7376 0.376043 16.2979 0.558166C15.8582 0.740289 15.4824 1.0487 15.218 1.44441C14.9536 1.84012 14.8125 2.30534 14.8125 2.78125C14.8132 3.4192 15.067 4.03082 15.5181 4.48192C15.9692 4.93302 16.5808 5.18677 17.2188 5.1875ZM16.0868 2.19447L16.875 2.98269L18.3507 1.50697L18.8368 1.99303L17.118 3.71178C17.0536 3.77623 16.9662 3.81243 16.875 3.81243C16.7838 3.81243 16.6964 3.77623 16.632 3.71178L15.6007 2.68053L16.0868 2.19447Z" fill="#FEBD17"/>
<path d="M9.60516 12.0625L9.48828 12.75H10.5127L10.3958 12.0625H9.60516Z" fill="#FEBD17"/>
<path d="M8.99316 15.7269L10.0004 16.7341L11.0075 15.7269L10.626 13.4375H9.37473L8.99316 15.7269Z" fill="#FEBD17"/>
<path d="M19.5667 7.25H16.5314C16.3182 7.25059 16.1104 7.31692 15.9363 7.43996C15.7622 7.563 15.6303 7.73674 15.5586 7.9375H18.5939C18.8071 7.93691 19.0149 7.87058 19.189 7.74754C19.3631 7.6245 19.495 7.45076 19.5667 7.25Z" fill="#FEBD17"/>
<path d="M3.46891 7.25H0.433594C0.505314 7.45076 0.637218 7.6245 0.811315 7.74754C0.985411 7.87058 1.19322 7.93691 1.40641 7.9375H4.44172C4.37 7.73674 4.23809 7.563 4.064 7.43996C3.8899 7.31692 3.68209 7.25059 3.46891 7.25Z" fill="#FEBD17"/>
<path d="M0.375 18.9375H19.625V19.625H0.375V18.9375Z" fill="#FEBD17"/>
<path d="M5.875 13.4375H4.5V14.4688C4.5 14.5599 4.46378 14.6474 4.39932 14.7118C4.33485 14.7763 4.24742 14.8125 4.15625 14.8125H2.78125C2.69008 14.8125 2.60265 14.7763 2.53818 14.7118C2.47372 14.6474 2.4375 14.5599 2.4375 14.4688V13.4375H1.0625V18.25H5.875V13.4375Z" fill="#FEBD17"/>
<path d="M3.125 13.4375H3.8125V14.125H3.125V13.4375Z" fill="#FEBD17"/>
<path d="M16.1875 13.4375H16.875V14.125H16.1875V13.4375Z" fill="#FEBD17"/>
<path d="M14.125 13.4375V18.25H18.9375V13.4375H17.5625V14.4688C17.5625 14.5599 17.5263 14.6474 17.4618 14.7118C17.3974 14.7763 17.3099 14.8125 17.2188 14.8125H15.8438C15.7526 14.8125 15.6651 14.7763 15.6007 14.7118C15.5362 14.6474 15.5 14.5599 15.5 14.4688V13.4375H14.125Z" fill="#FEBD17"/>
<path d="M11.7188 5.87488V4.08051L9.35375 3.48926L8.28125 4.02551V5.87488C8.28125 6.33072 8.46233 6.76789 8.78466 7.09022C9.10699 7.41255 9.54416 7.59363 10 7.59363C10.4558 7.59363 10.893 7.41255 11.2153 7.09022C11.5377 6.76789 11.7188 6.33072 11.7188 5.87488Z" fill="#FEBD17"/>
<path d="M0.71875 5.1875H4.84375C4.93492 5.1875 5.02235 5.15128 5.08682 5.08682C5.15128 5.02235 5.1875 4.93492 5.1875 4.84375V0.71875C5.1875 0.627582 5.15128 0.540148 5.08682 0.475682C5.02235 0.411216 4.93492 0.375 4.84375 0.375H0.71875C0.627582 0.375 0.540148 0.411216 0.475682 0.475682C0.411216 0.540148 0.375 0.627582 0.375 0.71875V4.84375C0.375 4.93492 0.411216 5.02235 0.475682 5.08682C0.540148 5.15128 0.627582 5.1875 0.71875 5.1875ZM2.4375 1.0625H4.5V1.75H2.4375V1.0625ZM1.0625 1.0625H1.75V1.75H1.0625V1.0625ZM1.0625 2.4375H4.5V3.125H1.0625V2.4375ZM1.0625 3.8125H4.5V4.5H1.0625V3.8125Z" fill="#FEBD17"/>
<path d="M9.49848 8.22607L9.33691 9.19545L10.0004 9.85889L10.6638 9.19545L10.5022 8.22607C10.1717 8.29941 9.82904 8.29941 9.49848 8.22607Z" fill="#FEBD17"/>
</svg>
