<svg width="25" height="24" viewBox="0 0 25 24" fill="none" xmlns="http://www.w3.org/2000/svg">
<mask id="path-1-outside-1_950_1206" maskUnits="userSpaceOnUse" x="-0.109375" y="0.0527344" width="25" height="24" fill="black">
<rect fill="white" x="-0.109375" y="0.0527344" width="25" height="24"/>
<path d="M12.4469 7.2161C14.1461 7.2161 15.5286 5.83367 15.5286 4.13442C15.5286 2.43516 14.1461 1.05273 12.4469 1.05273C10.7476 1.05273 9.36519 2.43516 9.36519 4.13442C9.36519 5.83367 10.7476 7.2161 12.4469 7.2161ZM12.4469 1.95549C13.6483 1.95549 14.6258 2.93294 14.6258 4.13442C14.6258 5.33589 13.6483 6.31335 12.4469 6.31335C11.2454 6.31335 10.2679 5.33589 10.2679 4.13442C10.2679 2.93294 11.2454 1.95549 12.4469 1.95549Z"/>
<path d="M8.55765 10.4345C8.35214 10.2935 8.07116 10.3458 7.9301 10.5514C7.29732 11.4736 6.96289 12.5541 6.96289 13.6758C6.96289 16.7248 9.44334 19.2052 12.4923 19.2052C15.5412 19.2052 18.0216 16.7248 18.0216 13.6758C18.0216 10.6269 15.5412 8.14648 12.4923 8.14648C12.1395 8.14648 11.7851 8.18034 11.4389 8.24719C11.1941 8.29445 11.034 8.53115 11.0812 8.77593C11.1285 9.02076 11.3653 9.1809 11.6099 9.1336C11.8999 9.07763 12.1968 9.04924 12.4923 9.04924C15.0434 9.04924 17.1189 11.1247 17.1189 13.6758C17.1189 16.227 15.0434 18.3025 12.4923 18.3025C9.94112 18.3025 7.86564 16.227 7.86564 13.6758C7.86564 12.7372 8.14532 11.8333 8.67451 11.0621C8.81552 10.8565 8.76321 10.5755 8.55765 10.4345Z"/>
<path d="M13.9164 15.978C13.7046 16.1096 13.6396 16.3878 13.7712 16.5996C13.9009 16.8084 14.1837 16.8747 14.3928 16.7448C15.4619 16.0806 16.1001 14.9339 16.1001 13.6774C16.1001 12.421 15.4618 11.2742 14.3928 10.61C14.181 10.4785 13.9027 10.5435 13.7712 10.7552C13.6396 10.967 13.7046 11.2453 13.9164 11.3768C14.7185 11.8752 15.1974 12.7352 15.1974 13.6774C15.1974 14.6197 14.7185 15.4797 13.9164 15.978Z"/>
<path d="M10.5463 16.7187C10.7536 16.8515 11.0372 16.789 11.1698 16.582C11.3043 16.3721 11.2431 16.0929 11.0331 15.9585C10.2507 15.4574 9.78357 14.6046 9.78357 13.6773C9.78357 12.7499 10.2507 11.8971 11.0331 11.396C11.243 11.2616 11.3043 10.9824 11.1698 10.7725C11.0354 10.5625 10.7561 10.5013 10.5463 10.6358C9.50344 11.3036 8.88086 12.4406 8.88086 13.6773C8.88086 14.9139 9.50344 16.0509 10.5463 16.7187Z"/>
<path d="M3.97231 15.7285C2.27306 15.7285 0.890625 17.1109 0.890625 18.8102C0.890625 20.5094 2.27306 21.8919 3.97231 21.8919C5.67156 21.8919 7.05399 20.5094 7.05399 18.8102C7.05399 17.1109 5.67156 15.7285 3.97231 15.7285ZM3.97231 20.9891C2.77083 20.9891 1.79338 20.0117 1.79338 18.8102C1.79338 17.6087 2.77083 16.6313 3.97231 16.6313C5.17378 16.6313 6.15124 17.6087 6.15124 18.8102C6.15124 20.0117 5.17378 20.9891 3.97231 20.9891Z"/>
<path d="M20.9195 15.7285C19.2203 15.7285 17.8379 17.1109 17.8379 18.8102C17.8379 20.5094 19.2203 21.8919 20.9195 21.8919C22.6188 21.8919 24.0012 20.5094 24.0012 18.8102C24.0012 17.1109 22.6188 15.7285 20.9195 15.7285ZM20.9195 20.9891C19.7181 20.9891 18.7406 20.0117 18.7406 18.8102C18.7406 17.6087 19.7181 16.6313 20.9195 16.6313C22.121 16.6313 23.0985 17.6087 23.0985 18.8102C23.0985 20.0117 22.121 20.9891 20.9195 20.9891Z"/>
<path d="M3.93011 14.2557C4.09324 14.4759 4.42527 14.4983 4.61643 14.3016L5.96315 12.9157C6.13689 12.7369 6.13278 12.4511 5.95404 12.2774C5.77529 12.1037 5.48952 12.1078 5.31574 12.2865L4.74588 12.873C4.84365 11.2677 5.46032 9.75765 6.58312 8.37914C7.49869 7.25499 8.42631 6.64432 8.44329 6.63322C8.65245 6.49794 8.71249 6.21876 8.57739 6.00942C8.44216 5.79993 8.16271 5.73972 7.95336 5.87495C7.91129 5.90212 6.9119 6.55382 5.90371 7.78382C4.70445 9.24691 4.0045 10.9154 3.8582 12.6428L3.48198 12.1352C3.33353 11.9349 3.05078 11.8928 2.8506 12.0413C2.65032 12.1898 2.6083 12.4724 2.75676 12.6727L3.93011 14.2557Z"/>
<path d="M16.9619 20.2946L15.1124 19.7343C14.874 19.6621 14.6219 19.7969 14.5496 20.0355C14.4772 20.2741 14.6121 20.5261 14.8507 20.5983L15.6333 20.8354C14.1623 21.4855 12.5377 21.6307 10.7975 21.2661C9.3725 20.9675 8.40195 20.4204 8.39229 20.4148C8.17612 20.2913 7.90065 20.3661 7.7767 20.5822C7.65266 20.7984 7.72746 21.0743 7.94371 21.1983C7.98713 21.2232 9.02494 21.8119 10.5805 22.1429C11.2628 22.2881 11.9384 22.3602 12.6002 22.3602C13.7334 22.3602 14.8251 22.1477 15.8365 21.729L15.5579 22.2969C15.4482 22.5207 15.5406 22.7911 15.7644 22.9009C15.9855 23.0094 16.2602 22.9152 16.3685 22.6944L17.2362 20.9254C17.3571 20.6791 17.2238 20.374 16.9619 20.2946Z"/>
<path d="M16.768 8.33092C16.8071 8.54934 16.9973 8.70272 17.2117 8.70272C17.2382 8.70272 17.2651 8.70037 17.2919 8.69554C17.5373 8.65153 17.7005 8.41695 17.6565 8.17158L17.5122 7.36674C18.7596 8.38188 19.6271 9.76314 20.0927 11.479C20.4741 12.8841 20.4276 13.9973 20.4271 14.0084C20.4152 14.2571 20.607 14.4685 20.8558 14.4807C20.8633 14.4811 20.8708 14.4813 20.8783 14.4813C21.1174 14.4813 21.3169 14.2935 21.3288 14.0521C21.3312 14.0021 21.3842 12.8101 20.9724 11.274C20.4826 9.44672 19.535 7.90545 18.2166 6.77968L18.8483 6.76988C19.0976 6.766 19.2965 6.5608 19.2926 6.31155C19.2888 6.0623 19.085 5.86437 18.8343 5.86722L16.8641 5.89782C16.5903 5.90211 16.3784 6.15894 16.4268 6.42882L16.768 8.33092Z"/>
<path d="M4.63578 17.9721L3.57866 18.9404L3.34615 18.6704C3.18348 18.4815 2.89848 18.4603 2.70958 18.6229C2.52068 18.7856 2.49942 19.0706 2.66209 19.2595L3.19833 19.8822C3.27799 19.9748 3.39179 20.0311 3.5137 20.0383C3.5226 20.0388 3.53153 20.0391 3.54038 20.0391C3.65291 20.0391 3.76178 19.997 3.84524 19.9206L5.24559 18.6377C5.42939 18.4694 5.44194 18.1838 5.27353 18C5.10517 17.8162 4.81958 17.8036 4.63578 17.9721Z"/>
<path d="M11.7863 5.11559C11.8659 5.20813 11.9797 5.26446 12.1016 5.27168C12.1105 5.27222 12.1194 5.27249 12.1283 5.27249C12.2408 5.27249 12.3497 5.23038 12.4332 5.15396L13.8336 3.87115C14.0174 3.70274 14.0299 3.41724 13.8615 3.2334C13.6931 3.0496 13.4076 3.03705 13.2238 3.20546L12.1666 4.17389L11.9341 3.90387C11.7714 3.71497 11.4865 3.69367 11.2975 3.85634C11.1086 4.01902 11.0873 4.30397 11.25 4.49292L11.7863 5.11559Z"/>
<path d="M21.5929 17.8305L20.5357 18.7989L20.3032 18.5289C20.1405 18.34 19.8556 18.3187 19.6666 18.4814C19.4777 18.6441 19.4565 18.9291 19.6191 19.118L20.1553 19.7407C20.235 19.8332 20.3488 19.8895 20.4707 19.8967C20.4796 19.8973 20.4885 19.8975 20.4974 19.8975C20.6099 19.8975 20.7188 19.8554 20.8023 19.779L22.2026 18.4962C22.3864 18.3278 22.399 18.0423 22.2306 17.8585C22.0621 17.6746 21.7766 17.6621 21.5929 17.8305Z"/>
<path d="M10.1258 9.58131C10.2585 9.19208 9.81909 8.83879 9.46688 9.04922C9.27749 9.16238 9.19683 9.40513 9.28173 9.60897C9.43849 9.98529 9.99454 9.96637 10.1258 9.58131Z"/>
</mask>
<path d="M12.4469 7.2161C14.1461 7.2161 15.5286 5.83367 15.5286 4.13442C15.5286 2.43516 14.1461 1.05273 12.4469 1.05273C10.7476 1.05273 9.36519 2.43516 9.36519 4.13442C9.36519 5.83367 10.7476 7.2161 12.4469 7.2161ZM12.4469 1.95549C13.6483 1.95549 14.6258 2.93294 14.6258 4.13442C14.6258 5.33589 13.6483 6.31335 12.4469 6.31335C11.2454 6.31335 10.2679 5.33589 10.2679 4.13442C10.2679 2.93294 11.2454 1.95549 12.4469 1.95549Z" fill="#7A7979"/>
<path d="M8.55765 10.4345C8.35214 10.2935 8.07116 10.3458 7.9301 10.5514C7.29732 11.4736 6.96289 12.5541 6.96289 13.6758C6.96289 16.7248 9.44334 19.2052 12.4923 19.2052C15.5412 19.2052 18.0216 16.7248 18.0216 13.6758C18.0216 10.6269 15.5412 8.14648 12.4923 8.14648C12.1395 8.14648 11.7851 8.18034 11.4389 8.24719C11.1941 8.29445 11.034 8.53115 11.0812 8.77593C11.1285 9.02076 11.3653 9.1809 11.6099 9.1336C11.8999 9.07763 12.1968 9.04924 12.4923 9.04924C15.0434 9.04924 17.1189 11.1247 17.1189 13.6758C17.1189 16.227 15.0434 18.3025 12.4923 18.3025C9.94112 18.3025 7.86564 16.227 7.86564 13.6758C7.86564 12.7372 8.14532 11.8333 8.67451 11.0621C8.81552 10.8565 8.76321 10.5755 8.55765 10.4345Z" fill="#7A7979"/>
<path d="M13.9164 15.978C13.7046 16.1096 13.6396 16.3878 13.7712 16.5996C13.9009 16.8084 14.1837 16.8747 14.3928 16.7448C15.4619 16.0806 16.1001 14.9339 16.1001 13.6774C16.1001 12.421 15.4618 11.2742 14.3928 10.61C14.181 10.4785 13.9027 10.5435 13.7712 10.7552C13.6396 10.967 13.7046 11.2453 13.9164 11.3768C14.7185 11.8752 15.1974 12.7352 15.1974 13.6774C15.1974 14.6197 14.7185 15.4797 13.9164 15.978Z" fill="#7A7979"/>
<path d="M10.5463 16.7187C10.7536 16.8515 11.0372 16.789 11.1698 16.582C11.3043 16.3721 11.2431 16.0929 11.0331 15.9585C10.2507 15.4574 9.78357 14.6046 9.78357 13.6773C9.78357 12.7499 10.2507 11.8971 11.0331 11.396C11.243 11.2616 11.3043 10.9824 11.1698 10.7725C11.0354 10.5625 10.7561 10.5013 10.5463 10.6358C9.50344 11.3036 8.88086 12.4406 8.88086 13.6773C8.88086 14.9139 9.50344 16.0509 10.5463 16.7187Z" fill="#7A7979"/>
<path d="M3.97231 15.7285C2.27306 15.7285 0.890625 17.1109 0.890625 18.8102C0.890625 20.5094 2.27306 21.8919 3.97231 21.8919C5.67156 21.8919 7.05399 20.5094 7.05399 18.8102C7.05399 17.1109 5.67156 15.7285 3.97231 15.7285ZM3.97231 20.9891C2.77083 20.9891 1.79338 20.0117 1.79338 18.8102C1.79338 17.6087 2.77083 16.6313 3.97231 16.6313C5.17378 16.6313 6.15124 17.6087 6.15124 18.8102C6.15124 20.0117 5.17378 20.9891 3.97231 20.9891Z" fill="#7A7979"/>
<path d="M20.9195 15.7285C19.2203 15.7285 17.8379 17.1109 17.8379 18.8102C17.8379 20.5094 19.2203 21.8919 20.9195 21.8919C22.6188 21.8919 24.0012 20.5094 24.0012 18.8102C24.0012 17.1109 22.6188 15.7285 20.9195 15.7285ZM20.9195 20.9891C19.7181 20.9891 18.7406 20.0117 18.7406 18.8102C18.7406 17.6087 19.7181 16.6313 20.9195 16.6313C22.121 16.6313 23.0985 17.6087 23.0985 18.8102C23.0985 20.0117 22.121 20.9891 20.9195 20.9891Z" fill="#7A7979"/>
<path d="M3.93011 14.2557C4.09324 14.4759 4.42527 14.4983 4.61643 14.3016L5.96315 12.9157C6.13689 12.7369 6.13278 12.4511 5.95404 12.2774C5.77529 12.1037 5.48952 12.1078 5.31574 12.2865L4.74588 12.873C4.84365 11.2677 5.46032 9.75765 6.58312 8.37914C7.49869 7.25499 8.42631 6.64432 8.44329 6.63322C8.65245 6.49794 8.71249 6.21876 8.57739 6.00942C8.44216 5.79993 8.16271 5.73972 7.95336 5.87495C7.91129 5.90212 6.9119 6.55382 5.90371 7.78382C4.70445 9.24691 4.0045 10.9154 3.8582 12.6428L3.48198 12.1352C3.33353 11.9349 3.05078 11.8928 2.8506 12.0413C2.65032 12.1898 2.6083 12.4724 2.75676 12.6727L3.93011 14.2557Z" fill="#7A7979"/>
<path d="M16.9619 20.2946L15.1124 19.7343C14.874 19.6621 14.6219 19.7969 14.5496 20.0355C14.4772 20.2741 14.6121 20.5261 14.8507 20.5983L15.6333 20.8354C14.1623 21.4855 12.5377 21.6307 10.7975 21.2661C9.3725 20.9675 8.40195 20.4204 8.39229 20.4148C8.17612 20.2913 7.90065 20.3661 7.7767 20.5822C7.65266 20.7984 7.72746 21.0743 7.94371 21.1983C7.98713 21.2232 9.02494 21.8119 10.5805 22.1429C11.2628 22.2881 11.9384 22.3602 12.6002 22.3602C13.7334 22.3602 14.8251 22.1477 15.8365 21.729L15.5579 22.2969C15.4482 22.5207 15.5406 22.7911 15.7644 22.9009C15.9855 23.0094 16.2602 22.9152 16.3685 22.6944L17.2362 20.9254C17.3571 20.6791 17.2238 20.374 16.9619 20.2946Z" fill="#7A7979"/>
<path d="M16.768 8.33092C16.8071 8.54934 16.9973 8.70272 17.2117 8.70272C17.2382 8.70272 17.2651 8.70037 17.2919 8.69554C17.5373 8.65153 17.7005 8.41695 17.6565 8.17158L17.5122 7.36674C18.7596 8.38188 19.6271 9.76314 20.0927 11.479C20.4741 12.8841 20.4276 13.9973 20.4271 14.0084C20.4152 14.2571 20.607 14.4685 20.8558 14.4807C20.8633 14.4811 20.8708 14.4813 20.8783 14.4813C21.1174 14.4813 21.3169 14.2935 21.3288 14.0521C21.3312 14.0021 21.3842 12.8101 20.9724 11.274C20.4826 9.44672 19.535 7.90545 18.2166 6.77968L18.8483 6.76988C19.0976 6.766 19.2965 6.5608 19.2926 6.31155C19.2888 6.0623 19.085 5.86437 18.8343 5.86722L16.8641 5.89782C16.5903 5.90211 16.3784 6.15894 16.4268 6.42882L16.768 8.33092Z" fill="#7A7979"/>
<path d="M4.63578 17.9721L3.57866 18.9404L3.34615 18.6704C3.18348 18.4815 2.89848 18.4603 2.70958 18.6229C2.52068 18.7856 2.49942 19.0706 2.66209 19.2595L3.19833 19.8822C3.27799 19.9748 3.39179 20.0311 3.5137 20.0383C3.5226 20.0388 3.53153 20.0391 3.54038 20.0391C3.65291 20.0391 3.76178 19.997 3.84524 19.9206L5.24559 18.6377C5.42939 18.4694 5.44194 18.1838 5.27353 18C5.10517 17.8162 4.81958 17.8036 4.63578 17.9721Z" fill="#7A7979"/>
<path d="M11.7863 5.11559C11.8659 5.20813 11.9797 5.26446 12.1016 5.27168C12.1105 5.27222 12.1194 5.27249 12.1283 5.27249C12.2408 5.27249 12.3497 5.23038 12.4332 5.15396L13.8336 3.87115C14.0174 3.70274 14.0299 3.41724 13.8615 3.2334C13.6931 3.0496 13.4076 3.03705 13.2238 3.20546L12.1666 4.17389L11.9341 3.90387C11.7714 3.71497 11.4865 3.69367 11.2975 3.85634C11.1086 4.01902 11.0873 4.30397 11.25 4.49292L11.7863 5.11559Z" fill="#7A7979"/>
<path d="M21.5929 17.8305L20.5357 18.7989L20.3032 18.5289C20.1405 18.34 19.8556 18.3187 19.6666 18.4814C19.4777 18.6441 19.4565 18.9291 19.6191 19.118L20.1553 19.7407C20.235 19.8332 20.3488 19.8895 20.4707 19.8967C20.4796 19.8973 20.4885 19.8975 20.4974 19.8975C20.6099 19.8975 20.7188 19.8554 20.8023 19.779L22.2026 18.4962C22.3864 18.3278 22.399 18.0423 22.2306 17.8585C22.0621 17.6746 21.7766 17.6621 21.5929 17.8305Z" fill="#7A7979"/>
<path d="M10.1258 9.58131C10.2585 9.19208 9.81909 8.83879 9.46688 9.04922C9.27749 9.16238 9.19683 9.40513 9.28173 9.60897C9.43849 9.98529 9.99454 9.96637 10.1258 9.58131Z" fill="#7A7979"/>
<path d="M12.4469 7.2161C14.1461 7.2161 15.5286 5.83367 15.5286 4.13442C15.5286 2.43516 14.1461 1.05273 12.4469 1.05273C10.7476 1.05273 9.36519 2.43516 9.36519 4.13442C9.36519 5.83367 10.7476 7.2161 12.4469 7.2161ZM12.4469 1.95549C13.6483 1.95549 14.6258 2.93294 14.6258 4.13442C14.6258 5.33589 13.6483 6.31335 12.4469 6.31335C11.2454 6.31335 10.2679 5.33589 10.2679 4.13442C10.2679 2.93294 11.2454 1.95549 12.4469 1.95549Z" stroke="#7A7979" stroke-width="0.4" mask="url(#path-1-outside-1_950_1206)"/>
<path d="M8.55765 10.4345C8.35214 10.2935 8.07116 10.3458 7.9301 10.5514C7.29732 11.4736 6.96289 12.5541 6.96289 13.6758C6.96289 16.7248 9.44334 19.2052 12.4923 19.2052C15.5412 19.2052 18.0216 16.7248 18.0216 13.6758C18.0216 10.6269 15.5412 8.14648 12.4923 8.14648C12.1395 8.14648 11.7851 8.18034 11.4389 8.24719C11.1941 8.29445 11.034 8.53115 11.0812 8.77593C11.1285 9.02076 11.3653 9.1809 11.6099 9.1336C11.8999 9.07763 12.1968 9.04924 12.4923 9.04924C15.0434 9.04924 17.1189 11.1247 17.1189 13.6758C17.1189 16.227 15.0434 18.3025 12.4923 18.3025C9.94112 18.3025 7.86564 16.227 7.86564 13.6758C7.86564 12.7372 8.14532 11.8333 8.67451 11.0621C8.81552 10.8565 8.76321 10.5755 8.55765 10.4345Z" stroke="#7A7979" stroke-width="0.4" mask="url(#path-1-outside-1_950_1206)"/>
<path d="M13.9164 15.978C13.7046 16.1096 13.6396 16.3878 13.7712 16.5996C13.9009 16.8084 14.1837 16.8747 14.3928 16.7448C15.4619 16.0806 16.1001 14.9339 16.1001 13.6774C16.1001 12.421 15.4618 11.2742 14.3928 10.61C14.181 10.4785 13.9027 10.5435 13.7712 10.7552C13.6396 10.967 13.7046 11.2453 13.9164 11.3768C14.7185 11.8752 15.1974 12.7352 15.1974 13.6774C15.1974 14.6197 14.7185 15.4797 13.9164 15.978Z" stroke="#7A7979" stroke-width="0.4" mask="url(#path-1-outside-1_950_1206)"/>
<path d="M10.5463 16.7187C10.7536 16.8515 11.0372 16.789 11.1698 16.582C11.3043 16.3721 11.2431 16.0929 11.0331 15.9585C10.2507 15.4574 9.78357 14.6046 9.78357 13.6773C9.78357 12.7499 10.2507 11.8971 11.0331 11.396C11.243 11.2616 11.3043 10.9824 11.1698 10.7725C11.0354 10.5625 10.7561 10.5013 10.5463 10.6358C9.50344 11.3036 8.88086 12.4406 8.88086 13.6773C8.88086 14.9139 9.50344 16.0509 10.5463 16.7187Z" stroke="#7A7979" stroke-width="0.4" mask="url(#path-1-outside-1_950_1206)"/>
<path d="M3.97231 15.7285C2.27306 15.7285 0.890625 17.1109 0.890625 18.8102C0.890625 20.5094 2.27306 21.8919 3.97231 21.8919C5.67156 21.8919 7.05399 20.5094 7.05399 18.8102C7.05399 17.1109 5.67156 15.7285 3.97231 15.7285ZM3.97231 20.9891C2.77083 20.9891 1.79338 20.0117 1.79338 18.8102C1.79338 17.6087 2.77083 16.6313 3.97231 16.6313C5.17378 16.6313 6.15124 17.6087 6.15124 18.8102C6.15124 20.0117 5.17378 20.9891 3.97231 20.9891Z" stroke="#7A7979" stroke-width="0.4" mask="url(#path-1-outside-1_950_1206)"/>
<path d="M20.9195 15.7285C19.2203 15.7285 17.8379 17.1109 17.8379 18.8102C17.8379 20.5094 19.2203 21.8919 20.9195 21.8919C22.6188 21.8919 24.0012 20.5094 24.0012 18.8102C24.0012 17.1109 22.6188 15.7285 20.9195 15.7285ZM20.9195 20.9891C19.7181 20.9891 18.7406 20.0117 18.7406 18.8102C18.7406 17.6087 19.7181 16.6313 20.9195 16.6313C22.121 16.6313 23.0985 17.6087 23.0985 18.8102C23.0985 20.0117 22.121 20.9891 20.9195 20.9891Z" stroke="#7A7979" stroke-width="0.4" mask="url(#path-1-outside-1_950_1206)"/>
<path d="M3.93011 14.2557C4.09324 14.4759 4.42527 14.4983 4.61643 14.3016L5.96315 12.9157C6.13689 12.7369 6.13278 12.4511 5.95404 12.2774C5.77529 12.1037 5.48952 12.1078 5.31574 12.2865L4.74588 12.873C4.84365 11.2677 5.46032 9.75765 6.58312 8.37914C7.49869 7.25499 8.42631 6.64432 8.44329 6.63322C8.65245 6.49794 8.71249 6.21876 8.57739 6.00942C8.44216 5.79993 8.16271 5.73972 7.95336 5.87495C7.91129 5.90212 6.9119 6.55382 5.90371 7.78382C4.70445 9.24691 4.0045 10.9154 3.8582 12.6428L3.48198 12.1352C3.33353 11.9349 3.05078 11.8928 2.8506 12.0413C2.65032 12.1898 2.6083 12.4724 2.75676 12.6727L3.93011 14.2557Z" stroke="#7A7979" stroke-width="0.4" mask="url(#path-1-outside-1_950_1206)"/>
<path d="M16.9619 20.2946L15.1124 19.7343C14.874 19.6621 14.6219 19.7969 14.5496 20.0355C14.4772 20.2741 14.6121 20.5261 14.8507 20.5983L15.6333 20.8354C14.1623 21.4855 12.5377 21.6307 10.7975 21.2661C9.3725 20.9675 8.40195 20.4204 8.39229 20.4148C8.17612 20.2913 7.90065 20.3661 7.7767 20.5822C7.65266 20.7984 7.72746 21.0743 7.94371 21.1983C7.98713 21.2232 9.02494 21.8119 10.5805 22.1429C11.2628 22.2881 11.9384 22.3602 12.6002 22.3602C13.7334 22.3602 14.8251 22.1477 15.8365 21.729L15.5579 22.2969C15.4482 22.5207 15.5406 22.7911 15.7644 22.9009C15.9855 23.0094 16.2602 22.9152 16.3685 22.6944L17.2362 20.9254C17.3571 20.6791 17.2238 20.374 16.9619 20.2946Z" stroke="#7A7979" stroke-width="0.4" mask="url(#path-1-outside-1_950_1206)"/>
<path d="M16.768 8.33092C16.8071 8.54934 16.9973 8.70272 17.2117 8.70272C17.2382 8.70272 17.2651 8.70037 17.2919 8.69554C17.5373 8.65153 17.7005 8.41695 17.6565 8.17158L17.5122 7.36674C18.7596 8.38188 19.6271 9.76314 20.0927 11.479C20.4741 12.8841 20.4276 13.9973 20.4271 14.0084C20.4152 14.2571 20.607 14.4685 20.8558 14.4807C20.8633 14.4811 20.8708 14.4813 20.8783 14.4813C21.1174 14.4813 21.3169 14.2935 21.3288 14.0521C21.3312 14.0021 21.3842 12.8101 20.9724 11.274C20.4826 9.44672 19.535 7.90545 18.2166 6.77968L18.8483 6.76988C19.0976 6.766 19.2965 6.5608 19.2926 6.31155C19.2888 6.0623 19.085 5.86437 18.8343 5.86722L16.8641 5.89782C16.5903 5.90211 16.3784 6.15894 16.4268 6.42882L16.768 8.33092Z" stroke="#7A7979" stroke-width="0.4" mask="url(#path-1-outside-1_950_1206)"/>
<path d="M4.63578 17.9721L3.57866 18.9404L3.34615 18.6704C3.18348 18.4815 2.89848 18.4603 2.70958 18.6229C2.52068 18.7856 2.49942 19.0706 2.66209 19.2595L3.19833 19.8822C3.27799 19.9748 3.39179 20.0311 3.5137 20.0383C3.5226 20.0388 3.53153 20.0391 3.54038 20.0391C3.65291 20.0391 3.76178 19.997 3.84524 19.9206L5.24559 18.6377C5.42939 18.4694 5.44194 18.1838 5.27353 18C5.10517 17.8162 4.81958 17.8036 4.63578 17.9721Z" stroke="#7A7979" stroke-width="0.4" mask="url(#path-1-outside-1_950_1206)"/>
<path d="M11.7863 5.11559C11.8659 5.20813 11.9797 5.26446 12.1016 5.27168C12.1105 5.27222 12.1194 5.27249 12.1283 5.27249C12.2408 5.27249 12.3497 5.23038 12.4332 5.15396L13.8336 3.87115C14.0174 3.70274 14.0299 3.41724 13.8615 3.2334C13.6931 3.0496 13.4076 3.03705 13.2238 3.20546L12.1666 4.17389L11.9341 3.90387C11.7714 3.71497 11.4865 3.69367 11.2975 3.85634C11.1086 4.01902 11.0873 4.30397 11.25 4.49292L11.7863 5.11559Z" stroke="#7A7979" stroke-width="0.4" mask="url(#path-1-outside-1_950_1206)"/>
<path d="M21.5929 17.8305L20.5357 18.7989L20.3032 18.5289C20.1405 18.34 19.8556 18.3187 19.6666 18.4814C19.4777 18.6441 19.4565 18.9291 19.6191 19.118L20.1553 19.7407C20.235 19.8332 20.3488 19.8895 20.4707 19.8967C20.4796 19.8973 20.4885 19.8975 20.4974 19.8975C20.6099 19.8975 20.7188 19.8554 20.8023 19.779L22.2026 18.4962C22.3864 18.3278 22.399 18.0423 22.2306 17.8585C22.0621 17.6746 21.7766 17.6621 21.5929 17.8305Z" stroke="#7A7979" stroke-width="0.4" mask="url(#path-1-outside-1_950_1206)"/>
<path d="M10.1258 9.58131C10.2585 9.19208 9.81909 8.83879 9.46688 9.04922C9.27749 9.16238 9.19683 9.40513 9.28173 9.60897C9.43849 9.98529 9.99454 9.96637 10.1258 9.58131Z" stroke="#7A7979" stroke-width="0.4" mask="url(#path-1-outside-1_950_1206)"/>
</svg>
