<svg width="17" height="22" viewBox="0 0 17 22" fill="none" xmlns="http://www.w3.org/2000/svg">
<path d="M11.1636 19.8157C11.4287 19.4907 11.4319 19.0347 11.1636 18.7059C11.1029 18.6314 11.2848 18.8109 9.16799 16.7862C8.79911 16.4333 8.20101 16.4333 7.83212 16.7862C7.46328 17.139 7.46328 17.7111 7.83212 18.0639L8.1388 18.3572H6.5809C6.05922 18.3572 5.63631 18.7617 5.63631 19.2607C5.63631 19.7597 6.05922 20.1643 6.5809 20.1643H8.1388L7.83212 20.4576C7.23528 21.0285 7.66623 22 8.50008 21.9999C8.74181 21.9999 8.98357 21.9117 9.16804 21.7353C11.3019 19.6943 11.1068 19.8853 11.1636 19.8157Z" fill="black"/>
<path d="M15.2172 0H1.78297C1.26129 0 0.838379 0.404519 0.838379 0.903521V19.2608C0.838379 19.7598 1.26129 20.1643 1.78297 20.1643H2.74254C3.26422 20.1643 3.68713 19.7598 3.68713 19.2608C3.68713 16.7223 5.84619 14.6571 8.50004 14.6571C11.1539 14.6571 13.313 16.7223 13.313 19.2608C13.313 19.7598 13.7359 20.1643 14.2575 20.1643H15.2172C15.7388 20.1643 16.1618 19.7598 16.1618 19.2608V0.903521C16.1618 0.404519 15.7388 0 15.2172 0ZM6.5809 3.67144H10.4193C10.941 3.67144 11.3639 4.07596 11.3639 4.57496C11.3639 5.07396 10.941 5.47848 10.4193 5.47848H6.5809C6.05922 5.47848 5.63631 5.07396 5.63631 4.57496C5.63631 4.07596 6.05922 3.67144 6.5809 3.67144ZM11.3788 9.14996H5.62134C5.09965 9.14996 4.67675 8.74544 4.67675 8.24644C4.67675 7.74744 5.09965 7.34292 5.62134 7.34292H11.3788C11.9005 7.34292 12.3234 7.74744 12.3234 8.24644C12.3234 8.74544 11.9005 9.14996 11.3788 9.14996Z" fill="black"/>
</svg>
