<svg width="71" height="55" viewBox="0 0 71 55" fill="none" xmlns="http://www.w3.org/2000/svg">
<path d="M53.5573 13.7615C52.5432 10.0443 50.2039 6.74428 46.9109 4.3855C43.6178 2.02673 39.5599 0.744415 35.3813 0.74219C31.2027 0.739965 27.1431 2.01795 23.8471 4.37322C20.5511 6.72849 18.2076 10.026 17.1888 13.7422C12.3831 14.1558 7.93578 16.2511 4.77071 19.593C1.60563 22.9348 -0.0339331 27.2663 0.192572 31.6877C0.419077 36.1091 2.49424 40.2806 5.98702 43.3357C9.4798 46.3907 14.1217 48.0945 18.9486 48.0931H25.9876C26.6099 48.0931 27.2067 47.8664 27.6468 47.4629C28.0868 47.0594 28.334 46.5121 28.334 45.9415C28.334 45.3708 28.0868 44.8235 27.6468 44.42C27.2067 44.0165 26.6099 43.7898 25.9876 43.7898H18.9486C17.0998 43.7948 15.2681 43.4657 13.558 42.8215C11.8479 42.1773 10.2929 41.2305 8.98181 40.0352C6.33395 37.6212 4.84028 34.3415 4.82939 30.9176C4.8185 27.4937 6.29128 24.2061 8.92374 21.778C11.5562 19.3499 15.1327 17.9801 18.8665 17.9702C19.4685 18.0117 20.0659 17.8467 20.5428 17.5072C21.0197 17.1677 21.3421 16.6778 21.4474 16.1327C21.9252 13.0602 23.5957 10.249 26.1522 8.21534C28.7086 6.18163 31.9793 5.06196 35.3637 5.06196C38.748 5.06196 42.0187 6.18163 44.5752 8.21534C47.1316 10.249 48.8021 13.0602 49.2799 16.1327C49.4026 16.6589 49.7207 17.1297 50.1799 17.4649C50.639 17.8 51.2108 17.9786 51.7975 17.9702C55.5313 17.9702 59.1121 19.3303 61.7523 21.7514C64.3924 24.1724 65.8757 27.4561 65.8757 30.88C65.8757 34.3039 64.3924 37.5876 61.7523 40.0086C59.1121 42.4297 55.5313 43.7898 51.7975 43.7898H44.7585C44.1362 43.7898 43.5394 44.0165 43.0993 44.42C42.6593 44.8235 42.4121 45.3708 42.4121 45.9415C42.4121 46.5121 42.6593 47.0594 43.0993 47.4629C43.5394 47.8664 44.1362 48.0931 44.7585 48.0931H51.7975C56.5891 48.0471 61.18 46.3225 64.6296 43.2726C68.0792 40.2226 70.1262 36.0784 70.3512 31.6891C70.5762 27.2998 68.9621 22.9978 65.8397 19.6646C62.7173 16.3314 58.323 14.2195 53.5573 13.7615Z" fill="#4F4F4F"/>
<path d="M45.4459 32.4012C45.8885 32.7931 46.4812 33.01 47.0964 33.0051C47.7116 33.0002 48.3001 32.7739 48.7351 32.375C49.1701 31.9761 49.4169 31.4364 49.4223 30.8722C49.4276 30.3081 49.1911 29.7646 48.7637 29.3588L37.0319 18.6006C36.5919 18.1972 35.9952 17.9706 35.3731 17.9706C34.7509 17.9706 34.1542 18.1972 33.7142 18.6006L21.9824 29.3588C21.555 29.7646 21.3185 30.3081 21.3239 30.8722C21.3292 31.4364 21.576 31.9761 22.011 32.375C22.446 32.7739 23.0345 33.0002 23.6497 33.0051C24.2649 33.01 24.8576 32.7931 25.3002 32.4012L33.0267 25.3158V52.3964C33.0267 52.967 33.2739 53.5143 33.7139 53.9178C34.154 54.3213 34.7508 54.548 35.3731 54.548C35.9953 54.548 36.5922 54.3213 37.0322 53.9178C37.4722 53.5143 37.7194 52.967 37.7194 52.3964V25.3158L45.4459 32.4012Z" fill="#4F4F4F"/>
</svg>
