<svg width="28" height="22" viewBox="0 0 28 22" fill="none" xmlns="http://www.w3.org/2000/svg">
<path d="M24.7174 0.5H3.84401C2.13239 0.5 0.741211 1.9385 0.741211 3.70833V18.2917C0.741211 20.0615 2.13239 21.5 3.84401 21.5H24.7174C26.429 21.5 27.8202 20.0615 27.8202 18.2917V3.70833C27.8202 1.9385 26.429 0.5 24.7174 0.5ZM9.2034 5.16667C10.7582 5.16667 12.0241 6.47566 12.0241 8.08333C12.0241 9.691 10.7582 11 9.2034 11C7.64861 11 6.38267 9.691 6.38267 8.08333C6.38267 6.47566 7.64861 5.16667 9.2034 5.16667ZM14.2807 15.9583C14.2807 16.4413 13.9016 16.8333 13.4345 16.8333H4.9723C4.50519 16.8333 4.12609 16.4413 4.12609 15.9583V15.375C4.12609 13.6052 5.51727 12.1667 7.22889 12.1667H11.1779C12.8895 12.1667 14.2807 13.6052 14.2807 15.375V15.9583ZM23.5891 16.8333H17.3835C16.9164 16.8333 16.5373 16.4413 16.5373 15.9583C16.5373 15.4753 16.9164 15.0833 17.3835 15.0833H23.5891C24.0562 15.0833 24.4353 15.4753 24.4353 15.9583C24.4353 16.4413 24.0562 16.8333 23.5891 16.8333ZM23.5891 12.1667H17.3835C16.9164 12.1667 16.5373 11.7747 16.5373 11.2917C16.5373 10.8087 16.9164 10.4167 17.3835 10.4167H23.5891C24.0562 10.4167 24.4353 10.8087 24.4353 11.2917C24.4353 11.7747 24.0562 12.1667 23.5891 12.1667ZM23.5891 7.5H17.3835C16.9164 7.5 16.5373 7.108 16.5373 6.625C16.5373 6.142 16.9164 5.75 17.3835 5.75H23.5891C24.0562 5.75 24.4353 6.142 24.4353 6.625C24.4353 7.108 24.0562 7.5 23.5891 7.5Z" fill="black"/>
</svg>
