<svg width="18" height="14" viewBox="0 0 18 14" fill="none" xmlns="http://www.w3.org/2000/svg">
<path d="M0.821777 7C1.53559 3.16 4.9429 0.25 9.03745 0.25C13.132 0.25 16.5386 3.16 17.2531 7C16.5393 10.84 13.132 13.75 9.03745 13.75C4.9429 13.75 1.53635 10.84 0.821777 7ZM9.03745 10.75C10.0444 10.75 11.0102 10.3549 11.7222 9.65165C12.4343 8.94839 12.8343 7.99456 12.8343 7C12.8343 6.00544 12.4343 5.05161 11.7222 4.34835C11.0102 3.64509 10.0444 3.25 9.03745 3.25C8.03046 3.25 7.06471 3.64509 6.35266 4.34835C5.64061 5.05161 5.24058 6.00544 5.24058 7C5.24058 7.99456 5.64061 8.94839 6.35266 9.65165C7.06471 10.3549 8.03046 10.75 9.03745 10.75ZM9.03745 9.25C8.43326 9.25 7.85381 9.01295 7.42658 8.59099C6.99934 8.16903 6.75933 7.59674 6.75933 7C6.75933 6.40326 6.99934 5.83097 7.42658 5.40901C7.85381 4.98705 8.43326 4.75 9.03745 4.75C9.64165 4.75 10.2211 4.98705 10.6483 5.40901C11.0756 5.83097 11.3156 6.40326 11.3156 7C11.3156 7.59674 11.0756 8.16903 10.6483 8.59099C10.2211 9.01295 9.64165 9.25 9.03745 9.25Z" fill="white"/>
</svg>
