<svg width="39" height="38" viewBox="0 0 39 38" fill="none" xmlns="http://www.w3.org/2000/svg">
<path d="M38.1453 12.8873L20.1102 0.220664C19.6933 -0.0722526 19.1338 -0.0722526 18.717 0.220664L0.68188 12.8873C0.364462 13.109 0.175293 13.47 0.175293 13.8548V19.3964C0.175293 19.8413 0.426984 20.2483 0.826162 20.4525C1.22694 20.6552 1.70628 20.6219 2.07339 20.3654L3.38154 19.4455V36.4173C3.38154 37.2913 4.09974 38.0006 4.98467 38.0006H8.19092V19.0006H30.6347V38.0006H33.8409C34.7258 38.0006 35.444 37.2913 35.444 36.4173V19.4455L36.7506 20.3638C36.959 20.5095 37.2027 20.5839 37.4479 20.5839C37.6371 20.5839 37.8247 20.5396 37.9994 20.4525C38.3986 20.2483 38.6503 19.8413 38.6503 19.3964V13.8548C38.6503 13.47 38.4611 13.109 38.1453 12.8873Z" fill="white"/>
<path d="M10.5956 34.0422H28.23V38.0005H10.5956V34.0422Z" fill="white"/>
<path d="M10.5956 27.7089H28.23V31.6672H10.5956V27.7089Z" fill="white"/>
<path d="M10.5956 21.3755H28.23V25.3339H10.5956V21.3755Z" fill="white"/>
</svg>
